<?xml version="1.0" encoding="utf-8"?>
<!-- Generator: Adobe Illustrator 21.0.2, SVG Export Plug-In . SVG Version: 6.00 Build 0)  -->
<svg version="1.1" id="Layer_1" xmlns="http://www.w3.org/2000/svg" xmlns:xlink="http://www.w3.org/1999/xlink" x="0px" y="0px"
	 viewBox="0 0 83.4 89.2" style="enable-background:new 0 0 83.4 89.2;" xml:space="preserve">
<style type="text/css">
	.st0{fill:#F8991D;}
	.st1{fill:#F6B41B;}
	.st2{fill:none;stroke:#F6B41B;stroke-width:2;stroke-miterlimit:10;}
	.st3{fill:#00ACCD;}
	.st4{fill:none;stroke:#F8991D;stroke-miterlimit:10;}
</style>
<g>
	<g id="XMLID_103_">
		<g>
			
				<rect x="-0.3" y="37.4" transform="matrix(0.6985 -0.7156 0.7156 0.6985 -22.9903 20.5811)" class="st0" width="26.5" height="0.3"/>
		</g>
	</g>
	<polygon class="st1" points="3.8,47.5 3.3,47 3.4,46.8 22.1,27.7 22.6,28.2 	"/>
</g>
<g>
	<g id="XMLID_102_">
		<g>
			<path class="st0" d="M60.8,5.6l0,0.1c0,0,0,0-0.1,0c-0.1,0-0.1,0-0.2,0c0,0,0,0,0,0l0-0.1C60.6,5.6,60.7,5.6,60.8,5.6
				C60.8,5.6,60.8,5.6,60.8,5.6z"/>
		</g>
	</g>
	<path class="st1" d="M60.7,5.9c-0.1,0-0.1,0-0.2,0l-0.2,0l0-0.6l0.2,0c0.1,0,0.1,0,0.2,0c0,0,0,0,0,0l0.3,0l0,0.6L60.7,5.9
		C60.8,5.9,60.8,5.9,60.7,5.9z M60.5,5.9C60.5,5.9,60.5,5.9,60.5,5.9L60.5,5.9z"/>
</g>
<g>
	<g id="XMLID_101_">
		<g>
			<path class="st0" d="M60.8,5.7l0,0.1c0,0,0,0-0.1,0c-0.1,0-0.2,0-0.2,0l0-0.1c0,0,0,0,0,0C60.6,5.7,60.7,5.7,60.8,5.7
				C60.8,5.7,60.8,5.7,60.8,5.7z"/>
		</g>
	</g>
	<path class="st1" d="M60.7,6.1c-0.1,0-0.2,0-0.3,0l-0.2,0l0-0.6l0.3,0c0.1,0,0.1,0,0.2,0c0,0,0,0,0,0l0.3,0L61,6L60.7,6.1
		C60.8,6.1,60.8,6.1,60.7,6.1z M60.5,5.9C60.5,5.9,60.5,5.9,60.5,5.9L60.5,5.9z M60.6,5.5L60.6,5.5C60.6,5.5,60.6,5.5,60.6,5.5z"/>
</g>
<g>
	<g id="XMLID_100_">
		<g>
			<path class="st0" d="M60.8,5.9l-0.2,6.2l0,0.3l-0.1,3.1l0,0.3l-0.2,5.7l0,0.3l-0.4,10.8c-0.1,0-0.1,0-0.2,0c0,0-0.1,0-0.1,0
				L60,21.8l0-0.3l0.2-5.8l0-0.3l0.1-3.1l0-0.3l0.2-6.2C60.6,5.9,60.7,5.9,60.8,5.9C60.8,5.9,60.8,5.9,60.8,5.9z"/>
		</g>
	</g>
	<path class="st1" d="M59.4,32.9l0.9-27.3l0.2,0c0.1,0,0.1,0,0.2,0c0,0,0,0,0,0l0.3,0l0,0.3l-0.9,27l-0.2,0c-0.1,0-0.1,0-0.2,0
		c0,0,0,0,0,0L59.4,32.9z"/>
</g>
<g>
	<g id="XMLID_99_">
		<g>
			<path class="st0" d="M60.8,4.3l0,1.3c0,0,0,0-0.1,0c-0.1,0-0.1,0-0.2,0v0l0-1.3L60.8,4.3z"/>
		</g>
	</g>
	<path class="st1" d="M60.7,5.8c-0.1,0-0.2,0-0.2,0l-0.2,0V5.6l0-1.5l0.7,0L61,5.8l-0.2,0C60.8,5.8,60.8,5.8,60.7,5.8z"/>
</g>
<g>
	<g id="XMLID_47_">
		<g>
			<path class="st0" d="M30.7,36.8l0.1-0.1L30.7,36.8c-0.3-0.3-6.6-6.2-9-8.4l0.2-0.2c0,0,2.2,2.1,4.5,4.2c3.2,3,4.2,3.9,4.4,4.2
				l0,0l0,0c0.1,0.1,0.1,0.2,0.1,0.2L30.7,36.8z"/>
		</g>
	</g>
	<path class="st1" d="M30.3,37.1l0.1-0.3c-0.5-0.6-5.7-5.3-8.9-8.3l-0.2-0.1l0.5-0.5l0.2,0.1c0,0,2.2,2.1,4.5,4.2
		c2.9,2.8,4,3.7,4.4,4.1l0.4-0.3l-0.2,0.5c0.1,0.1,0.1,0.2,0,0.3l0,0.1L30.3,37.1z"/>
</g>
<g>
	<g id="XMLID_98_">
		<g>
			<path class="st0" d="M76.9,20c0.1,0.1,0.1,0.1,0.2,0.2L61.6,33.7c0-0.1-0.1-0.2-0.2-0.2L76.9,20z"/>
		</g>
	</g>
	<path class="st1" d="M61.5,34.1l-0.1-0.2c0-0.1-0.1-0.1-0.1-0.2l-0.1-0.2l15.8-13.8l0.1,0.2c0.1,0.1,0.1,0.1,0.2,0.2l0.2,0.2
		L61.5,34.1z"/>
</g>
<g>
	<g id="XMLID_97_">
		<g>
			
				<rect x="70.4" y="46.2" transform="matrix(0.5788 -0.8155 0.8155 0.5788 -17.9414 82.1439)" class="st0" width="0.3" height="24.5"/>
		</g>
	</g>
	<rect x="70.2" y="46" transform="matrix(0.5788 -0.8155 0.8155 0.5788 -17.9414 82.1439)" class="st1" width="0.7" height="24.9"/>
</g>
<g>
	<g id="XMLID_96_">
		<g>
			
				<rect x="34.9" y="54.2" transform="matrix(0.7115 -0.7027 0.7027 0.7115 -41.1636 45.7049)" class="st0" width="0.3" height="37.7"/>
		</g>
	</g>
	<polygon class="st1" points="48.2,86.8 48.1,86.6 21.4,59.7 22,59.2 22.1,59.3 48.7,86.3 	"/>
</g>
<g>
	<g id="XMLID_95_">
		<g>
			
				<rect x="45.5" y="76.2" transform="matrix(0.8457 -0.5336 0.5336 0.8457 -30.799 46.1501)" class="st0" width="37.9" height="0.3"/>
		</g>
	</g>
	<rect x="45.2" y="76" transform="matrix(0.8457 -0.5337 0.5337 0.8457 -30.8025 46.161)" class="st1" width="38.3" height="0.7"/>
</g>
<g>
	<g id="XMLID_35_">
		<g>
			
				<rect x="12.6" y="43.3" transform="matrix(0.5238 -0.8518 0.8518 0.5238 -39.9182 36.5734)" class="st0" width="0.3" height="21.4"/>
		</g>
	</g>
	
		<rect x="12.4" y="43.1" transform="matrix(0.5238 -0.8518 0.8518 0.5238 -39.9181 36.5732)" class="st1" width="0.7" height="21.8"/>
</g>
<g>
	<g id="XMLID_94_">
		<g>
			<path class="st0" d="M59.1,4.9L59,4.9c-0.1-0.1-0.1-0.2-0.2-0.2L59,4.6c0,0,0,0,0,0C59,4.7,59.1,4.8,59.1,4.9z"/>
		</g>
	</g>
	<path class="st1" d="M58.9,5.2l-0.1-0.2c-0.1-0.1-0.1-0.2-0.2-0.3l-0.1-0.2L59,4.3l0.1,0.2c0,0.1,0.1,0.1,0.1,0.2l0.1,0.2L58.9,5.2
		z M58.8,4.7C58.8,4.7,58.8,4.7,58.8,4.7L58.8,4.7z M59.2,4.6L59.2,4.6C59.2,4.6,59.2,4.6,59.2,4.6z"/>
</g>
<g>
	<g id="XMLID_93_">
		<g>
			<path class="st0" d="M58.8,4.7c0,0.1,0.1,0.2,0.2,0.2L52,9.3l-0.3,0.2h0L46,13.1l-0.4,0.2h0l-3.8,2.4l-0.2,0.2L29,23.8L28.7,24
				L23.8,27l-0.1,0.1l-0.1,0.1l-1.1,0.7l0,0l0,0L22.2,28l0,0v0l-0.1,0.1l0,0l0,0l0,0l-0.1-0.2l0.1-0.1l0.1-0.1l0.2-0.1l0.3-0.2
				l0.8-0.5l0.1-0.1l0.1-0.1l5.1-3.2l0.3-0.2l12.3-7.7l0.2-0.2l3.5-2.2l0.4-0.2h0l5.8-3.6l0.3-0.2L58.8,4.7z"/>
		</g>
	</g>
	<path class="st1" d="M22,28.4l-0.2-0.3l-0.2-0.3l7.3-4.6l30-18.8L59,4.6c0,0.1,0.1,0.1,0.1,0.2L59.3,5L22,28.4z"/>
</g>
<g>
	<g id="XMLID_92_">
		<g>
			<path class="st0" d="M34.1,3.5c0,0.1-0.1,0.2-0.1,0.3l-0.1,0c0.1-0.1,0.1-0.2,0.1-0.3c0,0,0,0,0,0L34.1,3.5z"/>
		</g>
	</g>
	<path class="st1" d="M34.1,4l-0.6-0.2l0.2-0.2c0-0.1,0.1-0.1,0.1-0.2l0-0.3l0.6,0.2l-0.1,0.2c0,0.1-0.1,0.2-0.1,0.3L34.1,4z"/>
</g>
<g>
	<g id="XMLID_91_">
		<g>
			<path class="st0" d="M76.7,17.4c-0.1,0.1-0.1,0.2-0.1,0.3l-16-5.2l-0.3-0.1l-2.8-0.9l-0.3-0.1l-5.5-1.8h0l-0.4-0.1L34,3.7
				c0.1-0.1,0.1-0.2,0.1-0.3l17.6,5.7L52,9.3l5.3,1.7l0.3,0.1l2.7,0.9l0.3,0.1L76.7,17.4z"/>
		</g>
	</g>
	<path class="st1" d="M76.7,17.9l-43-14.1l0.1-0.2c0-0.1,0.1-0.1,0.1-0.2L34,3.2l43.1,14.1l-0.2,0.2c-0.1,0.1-0.1,0.1-0.1,0.2
		L76.7,17.9z"/>
</g>
<g>
	<g id="XMLID_90_">
		<g>
			
				<rect x="20.5" y="8.9" transform="matrix(0.9919 -0.1271 0.1271 0.9919 -2.1948 2.7724)" class="st0" width="0.3" height="19.3"/>
		</g>
	</g>
	<rect x="20.3" y="8.7" transform="matrix(0.9919 -0.1271 0.1271 0.9919 -2.1948 2.7724)" class="st1" width="0.7" height="19.8"/>
</g>
<g>
	<g id="XMLID_89_">
		<g>
			
				<rect x="51.4" y="33.2" transform="matrix(0.1118 -0.9937 0.9937 0.1118 -16.864 107.2095)" class="st0" width="0.3" height="59.8"/>
		</g>
	</g>
	<polygon class="st1" points="81.4,66.8 81.2,66.7 21.6,60 21.7,59.3 21.9,59.3 81.5,66 	"/>
</g>
<g>
	<g id="XMLID_86_">
		<g>
			
				<rect x="36.6" y="69.2" transform="matrix(0.3449 -0.9386 0.9386 0.3449 -28.9928 97.0578)" class="st0" width="36.9" height="0.3"/>
		</g>
	</g>
	
		<rect x="36.4" y="68.9" transform="matrix(0.3447 -0.9387 0.9387 0.3447 -28.988 97.0723)" class="st1" width="37.3" height="0.7"/>
</g>
<g>
	<g id="XMLID_85_">
		<g>
			<path class="st0" d="M76.4,18.7c0,0.1,0,0.2,0,0.3l-16.2,2.7l-0.3,0L53,23L52.7,23l-4.9,0.8l-0.3,0.1l-19,3.2l-0.3,0.1l-4.1,0.7
				l-0.1,0l-0.1,0l-1.5,0.3l0,0l-0.1,0l0-0.1l0,0v0l0-0.1l0.2,0l0,0l0,0l1.3-0.2l0.1,0l0.1,0l4.2-0.7l0.3-0.1l18.8-3.2l0.3-0.1
				l5.2-0.9l0.3-0.1l6.8-1.2l0.3-0.1L76.4,18.7z"/>
		</g>
	</g>
	<path class="st1" d="M22,28.5l-0.1-0.7l6.6-1.1l31.5-5.3l0.3-0.1l16.3-2.8l0,0.2c0,0.1,0,0.2,0,0.3l0,0.2L22,28.5z"/>
</g>
<g>
	<g id="XMLID_84_">
		<g>
			<rect x="10.2" y="68.2" transform="matrix(0.33 -0.944 0.944 0.33 -51.773 63.6764)" class="st0" width="17.4" height="0.3"/>
		</g>
	</g>
	<rect x="10" y="67.9" transform="matrix(0.3301 -0.944 0.944 0.3301 -51.7725 63.668)" class="st1" width="17.9" height="0.7"/>
</g>
<g>
	<g id="XMLID_83_">
		<g>
			<path class="st0" d="M31.3,4.5l-0.1,0.1c-0.1,0-0.2-0.1-0.3-0.1l0.1-0.1C31.1,4.4,31.2,4.4,31.3,4.5C31.3,4.5,31.3,4.5,31.3,4.5z
				"/>
		</g>
	</g>
	<path class="st1" d="M31.4,4.9l-0.2-0.1c-0.1,0-0.2-0.1-0.3-0.2l-0.1-0.1L30.9,4l0.2,0.2c0.1,0,0.1,0.1,0.2,0.1l0.2,0.1L31.4,4.9z"
		/>
</g>
<g>
	<g id="XMLID_82_">
		<g>
			<path class="st0" d="M31,4.5c0.1,0.1,0.2,0.1,0.3,0.1l-2.2,5.7h0L29,10.6l-6,15.7l0,0.1l-0.1,0.1l-0.4,0.9l-0.2,0.4l0,0h0l0,0.1
				l0,0.1l0,0.1l0,0.1l0,0.1l0,0.1l0,0.1l-0.1,0l-0.2-0.1l0.1-0.2l0,0l0-0.1l0-0.1l0.1-0.2l0.1-0.3l0.4-1l0.1-0.1l0.1-0.1l6-15.6
				l0.1-0.3L31,4.5z"/>
		</g>
	</g>
	<path class="st1" d="M22.3,28.7l-0.7-0.3l0.9-2.4l8.4-21.9l0.2,0.2c0.1,0,0.1,0.1,0.2,0.1l0.2,0.1L22.3,28.7z"/>
</g>
<g>
	<g id="XMLID_81_">
		<g>
			<path class="st0" d="M60.5,15.5l16,2.6c0,0.1,0,0.2-0.1,0.3l-15.9-2.6l-0.3,0L56.1,15l-0.3,0l-10.2-1.7l-0.4-0.1l-5.9-1l-0.4-0.1
				v0L31.1,11l-0.3,0L29,10.6l-0.3,0L25.4,10L25,10l-3.9-0.6l-0.1,0l-0.1,0l-1.4-0.2l-0.3,0l0,0l0,0l-0.1,0l0-0.1v0l0-0.1L20.9,9
				L21,9l0.1,0l4.1,0.7l0.4,0.1l3.2,0.5l0.3,0l1.8,0.3l0.3,0l7.5,1.2l0.4,0.1l6.5,1.1l0.4,0.1l9.9,1.6l0.3,0l4,0.6L60.5,15.5z"/>
		</g>
	</g>
	<path class="st1" d="M76.6,18.6L18.7,9.2l0.1-0.7l57.9,9.4l-0.1,0.2c0,0.1,0,0.2,0,0.2L76.6,18.6z"/>
</g>
<g>
	<g id="XMLID_80_">
		<g>
			<path class="st0" d="M33.4,4.4c-0.1,0.1-0.2,0.1-0.2,0.2c0,0-0.1-0.1-0.1-0.1c0,0,0.1,0,0.1,0c0,0,0.1,0,0.1-0.1c0,0,0,0,0,0
				c0,0,0,0,0,0C33.4,4.3,33.4,4.3,33.4,4.4z"/>
		</g>
	</g>
	<path class="st1" d="M33.1,4.8L33,4.6c0,0-0.1-0.1-0.1-0.1l-0.2-0.2L33,4.2c0,0,0,0,0.1,0c0,0,0,0,0.1,0l0,0l0.1,0l0.2-0.2l0.2,0.3
		c0,0,0,0,0,0.1l0.1,0.2l-0.2,0.1c-0.1,0.1-0.2,0.1-0.3,0.2L33.1,4.8z"/>
</g>
<g>
	<g id="XMLID_79_">
		<g>
			<path class="st0" d="M50.3,26.2c-0.1,0.1-0.2,0.1-0.2,0.2c-0.5-0.7-1.2-1.6-2-2.7c-0.1-0.1-0.1-0.2-0.2-0.3
				c-1.6-2.2-3.7-4.9-5.9-7.7l-0.2-0.2c-0.9-1.1-1.7-2.2-2.6-3.4c0,0,0,0,0,0c-0.1-0.1-0.2-0.2-0.3-0.3c-2-2.6-3.9-5.1-5.6-7.3
				c0.1,0,0.2-0.1,0.3-0.2c1.3,1.7,3.4,4.5,5.8,7.6c0.1,0.1,0.2,0.2,0.3,0.3c0.8,1,1.5,2,2.3,3c0,0,0.1,0.1,0.1,0.1
				c0.1,0.1,0.1,0.2,0.2,0.2c2.2,2.8,4.3,5.6,6,7.8c0.1,0.1,0.1,0.2,0.2,0.3c0.1,0.1,0.1,0.2,0.2,0.2C49.3,24.9,49.9,25.6,50.3,26.2
				z"/>
		</g>
	</g>
	<path class="st1" d="M50,26.7l-0.1-0.2c-0.5-0.7-1.2-1.6-2-2.7c-0.1-0.1-0.1-0.2-0.2-0.3c-1.6-2.2-3.7-4.9-5.9-7.7l-0.7-0.9
		c-0.7-0.9-1.4-1.8-2.1-2.7L39,12.2l0,0c-0.1-0.1-0.1-0.2-0.2-0.3c-2-2.6-3.9-5.1-5.6-7.3L33,4.3l0.2-0.1c0.1,0,0.2-0.1,0.2-0.1
		L33.6,4l1.7,2.2c1.2,1.6,2.7,3.5,4.2,5.5l0.1,0.1c0.1,0.1,0.1,0.1,0.2,0.2c0.5,0.6,1,1.3,1.5,2l1.1,1.4c2.2,2.8,4.3,5.6,6,7.8
		l0.1,0.1c0,0.1,0.1,0.1,0.1,0.2c0,0,0.1,0.1,0.1,0.1l0.1,0.1c0.6,0.8,1.1,1.4,1.5,1.9l0.4,0.5l-0.2,0.1c-0.1,0-0.1,0.1-0.2,0.2
		L50,26.7z"/>
</g>
<g>
	<g id="XMLID_78_">
		<g>
			<path class="st0" d="M15.8,75.8l0.1-0.1l0,0l-0.1,0c0.2-0.8,2.1-44.1,3-66.8l0.3,0c0,0.2-0.7,16.9-1.4,33.4
				c-1.5,33.5-1.6,33.5-1.7,33.6L15.8,75.8z"/>
		</g>
	</g>
	<path class="st1" d="M15.5,76.1l0.1-0.2l-0.1,0l0-0.2c0.2-0.9,1.9-40.4,3-66.8l0-0.2l0.7,0l0,0.4c-0.2,4.1-0.8,18.8-1.4,33.2
		c-0.7,15.3-1.1,24.6-1.4,29.3c-0.2,4.3-0.3,4.3-0.4,4.4l0,0L15.5,76.1z"/>
</g>
<g>
	<g id="XMLID_77_">
		<g>
			<path class="st0" d="M2.4,47.7l-0.3-0.1c5.7-13.1,16.6-38,16.7-38.7l0.1,0L19,8.7c0.2,0.1,0.2,0.1-2.5,6.3
				c-1.4,3.2-3.3,7.7-5.8,13.3C6.7,37.9,2.4,47.6,2.4,47.7z"/>
		</g>
	</g>
	<path class="st1" d="M2.5,48l-0.7-0.3l0.1-0.2C8.5,32.4,18.4,9.6,18.6,8.8l0-0.2l0.2,0l0.1-0.2l0.2,0.1c0.4,0.2,0.4,0.2-2.3,6.6
		c-1.4,3.2-3.3,7.7-5.8,13.3C7,37.8,2.8,47.4,2.6,47.8L2.5,48z"/>
</g>
<g>
	<g id="XMLID_72_">
		<g>
			<path class="st0" d="M15.9,76.9l0.1-0.1l-0.1,0c-0.1-0.7-8.1-30-12.3-45.4l0.3-0.1c0,0.1,3.1,11.5,6.2,22.7
				c1.8,6.6,3.2,11.8,4.2,15.6c1.9,7.2,1.9,7.2,1.8,7.3L15.9,76.9z"/>
		</g>
	</g>
	<path class="st1" d="M15.5,77.1l0.1-0.2l0-0.2C15.5,76,8.2,49.2,3.3,31.4l-0.1-0.2L4,31l0.1,0.3c0.8,2.8,3.5,12.7,6.2,22.6
		c1.8,6.6,3.2,11.8,4.2,15.6c1.3,4.7,1.7,6.4,1.8,7l0,0l0,0.1c0,0.3,0,0.4-0.1,0.4l0,0L15.5,77.1z"/>
</g>
<g>
	<g id="XMLID_65_">
		<g>
			<path class="st0" d="M48.7,86.8l0.1-0.1l-0.1,0c-0.1-0.6-7.6-19-11.5-28.6l0.3-0.1c0,0.1,2.9,7.2,5.8,14.3
				C49,86.6,49,86.7,48.9,86.8L48.7,86.8z"/>
		</g>
	</g>
	<path class="st1" d="M48.3,87.1l0.1-0.2l0-0.1c-0.1-0.6-7-17.4-11.5-28.6L36.8,58l0.7-0.3l0.1,0.2c0,0.1,2.9,7.2,5.8,14.3
		c4.2,10.3,5.4,13.3,5.7,14.3l0.1,0l-0.1,0.1c0.1,0.3,0,0.3-0.1,0.4l0,0L48.3,87.1z"/>
</g>
<g id="XMLID_229_">
	<g>
		<path class="st0" d="M30,36.9"/>
	</g>
	<g>
		<path class="st2" d="M30,36.9"/>
	</g>
</g>
<g id="XMLID_223_">
	<g>
		<path class="st0" d="M22.8,59.1"/>
	</g>
	<g>
		<path class="st2" d="M22.8,59.1"/>
	</g>
</g>
<g>
	<g id="XMLID_55_">
		<g>
			
				<rect x="15.7" y="71.5" transform="matrix(0.9871 -0.1603 0.1603 0.9871 -10.8647 8.6706)" class="st0" width="65.3" height="0.3"/>
		</g>
	</g>
	<polygon class="st1" points="15.9,77.3 15.8,76.6 80.7,66.1 80.8,66.8 80.6,66.8 	"/>
</g>
<g>
	<g id="XMLID_54_">
		<g>
			<rect x="32.2" y="65.4" transform="matrix(0.278 -0.9606 0.9606 0.278 -55.3282 90.2801)" class="st0" width="0.3" height="33"/>
		</g>
	</g>
	<polygon class="st1" points="48.3,86.9 48.1,86.9 16.2,77.6 16.4,76.9 16.6,77 48.6,86.2 	"/>
</g>
<g>
	<g id="XMLID_76_">
		<g>
			
				<rect x="12.7" y="28.7" transform="matrix(0.8475 -0.5307 0.5307 0.8475 -22.2814 13.7694)" class="st0" width="0.3" height="34"/>
		</g>
	</g>
	
		<rect x="12.5" y="28.5" transform="matrix(0.8475 -0.5307 0.5307 0.8475 -22.2815 13.7694)" class="st1" width="0.7" height="34.4"/>
</g>
<g>
	<g id="XMLID_75_">
		<g>
			<path class="st0" d="M30.9,4.3l-0.1,0.1c-0.1-0.1-0.2-0.1-0.2-0.2l0.1-0.1C30.8,4.1,30.8,4.2,30.9,4.3
				C30.9,4.2,30.9,4.2,30.9,4.3z"/>
		</g>
	</g>
	<path class="st1" d="M30.9,4.6l-0.2-0.1c-0.1-0.1-0.2-0.1-0.2-0.2l-0.1-0.1l0.4-0.4l0.2,0.2C30.9,4,31,4,31,4l0,0c0,0,0,0,0,0
		l0.2,0.2L30.9,4.6z"/>
</g>
<g>
	<g id="XMLID_53_">
		<g>
			<path class="st0" d="M30.6,4.2c0.1,0.1,0.1,0.1,0.2,0.2l-5.2,5.4L25.4,10l-5,5.2l-0.3,0.3l-1.3,1.4l-0.3,0.3l-5.1,5.3v0l-0.6,0.6
				l-7,7.3l-0.1,0.1l-0.1,0.1l-0.7,0.7l-0.1,0.1l-0.2-0.2l0,0l0.9-0.9l0.1-0.1l0.1-0.1l7.5-7.8l0.6-0.6l4.8-5l0.3-0.3l1.3-1.3
				l0.3-0.3L25,10l0.2-0.3h0L30.6,4.2z"/>
		</g>
	</g>
	<path class="st1" d="M4.7,31.8l-0.5-0.5l0.2-0.2L30.6,3.9L30.8,4c0.1,0.1,0.1,0.1,0.2,0.2l0.2,0.1L4.7,31.8z"/>
</g>
<g>
	<g id="XMLID_52_">
		<g>
			<polygon class="st0" points="49.7,87.1 49.6,86.9 71.6,76.8 71.8,77 			"/>
		</g>
	</g>
	<polygon class="st1" points="49.6,87.4 49.3,86.8 71.8,76.5 72,77.1 	"/>
</g>
<g>
	<g id="XMLID_51_">
		<g>
			
				<rect x="69.9" y="71.4" transform="matrix(0.6382 -0.7699 0.7699 0.6382 -27.4397 84.7825)" class="st0" width="13.1" height="0.3"/>
		</g>
	</g>
	
		<rect x="69.7" y="71.2" transform="matrix(0.6383 -0.7698 0.7698 0.6383 -27.4426 84.7603)" class="st1" width="13.5" height="0.7"/>
</g>
<g>
	<g id="XMLID_74_">
		<g>
			<rect x="8.6" y="47" transform="matrix(0.9103 -0.4139 0.4139 0.9103 -24.7948 9.174)" class="st0" width="0.3" height="29.6"/>
		</g>
	</g>
	<rect x="8.4" y="46.8" transform="matrix(0.9103 -0.4139 0.4139 0.9103 -24.7949 9.1741)" class="st1" width="0.7" height="30"/>
</g>
<g>
	<g id="XMLID_50_">
		<g>
			<path class="st0" d="M78.3,17.6l-0.2,0.2l0,0l0,0h0l0,0l-0.8-0.6l-0.1-0.1L77.1,17L62.2,5.2c0.1-0.1,0.1-0.1,0.2-0.2l14.9,11.8
				l0.2,0.2L78.3,17.6z"/>
		</g>
	</g>
	<path class="st1" d="M78.1,18.1L77.9,18l-1-0.8l-15-11.9l0.2-0.2C62.1,5,62.2,5,62.3,4.9l0.1-0.2l16.2,12.8L78.2,18L78.1,18.1z"/>
</g>
<g>
	<g id="XMLID_73_">
		<g>
			<path class="st0" d="M58.9,3.7c0,0,0,0.1,0,0.1l-0.1,0v0c0,0,0-0.1,0-0.1c0-0.1,0-0.1,0-0.2l0.1,0C58.9,3.6,58.9,3.7,58.9,3.7z"
				/>
		</g>
	</g>
	<path class="st1" d="M59.1,4.1l-0.6,0V3.8c0,0,0-0.1,0-0.1c0-0.1,0-0.1,0-0.2l0-0.2l0.6,0l0,0.2c0,0,0,0.1,0,0.1c0,0,0,0.1,0,0.1
		L59.1,4.1z"/>
</g>
<g>
	<g id="XMLID_71_">
		<g>
			<path class="st0" d="M58.7,3.7c0,0,0,0.1,0,0.1v0l-0.1,0c0,0,0-0.1,0-0.1c0-0.1,0-0.1,0-0.2l0.1,0C58.7,3.6,58.7,3.7,58.7,3.7z"
				/>
		</g>
	</g>
	<path class="st1" d="M58.7,4.1l-0.3,0l0-0.2c0,0,0-0.1,0-0.1c0-0.1,0-0.1,0-0.2l0-0.2l0.6,0l0,0.2c0,0,0,0.1,0,0.1c0,0,0,0,0,0.1
		l0,0v0.2L58.7,4.1z"/>
</g>
<g>
	<g id="XMLID_70_">
		<g>
			<path class="st0" d="M34.3,2.7c0,0.1,0,0.2,0,0.2l-0.1,0c0,0,0,0,0,0c0-0.1,0-0.1,0-0.2c0,0,0,0,0-0.1L34.3,2.7
				C34.3,2.6,34.3,2.6,34.3,2.7z"/>
		</g>
	</g>
	<path class="st1" d="M34.4,3.1l-0.5,0l0-0.2c0-0.1,0-0.1,0-0.2c0,0,0,0,0,0l0-0.3l0.6,0l0,0.2c0,0,0,0.1,0,0.1c0,0.1,0,0.2,0,0.3
		L34.4,3.1z"/>
</g>
<g>
	<g id="XMLID_49_">
		<g>
			<path class="st0" d="M58.6,3.7c0,0,0,0.1,0,0.1L34.3,2.9c0-0.1,0-0.2,0-0.2c0,0,0,0,0-0.1l24.3,0.9C58.6,3.6,58.6,3.7,58.6,3.7z"
				/>
		</g>
	</g>
	<path class="st1" d="M58.9,4.1L34,3.1l0-0.2c0-0.1,0-0.1,0-0.2c0,0,0,0,0,0l0-0.3l24.8,0.9l0,0.2c0,0.1,0,0.1,0,0.2
		c0,0,0,0.1,0,0.1L58.9,4.1z"/>
</g>
<g>
	<g id="XMLID_48_">
		<g>
			
				<rect x="66.5" y="50.8" transform="matrix(0.9128 -0.4083 0.4083 0.9128 -20.3674 32.7878)" class="st0" width="0.3" height="26.7"/>
		</g>
	</g>
	
		<rect x="66.3" y="50.5" transform="matrix(0.9128 -0.4083 0.4083 0.9128 -20.3675 32.788)" class="st1" width="0.7" height="27.1"/>
</g>
<g>
	<g id="XMLID_69_">
		<g>
			
				<rect x="47.3" y="42.2" transform="matrix(0.2967 -0.955 0.955 0.2967 -31.6137 93.1238)" class="st0" width="0.3" height="51.6"/>
		</g>
	</g>
	<polygon class="st1" points="72.2,76.1 72,76 22.5,60.6 22.7,60 72.4,75.4 	"/>
</g>
<g>
	<g id="XMLID_67_">
		<g>
			
				<rect x="12.7" y="67.3" transform="matrix(0.7579 -0.6524 0.6524 0.7579 -37.5392 33.7884)" class="st0" width="28.2" height="0.3"/>
		</g>
	</g>
	
		<rect x="12.5" y="67.1" transform="matrix(0.7578 -0.6524 0.6524 0.7578 -37.5414 33.7926)" class="st1" width="28.6" height="0.7"/>
</g>
<g>
	<g id="XMLID_66_">
		<g>
			<path class="st0" d="M59.8,5.3l-0.1,0.1c-0.1,0-0.1-0.1-0.2-0.1c0,0,0,0-0.1,0l0.1-0.1C59.7,5.2,59.7,5.3,59.8,5.3z"/>
		</g>
	</g>
	<path class="st1" d="M59.9,5.8l-0.2-0.1c-0.1,0-0.2-0.1-0.2-0.1c0,0-0.1,0-0.1-0.1l-0.1-0.1l0.2-0.6L59.7,5c0.1,0,0.1,0.1,0.2,0.1
		l0.2,0.1L59.9,5.8z"/>
</g>
<g>
	<g id="XMLID_64_">
		<g>
			<path class="st0" d="M59.8,5.5l-0.1,0.1c-0.1,0-0.2-0.1-0.3-0.2l0.1-0.1c0,0,0,0,0.1,0C59.6,5.4,59.7,5.4,59.8,5.5z"/>
		</g>
	</g>
	<path class="st1" d="M59.8,5.9l-0.2-0.1c-0.1,0-0.2-0.1-0.3-0.2l-0.1-0.1l0.2-0.6l0.2,0.2c0,0,0,0,0,0c0.1,0,0.1,0.1,0.2,0.1
		L60,5.4L59.8,5.9z"/>
</g>
<g>
	<g id="XMLID_61_">
		<g>
			<path class="st0" d="M59.7,5.6l-2.1,5.5l-0.1,0.3l-1.3,3.4L56.1,15l-2.9,7.6L53,23l-1.2,3.2c-0.1,0-0.2-0.1-0.3-0.1l1.2-3
				l0.1-0.3l3-7.7l0.1-0.3l1.3-3.4l0.1-0.3l2.2-5.6C59.6,5.5,59.6,5.6,59.7,5.6z"/>
		</g>
	</g>
	<path class="st1" d="M51.9,26.5l-0.2-0.1c-0.1,0-0.2-0.1-0.2-0.1l-0.2-0.1l8.1-21.1l0.2,0.2c0.1,0.1,0.1,0.1,0.2,0.1L60,5.5
		L51.9,26.5z"/>
</g>
<g id="XMLID_46_">
	<g>
		<path class="st0" d="M21.3,27.5"/>
	</g>
	<g>
		<path class="st2" d="M21.3,27.5"/>
	</g>
</g>
<g id="XMLID_45_">
	<g>
		<path class="st0" d="M3.8,31.3"/>
	</g>
	<g>
		<path class="st2" d="M3.8,31.3"/>
	</g>
</g>
<g>
	<g id="XMLID_60_">
		<g>
			<path class="st0" d="M32.2,4.7l0,0.1c-0.1,0-0.2,0-0.3,0l0-0.1c0,0,0.1,0,0.1,0h0C32,4.7,32.1,4.7,32.2,4.7
				C32.1,4.7,32.1,4.7,32.2,4.7L32.2,4.7z"/>
		</g>
	</g>
	<path class="st1" d="M32.3,5h-0.2c-0.1,0-0.2,0-0.3,0l-0.2,0l0.1-0.6l0.2,0.1c0,0,0,0,0.1,0l0,0c0,0,0.1,0,0.1,0h0.3l0,0.3L32.3,5z
		"/>
</g>
<g>
	<g id="XMLID_59_">
		<g>
			<path class="st0" d="M31.8,4.7c0.1,0,0.2,0,0.3,0L31,10.6l-0.1,0.3l-2.4,12.3l-0.1,0.4l-0.6,3.1L27.8,27L26.6,33l-0.1,0.3
				l-0.5,2.3L26.1,36l-4.2,21.7l0,0.2l0,0.2l-0.1,0.5l-0.3-0.1l0.1-0.7l0-0.2l0-0.2l4.2-21.6l0.1-0.3l0.5-2.5l0.1-0.3l1.1-5.8
				l0.1-0.3l0.6-2.9l0.1-0.4l2.4-12.6l0.1-0.3L31.8,4.7z"/>
		</g>
	</g>
	<path class="st1" d="M21.8,58.9l-0.7-0.1l0.2-1.2L31.7,4.4l0.2,0c0.1,0,0.1,0,0.2,0l0.3,0L26.3,36L22,57.8L21.8,58.9z"/>
</g>
<g>
	<g id="XMLID_418_">
		<g>
			<polygon class="st0" points="5.2,32.3 5.1,32.1 21.9,28.1 22,28.4 			"/>
		</g>
	</g>
	<polygon class="st1" points="5.1,32.6 4.9,31.9 22.1,27.9 22.3,28.6 	"/>
</g>
<path id="XMLID_1_" class="st3" d="M60.5,53c-0.9,0-1.3-0.6-1.4-1.3c-2.6,4.3-7.2,7.7-12.7,7.7c-8.6,0-15.7-7-15.7-15.5
	c0-8.6,7-15.5,15.7-15.5c5,0,9.1,2.6,11.8,6.3c0-0.7,0.5-1.4,1.4-1.4c0.1,0,0.1,0,0.2,0c-0.4-0.5-0.7-0.9-1.1-1.4
	c-3.3-3.6-7.6-5.6-12.2-5.6c-9.8,0-17.7,7.9-17.7,17.6s7.9,17.6,17.7,17.6c6.4,0,11.5-3.7,14.4-8.4C60.7,53,60.6,53,60.5,53z"/>
<g id="XMLID_504_">
	<g>
		<circle class="st0" cx="48.5" cy="86.6" r="2.1"/>
	</g>
	<g>
		<circle class="st4" cx="48.5" cy="86.6" r="2.1"/>
	</g>
</g>
<g id="XMLID_505_">
	<g>
		<circle class="st0" cx="16.2" cy="76.7" r="2.1"/>
	</g>
	<g>
		<circle class="st4" cx="16.2" cy="76.7" r="2.1"/>
	</g>
</g>
<g id="XMLID_506_">
	<g>
		<circle class="st0" cx="72.1" cy="76.1" r="2.1"/>
	</g>
	<g>
		<circle class="st4" cx="72.1" cy="76.1" r="2.1"/>
	</g>
</g>
<g id="XMLID_507_">
	<g>
		<circle class="st0" cx="80.8" cy="66.4" r="2.1"/>
	</g>
	<g>
		<circle class="st4" cx="80.8" cy="66.4" r="2.1"/>
	</g>
</g>
<g id="XMLID_508_">
	<g>
		<circle class="st0" cx="21.9" cy="59.3" r="2.1"/>
	</g>
	<g>
		<circle class="st4" cx="21.9" cy="59.3" r="2.1"/>
	</g>
</g>
<g id="XMLID_509_">
	<g>
		<circle class="st0" cx="37.6" cy="57.9" r="2.1"/>
	</g>
	<g>
		<circle class="st4" cx="37.6" cy="57.9" r="2.1"/>
	</g>
</g>
<g id="XMLID_510_">
	<g>
		<circle class="st0" cx="60.5" cy="51.4" r="2.1"/>
	</g>
	<g>
		<circle class="st4" cx="60.5" cy="51.4" r="2.1"/>
	</g>
</g>
<g id="XMLID_511_">
	<g>
		<circle class="st0" cx="2.6" cy="48" r="2.1"/>
	</g>
	<g>
		<circle class="st4" cx="2.6" cy="48" r="2.1"/>
	</g>
</g>
<g id="XMLID_512_">
	<g>
		<circle class="st0" cx="31.3" cy="36.7" r="2.1"/>
	</g>
	<g>
		<circle class="st4" cx="31.3" cy="36.7" r="2.1"/>
	</g>
</g>
<g id="XMLID_513_">
	<g>
		<circle class="st0" cx="59.7" cy="34.7" r="2.1"/>
	</g>
	<g>
		<circle class="st4" cx="59.7" cy="34.7" r="2.1"/>
	</g>
</g>
<g id="XMLID_514_">
	<g>
		<circle class="st0" cx="3.9" cy="31.3" r="2.1"/>
	</g>
	<g>
		<circle class="st4" cx="3.9" cy="31.3" r="2.1"/>
	</g>
</g>
<g id="XMLID_515_">
	<g>
		<circle class="st0" cx="50.9" cy="28.1" r="2.1"/>
	</g>
	<g>
		<circle class="st4" cx="50.9" cy="28.1" r="2.1"/>
	</g>
</g>
<g id="XMLID_516_">
	<g>
		<circle class="st0" cx="21.9" cy="28.4" r="2.1"/>
	</g>
	<g>
		<circle class="st4" cx="21.9" cy="28.4" r="2.1"/>
	</g>
</g>
<g id="XMLID_517_">
	<g>
		<circle class="st0" cx="78.5" cy="18.6" r="2.1"/>
	</g>
	<g>
		<circle class="st4" cx="78.5" cy="18.6" r="2.1"/>
	</g>
</g>
<g id="XMLID_518_">
	<g>
		<circle class="st0" cx="19.1" cy="8.7" r="2.1"/>
	</g>
	<g>
		<circle class="st4" cx="19.1" cy="8.7" r="2.1"/>
	</g>
</g>
<g id="XMLID_519_">
	<g>
		<circle class="st0" cx="60.7" cy="3.7" r="2.1"/>
	</g>
	<g>
		<circle class="st4" cx="60.7" cy="3.7" r="2.1"/>
	</g>
</g>
<g id="XMLID_520_">
	<g>
		<circle class="st0" cx="32.1" cy="2.7" r="2.1"/>
	</g>
	<g>
		<circle class="st4" cx="32.1" cy="2.7" r="2.1"/>
	</g>
</g>
<g>
</g>
<g>
</g>
<g>
</g>
<g>
</g>
<g>
</g>
<g>
</g>
</svg>
