<?xml version="1.0" encoding="UTF-8" standalone="no"?>
<!-- Created with Inkscape (http://www.inkscape.org/) -->
<svg
   xmlns:dc="http://purl.org/dc/elements/1.1/"
   xmlns:cc="http://web.resource.org/cc/"
   xmlns:rdf="http://www.w3.org/1999/02/22-rdf-syntax-ns#"
   xmlns:svg="http://www.w3.org/2000/svg"
   xmlns="http://www.w3.org/2000/svg"
   xmlns:sodipodi="http://sodipodi.sourceforge.net/DTD/sodipodi-0.dtd"
   xmlns:inkscape="http://www.inkscape.org/namespaces/inkscape"
   version="1.0"
   width="488.99973"
   height="600"
   id="svg2181"
   sodipodi:version="0.32"
   inkscape:version="0.45.1"
   sodipodi:docname="Buryatiya current.svg"
   inkscape:output_extension="org.inkscape.output.svg.inkscape"
   sodipodi:docbase="C:\Documents and Settings\Wraith\Desktop">
  <metadata
     id="metadata18">
    <rdf:RDF>
      <cc:Work
         rdf:about="">
        <dc:format>image/svg+xml</dc:format>
        <dc:type
           rdf:resource="http://purl.org/dc/dcmitype/StillImage" />
      </cc:Work>
    </rdf:RDF>
  </metadata>
  <sodipodi:namedview
     inkscape:window-height="844"
     inkscape:window-width="1440"
     inkscape:pageshadow="2"
     inkscape:pageopacity="0.0"
     guidetolerance="10.0"
     gridtolerance="10.0"
     objecttolerance="10.0"
     borderopacity="1.0"
     bordercolor="#666666"
     pagecolor="#ffffff"
     id="base"
     showguides="true"
     inkscape:guide-bbox="true"
     inkscape:zoom="0.88795159"
     inkscape:cx="273.67037"
     inkscape:cy="281.03217"
     inkscape:window-x="-4"
     inkscape:window-y="-4"
     inkscape:current-layer="svg2181" />
  <defs
     id="defs2183" />
  <g
     id="g5105"
     transform="matrix(1.0003396,0,0,0.9992726,-1.5775417e-4,1.6776881e-4)">
    <path
       id="_128635016"
       style="fill:#d1d3d4;fill-opacity:1;fill-rule:evenodd;stroke:#000000;stroke-width:0.05849923;stroke-miterlimit:4;stroke-dasharray:none;stroke-opacity:1"
       transform="matrix(9.7810232,0,0,9.7810232,-817.41429,-1293.9976)"
       d="M 133.52,132.326 L 133.52,184.153 C 133.52,187.4582 130.8662,190.1207 127.5718,190.1207 L 114.3026,190.1207 C 111.6946,190.2125 109.5898,191.0848 108.4001,193.6554 C 107.119,191.1765 106.2497,190.3043 102.5435,190.1207 L 89.5489,190.1207 C 86.2545,190.1207 83.6007,187.4582 83.6007,184.153 L 83.6007,132.326 L 133.52,132.326 z " />
    <path
       id="_129012848"
       style="fill:#ffffff;fill-rule:evenodd;stroke:#1f1a17;stroke-width:0.0762"
       transform="matrix(9.7810232,0,0,9.7810232,-817.41429,-1293.9976)"
       d="M 108.608,144.768 C 119.6337,144.768 128.5752,153.7095 128.5752,164.7351 C 128.5752,175.7609 119.6337,184.7024 108.608,184.7024 C 97.5823,184.7024 88.6408,175.7609 88.6408,164.7351 C 88.6408,153.7095 97.5823,144.768 108.608,144.768 L 108.608,144.768 z " />
    <path
       id="_128637832"
       style="fill:#f2da00;fill-rule:evenodd"
       transform="matrix(9.7810232,0,0,9.7810232,-817.41429,-1293.9976)"
       d="M 108.608,151.606 C 115.8575,151.606 121.7367,157.4851 121.7367,164.7346 C 121.7367,171.9842 115.8575,177.8634 108.608,177.8634 C 101.3584,177.8634 95.4793,171.9842 95.4793,164.7346 C 95.4793,157.4851 101.3584,151.606 108.608,151.606 z M 108.608,150.043 C 116.7206,150.043 123.2997,156.6221 123.2997,164.7346 C 123.2997,172.8473 116.7206,179.4264 108.608,179.4264 C 100.4954,179.4264 93.9163,172.8473 93.9163,164.7346 C 93.9163,156.6221 100.4954,150.043 108.608,150.043 z " />
    <path
       id="_129015144"
       style="fill:#066c4b;fill-rule:evenodd"
       transform="matrix(9.7810232,0,0,9.7810232,-817.41429,-1293.9976)"
       d="M 121.181,168.522 C 120.9298,169.3567 120.5979,170.1564 120.1942,170.912 L 97.0222,170.912 C 96.7336,170.3721 96.4813,169.81 96.2693,169.2284 L 96.5343,169.2881 C 98.1747,168.2313 99.7018,167.6272 101.4925,166.952 C 102.1758,167.4128 102.8433,167.6671 103.3995,168.3822 C 104.9252,167.931 106.2485,167.5512 107.7742,167.1001 C 108.2827,166.9498 108.8033,166.6562 109.4548,166.5773 C 110.9803,166.8635 112.3469,167.3049 113.3638,167.9727 C 113.8927,167.7145 114.4534,167.4243 115.2377,166.9111 C 117.2756,167.8536 119.25,168.1375 121.181,168.522 L 121.181,168.522 z " />
    <path
       id="_129018048"
       style="fill:#282074;fill-rule:evenodd"
       transform="matrix(9.7810232,0,0,9.7810232,-817.41429,-1293.9976)"
       d="M 120.194,170.912 C 117.9837,175.0481 113.6243,177.8636 108.608,177.8636 C 103.5917,177.8636 99.2322,175.0481 97.022,170.912 L 120.194,170.912 z " />
    <path
       id="_129018968"
       style="fill:#ffffff;fill-rule:evenodd"
       transform="matrix(9.7810232,0,0,9.7810232,-817.41429,-1293.9976)"
       d="M 116.639,175.119 C 116.1857,175.4701 115.7089,175.7922 115.2112,176.0825 C 115.1234,176.0335 115.0445,175.9823 114.9777,175.9298 C 114.7033,176.1761 114.0775,176.4635 113.6275,176.4635 C 113.0489,176.4635 112.3036,176.1652 111.8916,175.9298 C 111.5611,176.1866 110.8497,176.4635 110.3288,176.4635 C 109.8078,176.4635 109.1329,176.167 108.766,175.9298 C 108.4164,176.167 107.583,176.4635 106.9915,176.4635 C 106.4696,176.4635 105.8597,176.2264 105.4258,175.9298 C 104.9339,176.2264 104.398,176.4635 103.884,176.4635 C 103.2232,176.4635 102.4085,176.2264 101.9018,175.9298 C 101.8785,175.9469 101.8549,175.9634 101.8309,175.9797 C 101.3895,175.7131 100.9653,175.421 100.5599,175.106 C 100.9973,175.0441 101.4165,174.8227 101.9018,174.5895 C 102.5105,174.8918 103.1498,175.1232 103.7739,175.1232 C 104.3246,175.1232 104.9192,174.8662 105.4258,174.5895 C 105.9451,174.886 106.5086,175.1232 107.0499,175.1232 C 107.5912,175.1232 108.1802,174.9318 108.674,174.5895 C 109.1377,174.9104 109.7918,175.1232 110.3508,175.1232 C 110.8439,175.1232 111.3963,174.8819 111.8303,174.5895 C 112.3021,174.8552 113.0105,175.1232 113.6007,175.1232 C 114.0597,175.1232 114.5967,174.9635 114.9777,174.5895 C 115.4164,174.8935 116.0112,175.1232 116.528,175.1232 C 116.5646,175.1232 116.6015,175.1216 116.639,175.119 L 116.639,175.119 z M 119.3524,172.2782 C 119.0512,172.7064 118.725,173.1157 118.376,173.5043 C 118.296,173.4684 118.2314,173.432 118.1857,173.3956 C 117.7656,173.8251 117.1163,173.9895 116.5817,173.9895 C 116.047,173.9895 115.3365,173.7088 114.9777,173.3956 C 114.7033,173.6697 114.0775,173.9895 113.6275,173.9895 C 113.0489,173.9895 112.3036,173.6575 111.8916,173.3956 C 111.5611,173.6813 110.8497,173.9895 110.3288,173.9895 C 109.8078,173.9895 109.1329,173.6595 108.766,173.3956 C 108.4164,173.6595 107.583,173.9895 106.9915,173.9895 C 106.4696,173.9895 105.8597,173.7255 105.4258,173.3956 C 104.9339,173.7255 104.398,173.9895 103.884,173.9895 C 103.2232,173.9895 102.4085,173.7255 101.9018,173.3956 C 101.4414,173.7695 100.849,173.9895 100.3226,173.9895 C 99.7963,173.9895 99.2038,173.7256 98.7435,173.3957 C 98.4184,173.0256 98.1137,172.6372 97.8313,172.232 C 98.1444,172.129 98.4515,172.0105 98.7434,171.9042 C 99.3309,172.2406 99.7962,172.498 100.3226,172.498 C 100.849,172.498 101.3296,172.21 101.9018,171.9042 C 102.5105,172.2406 103.1498,172.498 103.7739,172.498 C 104.3246,172.498 104.9192,172.2121 105.4258,171.9042 C 105.9451,172.2341 106.5086,172.498 107.0499,172.498 C 107.5912,172.498 108.1802,172.2851 108.674,171.9042 C 109.1377,172.2613 109.7918,172.498 110.3508,172.498 C 110.8439,172.498 111.3963,172.2295 111.8303,171.9042 C 112.3021,172.1999 113.0105,172.498 113.6007,172.498 C 114.0597,172.498 114.5967,172.3205 114.9777,171.9042 C 115.4164,172.2424 116.0112,172.498 116.528,172.498 C 117.0449,172.498 117.6658,172.1904 118.0785,171.9042 C 118.3476,172.028 118.8198,172.1663 119.3524,172.2782 z " />
    <path
       id="_129022192"
       style="fill:#282878;fill-rule:evenodd"
       transform="matrix(9.7810232,0,0,9.7810232,-817.41429,-1293.9976)"
       d="M 108.608,148.246 C 117.7128,148.246 125.0966,155.6297 125.0966,164.7345 C 125.0966,173.8394 117.7128,181.2232 108.608,181.2232 C 99.5032,181.2232 92.1194,173.8394 92.1194,164.7345 C 92.1194,155.6297 99.5032,148.246 108.608,148.246 z M 108.608,144.7674 C 119.6337,144.7674 128.5752,153.7089 128.5752,164.7345 C 128.5752,175.7602 119.6337,184.7018 108.608,184.7018 C 97.5824,184.7018 88.6408,175.7602 88.6408,164.7345 C 88.6408,153.7089 97.5824,144.7674 108.608,144.7674 L 108.608,144.7674 z " />
    <path
       sodipodi:nodetypes="ccsccsccccscccsccsccccsc"
       id="_129022968"
       style="fill:#47a5ae;fill-opacity:1;fill-rule:evenodd;stroke:#ffffff;stroke-width:0.30671638;stroke-miterlimit:4;stroke-dasharray:none;stroke-opacity:1"
       transform="matrix(9.7810232,0,0,9.7810232,-817.41429,-1293.9976)"
       d="M 124.88255,178.3371 C 124.80937,177.5437 124.98617,176.61729 125.39887,175.87449 C 125.92567,176.28719 126.42723,177.60588 126.36583,177.73278 C 126.05033,178.38568 125.30408,177.97868 124.88255,178.3371 z M 119.36746,171.98902 C 118.61116,171.70712 117.8519,171.9322 117.3874,172.5204 C 117.066,172.9274 117.52496,173.34264 118.00676,173.68054 C 118.51477,173.14746 118.9528,172.59573 119.36746,171.98902 z M 92.300617,178.18404 C 92.345117,177.39064 92.164715,176.52909 91.752015,175.78629 C 91.225115,176.19899 90.795615,177.38815 90.856915,177.51495 C 91.172515,178.16785 91.86839,177.77174 92.300617,178.18404 z M 99.122536,173.59944 C 98.622436,173.06244 98.224806,172.5624 97.819306,171.9476 C 98.575706,171.6657 99.2702,171.844 99.7347,172.4322 C 100.0561,172.8391 99.604236,173.26164 99.122536,173.59944 z M 123.27429,178.56709 C 123.64759,178.83659 124.40341,179.85272 124.08491,180.22422 C 123.66811,180.71022 122.32281,180.49041 121.54831,180.18611 C 122.12564,179.68955 122.75939,179.12627 123.27429,178.56709 z M 95.685957,180.22024 C 94.995358,179.65175 94.357021,179.02058 93.916521,178.53998 C 93.546921,178.80948 92.799176,179.8339 93.114476,180.2054 C 93.527176,180.6914 94.919157,180.52454 95.685957,180.22024 z " />
    <path
       id="_129021688"
       style="fill:#ffcb05;fill-opacity:1;fill-rule:evenodd"
       transform="matrix(9.7810232,0,0,9.7810232,-817.41429,-1293.9976)"
       d="M 117.292,152.3 C 117.3476,152.7081 117.377,153.1249 117.377,153.5483 C 117.377,158.6105 113.2718,162.7157 108.2097,162.7157 C 103.1475,162.7157 99.0422,158.6105 99.0422,153.5483 C 99.0422,153.125 99.0717,152.7084 99.1273,152.3002 C 100.3314,156.1714 103.9427,158.9832 108.2097,158.9832 C 112.4766,158.9832 116.088,156.1713 117.292,152.3 L 117.292,152.3 z M 108.2096,143.4301 C 112.1198,143.4301 115.2907,146.6011 115.2907,150.5113 C 115.2907,154.4215 112.1198,157.5925 108.2096,157.5925 C 104.2994,157.5925 101.1284,154.4215 101.1284,150.5113 C 101.1284,146.6011 104.2994,143.4301 108.2096,143.4301 z M 108.3099,143.1138 C 108.5911,142.6972 109.0991,142.31 109.4516,142.2929 C 110.4945,142.2422 111.3698,141.9218 111.775,140.977 C 112.21,139.9624 111.4596,139.1139 111.3611,138.68 C 111.3014,138.4167 111.4307,138.1305 111.3611,137.8695 C 111.2986,137.6352 111.0494,137.482 110.9797,137.2497 C 110.9021,136.9906 110.856,136.7094 110.8401,136.4393 C 110.6494,136.6776 110.4212,136.8555 110.36,137.1544 C 110.2824,137.5331 110.6264,137.9195 110.5507,138.2986 C 110.4884,138.6102 110.0646,138.7825 109.9125,139.0614 C 109.8269,139.2184 109.896,139.4226 109.8921,139.6256 C 109.8899,139.7394 109.7579,139.8902 109.6366,139.9051 C 109.5058,139.9211 109.3442,139.8306 109.3282,139.6211 C 109.32,139.5127 109.3588,139.3894 109.3588,139.2998 C 109.3588,138.9929 109.7069,138.6414 109.6767,138.3362 C 109.6139,137.7024 108.982,137.5472 108.8343,137.0114 C 108.7159,136.5815 109.0143,136.1171 108.9459,135.6765 C 108.899,135.3745 108.6787,135.0959 108.5653,134.8337 C 108.4894,134.6582 108.5036,134.4684 108.5806,134.2777 C 108.1324,134.4975 107.7237,134.9964 107.6016,135.4381 C 107.5035,135.7933 107.9354,136.1662 107.9285,136.5346 C 107.9176,137.1192 107.1388,137.4467 107.0227,138.0126 C 106.9132,138.546 107.405,139.2237 107.4422,139.5872 C 107.464,139.8007 107.4473,139.9805 107.2134,140.0149 C 107.0305,140.0419 106.8306,139.9044 106.7852,139.7496 C 106.7268,139.5506 106.8754,139.2732 106.7843,139.1091 C 106.6282,138.8279 106.3261,138.6134 106.2599,138.2986 C 106.1905,137.9688 106.3849,137.6339 106.4029,137.2974 C 106.4209,136.961 106.1627,136.6766 105.9127,136.4377 C 105.9262,136.6284 105.9048,136.9323 105.8147,137.1067 C 105.6629,137.4003 105.3332,137.6318 105.2426,137.9495 C 105.1636,138.2261 105.4192,138.4013 105.2981,138.6622 C 105.1354,139.013 104.6235,139.4162 104.6866,140.1103 C 104.8006,141.3621 105.7757,142.1839 107.0664,142.2556 C 107.5052,142.28 107.9762,142.8277 108.3099,143.1138 L 108.3099,143.1138 z " />
    <path
       id="_129030520"
       style="fill:#00923f;fill-rule:evenodd"
       transform="matrix(9.7810232,0,0,9.7810232,-817.41429,-1293.9976)"
       d="M 97.2431,168.948 L 100.1632,167.615 L 101.4021,167.161 L 100.9728,169.1624 L 100.8655,168.3761 L 99.1214,169.2696 L 99.5506,168.4833 L 97.2431,168.948 L 97.2431,168.948 z M 111.4063,169.5585 L 114.3969,167.5014 L 115.2447,167.0474 L 114.9509,169.0488 L 114.8774,168.2625 L 113.684,169.156 L 113.9778,168.3698 L 111.4063,169.5585 L 111.4063,169.5585 z M 102.9782,168.7055 L 108.0113,167.2109 L 109.3225,166.6771 L 108.4825,169.3759 L 108.6077,167.8923 L 105.8287,169.349 L 106.8565,167.9995 L 102.9782,168.7055 L 102.9782,168.7055 z " />
    <path
       sodipodi:nodetypes="ccscccccccccscccsccccccscccccccscssccsccc"
       id="_129031656"
       style="fill:#47a5ae;fill-opacity:1;fill-rule:evenodd;stroke:#ffffff;stroke-width:0.30671638;stroke-miterlimit:4;stroke-dasharray:none;stroke-opacity:1"
       transform="matrix(9.7810232,0,0,9.7810232,-817.07748,-1291.6086)"
       d="M 130.081,175.075 C 129.7848,174.7481 129.3088,174.3565 129.0125,173.9478 C 128.1035,175.2349 127.3214,176.574 126.3532,177.7584 C 125.8149,178.4169 124.9484,177.7975 124.8716,178.3845 C 125.2491,180.959 126.0693,181.4964 126.8634,182.1537 C 127.8306,179.794 128.9494,177.4345 130.081,175.075 L 130.081,175.075 z M 129.0918,173.4898 C 128.2328,174.6555 127.2438,176.2765 126.3848,177.4423 C 126.423,175.9382 123.3622,173.6579 121.3612,172.6308 C 120.1555,172.012 118.4842,171.0252 117.3118,172.2331 C 118.1912,170.4743 119.0706,168.7451 119.95,166.9863 C 120.774,166.7922 122.5482,167.4542 124.1221,168.0293 C 126.9524,169.0635 130.3189,171.5469 129.0918,173.4898 z M 87.0397,174.9868 C 87.3359,174.6599 87.8188,174.1789 88.1151,173.7703 C 89.0242,175.0573 89.717,176.5089 90.7857,177.6666 C 91.2197,178.1367 92.1463,177.6243 92.2491,178.2963 C 91.8716,180.8707 91.0513,181.4082 90.2573,182.0654 C 89.29,179.7057 88.1713,177.3463 87.0397,174.9868 L 87.0397,174.9868 z M 88.0289,173.4016 C 88.8879,174.5673 89.8769,176.1883 90.7358,177.354 C 90.6976,175.85 93.7585,173.5697 95.7595,172.5426 C 96.9651,171.9238 98.528556,170.98008 99.700956,172.18808 C 98.821556,170.42928 98.0501,168.6568 97.1706,166.898 C 96.3466,166.704 94.5725,167.3659 92.9986,167.941 C 90.1682,168.9753 86.8018,171.4587 88.0289,173.4016 L 88.0289,173.4016 z M 108.5009,184.343 C 112.6007,184.343 116.4742,184.9157 120.5642,186.0609 C 121.0187,185.1065 121.4072,184.1185 121.9276,183.1978 C 122.4424,182.287 123.2083,181.248 123.7866,180.3755 C 123.222,180.6209 122.4244,180.5621 121.8863,180.3755 C 118.1724,179.0875 113.8654,178.0031 108.5007,178.0031 C 103.1892,178.0031 98.9252,179.0875 95.2482,180.3755 C 94.7154,180.5621 93.9257,180.6209 93.3667,180.3755 C 93.9393,181.248 94.6976,182.287 95.2073,183.1978 C 95.7226,184.1185 96.1072,185.1065 96.5571,186.0609 C 100.6065,184.9157 104.4413,184.343 108.5009,184.343 L 108.5009,184.343 z " />
  </g>
</svg>
