<?xml version="1.0" encoding="UTF-8" standalone="no"?>
<svg
   xmlns:dc="http://purl.org/dc/elements/1.1/"
   xmlns:cc="http://creativecommons.org/ns#"
   xmlns:rdf="http://www.w3.org/1999/02/22-rdf-syntax-ns#"
   xmlns:svg="http://www.w3.org/2000/svg"
   xmlns="http://www.w3.org/2000/svg"
   viewBox="0 0 637.33331 136"
   height="136"
   width="637.33331"
   xml:space="preserve"
   id="svg2"
   version="1.1"><metadata
     id="metadata8"><rdf:RDF><cc:Work
         rdf:about=""><dc:format>image/svg+xml</dc:format><dc:type
           rdf:resource="http://purl.org/dc/dcmitype/StillImage" /></cc:Work></rdf:RDF></metadata><defs
     id="defs6" /><g
     transform="matrix(1.3333333,0,0,-1.3333333,0,136)"
     id="g10"><g
       transform="scale(0.1)"
       id="g12"><path
         id="path14"
         style="fill:#a7a5a6;fill-opacity:1;fill-rule:evenodd;stroke:none"
         d="m 3758.61,374.98 c -7.42,0 -10.56,-7.363 -12.31,-13.847 4.47,0.726 9.48,1.539 13.36,3.414 2.79,1.297 5.04,3.168 5.04,5.75 0,2.93 -2.57,4.683 -6,4.683 z M 4241.9,154.332 c 0,2.797 -2.34,4.797 -6.21,4.797 -7.84,0 -12.31,-6.469 -13.48,-11.84 13.14,-0.113 19.69,1.762 19.69,6.895 z m 8.69,-38.23 c -6.66,-3.414 -15,-4.563 -21.36,-4.563 -16.39,0 -24.81,9.391 -24.81,24.246 0,17.473 12.64,35.645 33.38,35.645 11.62,0 19.94,-6.446 19.94,-17.11 0,-14.66 -14.2,-19.922 -37.14,-19.343 0,-1.649 0.54,-4.223 1.75,-5.872 2.22,-2.902 6.06,-4.457 11.02,-4.457 6.19,0.016 11.47,1.43 16.05,3.633 z m -75.64,43.949 c -7.39,0 -10.56,-7.391 -12.32,-13.824 4.47,0.707 9.49,1.515 13.37,3.386 2.8,1.336 5.03,3.196 5.03,5.746 0.01,2.95 -2.58,4.692 -5.99,4.692 z m -4.94,-22.844 c -3.51,0 -7.28,-0.844 -9.37,-1.664 -0.35,-1.512 -0.7,-3.625 -0.7,-5.363 0,-4.102 1.89,-6.926 7.62,-6.926 6.57,0 11.15,3.152 11.15,7.75 0,4.781 -4.26,6.203 -8.57,6.203 z m 6.58,34.223 c 12.55,0 20.64,-4.461 20.64,-14.078 0,-7.598 -7.51,-12.063 -13.41,-13.582 l 0.01,-0.34 c 5.89,-0.602 11.85,-4.582 11.85,-11.871 0,-15.223 -17.55,-20.02 -30.11,-20.02 -14.89,0 -22.53,5.746 -22.53,17.816 0,10.555 4.6,29.309 14.92,36.692 5.02,3.629 11.11,5.383 18.51,5.383 z m -132.53,-58.617 7.15,38.703 c 1.3,7.23 2.25,13.578 2.94,18.629 h 14.55 l -1.08,-9.243 h 0.25 c 5.13,7.348 12.18,10.528 19.56,10.528 9.15,0 13.15,-5.762 13.58,-10.789 5.17,7.398 12.32,10.789 19.71,10.789 8.91,0.125 14.04,-5.629 14.04,-15.375 0,-2.465 -0.46,-6.903 -1.03,-9.828 l -6.22,-33.414 h -16.27 l 5.74,31.285 c 0.46,2.347 0.84,4.84 0.84,7.058 0,3.969 -1.78,6.809 -5.78,6.809 -5.61,0 -11.13,-7.649 -13.36,-19.117 l -4.79,-26.035 h -16.31 l 5.86,31.535 c 0.5,2.359 0.8,4.59 0.8,6.59 0.03,3.847 -1.27,7.027 -5.38,7.027 -5.73,0 -11.7,-8.113 -13.84,-19.36 l -4.66,-25.792 z m -9.56,1.773 c -3.62,-1.773 -9.51,-3.047 -16.32,-3.047 -14.16,0 -24.11,8.652 -24.11,23.543 0,20.387 15.58,36.348 37.36,36.348 4.94,0 9.16,-0.946 11.74,-1.867 l -4.21,-13.004 c -1.99,0.8 -4.36,1.406 -7.77,1.406 -11.93,0 -19.43,-10.223 -19.43,-20.981 0,-7.867 5.04,-11.847 11.24,-11.847 4.93,0 8.43,1.148 11.36,2.34 z m -71.59,79.336 c -0.57,-4.555 1.08,-7.734 4.23,-7.734 3.4,0.011 5.37,3.519 6.55,7.734 h 10.68 c -2.09,-10.067 -8.83,-15.469 -18.3,-15.469 -10.41,0.012 -14.53,6.227 -13.83,15.469 z m -8.33,-23.777 -5.73,-30.715 c -0.46,-2.578 -0.83,-5.399 -0.83,-7.512 0,-3.719 1.43,-6.672 5.76,-6.672 5.72,0 11.6,6.91 13.8,18.41 l 5.04,26.489 h 16.89 l -7.38,-38.692 c -1.28,-7.25 -2.22,-13.484 -3.04,-18.656 l -14.9,0.016 1.06,9.386 h -0.22 c -5.85,-7.488 -12.9,-10.66 -19.8,-10.66 -9.17,0 -14.67,5.137 -14.67,16.047 0,3.168 0.36,6.562 1.19,10.559 l 5.97,32 z m -49.19,-10.801 c -1.66,0.34 -3.09,0.586 -6.02,0.586 -6.42,0.008 -11.48,-2.125 -11.48,-7.723 0.01,-4.918 5.18,-6.918 10.35,-6.918 h 4.43 z m 7.72,-46.531 h -16.53 l 4.11,21.585 h -3.4 c -5.86,0 -9.51,-3.394 -12.68,-9.648 -2.09,-4.066 -3.99,-8.164 -6.44,-11.953 l -18.02,0.016 c 3.37,4.937 5.35,9.847 8.18,15.023 3.38,6.07 7.73,10.309 13.83,11.594 v 0.23 c -4.91,1.063 -11.5,5.492 -11.5,12.77 0.01,16.894 19.57,18.863 32.45,18.863 7.65,0.023 15.35,-0.582 20.89,-1.277 z m -90.52,35.039 h 6.67 c 5.63,0 11.95,1.66 11.95,5.976 0.01,3.77 -3.62,5.516 -8.21,5.516 -4.46,0 -10.09,-1.539 -14.18,-3.614 l -2.8,10.317 c 5.72,3.027 13.47,5.246 20.85,5.246 9.37,0.023 22.15,-2.918 22.15,-14.875 0,-7.973 -7.38,-12.184 -14.66,-13.602 v -0.078 c 6.22,-1.066 12.88,-5.297 12.88,-13.273 0,-13.832 -15.92,-17.711 -27.29,-17.711 -8.42,0 -16.4,1.648 -22.72,5.871 l 4.32,11.254 c 4.55,-2.801 10.79,-4.797 16.53,-4.797 5.4,0 11.37,1.996 11.37,6.559 0,4.824 -5.54,6.343 -11.74,6.343 h -6.78 z m -48.52,-23.422 c 9.13,0 14.42,13.468 14.42,23.312 0,5.289 -2.35,10.922 -9.04,10.922 -9.72,0 -14.66,-14.203 -14.66,-23.121 0,-6.664 3.42,-11.113 9.16,-11.113 z m -2.33,-12.891 c -14.65,0 -24.4,9.457 -24.4,23.676 0.02,19.91 13.94,36.215 34.34,36.215 15.35,0 24.25,-10.543 24.25,-23.578 0,-20.961 -14.41,-36.313 -34.09,-36.313 z m -60.56,58.606 3.39,-8.579 c 1.75,-4.57 2.81,-7.382 3.62,-9.589 h 0.38 c 2.08,3.07 3.61,5.621 6.07,9.136 l 6.33,9.032 h 19.35 l -24.14,-27.801 13.38,-29.531 h -18.54 l -3.63,9.132 c -1.65,4.258 -2.59,7.039 -3.65,10.438 l -0.35,0.012 c -1.64,-2.684 -3.28,-5.614 -5.88,-9.622 l -6.76,-9.96 h -19.45 l 24.81,29.656 -13.46,27.676 z m 849.76,107.464 2.13,-22.273 c 0.35,-3.52 0.68,-8.344 1.05,-13.492 h 0.25 c 1.51,3.308 4.56,9.734 7.58,15.504 l 10.58,20.261 h 21.43 l -7.61,-57.308 h -15.61 l 3.53,22.965 c 0.81,4.918 2.22,13.351 3.16,19.093 l -0.45,0.012 c -1.74,-4.101 -4.93,-10.664 -8.44,-17.707 l -12.2,-23.426 h -12.79 l -2.32,22.727 c -0.58,6.344 -1.2,13.383 -1.4,18.488 l -0.49,0.024 c -1.39,-6.207 -3.17,-14.758 -4.33,-19.571 l -5.51,-22.605 h -15.03 l 15.15,57.308 z m -71.85,-45.726 c 9.15,0 14.39,13.492 14.39,23.332 0.02,5.285 -2.31,10.887 -9.02,10.887 -9.7,0.011 -14.63,-14.157 -14.63,-23.075 0.01,-6.672 3.42,-11.144 9.12,-11.144 z m -2.34,-12.91 c -14.66,0 -24.37,9.507 -24.37,23.699 0,19.93 13.92,36.203 34.34,36.203 15.33,0 24.26,-10.547 24.26,-23.539 0,-20.965 -14.42,-36.363 -34.12,-36.363 z m -63.6,58.636 -3.99,-21.113 h 17.47 l 3.98,21.113 h 16.88 l -10.91,-57.308 h -16.87 l 4.46,23.211 h -17.47 l -4.31,-23.211 h -16.87 l 10.76,57.308 z m -61.19,-46.414 c 5.73,0 12.17,4.094 12.17,10.762 0,4.332 -2.58,6.789 -6.78,6.789 -5.62,0 -9.63,-4.57 -10.93,-7.715 -0.55,-1.535 -0.79,-2.558 -0.79,-4.468 0,-3.258 2.21,-5.391 6.22,-5.391 z m 2.47,46.414 -5.5,-22.039 h 0.11 c 3.63,3.278 9.84,5.137 15.09,5.137 9.29,0 16.57,-5.617 16.57,-15.68 0,-13.023 -10.8,-25.797 -32.02,-25.797 -9.14,0 -19.82,2.102 -19.82,14.415 0,3.062 0.95,7.742 1.77,11.121 l 7.39,32.843 z m -31.47,0 -10.89,-57.308 h -16.86 l 8.43,44.394 h -12.79 l -2.09,-10.972 c -2.95,-14.446 -6.57,-22.672 -12.55,-27.821 -4.19,-4.089 -9.49,-6.429 -17.83,-6.429 l -1.03,13.234 c 3.51,0.359 6.33,1.52 8.29,3.512 3.54,3.277 6.13,9.508 7.77,17.82 l 4.47,23.57 z m -83.77,-11.945 c -1.29,0.195 -2.82,0.438 -4.57,0.438 -10.89,0.011 -18.76,-13.352 -18.91,-24.016 0.02,-5.617 2.4,-9.504 7.08,-9.504 5.01,0 11.38,5.742 13.92,19.805 z m -4.71,-45.363 c 0.14,3.39 0.5,7.25 0.84,11.363 h -0.34 c -5.4,-9.473 -12.79,-12.691 -19.34,-12.691 -10.34,0 -17.48,7.98 -17.48,19.961 0,19.336 12.88,39.941 41.14,39.941 6.81,0 14.19,-1.266 18.75,-2.812 l -5.73,-29.997 c -1.4,-7.39 -2.47,-18.652 -2.35,-25.765 z m -75.11,57.308 -3.99,-21.113 h 17.49 l 3.99,21.113 h 16.87 l -10.91,-57.308 h -16.89 l 4.5,23.211 h -17.5 l -4.31,-23.211 h -16.87 l 10.76,57.308 z m -63.92,0 3.52,-25.086 c 0.83,-5.855 1.55,-10.085 1.98,-13.73 h 0.24 c 1.31,3.531 2.58,7.273 5.05,13.473 l 10.19,25.343 h 17.82 c -5.27,-10.925 -14.18,-30.136 -20.28,-41.961 -7.84,-15.257 -14.29,-24.609 -22.15,-32 -6.68,-6.324 -14.63,-9.156 -18.38,-9.726 l -3.75,14.426 c 2.69,0.808 6.43,2.203 9.7,4.55 3.88,2.723 7.17,6.075 9.28,9.957 0.58,0.95 0.58,1.657 0.35,2.805 l -11.36,51.949 z m -68.96,0 2.12,-22.273 c 0.35,-3.52 0.69,-8.344 1.04,-13.492 h 0.22 c 1.54,3.308 4.58,9.734 7.61,15.504 l 10.56,20.261 h 21.45 l -7.6,-57.308 h -15.6 l 3.52,22.965 c 0.82,4.918 2.23,13.351 3.16,19.093 l -0.47,0.012 c -1.77,-4.101 -4.91,-10.664 -8.43,-17.707 l -12.2,-23.426 h -12.76 l -2.33,22.727 c -0.62,6.344 -1.21,13.383 -1.44,18.488 l -0.48,0.024 c -1.38,-6.207 -3.15,-14.758 -4.32,-19.571 l -5.52,-22.605 H 4000 l 15.15,57.308 z m -83.56,0 2.13,-22.273 c 0.35,-3.52 0.69,-8.344 1.05,-13.492 h 0.22 c 1.5,3.308 4.58,9.734 7.63,15.504 l 10.54,20.261 h 21.46 l -7.63,-57.308 h -15.58 l 3.5,22.965 c 0.84,4.918 2.25,13.351 3.19,19.093 l -0.5,0.012 c -1.75,-4.101 -4.91,-10.664 -8.42,-17.707 l -12.18,-23.426 h -12.78 l -2.33,22.727 c -0.62,6.344 -1.21,13.383 -1.44,18.488 l -0.45,0.024 c -1.41,-6.207 -3.17,-14.758 -4.35,-19.571 l -5.5,-22.605 h -14.98 l 15.08,57.308 z m -71.83,-45.726 c 9.11,0 14.41,13.492 14.41,23.332 0,5.285 -2.33,10.887 -9.05,10.887 -9.72,0.011 -14.66,-14.157 -14.66,-23.075 0,-6.672 3.41,-11.144 9.15,-11.144 z m -2.36,-12.91 c -14.65,0 -24.4,9.507 -24.4,23.699 0,19.93 13.96,36.203 34.34,36.203 15.35,0 24.25,-10.547 24.25,-23.539 0.01,-20.965 -14.4,-36.363 -34.09,-36.363 z m -57.81,58.636 -4.43,-23.57 h 1.61 l 19.23,23.57 h 19.82 l -25.1,-25.531 c 5.4,-2.254 8.11,-8.687 9.62,-17.035 1.18,-5.117 2.35,-11.027 3.75,-14.742 h -16.64 c -1.17,2.836 -2.11,8.562 -3.27,13.59 -1.76,6.918 -4,10.285 -9.49,10.285 h -1.44 l -4.56,-23.875 h -16.42 l 10.91,57.308 z m -87.21,0 -5.75,-30.687 c -0.45,-2.582 -0.83,-5.422 -0.83,-7.524 0,-3.75 1.41,-6.691 5.78,-6.691 5.7,0 11.56,6.922 13.82,18.398 l 5.01,26.504 h 16.88 l -7.35,-38.675 c -1.33,-7.27 -2.27,-13.481 -3.09,-18.633 h -14.86 l 1.06,9.367 h -0.24 c -5.86,-7.477 -12.89,-10.695 -19.79,-10.695 -9.15,0 -14.66,5.199 -14.66,16.07 0,3.184 0.34,6.582 1.14,10.547 l 6.02,32.019 z m 951.82,91.645 c 0,2.789 -2.33,4.785 -6.21,4.785 -7.85,0.008 -12.3,-6.422 -13.48,-11.832 13.11,-0.113 19.69,1.762 19.69,6.918 z m 8.69,-38.227 c -6.68,-3.371 -15,-4.55 -21.34,-4.55 -16.42,0 -24.83,9.367 -24.83,24.261 0,17.442 12.66,35.617 33.35,35.617 11.64,0.016 19.95,-6.445 19.95,-17.101 0,-14.66 -14.17,-19.941 -37.13,-19.332 0,-1.656 0.57,-4.266 1.74,-5.891 2.26,-2.906 6.1,-4.461 11.03,-4.461 6.21,0.016 11.46,1.43 16.05,3.645 z m -75.64,43.953 c -7.43,0 -10.59,-7.363 -12.32,-13.847 4.46,0.726 9.49,1.539 13.36,3.414 2.81,1.297 5.04,3.168 5.04,5.75 0,2.93 -2.56,4.683 -5.99,4.683 z m -4.95,-22.847 c -3.48,0 -7.25,-0.817 -9.37,-1.656 -0.35,-1.485 -0.7,-3.625 -0.7,-5.391 0,-4.086 1.89,-6.91 7.59,-6.91 6.6,0 11.18,3.164 11.18,7.738 0,4.824 -4.23,6.219 -8.58,6.219 z m 6.56,34.238 c 12.57,0 20.66,-4.48 20.66,-14.094 0,-7.586 -7.5,-12.054 -13.4,-13.582 v -0.324 c 5.9,-0.625 11.87,-4.59 11.87,-11.863 0,-15.231 -17.58,-20.031 -30.13,-20.031 -14.9,0 -22.51,5.753 -22.51,17.789 0,10.547 4.57,29.328 14.87,36.695 5.07,3.641 11.17,5.394 18.53,5.394 z m -132.5,-58.617 7.18,38.668 c 1.25,7.266 2.2,13.594 2.92,18.625 l 14.5,0.008 -1.03,-9.254 h 0.23 c 5.16,7.394 12.19,10.554 19.58,10.554 9.15,0.016 13.13,-5.722 13.58,-10.785 5.18,7.387 12.31,10.785 19.7,10.785 8.91,0.137 14.04,-5.64 14.04,-15.347 0,-2.465 -0.44,-6.914 -1.03,-9.875 l -6.22,-33.379 h -16.31 l 5.75,31.301 c 0.5,2.332 0.82,4.777 0.82,7.019 0,3.992 -1.77,6.793 -5.74,6.793 -5.61,0 -11.14,-7.613 -13.34,-19.086 l -4.81,-26.027 h -16.29 l 5.86,31.531 c 0.46,2.344 0.83,4.547 0.83,6.559 0,3.851 -1.3,7.023 -5.39,7.023 -5.76,0 -11.74,-8.078 -13.83,-19.328 l -4.69,-25.785 z m -9.56,1.75 c -3.66,-1.75 -9.49,-3.027 -16.3,-3.027 -14.17,0 -24.14,8.668 -24.14,23.523 0,20.43 15.59,36.355 37.39,36.355 4.92,0.016 9.13,-0.937 11.74,-1.871 l -4.24,-13.031 c -1.98,0.824 -4.34,1.414 -7.75,1.414 -11.93,0 -19.44,-10.195 -19.44,-20.984 0,-7.852 5.05,-11.824 11.25,-11.824 4.91,0 8.44,1.164 11.35,2.324 z m -76.72,9.164 c 5.72,0 12.18,4.09 12.18,10.758 0,4.355 -2.56,6.804 -6.8,6.804 -5.62,0 -9.63,-4.57 -10.91,-7.73 -0.58,-1.52 -0.8,-2.586 -0.8,-4.469 0,-3.289 2.23,-5.379 6.21,-5.379 z m 2.47,46.387 -5.51,-22.02 h 0.12 c 3.63,3.285 9.85,5.145 15.1,5.145 9.27,0 16.53,-5.625 16.53,-15.719 0.02,-12.977 -10.77,-25.758 -32.01,-25.758 -9.11,0 -19.78,2.098 -19.78,14.422 0,3.035 0.94,7.73 1.73,11.133 l 7.41,32.797 z m -31.45,0 -10.89,-57.301 h -16.89 l 8.45,44.426 h -12.78 l -2.12,-11.035 c -2.93,-14.387 -6.55,-22.602 -12.55,-27.77 -4.22,-4.086 -9.5,-6.414 -17.82,-6.414 l -1.04,13.211 c 3.51,0.367 6.33,1.519 8.32,3.531 3.52,3.277 6.1,9.477 7.75,17.801 l 4.44,23.551 z m -80.58,-15.801 c 0,2.789 -2.35,4.785 -6.23,4.785 -7.82,0.008 -12.3,-6.422 -13.47,-11.832 13.11,-0.113 19.7,1.762 19.7,6.918 z m 8.66,-38.227 c -6.64,-3.371 -14.98,-4.55 -21.32,-4.55 -16.44,0 -24.84,9.367 -24.84,24.261 0,17.442 12.66,35.617 33.39,35.617 11.6,0.016 19.95,-6.445 19.95,-17.101 0,-14.66 -14.2,-19.941 -37.16,-19.332 0,-1.656 0.56,-4.266 1.75,-5.891 2.23,-2.906 6.08,-4.461 11.02,-4.461 6.2,0.016 11.49,1.43 16.04,3.645 z m -145.16,-3.273 7.16,38.668 c 1.27,7.266 2.22,13.594 2.91,18.625 l 14.53,0.008 -1.04,-9.254 h 0.22 c 5.18,7.394 12.18,10.554 19.59,10.554 9.16,0.016 13.13,-5.722 13.58,-10.785 5.17,7.387 12.3,10.785 19.71,10.785 8.92,0.137 14.05,-5.64 14.05,-15.347 0.02,-2.465 -0.45,-6.914 -1.07,-9.875 l -6.18,-33.379 h -16.31 l 5.74,31.301 c 0.48,2.332 0.82,4.777 0.82,7.019 0.01,3.992 -1.75,6.793 -5.75,6.793 -5.64,0 -11.11,-7.613 -13.35,-19.086 l -4.81,-26.027 h -16.27 l 5.85,31.531 c 0.47,2.344 0.82,4.547 0.82,6.559 0,3.851 -1.26,7.023 -5.38,7.023 -5.75,0 -11.73,-8.078 -13.83,-19.328 l -4.69,-25.785 z m -38.98,57.301 -5.75,-30.676 c -0.46,-2.594 -0.83,-5.387 -0.83,-7.527 0,-3.75 1.44,-6.684 5.75,-6.684 5.75,0.004 11.61,6.922 13.82,18.41 l 5.07,26.477 h 16.87 l -7.42,-38.672 c -1.24,-7.262 -2.2,-13.477 -3.01,-18.629 h -14.9 l 1.06,9.375 h -0.23 c -5.84,-7.508 -12.9,-10.652 -19.82,-10.652 -9.13,0 -14.64,5.136 -14.64,16.031 0,3.156 0.35,6.59 1.19,10.57 l 5.97,31.977 z m -64.07,-45.692 c 9.16,0 14.42,13.473 14.42,23.309 0,5.285 -2.34,10.922 -9.03,10.922 -9.73,0 -14.66,-14.184 -14.66,-23.117 0,-6.661 3.41,-11.114 9.14,-11.114 z m -2.32,-12.886 c -14.66,0 -24.41,9.488 -24.41,23.683 0,19.906 13.97,36.195 34.37,36.195 15.35,0.016 24.24,-10.554 24.24,-23.558 0,-20.973 -14.44,-36.32 -34.08,-36.32 z m -72.62,15.57 c 1.89,-1.754 4.45,-2.817 7.72,-2.817 9.03,0.016 16.08,12.903 16.08,24.172 0,4.555 -1.86,9.34 -7.38,9.34 -6.35,0 -12.45,-7.019 -14.34,-18.375 z m -24.03,-37.508 11.01,58.363 c 1.3,6.793 2.7,16.782 3.42,22.645 h 15.09 l -1.04,-8.801 h 0.22 c 4.7,6.211 11.51,9.609 18.4,9.609 12.42,0.016 18.4,-9.98 18.4,-21.675 0.02,-19.942 -13.22,-38.203 -33.13,-38.203 -4.71,0 -8.69,1.179 -10.69,2.324 l -0.25,0.012 -4.66,-24.274 z m -93.23,23.215 7.12,38.668 c 1.29,7.266 2.23,13.594 2.92,18.625 l 14.56,0.008 -1.07,-9.254 h 0.24 c 5.17,7.394 12.2,10.554 19.57,10.554 9.14,0.016 13.14,-5.722 13.6,-10.785 5.15,7.387 12.31,10.785 19.68,10.785 8.93,0.137 14.06,-5.64 14.06,-15.347 0,-2.465 -0.47,-6.914 -1.03,-9.875 l -6.23,-33.379 h -16.3 l 5.75,31.301 c 0.49,2.332 0.83,4.777 0.83,7.019 0,3.992 -1.76,6.793 -5.77,6.793 -5.62,0 -11.13,-7.613 -13.33,-19.086 l -4.81,-26.027 h -16.28 l 5.86,31.531 c 0.45,2.344 0.81,4.547 0.81,6.559 0,3.851 -1.31,7.023 -5.38,7.023 -5.74,0 -11.74,-8.078 -13.85,-19.328 l -4.68,-25.785 z m -9.6,1.75 c -3.63,-1.75 -9.47,-3.027 -16.28,-3.027 -14.16,0 -24.16,8.668 -24.16,23.523 0,20.43 15.6,36.355 37.41,36.355 4.89,0.016 9.13,-0.937 11.71,-1.871 l -4.23,-13.031 c -1.98,0.824 -4.34,1.414 -7.71,1.414 -11.98,0 -19.49,-10.195 -19.49,-20.984 0,-7.852 5.06,-11.824 11.26,-11.824 4.95,0 8.46,1.164 11.39,2.324 z m -96.84,22.629 c -3.52,0 -7.27,-0.817 -9.37,-1.656 -0.35,-1.485 -0.71,-3.625 -0.71,-5.391 0.02,-4.086 1.9,-6.91 7.6,-6.91 6.6,0 11.16,3.164 11.16,7.738 0,4.824 -4.21,6.219 -8.53,6.219 z m 6.56,34.238 c 12.55,0 20.65,-4.48 20.65,-14.094 0,-7.586 -7.5,-12.054 -13.36,-13.582 v -0.324 c 5.87,-0.625 11.82,-4.59 11.82,-11.863 0.02,-15.231 -17.55,-20.031 -30.12,-20.031 -14.9,0 -22.49,5.753 -22.49,17.789 0,10.547 4.59,29.328 14.86,36.695 5.07,3.641 11.17,5.394 18.54,5.394 l 0.1,0.016" /><path
         id="path16"
         style="fill:#162f5f;fill-opacity:1;fill-rule:evenodd;stroke:none"
         d="m 1434.84,19.7305 c -19.96,-8.8555 -53.77,-16.64456 -98.7,-16.64456 -98.71,0 -165.25,60.45316 -165.25,159.16406 0,83.719 37.71,149.18 94.27,186.848 38.8,27.183 84.84,39.953 137.52,39.953 40.49,0 70.98,-9.43 81.52,-16.11 l -21.63,-64.855 c -11.1,5.547 -35.48,12.187 -67.65,12.187 -32.16,0 -62.65,-9.964 -85.41,-28.808 -31.59,-25.5 -51.56,-68.192 -51.56,-120.352 0,-59.324 33.27,-99.2536 99.26,-99.2536 26.06,0.0117 52.13,4.4297 70.96,12.1914 z M 3643.52,382.977 3572.02,9.1875 h -83.74 l 71.53,373.7895 z M 3283.09,70.1992 c 6.66,-1.1054 16.63,-1.664 27.73,-1.664 36.61,0 79.31,22.1679 79.31,67.6408 0,36.051 -22.18,56.558 -55.44,56.558 -9.99,0 -21.1,-1.644 -29.43,-3.308 z m 60.44,312.7778 -25.49,-130.899 c 10.52,2.227 26.62,3.875 41.59,3.875 63.23,0 115.87,-36.035 115.87,-109.238 0,-38.809 -14.39,-68.7384 -36.57,-91.508 -40.48,-40.4648 -101.49,-49.89059 -154.75,-49.89059 -39.91,0 -73.19,2.76172 -90.38,5.55859 l 70.43,372.102 z M 3050.23,9.1875 3072.98,163.336 c 6.1,40.496 14.43,92.066 24.96,145.84 l -1.68,0.004 c -20.48,-48.223 -43.8,-99.801 -64.3,-140.848 L 2955.4,15.2891 h -62.07 l -13.32,151.3989 c -3.31,41.042 -6.13,92.585 -8.32,142.488 l -1.1,0.004 c -10.55,-49.332 -21.64,-105.926 -31.06,-145.844 L 2802.38,9.1875 h -73.19 l 93.7,373.7895 h 107.05 L 2941.58,241 c 2.2,-34.957 6.08,-77.664 6.63,-119.219 h 2.19 c 14.44,41.555 34.42,85.371 50.52,119.219 l 69.32,141.977 h 108.13 L 3127.87,9.1875 Z M 2693.37,167.785 h -133.12 l -17.22,-90.3514 h 149.2 L 2679.48,9.1875 h -229.02 l 70.98,373.7895 h 221.24 l -13.29,-68.211 h -140.86 l -15.52,-79.891 h 133.12 z m -406.9,145.297 h -98.69 l 13.82,69.895 h 277.85 l -13.33,-69.895 h -99.79 L 2309.2,9.1875 h -79.86 z M 2114.44,19.7305 c -19.95,-8.8555 -53.77,-16.64456 -98.71,-16.64456 -98.69,0 -165.25,60.45316 -165.25,159.16406 0.01,83.719 37.7,149.18 94.27,186.848 38.82,27.183 84.85,39.953 137.54,39.953 40.47,0 70.94,-9.43 81.52,-16.11 l -21.62,-64.855 c -11.08,5.547 -35.5,12.187 -67.68,12.187 -32.15,0 -62.64,-9.964 -85.41,-28.808 -31.58,-25.5 -51.55,-68.192 -51.55,-120.352 0,-59.324 33.26,-99.2536 99.26,-99.2536 26.07,0.0117 52.12,4.4297 70.96,12.1914 z M 1621.27,382.977 1599.13,268.715 C 1588.01,210.5 1575.81,157.223 1563.05,105.133 h 1.13 c 28.28,47.683 57.65,89.277 84.84,129.742 l 101.47,148.102 h 86.5 L 1766.02,9.1875 h -75.41 l 22.18,114.2615 c 11.07,55.457 18.85,98.141 32.16,149.141 h -1.67 c -23.84,-44.375 -52.13,-87.047 -80.94,-129.203 L 1568.05,9.1875 h -93.69 l 70.96,373.7895 h 75.95" /><path
         id="path18"
         style="fill:#162f5f;fill-opacity:1;fill-rule:evenodd;stroke:none"
         d="m 1359.98,847.125 -22.17,-114.223 c -11.1,-58.234 -23.29,-111.492 -36.06,-163.593 h 1.13 c 28.28,47.679 57.67,89.261 84.82,129.734 l 101.49,148.082 h 86.51 l -70.99,-373.746 h -75.41 l 22.17,114.219 c 11.1,55.472 18.87,98.148 32.18,149.168 l -1.67,0.007 c -23.84,-44.375 -52.14,-87.089 -80.94,-129.21 l -94.29,-134.184 h -93.72 l 70.98,373.746 z M 4728.18,631.953 H 4595.1 l -17.2,-90.387 h 149.21 l -12.79,-68.187 H 4485.3 l 70.97,373.746 h 221.27 l -13.33,-68.211 h -140.83 l -15.53,-79.871 h 133.09 z m -246.69,215.172 -71.51,-373.746 h -83.77 l 71.54,373.746 z M 4121.07,534.363 c 6.64,-1.117 16.59,-1.66 27.69,-1.66 36.62,0 79.29,22.164 79.29,67.66 0.02,36.035 -22.16,56.535 -55.44,56.535 -9.97,0.012 -21.05,-1.679 -29.36,-3.304 z m 60.41,312.762 -25.5,-130.879 c 10.54,2.234 26.63,3.875 41.56,3.875 63.23,0 115.91,-36.031 115.91,-109.23 0,-38.821 -14.4,-68.746 -36.6,-91.508 -40.48,-40.457 -101.5,-49.906 -154.68,-49.906 -39.94,0 -73.22,2.765 -90.44,5.546 l 70.48,372.102 z m -368.97,0 -27.75,-145.852 h 135.86 l 27.75,145.852 h 79.87 l -70.99,-373.746 h -79.86 l 29.37,156.91 h -135.29 l -29.98,-156.91 h -79.83 l 70.99,373.746 z M 3474.28,672.992 c 8.33,-1.683 17.19,-2.762 30.52,-2.762 48.21,0 79.81,31.043 79.81,68.188 0,36.031 -26.04,47.703 -57.12,47.703 -14.93,0.008 -25.5,-1.098 -32.13,-2.789 z m -46.57,166.934 c 23.81,6.101 61.5,9.969 97.57,9.969 33.3,0 72.11,-5.54 99.28,-24.946 24.92,-17.207 40.49,-43.254 40.49,-79.297 0,-47.148 -21.65,-82.652 -51.02,-105.375 -30.51,-23.851 -73.76,-34.394 -119.23,-34.394 -13.32,0 -24.41,1.105 -32.69,2.215 L 3436.59,473.379 H 3358.4 Z M 3313.89,631.953 H 3180.8 l -17.18,-90.387 h 149.15 l -12.76,-68.187 h -229 l 70.97,373.746 h 221.3 l -13.33,-68.211 h -140.87 l -15.5,-79.871 h 133.06 z m -462.14,215.172 -27.73,-145.852 h 135.86 l 27.73,145.852 h 79.85 l -70.98,-373.746 h -79.84 l 29.39,156.91 h -135.3 l -29.96,-156.91 h -79.87 l 71.01,373.746 z m -195.3,-215.172 h -133.11 l -17.19,-90.387 h 149.16 l -12.77,-68.187 h -229.02 l 71.01,373.746 h 221.26 l -13.31,-68.211 H 2551.6 l -15.5,-79.871 h 133.08 z m -587.1,215.172 64.31,-159.141 h 8.32 l 29.4,159.141 h 75.95 L 2217.4,687.984 h 8.9 l 120.86,159.141 h 90.43 L 2286.72,677.992 c 44.37,-15.531 57.69,-67.691 66.55,-114.808 4.98,-33.836 9.97,-63.75 19.97,-89.805 h -80.41 c -8.89,26.586 -13.85,57.109 -18.84,89.805 -6.67,42.699 -20.52,69.871 -56.59,69.871 h -8.84 l -29.97,-159.676 h -77.09 l 30.52,160.223 h -8.86 c -36.07,0 -59.37,-28.829 -77.66,-68.762 -16.07,-33.824 -27.71,-64.309 -44.34,-91.461 h -84.3 c 18.85,27.707 32.72,64.336 49.34,99.234 31.62,66.028 56.02,93.692 108.69,105.918 l -90.38,168.594 z m -339.28,0 -27.7,-145.852 h 135.86 l 27.7,145.852 h 79.85 l -70.96,-373.746 h -79.86 l 29.4,156.91 h -135.3 l -29.95,-156.91 h -79.87 l 70.98,373.746 h 79.85" /><path
         id="path20"
         style="fill:#a7a5a6;fill-opacity:1;fill-rule:evenodd;stroke:none"
         d="m 1294.36,949.949 6.31,33.242 c 0.96,5.25 1.65,9.793 2.21,13.68 h 7.19 l -1.17,-9.219 h 0.2 c 4.17,6.618 10.45,10.282 17.34,10.282 5.63,0 11.93,-3.196 11.93,-13.071 0.01,-2.023 -0.4,-5.074 -0.87,-7.554 l -5.24,-27.36 h -8.04 l 5.14,27.063 c 0.39,1.843 0.69,4.051 0.69,5.992 0,4.758 -1.86,8.262 -7.39,8.262 -5.71,0 -13.85,-6.907 -15.99,-18.528 l -4.26,-22.789 z m 2732.21,46.922 -3.57,-18.91 h 21.21 l 3.59,18.91 h 8.03 l -8.92,-46.922 h -8.05 l 4.09,21.543 h -21.24 l -4.05,-21.543 h -8.04 l 8.9,46.922 z m -31.13,-6.019 c -1.16,0.289 -2.79,0.695 -5.51,0.695 -12.13,0.012 -22.03,-12.703 -22.1,-25.688 0.01,-5.222 1.85,-10.386 8.04,-10.386 6.68,0 14.64,8.715 16.95,21.23 z m -5.14,-40.903 c 0,2.817 0.51,7.293 1.09,12.117 h -0.19 c -5.15,-9.671 -11.63,-13.179 -18.23,-13.179 -8.35,0 -13.47,6.586 -13.47,15.511 0,16.309 12.02,33.536 32.37,33.536 4.55,0 9.4,-0.77 12.59,-1.852 l -4.65,-24.418 c -1.57,-8.121 -2.23,-16.484 -1.95,-21.715 z m -109.37,0 6.27,33.242 c 0.99,5.25 1.67,9.793 2.15,13.68 h 7.09 l -1.25,-8.82 h 0.27 c 4.37,6.488 10.28,9.883 16.48,9.883 7.16,0 10.57,-4.547 10.95,-10.481 4.17,6.817 10.17,10.399 17.24,10.481 5.43,0 11.35,-3.473 11.35,-12.317 0,-2.215 -0.3,-5.34 -0.79,-7.965 l -5.21,-27.703 h -7.86 l 5.03,27.063 c 0.39,1.734 0.67,4.14 0.67,6.093 0,4.946 -1.82,8.161 -7.06,8.161 -5.81,0 -12.69,-6.805 -14.63,-17.289 l -4.56,-24.028 h -7.75 l 5.23,27.528 c 0.37,2.039 0.58,3.867 0.58,5.714 0,3.985 -1.06,8.075 -6.97,8.075 -5.93,0 -13.2,-7.789 -15.03,-17.754 l -4.36,-23.563 z m -8.79,1.84 c -2.31,-1.133 -7.17,-2.902 -13.55,-2.902 -12.12,0 -18.04,8.23 -18.04,18.211 0,16.019 11.92,30.754 28.8,30.754 4.35,0 8.2,-1.274 9.7,-2.047 l -2.32,-6.375 c -1.87,0.855 -4.37,1.699 -7.96,1.699 -12.12,0.012 -19.88,-11.992 -19.88,-23.039 0,-7.563 3.97,-12.516 11.72,-12.516 4.77,0 8.45,1.461 10.77,2.629 z m -62.5,3.508 c 9.4,0 16.56,12.211 16.56,23.137 0.01,5.449 -2.51,13.113 -10.83,13.113 -10.19,0.012 -16.89,-12.328 -16.89,-23.07 0.01,-7.661 4.27,-13.184 11.06,-13.184 z m -1.15,-6.41 c -11.74,0 -18.33,8.711 -18.33,19.281 0,15.441 10.74,29.766 26.08,29.766 12.58,0 18.31,-9.59 18.31,-19.575 0,-14.445 -10.3,-29.472 -25.97,-29.472 z m -97.11,1.062 6.29,33.242 c 0.97,5.25 1.66,9.793 2.12,13.68 h 7.09 l -1.26,-8.82 h 0.29 c 4.37,6.488 10.26,9.883 16.48,9.883 7.18,0 10.57,-4.547 10.95,-10.481 4.16,6.817 10.18,10.399 17.24,10.481 5.42,0 11.36,-3.473 11.36,-12.317 0,-2.215 -0.29,-5.34 -0.8,-7.965 l -5.21,-27.703 h -7.86 l 5.02,27.063 c 0.4,1.734 0.69,4.14 0.69,6.093 0,4.946 -1.83,8.161 -7.06,8.161 -5.81,0 -12.7,-6.805 -14.64,-17.289 l -4.58,-24.028 h -7.74 l 5.24,27.528 c 0.39,2.039 0.59,3.867 0.59,5.714 0,3.985 -1.07,8.075 -6.98,8.075 -5.92,0 -13.19,-7.789 -15.04,-17.754 l -4.35,-23.563 z m -41.97,7.848 c 2.02,-1.621 5.11,-2.504 8.87,-2.504 10.4,0.004 19.13,12.797 19.13,25.086 0,4.941 -2.24,10.887 -9.02,10.887 -6.31,0 -14.26,-7.188 -16.68,-20.375 z m -13.2,-27.027 9.39,49.449 c 0.97,5.594 1.95,11.98 2.63,16.726 l 7.36,0.016 -1.36,-8.91 h 0.19 c 4.27,6.117 10.48,9.883 16.87,9.883 10.18,0 14.44,-8.329 14.44,-16.954 0,-16.503 -11.8,-32.093 -27.45,-32.093 -5.02,0 -8.3,1.062 -10.17,2.117 l -0.17,0.004 -3.8,-20.238 z m -26.17,24.527 c 9.4,0 16.56,12.211 16.56,23.137 0.02,5.449 -2.51,13.113 -10.85,13.113 -10.17,0.012 -16.87,-12.328 -16.87,-23.07 0,-7.661 4.26,-13.184 11.04,-13.184 z m -1.15,-6.41 c -11.75,0 -18.33,8.711 -18.33,19.281 0.01,15.441 10.72,29.766 26.06,29.766 12.6,0 18.31,-9.59 18.31,-19.575 0,-14.445 -10.27,-29.472 -25.97,-29.472 z m -45.32,47.984 -3.98,-20.742 h 1.85 l 20.27,20.742 h 9.7 l -22.89,-21.523 c 5.14,-1.246 8.05,-5.696 10.35,-13.176 1.67,-4.856 2.63,-9.406 4.09,-12.223 h -7.84 c -1.27,2.621 -2.35,7.086 -3.89,11.446 -2.71,7.378 -5.44,9.671 -11.25,9.671 l -1.45,0.012 -3.97,-21.129 h -7.83 l 9.01,46.922 z m -77.12,0 -5.11,-27.047 c -0.33,-1.851 -0.71,-4.152 -0.71,-6.105 0.02,-4.922 1.95,-8.145 6.71,-8.145 5.91,0 12.4,6.692 14.34,17.254 l 4.55,24.043 h 7.77 l -5.26,-27.508 c -0.38,-2.156 -0.57,-3.906 -0.57,-5.75 0,-3.945 1.07,-8.039 6.61,-8.039 5.52,0 12.78,7.758 14.63,17.742 l 4.36,23.555 h 7.83 l -6.1,-32.957 c -0.87,-4.656 -1.06,-9.875 -1.25,-13.965 h -7.36 c 0.09,3.5 0.29,6.586 0.48,8.836 l -0.19,0.012 c -4.19,-6.516 -9.7,-9.91 -16.01,-9.91 -6.68,0 -10.46,4.562 -10.76,10.484 -4.15,-6.801 -10.16,-10.484 -17.23,-10.484 -4.95,0 -10.58,3.496 -10.58,12.316 0,2.129 0.31,5.309 0.77,7.942 l 5.24,27.726 z m -30.25,-6.019 c -1.18,0.289 -2.8,0.695 -5.54,0.695 -12.12,0.012 -21.99,-12.703 -22.09,-25.688 0,-5.222 1.86,-10.386 8.07,-10.386 6.66,0 14.61,8.715 16.93,21.23 z m -5.13,-40.903 c 0,2.817 0.49,7.293 1.04,12.117 h -0.16 c -5.16,-9.671 -11.65,-13.179 -18.24,-13.179 -8.35,0 -13.46,6.586 -13.46,15.511 0,16.309 12.02,33.536 32.36,33.536 4.55,0 9.39,-0.77 12.6,-1.852 l -4.65,-24.418 c -1.56,-8.121 -2.24,-16.484 -1.95,-21.715 z m -71.85,6.305 c 1.67,-0.285 3.69,-0.496 6.49,-0.496 9.32,0 19.31,5.523 19.31,16.015 0,8.801 -5.63,12.895 -14.06,12.895 -1.85,0 -4.66,-0.309 -6.6,-0.59 z m 36.05,59.046 -1.14,-6.89 h -25.02 l -3.4,-18.051 c 1.85,0.414 5.34,0.704 7.47,0.704 11.44,0 20.17,-5.93 20.17,-18.235 0,-7.371 -3.01,-12.89 -7.58,-16.656 -5.89,-4.844 -14.42,-6.813 -22.86,-6.813 -5.53,0.008 -10.29,0.403 -12.91,0.786 l 12.34,65.155 z m -74.99,-29.57 c 0,3.782 -2.9,5.895 -7.19,5.895 -7.65,0 -13.37,-7.465 -15.29,-14.824 12.59,-0.082 22.46,1.558 22.46,8.816 z m 1.74,-33.054 c -3.5,-2.02 -9.23,-3.789 -15.52,-3.789 -12.41,0 -17.82,8.523 -17.82,18.906 0,14.156 10.47,30.141 25.59,30.141 8.92,0 13.75,-5.321 13.75,-12.02 0,-12.297 -13.85,-15.625 -31.2,-15.312 -0.39,-2.024 -0.09,-6.414 0.98,-8.907 1.83,-4.164 5.61,-6.304 10.45,-6.304 5.52,0 9.7,1.726 12.59,3.281 z m -60.23,44.195 -3.97,-20.742 h 1.85 l 20.26,20.742 h 9.7 l -22.89,-21.523 c 5.17,-1.246 8.05,-5.696 10.36,-13.176 1.68,-4.856 2.62,-9.406 4.08,-12.223 h -7.85 c -1.27,2.621 -2.32,7.086 -3.87,11.446 -2.72,7.378 -5.44,9.671 -11.26,9.671 l -1.43,0.012 -3.98,-21.129 h -7.85 l 9.02,46.922 z m -51.59,0 -4.92,-26.172 c -0.61,-2.609 -0.88,-4.84 -0.88,-6.871 0,-4.84 2.03,-8.16 7.54,-8.16 5.82,0 13.29,6.781 15.24,17.16 l 4.55,24.043 h 8.03 l -6.3,-33.242 c -0.96,-5.246 -1.64,-9.781 -2.15,-13.68 h -7.25 l 1.28,8.848 h -0.21 c -4.17,-6.121 -10.36,-9.91 -16.57,-9.91 -6.02,0 -12.32,2.902 -12.32,13.562 0,2.254 0.32,4.758 0.87,7.84 l 5.05,26.582 z m -21.11,0 -8.94,-46.922 h -7.94 l 7.54,40.41 h -15.97 l -2.33,-11.91 c -2.42,-12.703 -5.91,-21.715 -12.5,-25.773 -2.72,-2.133 -5.34,-3.09 -9.6,-3.196 l -0.67,6.489 c 2.12,0.207 4.35,0.859 5.7,1.926 4.86,3.222 7.59,10.683 9.42,20.464 l 3.58,18.512 z m -74.38,-41.758 c 10.58,0 15.79,13.465 15.79,23.043 0.01,6.512 -2.7,12.508 -9.58,12.508 -4.67,0.016 -9.22,-3.094 -12.21,-7.559 -2.53,-3.589 -4.18,-8.824 -4.18,-14.453 0,-6.863 3,-13.55 10.08,-13.55 z m 28.11,57.567 c -2.05,-0.79 -4.37,-1.17 -6.7,-1.57 -9.2,-1.34 -17.24,-2.61 -23.75,-10.57 -2.78,-3.376 -5.31,-8.528 -6.58,-13.661 h 0.3 c 3.89,5.926 9.77,9.992 17.15,9.992 10.09,0 15.7,-7.855 15.59,-18.027 0.02,-14.141 -9.1,-29.957 -25.28,-29.957 -11.44,0 -17.06,8.711 -17.06,21.91 0.01,12.887 4.06,25.398 11.04,33.633 7.87,9.81 17.16,11.92 28.59,13.5 2.82,0.36 5.53,0.91 7.96,1.79 z m -81.25,-15.809 4.68,-25.308 c 1.05,-5.317 1.84,-9 2.29,-12.473 h 0.22 c 1.35,3.082 2.89,6.367 5.15,11.609 l 11.42,26.172 h 8.53 c -4.95,-10.676 -12.31,-26.457 -16.98,-35.867 -5.11,-10.066 -10.06,-18.133 -16.55,-24.418 -5.26,-5.32 -10.95,-7.563 -13.67,-8.129 l -1.94,6.883 c 2.04,0.769 5.44,2.019 8.61,4.531 3.1,2.41 6.6,6.211 9.13,10.852 0.38,0.785 0.29,1.269 0.18,2.125 l -9.47,44.023 z m -61.92,-46.922 6.29,33.242 c 0.98,5.25 1.65,9.793 2.22,13.68 h 7.19 l -1.17,-9.219 h 0.2 c 4.16,6.618 10.45,10.282 17.35,10.282 5.62,0 11.9,-3.196 11.9,-13.071 0,-2.023 -0.39,-5.074 -0.87,-7.554 l -5.22,-27.36 h -8.06 l 5.16,27.063 c 0.37,1.843 0.66,4.051 0.66,5.992 0,4.758 -1.83,8.262 -7.35,8.262 -5.72,0 -13.87,-6.907 -16.01,-18.528 l -4.26,-22.789 z m -8.79,1.84 c -2.31,-1.133 -7.16,-2.902 -13.55,-2.902 -12.11,0 -18.04,8.23 -18.04,18.211 0,16.019 11.91,30.754 28.8,30.754 4.35,0 8.22,-1.274 9.68,-2.047 l -2.33,-6.375 c -1.83,0.855 -4.36,1.699 -7.95,1.699 -12.11,0.012 -19.86,-11.992 -19.86,-23.039 0,-7.563 3.96,-12.516 11.73,-12.516 4.76,0 8.43,1.461 10.75,2.629 z m -43.93,33.941 c 0,3.782 -2.88,5.895 -7.16,5.895 -7.66,0 -13.37,-7.465 -15.32,-14.824 12.62,-0.082 22.48,1.558 22.48,8.816 z m 1.77,-33.054 c -3.52,-2.02 -9.22,-3.789 -15.53,-3.789 -12.39,0 -17.83,8.523 -17.83,18.906 0,14.156 10.47,30.141 25.59,30.141 8.94,0 13.75,-5.321 13.75,-12.02 0,-12.297 -13.84,-15.625 -31.19,-15.312 -0.4,-2.024 -0.1,-6.414 0.96,-8.907 1.84,-4.164 5.64,-6.304 10.49,-6.304 5.51,0 9.68,1.726 12.58,3.281 z m -66.62,30.234 c 2.32,-0.496 4.17,-0.695 6.48,-0.695 11.07,0.023 18.43,6.883 18.43,16.098 0,7.767 -5.53,10.857 -12.99,10.857 -3.2,0 -5.61,-0.28 -7.05,-0.67 z m -1.84,31.39 c 3.69,0.87 8.81,1.47 14.14,1.47 6.31,0 12.32,-1.53 15.99,-5.06 3.11,-2.9 4.75,-6.68 4.75,-11.796 0,-7.355 -3.58,-13.465 -7.84,-17.086 -5.03,-4.25 -12.4,-6.191 -19.78,-6.191 -2.41,0.004 -4.65,0.187 -6.7,0.492 l -4.92,-26.18 h -7.95 z m -51.08,-22.288 c -8.34,0 -11.82,-9.008 -13.66,-15.973 5.24,0.68 11.52,1.539 15.5,3.75 2.62,1.496 4.86,3.688 4.86,6.594 0,3.703 -2.92,5.629 -6.61,5.629 z m -4.95,-20.153 c -4.06,0 -7.65,-0.882 -9.76,-1.57 -0.49,-1.926 -0.9,-4.617 -0.9,-7.055 0,-5.339 2.63,-8.339 8.54,-8.339 6.31,0 12.03,3.402 12.03,9.394 0,5.434 -4.49,7.484 -9.79,7.57 z m 6.21,26.075 c 7.48,0 13.19,-3.473 13.19,-10.86 0,-6.367 -6.21,-10.179 -11.05,-11.82 v -0.195 c 4.74,-0.582 9.69,-3.875 9.69,-10.461 0,-11.149 -11.54,-15.711 -21.12,-15.711 -9.42,0 -15.71,3.879 -15.71,13.676 0,8.515 3.87,24.89 12.21,31.187 3.39,2.621 7.47,4.184 12.69,4.184 z m -55.81,-12.204 c 0,3.782 -2.9,5.895 -7.19,5.895 -7.65,0 -13.36,-7.465 -15.29,-14.824 12.6,-0.082 22.48,1.558 22.48,8.816 z m 1.75,-33.054 c -3.5,-2.02 -9.22,-3.789 -15.52,-3.789 -12.41,0 -17.83,8.523 -17.83,18.906 0,14.156 10.47,30.141 25.59,30.141 8.93,0 13.77,-5.321 13.77,-12.02 0,-12.297 -13.88,-15.625 -31.22,-15.312 -0.37,-2.024 -0.1,-6.414 0.98,-8.907 1.83,-4.164 5.61,-6.304 10.48,-6.304 5.5,0 9.67,1.726 12.58,3.281 z m -68.55,44.195 -4.92,-26.172 c -0.59,-2.609 -0.89,-4.84 -0.89,-6.871 0,-4.84 2.05,-8.16 7.55,-8.16 5.81,0 13.3,6.781 15.24,17.16 l 4.54,24.043 h 8.05 l -6.3,-33.242 c -0.96,-5.246 -1.64,-9.781 -2.14,-13.68 h -7.26 l 1.27,8.848 h -0.21 c -4.16,-6.121 -10.35,-9.91 -16.56,-9.91 -6.02,0 -12.32,2.902 -12.32,13.562 0,2.254 0.3,4.758 0.87,7.84 l 5.04,26.582 z m -50.41,0 -3.58,-18.91 h 21.22 l 3.6,18.91 h 8.02 l -8.92,-46.922 h -8.04 l 4.06,21.543 h -21.21 l -4.05,-21.543 h -8.06 l 8.92,46.922 z m -31.12,-6.019 c -1.17,0.289 -2.82,0.695 -5.54,0.695 -12.1,0.012 -22.01,-12.703 -22.08,-25.688 0,-5.222 1.84,-10.386 8.04,-10.386 6.68,0 14.62,8.715 16.96,21.23 z m -5.14,-40.903 c 0,2.817 0.5,7.293 1.06,12.117 h -0.18 c -5.14,-9.671 -11.62,-13.179 -18.22,-13.179 -8.35,0 -13.46,6.586 -13.46,15.511 0,16.309 12.01,33.536 32.36,33.536 4.54,0 9.4,-0.77 12.58,-1.852 l -4.64,-24.418 c -1.57,-8.121 -2.24,-16.484 -1.95,-21.715 z m -60.98,5.164 c 9.39,0 15.31,14.422 15.41,22.688 0,6.277 -3.21,12.683 -9.99,12.683 -10.57,0.004 -15.43,-13.589 -15.43,-22.89 0.1,-6.477 2.83,-12.492 9.9,-12.492 z m -8.16,64.627 c 3.39,-0.77 7.18,-0.77 10.09,-1.08 7.55,-0.73 12.69,-2.51 16.68,-6.87 4.85,-4.85 6.87,-13.278 6.87,-21.126 0,-15.91 -6.71,-41.777 -26.84,-41.777 -11.06,0 -16.97,7.465 -16.97,18.621 0,13.277 8.54,29.363 23.36,29.363 7.08,0 11.54,-3.887 13.4,-9.797 h 0.18 c 0.1,1.27 0.1,2.824 0.1,4.356 0.06,4.859 -1.38,11.54 -5.05,15.32 -3.21,3.39 -7.19,4.57 -13.57,5.14 -2.22,0.2 -4.96,0.38 -7.94,0.97 z m -42.01,-42.357 h 3.22 c 5.5,0 13.48,2.406 13.48,8.234 0,4.18 -3.52,6.106 -7.66,6.106 -3.7,0.015 -7.78,-1.164 -11.16,-3.305 l -1.84,5.156 c 3.78,2.52 9.21,4.278 14.25,4.278 7.17,0 14.83,-2.934 14.83,-11.352 0,-6.574 -6.13,-10.562 -12.32,-11.746 v -0.086 c 5.14,-0.691 10.86,-4.652 10.86,-10.949 0,-11.043 -10.94,-14.735 -20.26,-14.735 -6.1,0 -11.43,1.454 -15.22,4 l 2.32,5.813 c 3.4,-2.156 7.97,-3.617 12.41,-3.617 5.45,0 12.21,2.418 12.21,8.539 0.02,6.105 -6.59,7.945 -12.29,7.945 h -3.78 z m -42.06,19.488 -4.92,-26.172 c -0.6,-2.609 -0.91,-4.84 -0.91,-6.871 0.01,-4.84 2.06,-8.16 7.58,-8.16 5.8,0 13.27,6.781 15.21,17.16 l 4.54,24.043 h 8.06 l -6.31,-33.242 c -0.96,-5.246 -1.63,-9.781 -2.13,-13.68 h -7.27 l 1.29,8.848 h -0.21 c -4.16,-6.121 -10.38,-9.91 -16.57,-9.91 -6.02,0 -12.33,2.902 -12.33,13.562 0,2.254 0.31,4.758 0.89,7.84 l 5.03,26.582 z M 2462.4,985.73 c 0,3.782 -2.91,5.895 -7.21,5.895 -7.64,0 -13.35,-7.465 -15.3,-14.824 12.61,-0.082 22.51,1.558 22.51,8.816 z m 1.75,-33.054 c -3.51,-2.02 -9.23,-3.789 -15.53,-3.789 -12.4,0 -17.83,8.523 -17.83,18.906 0,14.156 10.47,30.141 25.59,30.141 8.92,0 13.75,-5.321 13.75,-12.02 0,-12.297 -13.84,-15.625 -31.2,-15.312 -0.38,-2.024 -0.1,-6.414 0.96,-8.907 1.84,-4.164 5.63,-6.304 10.49,-6.304 5.51,0 9.67,1.726 12.58,3.281 z m -64.19,2.621 c 9.39,0 16.55,12.211 16.55,23.137 0,5.449 -2.52,13.113 -10.84,13.113 -10.17,0.012 -16.87,-12.328 -16.87,-23.07 0.01,-7.661 4.26,-13.184 11.06,-13.184 z m -1.18,-6.41 c -11.72,0 -18.32,8.711 -18.32,19.281 0.01,15.441 10.75,29.766 26.09,29.766 12.59,0 18.29,-9.59 18.29,-19.575 0,-14.445 -10.26,-29.472 -25.97,-29.472 z m -53.14,47.984 -3.56,-18.91 h 21.2 l 3.6,18.91 h 8.02 l -8.88,-46.922 h -8.06 l 4.05,21.543 h -21.19 l -4.09,-21.543 h -8.03 l 8.91,46.922 z m -51.18,0 -3.57,-18.91 h 21.22 l 3.57,18.91 h 8.05 l -8.93,-46.922 h -8.02 l 4.06,21.543 h -21.2 l -4.1,-21.543 h -8.04 l 8.93,46.922 z m -31.11,-6.019 c -1.18,0.289 -2.83,0.695 -5.53,0.695 -12.13,0.012 -22,-12.703 -22.12,-25.688 0,-5.222 1.85,-10.386 8.06,-10.386 6.68,0 14.62,8.715 16.97,21.23 z m -5.13,-40.903 c 0,2.817 0.47,7.293 1.05,12.117 h -0.17 c -5.17,-9.671 -11.65,-13.179 -18.22,-13.179 -8.36,0 -13.49,6.586 -13.49,15.511 0,16.309 12,33.536 32.37,33.536 4.57,0 9.4,-0.77 12.59,-1.852 l -4.65,-24.418 c -1.55,-8.121 -2.25,-16.484 -1.94,-21.715 z m -52.07,42.063 c -8.35,0 -11.83,-9.008 -13.69,-15.973 5.25,0.68 11.55,1.539 15.51,3.75 2.64,1.496 4.84,3.688 4.84,6.594 0,3.703 -2.9,5.629 -6.58,5.629 z m -4.95,-20.153 c -4.09,0 -7.67,-0.882 -9.8,-1.57 -0.49,-1.926 -0.85,-4.617 -0.85,-7.055 0,-5.339 2.6,-8.339 8.51,-8.339 6.3,0 12.01,3.402 12.01,9.394 0,5.434 -4.46,7.484 -9.78,7.57 z m 6.19,26.075 c 7.48,0 13.18,-3.473 13.18,-10.86 0,-6.367 -6.21,-10.179 -11.05,-11.82 v -0.195 c 4.75,-0.582 9.68,-3.875 9.68,-10.461 0,-11.149 -11.51,-15.711 -21.11,-15.711 -9.39,0 -15.7,3.879 -15.7,13.676 0,8.515 3.88,24.89 12.2,31.187 3.4,2.621 7.46,4.184 12.7,4.184 z m -56.8,-42.637 c 9.4,0 16.59,12.211 16.59,23.137 0,5.449 -2.56,13.113 -10.88,13.113 -10.18,0.012 -16.85,-12.328 -16.85,-23.07 0,-7.661 4.25,-13.184 11.04,-13.184 z m -1.16,-6.41 c -11.73,0 -18.32,8.711 -18.32,19.281 0,15.441 10.75,29.766 26.07,29.766 12.61,0 18.32,-9.59 18.32,-19.575 0,-14.445 -10.29,-29.472 -25.99,-29.472 z m -60.88,8.91 c 2.03,-1.621 5.13,-2.504 8.9,-2.504 10.38,0.004 19.1,12.797 19.1,25.086 0,4.941 -2.25,10.887 -9,10.887 -6.31,0 -14.25,-7.188 -16.69,-20.375 z m -13.19,-27.027 9.38,49.449 c 0.98,5.594 1.96,11.98 2.63,16.726 l 7.37,0.016 -1.36,-8.91 h 0.22 c 4.26,6.117 10.45,9.883 16.85,9.883 10.16,0 14.43,-8.329 14.43,-16.954 0,-16.503 -11.83,-32.093 -27.43,-32.093 -5.04,0 -8.33,1.062 -10.16,2.117 l -0.21,0.004 -3.76,-20.238 z m -30.56,66.101 -4.92,-26.172 c -0.59,-2.609 -0.89,-4.84 -0.89,-6.871 0.01,-4.84 2.03,-8.16 7.55,-8.16 5.82,0 13.3,6.781 15.22,17.16 l 4.56,24.043 h 8.06 l -6.31,-33.242 c -0.98,-5.246 -1.64,-9.781 -2.12,-13.68 h -7.29 l 1.27,8.848 h -0.19 c -4.19,-6.121 -10.38,-9.91 -16.6,-9.91 -5.99,0 -12.27,2.902 -12.27,13.562 0,2.254 0.27,4.758 0.85,7.84 l 5.04,26.582 z m -47.5,-19.488 h 3.18 c 5.54,0 13.47,2.406 13.47,8.234 0,4.18 -3.48,6.106 -7.66,6.106 -3.68,0.015 -7.75,-1.164 -11.14,-3.305 l -1.83,5.156 c 3.75,2.52 9.22,4.278 14.24,4.278 7.16,0 14.83,-2.934 14.83,-11.352 0,-6.574 -6.1,-10.562 -12.3,-11.746 v -0.086 c 5.14,-0.691 10.84,-4.652 10.84,-10.949 0,-11.043 -10.94,-14.735 -20.25,-14.735 -6.09,0 -11.44,1.454 -15.22,4 l 2.34,5.813 c 3.38,-2.156 7.93,-3.617 12.39,-3.617 5.42,0 12.2,2.418 12.2,8.539 0,6.105 -6.59,7.945 -12.31,7.945 h -3.77 z m -42.1,19.488 -4.95,-26.172 c -0.59,-2.609 -0.86,-4.84 -0.86,-6.871 0,-4.84 2.03,-8.16 7.57,-8.16 5.81,0 13.27,6.781 15.19,17.16 l 4.56,24.043 h 8.04 l -6.29,-33.242 c -0.96,-5.246 -1.65,-9.781 -2.14,-13.68 h -7.27 l 1.28,8.848 h -0.2 c -4.17,-6.121 -10.39,-9.91 -16.58,-9.91 -6,0 -12.31,2.902 -12.31,13.562 0,2.254 0.29,4.758 0.87,7.84 l 5.05,26.582 z m -21.12,0 -8.94,-46.922 h -7.95 l 7.56,40.41 h -15.99 l -2.33,-11.91 c -2.41,-12.703 -5.91,-21.715 -12.51,-25.773 -2.7,-2.133 -5.33,-3.09 -9.59,-3.196 l -0.67,6.489 c 2.14,0.207 4.36,0.859 5.72,1.926 4.87,3.222 7.55,10.683 9.39,20.464 l 3.6,18.512 z m -59.53,-6.019 c -1.18,0.289 -2.84,0.695 -5.55,0.695 -12.1,0.012 -21.99,-12.703 -22.09,-25.688 0,-5.222 1.84,-10.386 8.05,-10.386 6.69,0 14.63,8.715 16.94,21.23 z m -5.15,-40.903 c 0,2.817 0.47,7.293 1.05,12.117 h -0.18 c -5.13,-9.671 -11.63,-13.179 -18.2,-13.179 -8.36,0 -13.5,6.586 -13.5,15.511 0,16.309 12.02,33.536 32.38,33.536 4.55,0 9.4,-0.77 12.59,-1.852 l -4.64,-24.418 c -1.56,-8.121 -2.24,-16.484 -1.94,-21.715 z m -65.92,46.922 -4.94,-26.172 c -0.58,-2.609 -0.88,-4.84 -0.88,-6.871 0,-4.84 2.02,-8.16 7.57,-8.16 5.81,0 13.27,6.781 15.21,17.16 l 4.56,24.043 h 8.04 l -6.3,-33.242 c -0.96,-5.246 -1.63,-9.781 -2.12,-13.68 h -7.27 l 1.26,8.848 h -0.19 c -4.19,-6.121 -10.39,-9.91 -16.59,-9.91 -6.01,0 -12.31,2.902 -12.31,13.562 0.01,2.254 0.29,4.758 0.87,7.84 l 5.04,26.582 z m -52.07,0 -4.92,-26.172 c -0.58,-2.609 -0.88,-4.84 -0.88,-6.871 0,-4.84 2.03,-8.16 7.55,-8.16 5.82,0 13.28,6.781 15.22,17.16 l 4.55,24.043 h 8.05 l -5.72,-30.543 c -0.49,-2.125 -0.76,-4.156 -0.76,-5.902 0,-3.391 1.64,-5.821 6.29,-5.91 l -5.73,-18.036 h -5.9 l 3.49,13.469 c -1.65,0.41 -3.39,1.559 -4.35,3.184 -0.98,1.676 -1.18,3.902 -1.08,5.828 l -0.18,0.027 c -4.16,-6.129 -10.5,-10.101 -16.88,-10.101 -6.1,0 -12.7,2.902 -12.7,13.562 0.02,2.254 0.3,4.758 0.87,7.84 l 5.05,26.582 z m -27.94,-11.141 c 0,3.782 -2.91,5.895 -7.17,5.895 -7.63,0 -13.37,-7.465 -15.3,-14.824 12.59,-0.082 22.47,1.558 22.47,8.816 z m 1.77,-33.054 c -3.51,-2.02 -9.22,-3.789 -15.52,-3.789 -12.42,0 -17.84,8.523 -17.84,18.906 0,14.156 10.45,30.141 25.58,30.141 8.92,0 13.77,-5.321 13.77,-12.02 0,-12.297 -13.86,-15.625 -31.2,-15.312 -0.39,-2.024 -0.11,-6.414 0.97,-8.907 1.83,-4.164 5.61,-6.304 10.45,-6.304 5.53,0 9.71,1.726 12.62,3.281 z m -85.51,-2.727 6.29,33.242 c 0.96,5.25 1.66,9.793 2.23,13.68 h 7.17 l -1.17,-9.219 h 0.21 c 4.17,6.618 10.47,10.282 17.33,10.282 5.64,0 11.94,-3.196 11.94,-13.071 0,-2.023 -0.39,-5.074 -0.88,-7.554 l -5.24,-27.36 h -8.04 l 5.13,27.063 c 0.39,1.843 0.7,4.051 0.7,5.992 0,4.758 -1.84,8.262 -7.37,8.262 -5.73,0 -13.86,-6.907 -16.01,-18.528 l -4.25,-22.789 z m -8.76,1.84 c -2.32,-1.133 -7.18,-2.902 -13.57,-2.902 -12.1,0 -18.03,8.23 -18.03,18.211 0.01,16.019 11.92,30.754 28.79,30.754 4.36,0 8.24,-1.274 9.69,-2.047 l -2.33,-6.375 c -1.84,0.855 -4.36,1.699 -7.96,1.699 -12.1,0.012 -19.86,-11.992 -19.86,-23.039 0,-7.563 3.98,-12.516 11.74,-12.516 4.74,0 8.44,1.461 10.74,2.629 z m -61.53,33.941 c 0,3.782 -2.92,5.895 -7.19,5.895 -7.64,0 -13.37,-7.465 -15.3,-14.824 12.59,-0.082 22.49,1.558 22.49,8.816 z m 1.75,-33.054 c -3.5,-2.02 -9.22,-3.789 -15.51,-3.789 -12.41,0 -17.84,8.523 -17.84,18.906 0,14.156 10.46,30.141 25.58,30.141 8.92,0 13.76,-5.321 13.76,-12.02 0,-12.297 -13.86,-15.625 -31.2,-15.312 -0.39,-2.024 -0.1,-6.414 0.97,-8.907 1.83,-4.164 5.62,-6.304 10.46,-6.304 5.53,0 9.69,1.726 12.61,3.281 z m -64.18,2.621 c 9.38,0 16.55,12.211 16.55,23.137 0.01,5.449 -2.51,13.113 -10.86,13.113 -10.17,0.012 -16.86,-12.328 -16.86,-23.07 0,-7.661 4.27,-13.184 11.04,-13.184 z m -1.18,-6.41 c -11.73,0 -18.31,8.711 -18.31,19.281 0.01,15.441 10.75,29.766 26.07,29.766 12.57,0 18.31,-9.59 18.31,-19.575 0,-14.445 -10.28,-29.472 -25.97,-29.472 z m -39.76,43.125 c -8.34,0 -11.84,-9.008 -13.67,-15.973 5.23,0.68 11.53,1.539 15.51,3.75 2.62,1.496 4.85,3.688 4.85,6.594 0,3.703 -2.92,5.629 -6.61,5.629 z m -4.94,-20.153 c -4.1,0 -7.67,-0.882 -9.79,-1.57 -0.5,-1.926 -0.88,-4.617 -0.88,-7.055 0,-5.339 2.61,-8.339 8.54,-8.339 6.29,0 12.02,3.402 12.02,9.394 0,5.434 -4.48,7.484 -9.8,7.57 z m 6.2,26.075 c 7.46,0 13.17,-3.473 13.17,-10.86 0.02,-6.367 -6.19,-10.179 -11.05,-11.82 v -0.195 c 4.76,-0.582 9.7,-3.875 9.7,-10.461 0.01,-11.149 -11.54,-15.711 -21.13,-15.711 -9.39,0 -15.7,3.879 -15.7,13.676 0,8.515 3.88,24.89 12.21,31.187 3.4,2.621 7.46,4.184 12.7,4.184 z m -68.44,-40.137 c 2.03,-1.621 5.13,-2.504 8.92,-2.504 10.36,0.004 19.08,12.797 19.08,25.086 0,4.941 -2.24,10.887 -9,10.887 -6.3,0 -14.26,-7.188 -16.67,-20.375 z m -13.18,-27.027 9.39,49.449 c 0.97,5.594 1.94,11.98 2.61,16.726 l 7.37,0.016 -1.35,-8.91 h 0.18 c 4.27,6.117 10.49,9.883 16.89,9.883 10.16,0 14.42,-8.329 14.42,-16.954 0,-16.503 -11.83,-32.093 -27.41,-32.093 -5.06,0 -8.34,1.062 -10.18,2.117 l -0.19,0.004 -3.79,-20.238 z m -7.6,54.96 c 0,3.782 -2.9,5.895 -7.16,5.895 -7.65,0 -13.37,-7.465 -15.31,-14.824 12.59,-0.082 22.47,1.558 22.47,8.816 z m 1.76,-33.054 c -3.49,-2.02 -9.21,-3.789 -15.51,-3.789 -12.4,0 -17.84,8.523 -17.84,18.906 0,14.156 10.47,30.141 25.59,30.141 8.92,0 13.77,-5.321 13.77,-12.02 0,-12.297 -13.87,-15.625 -31.21,-15.312 -0.39,-2.024 -0.1,-6.414 0.97,-8.907 1.84,-4.164 5.61,-6.304 10.46,-6.304 5.53,0 9.69,1.726 12.6,3.281 l 1.17,-5.996" /><path
         id="path22"
         style="fill:#eaa524;fill-opacity:1;fill-rule:evenodd;stroke:none"
         d="m 484.434,847.125 c -64.286,0 -128.477,-17.371 -186.539,-47.852 V 799.23 C 258.457,778.531 221.957,751.832 189.91,720.758 131.773,663.906 89.1602,592.539 72.832,515.059 l -8.25,-39.036 c 15.1133,71.274 54.316,136.899 107.832,189.192 29.438,28.668 63.051,53.191 99.465,72.277 v 0.039 c 53.426,28.098 112.555,44.098 171.805,44.098 H 1070.63 L 973.859,322.715 C 958.777,251.41 919.332,185.441 865.785,133.281 v -0.176 C 836.293,104.559 802.617,79.7891 766.309,60.8633 l -0.067,0.0156 C 712.887,32.9336 653.742,16.5703 594.34,16.5703 h 53.723 c 64.425,0 128.652,17.7461 186.539,48.1172 h 0.164 c 39.277,20.5586 75.847,47.4105 107.949,78.4215 v 0.157 c 58.125,56.683 100.945,128.23 117.255,205.648 l 105.07,498.211 H 484.434" /><path
         id="path24"
         style="fill:#162f5f;fill-opacity:1;fill-rule:evenodd;stroke:none"
         d="m 371.973,429.02 c -0.063,1.031 -0.063,1.941 -0.125,2.832 -0.442,17.484 2.039,34.285 6.738,50.226 -32.481,0.012 -56.5,0 -57.078,0 l -0.871,0.012 c -44.235,0 25.742,-0.266 1.601,-1.094 -48.015,-1.676 -72.558,-25.828 -75.242,-49.586 -6.25,-28.34 -11.101,-50.215 -12.914,-58.519 l 113.305,0.074 C 358.645,325.219 426.063,293.59 463.75,271.746 h -218.5 l -33.152,0.035 -17.828,-82.843 c -1.563,-19.403 13.179,-36.891 50.234,-39.711 h 98.398 l 4.868,22.55 2.757,2.274 c 57.618,-0.11 82.887,-0.387 128.278,-0.387 2.449,0.012 4.855,0 6.875,0 44.113,3.223 82.062,24.844 80.933,61.707 0,0.453 0,0.684 0,0.906 -0.98,26.414 -23.34,42.969 -74.437,63.516 -59.274,25.18 -117.281,61.133 -120.203,129.227 z m 400.73,60.488 -113.746,-1.024 c -18.621,-0.152 -34.91,-0.453 -46.398,-0.816 -52.735,-1.766 -77.719,-30.094 -76.993,-55.539 0,0 -0.031,-0.52 -0.031,-0.652 0.25,-8.758 4.16,-16.278 10.59,-23.278 9.922,-4.98 21.082,-10.019 33.32,-15.383 5.262,-2.152 10.239,-4.601 15.266,-6.902 21.574,-9.953 40.344,-21.32 55.684,-34.531 34.035,-18.778 59.351,-42.043 71.867,-72.039 5.023,-12.27 8.172,-25.434 8.695,-40.024 0.059,-1.011 0.02,-2.105 0.086,-3.113 C 733.961,123.184 635.59,57.5117 515.09,49.0547 471.859,46.8633 436.754,46.2852 382.008,46.2852 c -16.442,0.0156 -2.367,0 -16.11,0.0781 -0.89,0.0586 -1.753,0.4258 -2.273,1.1875 -0.621,0.6797 -0.871,1.6015 -0.621,2.5 l 4.504,20.8828 c -6.891,-0.0195 -14.016,-0.0352 -21.57,-0.0352 -14.125,0 -5.926,0 -11.887,0 l -2.684,-12.5117 c -1.195,-3.8789 -1.402,-7.9258 -0.812,-11.9023 H 188.852 c -45.688,4.9258 -79.188,23.6953 -98.5122,51.2578 -2.0585,2.8868 -3.8554,5.8668 -5.6093,8.8628 -1.6133,2.899 -3.1133,5.743 -4.3516,8.735 -9.6523,21.625 -11.9766,47.207 -5.4492,75.488 l 0.6992,3.254 10.668,48.344 h 0.375 l 41.7851,193.199 0.652,3.219 c 16.809,80.875 94.825,140.898 193.129,144.336 H 458.48 c 34.118,20.945 76.079,33.269 122.168,33.359 18.372,0.016 40.95,0 64.563,0.059 l 113.172,-0.043 -21.809,-102.473 16.582,77.891 h 41.336 z M 410.355,728.113 c -55.097,0 -110.023,-14.886 -159.785,-41 v -0.019 C 216.742,669.324 185.496,646.5 158.02,619.828 108.23,571.18 71.6875,509.969 57.75,443.648 L 7.13281,204.074 c 0,0 -14.05469,-54.785 30.01169,-120.5818 C 82.1602,16.2969 154.516,16.5703 154.516,16.5703 h 396.039 c 55.179,0 110.211,15.1914 159.883,41.2461 h 0.046 c 33.715,17.5703 65.051,40.5664 92.508,67.1606 v 0.14 c 49.809,48.559 86.496,109.891 100.492,176.129 l 90.024,426.867 H 410.355" /><path
         id="path26"
         style="fill:#ffffff;fill-opacity:1;fill-rule:evenodd;stroke:none"
         d="m 645.211,616.605 c -23.613,-0.05 -46.191,-0.066 -64.563,-0.066 -119.085,-0.195 -211.437,-81.66 -208.8,-184.687 0.062,-0.879 0.062,-1.801 0.125,-2.84 2.922,-68.086 60.925,-104.039 120.203,-129.219 51.097,-20.547 73.457,-37.113 74.437,-63.516 0,-0.203 0,-0.453 0,-0.906 1.129,-36.863 -36.82,-58.496 -80.933,-61.707 -2.02,0.012 -4.426,0 -6.875,0 -45.391,0.012 -70.66,0.277 -128.278,0.387 l -2.757,-2.274 -20.922,-97.1559 c -0.227,-0.918 0.074,-1.7773 0.578,-2.543 0.57,-0.7383 1.437,-1.0586 2.344,-1.1797 13.765,0 -0.305,0 16.168,0 54.761,0 89.792,0.5118 132.949,2.7618 120.504,8.4726 218.968,74.0818 215.968,187.0628 0,1.082 0,2.16 0,3.125 -0.648,14.57 -3.808,27.808 -8.789,40.09 -14.832,35.546 -47.41,61.691 -91.355,81.976 -5.027,2.313 -10.012,4.75 -15.266,6.902 -47.218,20.676 -79.363,36.598 -79.972,63.192 0,0.14 -0.071,0.699 -0.071,0.699 -0.75,25.43 24.348,53.781 77.067,55.531 11.433,0.375 27.707,0.668 46.363,0.797 l 113.742,1.047 21.809,102.473 -113.172,0.05" /><path
         id="path28"
         style="fill:#3c77af;fill-opacity:1;fill-rule:evenodd;stroke:none"
         d="m 247.004,431.41 c 2.676,23.758 27.219,47.91 75.234,49.586 24.141,0.84 -45.836,1.082 -1.601,1.082 l 0.871,0.012 c 0.578,0 24.597,-0.012 57.078,-0.012 12.246,41.676 40.793,77.086 79.894,101.102 h -45.792 c -26.293,-20.516 -47.016,-46.25 -60.028,-75.727 -32.531,0 -56.57,0 -57.133,0 h -0.875 c -44.261,0 25.739,-0.262 1.504,-1.07 -47.988,-1.684 -72.461,-25.871 -75.207,-49.61 -6.265,-28.351 -11.109,-50.281 -12.937,-58.515 h 31.672 c 2.074,9.406 4.554,20.597 7.32,33.152 z m 72.32,-282.183 -14.011,-65.5004 c -1.168,-3.8321 -1.387,-7.9024 -0.79,-11.8555 H 162.805 c -28.891,3.1016 -52.907,11.8047 -71.555,24.7383 19.434,-26.9258 52.563,-45.2891 97.602,-50.125 h 141.703 c -0.59,3.9765 -0.383,8.0078 0.812,11.8945 l 2.684,12.5195 c -1.004,0 -2.321,0 -4.281,0 -0.907,0.1368 -1.774,0.4219 -2.344,1.1797 -0.504,0.7657 -0.805,1.625 -0.578,2.543 l 16.054,74.6059 z M 195.168,179.16 c -0.762,3.172 -1.16,6.426 -0.898,9.778 l 17.828,82.843 33.152,-0.035 h 218.5 C 451.215,279 435.344,287.398 419.379,297.082 H 219.262 l -33.149,0.059 -17.918,-82.86 c -1.109,-14.672 7.028,-28.176 26.973,-35.121" /><path
         id="path30"
         style="fill:#ffffff;fill-opacity:1;fill-rule:evenodd;stroke:none"
         d="m 168.195,214.281 17.918,82.86 33.149,-0.059 h 200.285 c -37.684,21.879 -67.563,53.469 -78.863,101.176 H 208.012 c 1.828,8.242 6.672,30.16 12.937,58.515 2.746,23.739 27.219,47.918 75.207,49.61 24.235,0.808 -45.765,1.07 -1.504,1.07 h 0.875 c 0.563,0 24.602,0 57.133,0 19.117,43.375 54.703,78.922 100.621,101.055 H 296.223 C 197.883,605.117 119.934,545.051 103.066,464.184 L 102.363,461.012 60.5859,267.777 H 60.293 L 49.5898,219.434 48.832,216.223 c -6.4336,-28.313 -4.1601,-53.856 5.4961,-75.555 1.3008,-2.957 2.75,-5.797 4.3633,-8.715 1.7813,-2.969 3.6133,-5.969 5.6172,-8.84 C 83.6484,95.5469 117.199,76.7773 162.805,71.8711 h 141.718 c -0.597,3.9531 -0.378,8.0117 0.79,11.8555 l 19.441,90.8714 H 218.496 c -37.051,2.797 -51.766,20.238 -50.301,39.683" /><path
         id="path32"
         style="fill:#3c77af;fill-opacity:1;fill-rule:evenodd;stroke:none"
         d="m 753.156,591.973 -16.582,-77.891 -113.742,-1.047 c -18.656,-0.117 -34.93,-0.433 -46.363,-0.797 -52.719,-1.75 -77.817,-30.101 -77.067,-55.531 0,0.012 0.071,-0.559 0.071,-0.699 0.453,-19.68 18.277,-33.539 46.652,-47.809 -6.43,7 -10.34,14.52 -10.59,23.278 0,0.132 0.031,0.652 0.031,0.652 -0.726,25.453 24.258,53.773 76.993,55.539 11.488,0.363 27.777,0.656 46.398,0.816 l 113.746,1.024 21.789,102.465 z M 722.262,279.344 c -12.535,30.019 -37.864,53.297 -71.903,72.054 15.934,-13.699 28.153,-29.343 35.707,-47.46 4.981,-12.282 8.141,-25.52 8.789,-40.09 0,-0.957 0,-2.043 0,-3.125 3,-112.969 -95.464,-178.5902 -215.968,-187.0628 -37.188,-1.9258 -68.418,-2.5938 -111.379,-2.7266 l -4.504,-20.8711 c -0.25,-0.9102 0,-1.832 0.621,-2.5117 0.52,-0.7617 1.383,-1.1289 2.273,-1.1875 13.743,-0.0625 -0.332,-0.0781 16.11,-0.0781 54.746,0.0156 89.851,0.5781 133.082,2.7695 120.5,8.457 218.871,74.1293 215.953,187.1523 -0.066,1.016 -0.027,2.102 -0.086,3.113 -0.523,14.59 -3.672,27.754 -8.695,40.024" /></g></g></svg>