<?xml version="1.0" encoding="utf-8"?>
<!-- Generator: Adobe Illustrator 21.0.2, SVG Export Plug-In . SVG Version: 6.00 Build 0)  -->
<svg version="1.1" id="Layer_1" xmlns="http://www.w3.org/2000/svg" xmlns:xlink="http://www.w3.org/1999/xlink" x="0px" y="0px"
	 viewBox="0 0 370 180" style="enable-background:new 0 0 370 180;" xml:space="preserve">
<style type="text/css">
	.st0{display:none;fill:#FFFFFF;}
	.st1{fill:#FFFFFF;}
	.st2{fill:#26AAE1;}
</style>
<path class="st0" d="M93.5,133.7c8.8-3.1,17.6,5.5,16.5,14.3c0.4,8.3-8,15.8-16.2,13.1C81.5,157.9,81.3,137.3,93.5,133.7
	 M107.5,99.3c3.1,0.1,6.4-0.5,9.4,0.8c4.2,1.7,4.7,8.4,0.8,10.7c-3,1.8-6.8,1-10.2,1.2C107.5,107.8,107.5,103.5,107.5,99.3
	 M73.5,84.3c3.4,0,7-0.5,10.3,0.8c4.8,2.1,4.7,10.5-0.5,12.1c-3.1,1.1-6.5,0.8-9.8,0.8C73.5,93.4,73.5,88.9,73.5,84.3 M285.1,57.8
	c3.2,2.8,6.4,5.6,9.2,8.7c-3.6,0-7.2,0-10.8,0C284.1,63.6,284.6,60.7,285.1,57.8 M37.4,66.5c3.9-4.1,8-7.8,12.4-11.2
	c0.7,3.7,1.3,7.5,2,11.2C47,66.5,42.2,66.5,37.4,66.5 M51.2,54.2c1.5-1.2,3.1-2.3,4.6-3.4c-0.8,4.9-1.7,9.9-2.6,14.8
	C52.5,61.8,51.8,58,51.2,54.2 M258.2,66.5c1.4-8,2.8-16,4.3-24.1c3.5,2.2,7.5,3.8,10.5,6.6c0.9,5.8,3.1,11.6,2,17.4
	C269.4,66.5,263.8,66.5,258.2,66.5 M58.5,49.2c4.2-3.3,9-5.6,13.6-8.2c1.5,8.5,3,17,4.5,25.5c-7.1,0-14.2,0-21.3,0
	C56.5,60.7,57.3,54.9,58.5,49.2 M248.6,35.8c2.1,1.1,4.8,1.6,6.4,3.3c-0.7,5.7-2.1,11.4-2.9,17.1C251,49.4,249.7,42.6,248.6,35.8
	 M73.8,40.2c3.1-1.6,6.2-3,9.4-4.4c-1.7,9.6-3.4,19.2-5.1,28.9C76.7,56.5,75.3,48.4,73.8,40.2 M238.9,32c2.2,0.8,4.4,1.7,6.6,2.6
	c1.7,9.1,3.2,18.2,4.9,27.3c0.4,1.6,0.2,3.1,0,4.7c-5.8,0-11.7,0-17.5,0C234.8,55,236.9,43.5,238.9,32 M86.3,34.5
	c3-1.1,6-2.3,9.1-3.3c2.1,11.8,4.2,23.6,6.2,35.4c-7,0-14,0-21,0C82.6,55.8,84.4,45.1,86.3,34.5 M221.9,26.8c3.5,0.8,6.9,1.8,10.3,3
	c-1.6,9.2-3.2,18.4-4.9,27.7C225.4,47.2,223.6,37,221.9,26.8 M97.1,30.6c4-1.5,8.2-2.6,12.3-3.7c-2.1,12.1-4.2,24.3-6.5,36.4
	C100.9,52.4,99.1,41.5,97.1,30.6 M214.8,25.1c1.4,0.3,2.9,0.7,4.3,1c2.1,12.3,4.3,24.5,6.5,36.8c0.1,1.2,0.2,2.4,0.3,3.6
	c-6.1,0.1-12.2,0-18.3,0C210,52.7,212.5,38.9,214.8,25.1 M113.2,25.9c2-0.5,4-0.9,6-1.4c2.5,14,5,27.9,7.4,41.9
	c-6.8,0-13.6,0-20.4,0C108.4,53,110.8,39.5,113.2,25.9 M195.9,21.7c4.2,0.6,8.3,1.3,12.5,2c-1.9,11.5-4.1,23-6,34.6
	C200.2,46.1,198.1,33.9,195.9,21.7 M121.1,24.2c4.6-1,9.2-1.7,13.8-2.4c-2.3,13.4-4.7,26.9-7.1,40.3
	C125.6,49.5,123.4,36.9,121.1,24.2 M190.1,21.1c1,0.1,2.1,0.2,3.2,0.3c2.5,15,5.5,30,7.8,45.1c-6.3,0-12.6,0-18.9,0
	C184.8,51.4,187.6,36.2,190.1,21.1 M139.4,21.3c1.3-0.1,2.7-0.3,4-0.4c2.6,15.2,5.3,30.4,8,45.6c-6.7,0-13.3,0-20,0
	C134.1,51.4,136.8,36.4,139.4,21.3 M170.5,19.7c4.6,0.3,9.3,0.3,13.9,0.9c-2.3,12.9-4.5,25.9-6.9,38.9
	C175.1,46.2,172.8,33,170.5,19.7 M165.1,19.7c0.8,0,2.3,0,3.1,0c2.8,15.6,5.5,31.1,8.3,46.7c-6.5,0.1-13.1,0-19.6,0
	C159.6,50.9,162.3,35.3,165.1,19.7 M145.6,20.7c4.7-0.6,9.5-0.6,14.3-0.9c-2.4,13.6-4.7,27.2-7.2,40.8C150.3,47.3,148,34,145.6,20.7
	 M25.2,128.5c0,1.7,0,3.3,0,5c1.4,0,2.8,0,4.2,0c0,9.2,0,18.5,0,27.7c-1.4,0-2.8,0-4.2,0c0,1.7,0,3.3,0,5c4.6,0,9.2,0,13.8,0
	c0-1.7,0-3.3,0-5c-1.5,0-3,0-4.5,0c0-9.2,0-18.3,0-27.5c3.2,8.3,6.5,16.5,9.8,24.8c1.1,2.8,2,5.8,3.7,8.4c5.1-10.7,9-22,13.7-32.9
	c0,9.1,0,18.2,0,27.3c-1.5,0-3,0-4.5,0c0,1.7,0,3.3,0,5c4.8,0,9.7,0,14.5,0c0-1.7,0-3.3,0-5c-1.5,0-3,0-4.5,0c0-9.3,0-18.5,0-27.8
	c1.5,0,3,0,4.5,0c0-1.7,0-3.3,0-5c-4.2,0-8.4,0-12.7,0c-3.5,8.8-7,17.5-10.5,26.3c-3.3-8.8-6.7-17.6-10.2-26.3
	C34,128.5,29.6,128.5,25.2,128.5 M164.8,128.5c0,4.1,0,8.2,0,12.2c1.6,0,3.2,0,4.7,0c0-2.4,0-4.8,0-7.2c2.4,0,4.8,0,7.2,0
	c0.1,9.3,0,18.5,0,27.8c-1.5,0-3,0-4.5,0c0,1.7,0,3.3,0,5c4.8,0,9.7,0,14.5,0c0-1.7,0-3.3,0-5c-1.5,0-3,0-4.5,0c0-9.2,0-18.5,0-27.7
	c2.4,0,4.8,0,7.2,0c0,2.4,0,4.8,0,7.2c1.6,0,3.2,0,4.7,0c0-4.1,0-8.2,0-12.3C184.4,128.5,174.6,128.5,164.8,128.5 M130.6,130.5
	c-11.4,6.7-11.9,25.4-1.2,33.1c6.5,4.5,15.7,4.6,22.2,0.1c3.5-2.3,5.7-6.1,7.1-9.9c-1.6-1-3.3-2-4.9-3c-1.9,6.8-8.9,12.5-16.1,10.6
	c-10.5-2.2-13.1-17.4-5.9-24.5c3.6-3.7,9.5-4.6,14.2-2.7c3,1.1,4.9,3.9,6.3,6.7c1.7,0,3.3,0,5,0c0-4.1,0-8.2,0-12.2
	c-1.6,0-3.2,0-4.8,0c0,1.4,0,2.8,0.1,4.3C147.1,126.7,137.4,126.7,130.6,130.5 M91.5,128.7c-12.7,3.3-16.7,20.3-9.8,30.5
	c6,9.2,20.5,10.4,28.4,3c7.9-7.6,7.9-21.8,0-29.4C105.3,128,97.9,127,91.5,128.7 M318.3,79.5c0,1.6,0,3.2,0,4.8c1,0,3.2,0,4.2,0
	c0,9.2,0,18.5,0,27.7c-1.4,0-2.8,0-4.3,0c0,1.7,0,3.3,0,5c3.5,0,7,0,10.5,0c5.2-9.5,10.2-19.1,15.5-28.6c0.1,7.8,0,15.7,0,23.5
	c-1.5,0-3,0-4.5,0c0,1.7,0,3.3,0,5c4.8,0,9.5,0,14.3,0c0-1.7,0-3.3,0-5c-1.4,0-2.8,0-4.2,0c0-9.3,0-18.5,0-27.7c1.4,0,2.8,0,4.2,0
	c0-1.6,0-3.2,0-4.7c-3.5,0-7.1-0.1-10.6,0.1c-4.9,9.8-10.3,19.3-15.4,29c0-8.1,0-16.3,0-24.4c1.5,0,3,0,4.5,0c0-1.6,0-3.2,0-4.7
	C327.8,79.5,323,79.5,318.3,79.5 M277.5,79.5c0,1.6,0,3.2,0,4.7c1.4,0,2.8,0,4.3,0c0,9.2,0,18.5,0,27.7c-1.4,0-2.9,0-4.3,0
	c0,1.7,0,3.3,0,5c3.5,0,7,0,10.5,0c5.3-9.5,10.3-19.1,15.5-28.6c0.1,7.9,0,15.7,0,23.6c-1.5,0-3,0-4.5,0c0,1.7,0,3.3,0,5
	c4.8,0,9.7,0,14.5,0c0-1.7,0-3.3,0-5c-1.5,0-3,0-4.5,0c0-9.3,0-18.5,0-27.7c1.5,0,3,0,4.5,0c0-1.6,0-3.2,0-4.7c-3.5,0-7.1,0-10.6,0
	c-5.1,9.6-10.2,19.1-15.4,28.7c0-8,0-16,0-23.9c1.4,0,2.8,0,4.2,0c0-1.6,0-3.2,0-4.7C287,79.5,282.3,79.5,277.5,79.5 M239.5,79.5
	c0,1.6,0,3.2,0,4.7c1.4,0,2.8,0,4.3,0c0,9.2,0,18.5,0,27.7c-1.4,0-2.8,0-4.3,0c0,1.7,0,3.3,0,5c4.8,0,9.5,0,14.3,0c0-1.7,0-3.3,0-5
	c-1.4,0-2.8,0-4.3,0c0-4.8,0-9.6,0-14.4c4,4.7,7.7,9.6,11.8,14.3c-0.9,0-2.7,0.1-3.5,0.2c0,1.6,0,3.3,0,4.9c5,0,10,0,15,0
	c0-1.7,0-3.3,0-5c-1.5,0-3,0-4.5-0.1c-4.1-5.1-8-10.2-12.1-15.2c4-4.2,8-8.4,12-12.6c1.3,0,2.5,0,3.8,0.1c0-1.6,0-3.2,0-4.8
	c-4.8,0-9.5,0-14.2,0c0,1.6,0,3.2,0,4.7c1,0,2.9,0,3.8,0c-4,4.1-8.2,8.1-12.1,12.3c0.1-4.1,0-8.2,0-12.3c1.4,0,2.8,0,4.2,0
	c0-1.6,0-3.2,0-4.7C249,79.5,244.3,79.5,239.5,79.5 M148,79.5c0,1.6,0,3.2,0,4.8c1.5,0,3,0,4.5,0c0,9.3,0,18.5,0,27.7
	c-1.5,0-3,0-4.5,0c0,1.7,0,3.3,0,5c4.6,0,9.2,0,13.8,0c0-1.7,0-3.3,0-5c-1.4,0-2.8,0-4.2,0c0-9,0-18.1,0-27.1
	c4.3,10.7,8.4,21.5,12.8,32.1c0.3,0,0.9-0.1,1.2-0.1c4.4-10.6,8.6-21.2,12.9-31.8c0,9,0,17.9,0,26.9c-1.4,0-2.8,0-4.3,0
	c0,1.7,0,3.3,0,5c4.8,0,9.5,0,14.3,0c0-1.7,0-3.3,0-5c-1.4,0-2.8,0-4.3,0c0-9.2,0-18.5,0-27.7c1.4,0,2.8,0,4.3,0c0-1.6,0-3.2,0-4.7
	c-4.2,0-8.4,0-12.6,0c-3.5,8.7-6.8,17.4-10.4,26.1c-3.3-8.7-6.7-17.4-10.2-26.1C156.9,79.5,152.4,79.5,148,79.5 M128.8,79.5
	c0,1.6,0,3.2,0,4.7c1.5,0,3,0,4.5,0c0,9.2,0,18.5,0,27.7c-1.5,0-3,0-4.5,0c0,1.7,0,3.3,0,5c4.8,0,9.7,0,14.5,0c0-1.7,0-3.3,0-5
	c-1.5,0-3,0-4.5,0c0-9.2,0-18.5,0-27.7c1.5,0,3,0,4.5,0c0-1.6,0-3.2,0-4.7C138.4,79.5,133.6,79.5,128.8,79.5 M97.5,79.5
	c0,1.6,0,3.2,0,4.8c1.5,0,3,0,4.5,0c0,9.3,0,18.5,0,27.8c-1.5,0-3,0-4.5,0c0,1.7,0,3.3,0,5c7.2-0.4,14.6,0.9,21.7-0.9
	c8.1-2.2,9.7-14.6,3-19.2c-4.3-2.9-9.7-2.3-14.6-2.3c0-3.4,0-6.8,0-10.3c1.5,0,3,0,4.5,0c0-1.6,0-3.2,0-4.8
	C107.2,79.5,102.3,79.5,97.5,79.5 M63.5,79.5c0,1.6,0,3.2,0,4.8c1.5,0,3,0,4.5,0c0,9.3,0,18.5,0,27.7c-1.5,0-3,0-4.5,0
	c0,1.7,0,3.3,0,5c4.8,0,9.7,0,14.5,0c0-1.7,0-3.3,0-5c-1.5,0-3,0-4.5,0c0-3.1,0-6.1,0-9.2c5.6-0.2,12.2,0.6,16.8-3.5
	c3.4-3.5,3.6-9.2,2-13.6c-1.5-4.2-6.2-5.9-10.3-6.1C75.8,79.4,69.7,79.6,63.5,79.5 M25.5,79.5c0,1.6,0,3.2,0,4.8c1.5,0,3,0,4.5,0
	c0,9.3,0,18.5,0,27.7c-1.5,0-3,0-4.5,0c0,1.7,0,3.3,0,5c4.8,0,9.7,0,14.5,0c0-1.7,0-3.3,0-5c-1.5,0-3,0-4.5,0c0-4.9,0-9.8,0-14.6
	c4,4.9,8,9.8,12,14.7c-0.9,0-2.6,0-3.5,0c0,1.7,0,3.3,0,5c4.9,0,9.8,0,14.8,0c0-1.7,0-3.3,0-5c-1.4,0-2.9,0-4.3,0
	c-4-5.1-8-10.1-12-15.2c3.9-4.3,7.9-8.4,12-12.5c1.3,0,2.6,0,3.9,0c0-1.6,0-3.2,0-4.7c-4.8,0-9.5,0-14.3,0c0,1.6,0,3.2,0,4.8
	c0.9,0,2.7,0,3.5,0c-3.7,4.4-8,8.3-12,12.4c0-4.1,0-8.2,0-12.4c1.5,0,3,0,4.5,0c0-1.6,0-3.2,0-4.7C35.2,79.5,30.3,79.5,25.5,79.5
	 M206.6,81.5c-11,6.9-11.5,25.2-0.9,32.8c6.7,4.8,16.7,4.6,23.2-0.5c3-2.3,4.9-5.8,6.1-9.3c-1.6-1-3.2-1.9-4.8-2.9
	c-2.1,6.6-8.8,12.4-16.1,10.6c-8.7-1.8-12-12.5-9-20c2.3-7.2,11.8-10.4,18.2-6.7c2.4,1.3,3.9,3.8,5.3,6.1c1.7,0,3.4,0,5.1-0.1
	c0-4,0-8,0-12c-1.7,0-3.3,0-5,0c0,1,0,3,0.1,4C223.2,77.4,213.3,77.5,206.6,81.5 M323.5,59.9c5.2,2.5,9.7,6.7,11.5,12.3
	c5.5-3.4,11.4-6.6,18-7.2c-4.9-2.3-10.5-1.2-15.1,1C334,62.3,328.9,59.8,323.5,59.9 M109.9,22.5c-29.1,7.7-57.6,21.5-78.2,44
	c-5.4-0.1-10.8,0-16.2,0c0,1.6,0,3.2,0,4.8c102.4,0,204.8,0,307.2,0c0-1.6,0-3.2,0-4.7c-5.5,0-10.9,0-16.4,0
	c-22.9-24.8-55-39.2-87.6-46.2C183,12.8,145.4,13.4,109.9,22.5 M0,0h370v180H0V0"/>
<path class="st1" d="M25.2,128.5c4.4,0,8.8,0,13.1,0c3.5,8.7,6.9,17.5,10.2,26.3c3.5-8.8,7-17.5,10.5-26.3c4.2,0,8.4,0,12.7,0
	c0,1.7,0,3.3,0,5c-1.5,0-3,0-4.5,0c0,9.3,0,18.5,0,27.8c1.5,0,3,0,4.5,0c0,1.7,0,3.3,0,5c-4.8,0-9.7,0-14.5,0c0-1.7,0-3.3,0-5
	c1.5,0,3,0,4.5,0c0-9.1,0-18.2,0-27.3c-4.7,10.9-8.6,22.2-13.7,32.9c-1.7-2.5-2.6-5.5-3.7-8.4c-3.3-8.3-6.6-16.5-9.8-24.8
	c0,9.2,0,18.3,0,27.5c1.5,0,3,0,4.5,0c0,1.7,0,3.3,0,5c-4.6,0-9.2,0-13.8,0c0-1.7,0-3.3,0-5c1.4,0,2.8,0,4.2,0c0-9.2,0-18.5,0-27.7
	c-1.4,0-2.8,0-4.2,0C25.3,131.8,25.3,130.2,25.2,128.5 M164.8,128.5c9.8,0,19.7,0,29.5,0c0,4.1,0,8.2,0,12.3c-1.6,0-3.2,0-4.7,0
	c0-2.4,0-4.8,0-7.2c-2.4,0-4.8,0-7.2,0c0,9.2,0,18.5,0,27.7c1.5,0,3,0,4.5,0c0,1.7,0,3.3,0,5c-4.8,0-9.7,0-14.5,0c0-1.7,0-3.3,0-5
	c1.5,0,3,0,4.5,0c0-9.3,0.1-18.5,0-27.8c-2.4,0-4.8,0-7.2,0c0,2.4,0,4.8,0,7.2c-1.6,0-3.2,0-4.7,0
	C164.7,136.7,164.8,132.6,164.8,128.5 M130.6,130.5c6.8-3.8,16.5-3.8,21.9,2.3c0-1.4-0.1-2.8-0.1-4.3c1.6,0,3.2,0,4.8,0
	c0,4.1,0,8.2,0,12.2c-1.7,0-3.3,0-5,0c-1.5-2.7-3.3-5.5-6.3-6.7c-4.7-1.8-10.6-1-14.2,2.7c-7.2,7.1-4.6,22.3,5.9,24.5
	c7.3,1.9,14.2-3.8,16.1-10.6c1.7,1,3.3,2,4.9,3c-1.4,3.9-3.6,7.6-7.1,9.9c-6.5,4.4-15.8,4.4-22.2-0.1
	C118.7,155.9,119.2,137.2,130.6,130.5 M93.5,133.7c-12.3,3.5-12.1,24.2,0.3,27.5c8.2,2.6,16.6-4.8,16.2-13.1
	C111.1,139.2,102.3,130.6,93.5,133.7 M91.5,128.7c6.4-1.7,13.8-0.7,18.7,4c7.9,7.6,7.9,21.9,0,29.4c-7.9,7.4-22.4,6.2-28.4-3
	C74.8,148.9,78.8,132,91.5,128.7 M148,79.5c4.4,0,8.9,0,13.3-0.1c3.5,8.7,6.8,17.4,10.2,26.1c3.6-8.6,6.9-17.4,10.4-26.1
	c4.2,0,8.4,0,12.6,0c0,1.6,0,3.2,0,4.7c-1.4,0-2.8,0-4.3,0c0,9.2,0,18.5,0,27.7c1.4,0,2.8,0,4.3,0c0,1.7,0,3.3,0,5
	c-4.8,0-9.5,0-14.3,0c0-1.7,0-3.3,0-5c1.4,0,2.8,0,4.3,0c0-9,0-17.9,0-26.9c-4.4,10.6-8.6,21.2-12.9,31.8c-0.3,0-0.9,0.1-1.2,0.1
	c-4.4-10.7-8.5-21.5-12.8-32.1c0.1,9,0,18.1,0,27.1c1.4,0,2.8,0,4.2,0c0,1.7,0,3.3,0,5c-4.6,0-9.2,0-13.8,0c0-1.7,0-3.3,0-5
	c1.5,0,3,0,4.5,0c0-9.3,0-18.5,0-27.7c-1.5,0-3,0-4.5,0C148,82.7,148,81.1,148,79.5 M128.8,79.5c4.8,0,9.7,0,14.5,0
	c0,1.6,0,3.2,0,4.7c-1.5,0-3,0-4.5,0c0,9.2,0,18.5,0,27.7c1.5,0,3,0,4.5,0c0,1.7,0,3.3,0,5c-4.8,0-9.7,0-14.5,0c0-1.7,0-3.3,0-5
	c1.5,0,3,0,4.5,0c0-9.2,0-18.5,0-27.7c-1.5,0-3,0-4.5,0C128.8,82.7,128.8,81.1,128.8,79.5 M107.5,99.3c0,4.2,0,8.5,0,12.7
	c3.4-0.1,7.1,0.7,10.2-1.2c3.9-2.3,3.4-9.1-0.8-10.7C113.9,98.8,110.6,99.3,107.5,99.3 M97.5,79.5c4.8,0,9.7,0,14.5,0
	c0,1.6,0,3.2,0,4.8c-1.5,0-3,0-4.5,0c0,3.4,0,6.8,0,10.3c4.9,0,10.3-0.6,14.6,2.3c6.8,4.6,5.1,17-3,19.2c-7.1,1.8-14.5,0.5-21.7,0.9
	c0-1.7,0-3.3,0-5c1.5,0,3,0,4.5,0c0-9.3,0-18.5,0-27.8c-1.5,0-3,0-4.5,0C97.5,82.7,97.5,81.1,97.5,79.5 M73.5,84.3
	c0.1,4.6,0,9.1,0,13.7c3.3,0,6.7,0.3,9.8-0.8c5.2-1.6,5.3-10,0.5-12.1C80.5,83.8,76.9,84.3,73.5,84.3 M63.5,79.5
	c6.2,0.1,12.3-0.1,18.5,0.1c4.1,0.2,8.8,2,10.3,6.1c1.5,4.4,1.3,10.1-2,13.6c-4.6,4-11.2,3.3-16.8,3.5c0,3.1,0,6.2,0,9.2
	c1.5,0,3,0,4.5,0c0,1.7,0,3.3,0,5c-4.8,0-9.7,0-14.5,0c0-1.7,0-3.3,0-5c1.5,0,3,0,4.5,0c0-9.2,0-18.5,0-27.7c-1.5,0-3,0-4.5,0
	C63.5,82.7,63.5,81.1,63.5,79.5 M25.5,79.5c4.8,0,9.7,0,14.5,0c0,1.6,0,3.2,0,4.7c-1.5,0-3,0-4.5,0c0,4.1,0,8.2,0,12.4
	c4-4.1,8.3-8,12-12.4c-0.9,0-2.7,0-3.5,0c0-1.6,0-3.2,0-4.8c4.8,0,9.5,0,14.3,0c0,1.6,0,3.2,0,4.7c-1.3,0-2.6,0-3.9,0
	c-4.1,4.1-8.1,8.3-12,12.5c4,5.1,8,10.1,12,15.2c1.5,0,2.9,0,4.3,0c0,1.7,0,3.3,0,5c-4.9,0-9.8,0-14.8,0c0-1.7,0-3.3,0-5
	c0.9,0,2.6,0,3.5,0c-4-4.9-7.9-9.8-12-14.7c0,4.9,0,9.8,0,14.6c1.5,0,3,0,4.5,0c0,1.7,0,3.3,0,5c-4.8,0-9.7,0-14.5,0
	c0-1.7,0-3.3,0-5c1.5,0,3,0,4.5,0c0-9.2,0-18.5,0-27.7c-1.5,0-3,0-4.5,0C25.5,82.7,25.5,81.1,25.5,79.5 M285.1,57.8
	c-0.6,2.9-1.1,5.8-1.6,8.7c3.6,0,7.2,0,10.8,0C291.5,63.3,288.3,60.5,285.1,57.8 M37.4,66.5c4.8,0,9.6,0,14.4,0
	c-0.7-3.8-1.3-7.5-2-11.2C45.4,58.7,41.2,62.4,37.4,66.5 M51.2,54.2c0.7,3.8,1.3,7.6,2.1,11.3c0.9-4.9,1.8-9.8,2.6-14.8
	C54.3,51.9,52.7,53.1,51.2,54.2 M276.2,51.1c-0.9,0.9-0.9,3.2,0.6,3.6C278.7,54.3,278.3,50.1,276.2,51.1 M258.2,66.5
	c5.6,0,11.2,0,16.8,0c1.1-5.8-1.1-11.7-2-17.4c-3-2.8-7-4.4-10.5-6.6C261,50.5,259.6,58.5,258.2,66.5 M58.5,49.2
	c-1.3,5.7-2,11.5-3.1,17.3c7.1,0,14.2,0,21.3,0c-1.5-8.5-3-17-4.5-25.5C67.6,43.6,62.7,45.9,58.5,49.2 M248.6,35.8
	c1.2,6.8,2.4,13.6,3.6,20.5c0.8-5.7,2.1-11.4,2.9-17.1C253.3,37.4,250.7,36.9,248.6,35.8 M73.8,40.2c1.4,8.2,2.9,16.3,4.3,24.5
	c1.6-9.6,3.4-19.2,5.1-28.9C80.1,37.2,76.9,38.6,73.8,40.2 M238.9,32c-2,11.5-4.1,23-6,34.5c5.8,0,11.7,0,17.5,0
	c0.2-1.6,0.3-3.2,0-4.7c-1.7-9.1-3.2-18.2-4.9-27.3C243.3,33.7,241.1,32.8,238.9,32 M86.3,34.5c-2,10.7-3.8,21.3-5.7,32
	c7,0,14,0,21,0c-2.1-11.8-4.2-23.6-6.2-35.4C92.4,32.2,89.4,33.4,86.3,34.5 M221.9,26.8c1.7,10.2,3.6,20.4,5.4,30.6
	c1.6-9.2,3.3-18.4,4.9-27.7C228.8,28.6,225.3,27.6,221.9,26.8 M97.1,30.6c2,10.9,3.8,21.8,5.8,32.6c2.3-12.1,4.3-24.2,6.5-36.4
	C105.3,28,101.1,29.2,97.1,30.6 M214.8,25.1c-2.4,13.8-4.9,27.6-7.3,41.5c6.1,0,12.2,0,18.3,0c0-1.2-0.1-2.4-0.3-3.6
	c-2.2-12.3-4.4-24.5-6.5-36.8C217.7,25.7,216.3,25.4,214.8,25.1 M113.2,25.9c-2.3,13.5-4.8,27-7.1,40.6c6.8-0.1,13.6,0,20.4,0
	c-2.4-14-4.9-27.9-7.4-41.9C117.1,25,115.2,25.5,113.2,25.9 M195.9,21.7c2.2,12.2,4.2,24.4,6.5,36.6c1.9-11.5,4.1-23,6-34.6
	C204.3,22.9,200.1,22.3,195.9,21.7 M121.1,24.2c2.2,12.6,4.5,25.3,6.7,37.9c2.4-13.4,4.8-26.9,7.1-40.3
	C130.3,22.5,125.7,23.2,121.1,24.2 M190.1,21.1c-2.5,15.2-5.3,30.3-7.9,45.4c6.3,0,12.6,0,18.9,0c-2.3-15.1-5.3-30.1-7.8-45.1
	C192.2,21.3,191.2,21.2,190.1,21.1 M139.4,21.3c-2.6,15.1-5.3,30.1-8,45.2c6.7,0,13.3,0,20,0c-2.7-15.2-5.4-30.4-8-45.6
	C142,21,140.7,21.2,139.4,21.3 M170.5,19.7c2.3,13.3,4.6,26.5,7,39.7c2.4-12.9,4.6-25.9,6.9-38.9C179.8,20,175.1,20,170.5,19.7
	 M165.1,19.7c-2.8,15.6-5.5,31.2-8.3,46.8c6.5,0,13.1,0,19.6,0c-2.7-15.6-5.5-31.1-8.3-46.7C167.4,19.8,165.8,19.7,165.1,19.7
	 M145.6,20.7c2.4,13.3,4.7,26.6,7.1,39.9c2.5-13.6,4.9-27.2,7.2-40.8C155.1,20.1,150.4,20.1,145.6,20.7 M109.9,22.5
	c35.5-9.1,73.1-9.7,108.9-2.2c32.6,7,64.7,21.4,87.6,46.2c5.5,0,10.9,0,16.4,0c0,1.6,0,3.2,0,4.7c-102.4,0-204.8,0-307.2,0
	c0-1.6,0-3.2,0-4.8c5.4,0,10.8-0.1,16.2,0C52.3,44,80.7,30.2,109.9,22.5"/>
<path class="st2" d="M318.3,79.5c4.8,0,9.5,0,14.3,0c0,1.6,0,3.2,0,4.7c-1.5,0-3,0-4.5,0c0,8.1,0,16.3,0,24.4
	c5-9.7,10.5-19.3,15.4-29c3.5-0.2,7.1-0.1,10.6-0.1c0,1.6,0,3.2,0,4.7c-1.4,0-2.8,0-4.2,0c0,9.2,0,18.5,0,27.7c1.4,0,2.8,0,4.2,0
	c0,1.7,0,3.3,0,5c-4.8,0-9.5,0-14.3,0c0-1.7,0-3.3,0-5c1.5,0,3,0,4.5,0c0-7.8,0.1-15.7,0-23.5c-5.3,9.4-10.2,19.1-15.5,28.6
	c-3.5,0-7,0-10.5,0c0-1.7,0-3.3,0-5c1.4,0,2.8,0,4.3,0c0-9.3,0-18.5,0-27.7c-1.1,0-3.2,0-4.2,0C318.3,82.7,318.3,81.1,318.3,79.5
	 M277.5,79.5c4.8,0,9.5,0,14.3,0c0,1.6,0,3.2,0,4.7c-1.4,0-2.8,0-4.2,0c0,8,0,15.9,0,23.9c5.2-9.6,10.2-19.1,15.4-28.7
	c3.5,0,7.1,0,10.6,0c0,1.6,0,3.2,0,4.7c-1.5,0-3,0-4.5,0c0,9.3,0,18.5,0,27.7c1.5,0,3,0,4.5,0c0,1.7,0,3.3,0,5c-4.8,0-9.7,0-14.5,0
	c0-1.7,0-3.3,0-5c1.5,0,3,0,4.5,0c0-7.9,0-15.7,0-23.6c-5.2,9.5-10.2,19.1-15.5,28.6c-3.5,0-7,0-10.5,0c0-1.7,0-3.3,0-5
	c1.4,0,2.8,0,4.3,0c0-9.2,0-18.5,0-27.7c-1.4,0-2.8,0-4.3,0C277.5,82.7,277.5,81.1,277.5,79.5 M239.5,79.5c4.8,0,9.5,0,14.3,0
	c0,1.6,0,3.2,0,4.7c-1.4,0-2.8,0-4.2,0c0,4.1,0,8.2,0,12.3c3.9-4.3,8.1-8.2,12.1-12.3c-1,0-2.9,0-3.8,0c0-1.6,0-3.2,0-4.7
	c4.7,0,9.5,0,14.2,0c0,1.6,0,3.2,0,4.8c-1.3,0-2.5,0-3.8-0.1c-4,4.2-8,8.3-12,12.6c4,5,8,10.2,12.1,15.2c1.5,0,3,0,4.5,0.1
	c0,1.7,0,3.3,0,5c-5,0-10,0-15,0c0-1.7,0-3.3,0-4.9c0.9,0,2.7-0.1,3.5-0.2c-4-4.7-7.8-9.6-11.8-14.3c0,4.8,0,9.6,0,14.4
	c1.4,0,2.8,0,4.3,0c0,1.7,0,3.3,0,5c-4.8,0-9.5,0-14.3,0c0-1.7,0-3.3,0-5c1.4,0,2.8,0,4.3,0c0-9.2,0-18.5,0-27.7c-1.4,0-2.8,0-4.3,0
	C239.5,82.7,239.5,81.1,239.5,79.5 M206.6,81.5c6.8-4.1,16.6-4.2,22.2,2c0-1,0-3-0.1-4c1.7,0,3.3,0,5,0c0,4,0,8,0,12
	c-1.7,0-3.4,0-5.1,0.1c-1.4-2.3-2.8-4.8-5.3-6.1c-6.4-3.7-15.9-0.5-18.2,6.7c-3.1,7.5,0.3,18.3,9,20c7.3,1.9,14-3.9,16.1-10.6
	c1.6,1,3.2,1.9,4.8,2.9c-1.3,3.5-3.1,7-6.1,9.3c-6.5,5.1-16.5,5.3-23.2,0.5C195.1,106.8,195.5,88.5,206.6,81.5 M323.5,59.9
	c5.4-0.1,10.6,2.3,14.4,6.1c4.7-2.2,10.3-3.3,15.1-1c-6.6,0.6-12.5,3.8-18,7.2C333.1,66.6,328.7,62.4,323.5,59.9"/>
</svg>
