<svg xmlns="http://www.w3.org/2000/svg" xmlns:xlink="http://www.w3.org/1999/xlink" xmlns:fi="http://pattern.flaticon.com/" x="0" y="0" width="150" height="75" viewBox="0 0 700 350"><rect x="0px" y="0px" width="100%" height="100%" opacity="0" fill="#ffffff"/><defs><g transform="matrix(1.1079274220245776 1.3849092349932215 -1.3849092349932215 1.1079274220245776 157.52103948869527 133.84297887668944)" id="L1_5"><path d="M16.5,30.5c-0.147,0-0.288-0.065-0.382-0.178l-16-19C-0.032,11.144-0.04,10.886,0.1,10.7l6-8   c0.094-0.126,0.243-0.2,0.4-0.2h20c0.157,0,0.306,0.074,0.4,0.2l6,8c0.14,0.186,0.132,0.444-0.018,0.622l-16,19   C16.788,30.435,16.647,30.5,16.5,30.5z M1.139,10.982L16.5,29.224l15.361-18.242L26.25,3.5H6.75L1.139,10.982z"/><path d="M32.5,11.5h-32C0.224,11.5,0,11.277,0,11s0.224-0.5,0.5-0.5h32c0.276,0,0.5,0.224,0.5,0.5S32.776,11.5,32.5,11.5z"/><path d="M16.5,30.5c-0.05,0-0.101-0.007-0.15-0.023c-0.264-0.083-0.41-0.364-0.326-0.627l6-19c0.083-0.263,0.366-0.411,0.627-0.326   c0.264,0.083,0.41,0.364,0.326,0.627l-6,19C16.91,30.364,16.712,30.5,16.5,30.5z"/><path d="M16.5,30.5c-0.212,0-0.41-0.136-0.477-0.35l-6-19c-0.083-0.263,0.063-0.544,0.326-0.627   c0.264-0.085,0.544,0.063,0.627,0.326l6,19c0.083,0.263-0.063,0.544-0.326,0.627C16.601,30.493,16.55,30.5,16.5,30.5z"/><path d="M10.5,11.5c-0.184,0-0.36-0.101-0.448-0.276l-4-8C5.929,2.977,6.029,2.677,6.276,2.553C6.524,2.43,6.823,2.53,6.947,2.777   l4,8c0.124,0.247,0.023,0.547-0.224,0.671C10.652,11.483,10.576,11.5,10.5,11.5z"/><path d="M10.5,11.5c-0.104,0-0.209-0.033-0.299-0.1c-0.221-0.166-0.266-0.479-0.1-0.7l6-8c0.166-0.221,0.479-0.265,0.7-0.1   c0.221,0.166,0.266,0.479,0.1,0.7l-6,8C10.802,11.431,10.652,11.5,10.5,11.5z"/><path d="M22.5,11.5c-0.152,0-0.302-0.069-0.4-0.2l-6-8c-0.166-0.221-0.121-0.534,0.1-0.7c0.22-0.167,0.534-0.122,0.7,0.1l6,8   c0.166,0.221,0.121,0.534-0.1,0.7C22.71,11.468,22.605,11.5,22.5,11.5z"/><path d="M22.5,11.5c-0.075,0-0.151-0.017-0.223-0.053c-0.247-0.124-0.347-0.424-0.224-0.671l4-8   c0.124-0.247,0.423-0.347,0.671-0.224c0.247,0.124,0.347,0.424,0.224,0.671l-4,8C22.859,11.399,22.683,11.5,22.5,11.5z"/></g><g transform="matrix(2.2710525862785973 -2.2710525862785973 2.2710525862785973 2.2710525862785973 207.05095388249802 324.99842590726746)" id="L1_7"><g><path d="M22.438,22.133h-11.43c-0.276,0-0.5-0.224-0.5-0.5s0.224-0.5,0.5-0.5h11.43c0.276,0,0.5,0.224,0.5,0.5    S22.715,22.133,22.438,22.133z"/><path d="M8.288,24.854c-1.776,0-3.221-1.444-3.221-3.221s1.444-3.221,3.221-3.221s3.221,1.444,3.221,3.221    S10.064,24.854,8.288,24.854z M8.288,19.412c-1.225,0-2.221,0.996-2.221,2.221s0.996,2.221,2.221,2.221s2.221-0.996,2.221-2.221    S9.513,19.412,8.288,19.412z"/><path d="M25.159,24.854c-1.776,0-3.221-1.444-3.221-3.221s1.444-3.221,3.221-3.221s3.221,1.444,3.221,3.221    S26.935,24.854,25.159,24.854z M25.159,19.412c-1.225,0-2.221,0.996-2.221,2.221s0.996,2.221,2.221,2.221s2.221-0.996,2.221-2.221    S26.384,19.412,25.159,19.412z"/></g><path d="M22.442,22.133H11.01c-0.276,0-0.5-0.224-0.5-0.5s0.224-0.5,0.5-0.5h11.433c0.276,0,0.5,0.224,0.5,0.5   S22.719,22.133,22.442,22.133z"/><path d="M30.281,22.133h-2.404c-0.276,0-0.5-0.224-0.5-0.5s0.224-0.5,0.5-0.5h2.404c0.619,0,1.137-0.444,1.232-1.056l0.472-3.017   c0.053-0.341-0.033-0.679-0.243-0.953c-0.209-0.272-0.514-0.443-0.855-0.48l-7.261-0.787c-0.099-0.011-0.192-0.051-0.268-0.114   l-6.057-5.091c-0.374-0.314-0.85-0.487-1.338-0.487H5.988c-0.457,0-0.883,0.225-1.142,0.602l-3.628,5.289   c-0.181,0.264-0.253,0.582-0.203,0.898l0.646,4.141c0.096,0.611,0.614,1.056,1.233,1.056h2.668c0.276,0,0.5,0.224,0.5,0.5   s-0.224,0.5-0.5,0.5H2.895c-1.115,0-2.05-0.8-2.222-1.901l-0.646-4.141c-0.089-0.568,0.041-1.144,0.367-1.619l3.628-5.289   c0.444-0.648,1.18-1.035,1.966-1.035h9.976c0.724,0,1.427,0.256,1.98,0.722l5.94,4.993l7.109,0.771   c0.617,0.066,1.164,0.374,1.542,0.866c0.377,0.492,0.533,1.102,0.438,1.716l-0.472,3.017C32.33,21.333,31.396,22.133,30.281,22.133   z"/><path d="M19.266,15.229H4.798c-0.276,0-0.5-0.224-0.5-0.5s0.224-0.5,0.5-0.5h14.468c0.276,0,0.5,0.224,0.5,0.5   S19.542,15.229,19.266,15.229z"/></g><g transform="matrix(-1.821227701491527 1.8212277014915275 -1.8212277014915275 -1.821227701491527 150.97152479674958 343.8669038720635)" id="L1_10"><g><path d="M24.333,23.109H12.902c-0.276,0-0.5-0.224-0.5-0.5s0.224-0.5,0.5-0.5h11.431c0.276,0,0.5,0.224,0.5,0.5    S24.609,23.109,24.333,23.109z"/><path d="M10.183,25.829c-1.776,0-3.221-1.444-3.221-3.221s1.444-3.221,3.221-3.221c1.775,0,3.22,1.444,3.22,3.221    S11.958,25.829,10.183,25.829z M10.183,20.388c-1.225,0-2.221,0.996-2.221,2.221s0.996,2.221,2.221,2.221    c1.224,0,2.22-0.996,2.22-2.221S11.406,20.388,10.183,20.388z"/><path d="M27.054,25.829c-1.776,0-3.221-1.444-3.221-3.221s1.444-3.221,3.221-3.221s3.221,1.444,3.221,3.221    S28.83,25.829,27.054,25.829z M27.054,20.388c-1.225,0-2.221,0.996-2.221,2.221s0.996,2.221,2.221,2.221s2.221-0.996,2.221-2.221    S28.278,20.388,27.054,20.388z"/></g><path d="M24.337,23.109H12.904c-0.276,0-0.5-0.224-0.5-0.5s0.224-0.5,0.5-0.5h11.433c0.276,0,0.5,0.224,0.5,0.5   S24.613,23.109,24.337,23.109z"/><path d="M32.175,23.109h-2.403c-0.276,0-0.5-0.224-0.5-0.5s0.224-0.5,0.5-0.5h2.403c0.619,0,1.138-0.444,1.233-1.056l0.533-3.413   c0.037-0.239-0.022-0.477-0.169-0.67c-0.146-0.192-0.357-0.314-0.598-0.344l-6.661-0.812c-0.096-0.012-0.187-0.051-0.261-0.113   l-6.021-5.061c-0.397-0.334-0.902-0.518-1.422-0.518H9.39c-0.465,0-0.892,0.234-1.143,0.626l-2.815,4.405   c-0.063,0.101-0.162,0.175-0.276,0.209l-3.4,1.025c-0.505,0.152-0.823,0.659-0.742,1.181l0.476,3.049   c0.135,0.863,0.867,1.49,1.741,1.49h4.229c0.276,0,0.5,0.224,0.5,0.5s-0.224,0.5-0.5,0.5H3.229c-1.37,0-2.519-0.982-2.729-2.336   l-0.476-3.049c-0.157-1.012,0.462-1.997,1.441-2.292l3.224-0.972l2.716-4.25C7.84,9.529,8.582,9.123,9.39,9.123h9.421   c0.754,0,1.487,0.267,2.064,0.752l5.907,4.965l6.514,0.794c0.512,0.063,0.964,0.322,1.274,0.733   c0.311,0.41,0.438,0.917,0.359,1.427l-0.533,3.413C34.225,22.309,33.29,23.109,32.175,23.109z"/><path d="M21.16,16.204H9.692c-0.276,0-0.5-0.224-0.5-0.5s0.224-0.5,0.5-0.5H21.16c0.276,0,0.5,0.224,0.5,0.5   S21.436,16.204,21.16,16.204z"/></g><g transform="matrix(2.36187179556163 -2.36187179556163 2.36187179556163 2.36187179556163 253.30222487446753 156.73546870729183)" id="L1_11"><g><path d="M21.427,21.712h-11.38c-0.276,0-0.5-0.224-0.5-0.5s0.224-0.5,0.5-0.5h11.38c0.276,0,0.5,0.224,0.5,0.5    S21.703,21.712,21.427,21.712z"/><path d="M7.339,24.42c-1.77,0-3.209-1.439-3.209-3.208c0-1.77,1.439-3.209,3.209-3.209c1.769,0,3.208,1.439,3.208,3.209    C10.547,22.98,9.107,24.42,7.339,24.42z M7.339,19.003c-1.218,0-2.209,0.991-2.209,2.209s0.991,2.208,2.209,2.208    s2.208-0.99,2.208-2.208S8.557,19.003,7.339,19.003z"/><path d="M24.135,24.42c-1.769,0-3.208-1.439-3.208-3.208c0-1.77,1.439-3.209,3.208-3.209c1.77,0,3.209,1.439,3.209,3.209    C27.344,22.98,25.904,24.42,24.135,24.42z M24.135,19.003c-1.218,0-2.208,0.991-2.208,2.209s0.99,2.208,2.208,2.208    s2.209-0.99,2.209-2.208S25.353,19.003,24.135,19.003z"/></g><path d="M21.431,21.712H10.048c-0.276,0-0.5-0.224-0.5-0.5s0.224-0.5,0.5-0.5h11.383c0.276,0,0.5,0.224,0.5,0.5   S21.707,21.712,21.431,21.712z"/><path d="M28.833,21.712h-1.992c-0.276,0-0.5-0.224-0.5-0.5s0.224-0.5,0.5-0.5h1.992c0.767,0,1.391-0.624,1.391-1.391v-1.931   c0-0.712-0.29-1.408-0.796-1.911l-2.243-2.229c-0.042-0.042-0.076-0.091-0.102-0.145l-1.839-3.98   c-0.371-0.803-1.182-1.321-2.065-1.321H2.584C1.711,7.804,1,8.515,1,9.388v9.934c0,0.767,0.623,1.391,1.39,1.391h2.236   c0.276,0,0.5,0.224,0.5,0.5s-0.224,0.5-0.5,0.5H2.39C1.072,21.712,0,20.64,0,19.321V9.388c0-1.425,1.159-2.584,2.584-2.584h20.595   c1.272,0,2.439,0.746,2.974,1.901l1.801,3.899l2.18,2.166c0.693,0.688,1.091,1.644,1.091,2.62v1.931   C31.224,20.64,30.151,21.712,28.833,21.712z"/><path d="M21.498,14.838H7.095c-0.276,0-0.5-0.224-0.5-0.5s0.224-0.5,0.5-0.5h14.403c0.276,0,0.5,0.224,0.5,0.5   S21.774,14.838,21.498,14.838z"/></g></defs><g fi:class="KUsePattern" opacity="0.69"><pattern id="pattern_L1_5" width="350" height="350" patternUnits="userSpaceOnUse"><use xlink:href="#L1_5" x="-350" y="-350"/><use xlink:href="#L1_5" x="0" y="-350"/><use xlink:href="#L1_5" x="350" y="-350"/><use xlink:href="#L1_5" x="-350" y="0"/><use xlink:href="#L1_5" x="0" y="0"/><use xlink:href="#L1_5" x="350" y="0"/><use xlink:href="#L1_5" x="-350" y="350"/><use xlink:href="#L1_5" x="0" y="350"/><use xlink:href="#L1_5" x="350" y="350"/></pattern><rect x="0" y="0" width="100%" height="100%" fill="url(#pattern_L1_5)"/></g><g fi:class="KUsePattern" opacity="0.29"><pattern id="pattern_L1_7" width="350" height="350" patternUnits="userSpaceOnUse"><use xlink:href="#L1_7" x="-350" y="-350"/><use xlink:href="#L1_7" x="0" y="-350"/><use xlink:href="#L1_7" x="350" y="-350"/><use xlink:href="#L1_7" x="-350" y="0"/><use xlink:href="#L1_7" x="0" y="0"/><use xlink:href="#L1_7" x="350" y="0"/><use xlink:href="#L1_7" x="-350" y="350"/><use xlink:href="#L1_7" x="0" y="350"/><use xlink:href="#L1_7" x="350" y="350"/></pattern><rect x="0" y="0" width="100%" height="100%" fill="url(#pattern_L1_7)"/></g><g fi:class="KUsePattern" opacity="0.46"><pattern id="pattern_L1_10" width="350" height="350" patternUnits="userSpaceOnUse"><use xlink:href="#L1_10" x="-350" y="-350"/><use xlink:href="#L1_10" x="0" y="-350"/><use xlink:href="#L1_10" x="350" y="-350"/><use xlink:href="#L1_10" x="-350" y="0"/><use xlink:href="#L1_10" x="0" y="0"/><use xlink:href="#L1_10" x="350" y="0"/><use xlink:href="#L1_10" x="-350" y="350"/><use xlink:href="#L1_10" x="0" y="350"/><use xlink:href="#L1_10" x="350" y="350"/></pattern><rect x="0" y="0" width="100%" height="100%" fill="url(#pattern_L1_10)"/></g><g fi:class="KUsePattern" opacity="0.33"><pattern id="pattern_L1_11" width="350" height="350" patternUnits="userSpaceOnUse"><use xlink:href="#L1_11" x="-350" y="-350"/><use xlink:href="#L1_11" x="0" y="-350"/><use xlink:href="#L1_11" x="350" y="-350"/><use xlink:href="#L1_11" x="-350" y="0"/><use xlink:href="#L1_11" x="0" y="0"/><use xlink:href="#L1_11" x="350" y="0"/><use xlink:href="#L1_11" x="-350" y="350"/><use xlink:href="#L1_11" x="0" y="350"/><use xlink:href="#L1_11" x="350" y="350"/></pattern><rect x="0" y="0" width="100%" height="100%" fill="url(#pattern_L1_11)"/></g></svg>