<?xml version="1.0" encoding="utf-8"?>
<!-- Generator: Adobe Illustrator 16.2.0, SVG Export Plug-In . SVG Version: 6.00 Build 0)  -->
<!DOCTYPE svg PUBLIC "-//W3C//DTD SVG 1.1//EN" "http://www.w3.org/Graphics/SVG/1.1/DTD/svg11.dtd">
<svg version="1.1" id="Слой_1" xmlns="http://www.w3.org/2000/svg" xmlns:xlink="http://www.w3.org/1999/xlink" x="0px" y="0px"
	 width="126.936px" height="31.527px" viewBox="0 0 126.936 31.527" enable-background="new 0 0 126.936 31.527"
	 xml:space="preserve">
<g>
	<path fill="#00529e" d="M24.022,7.504h15.98v16.973h-4.979V11.506h-6.021v12.971h-4.98V7.504z M97.039,15.55V7.504h-5.043v16.973
		H94.1l8.92-7.947v7.947h5.01V7.504h-1.979L97.039,15.55z M110.008,24.477h5.012V7.504h-5.012V24.477z M120.731,15.821l5.875-8.316
		h-5.842l-5.645,8.316l5.975,8.656h5.842L120.731,15.821z M54.117,7.504l-4.192,10.762L45.964,7.504H40.65l6.7,16.973l-2.901,7.051
		h5.183l8.262-20.031h5.124v12.98h5.01V11.528h5.017V7.504H54.117z M85.006,13.505h-5.965v-6h-5.043v16.973h5.043v-6.983h5.965
		v6.983h5.041V7.504h-5.041V13.505z"/>
	<path fill="#00529e" d="M17.677,8.517c-1.217-1.728-2.935-2.451-4.176-2.698l0.008,0.001L3.381,3.839C5.613,1.473,8.756,0,12.247,0
		c4.137,0,7.803,2.084,10.021,5.296L17.677,8.517z M17.677,16.465c-1.217,1.728-2.935,2.451-4.176,2.697h0.008l-10.128,1.98
		c2.231,2.365,5.375,3.839,8.866,3.839c4.137,0,7.803-2.084,10.021-5.296L17.677,16.465z M5.868,13.49H0.002
		c0.153,2.326,0.932,4.348,2.166,6.148l6.655-1.289C7.146,17.319,6.09,15.64,5.868,13.49 M8.706,6.745l-6.57-1.271
		C0.922,7.264,0.153,9.257,0,11.529h5.868C6.084,9.43,7.098,7.786,8.706,6.745"/>
</g>
</svg>
