<?xml version="1.0" encoding="UTF-8" standalone="no"?>
<svg
   xmlns:dc="http://purl.org/dc/elements/1.1/"
   xmlns:cc="http://creativecommons.org/ns#"
   xmlns:rdf="http://www.w3.org/1999/02/22-rdf-syntax-ns#"
   xmlns:svg="http://www.w3.org/2000/svg"
   xmlns="http://www.w3.org/2000/svg"
   viewBox="0 0 216.28 73.720001"
   height="73.720001"
   width="216.28"
   xml:space="preserve"
   id="svg2"
   version="1.1"><metadata
     id="metadata8"><rdf:RDF><cc:Work
         rdf:about=""><dc:format>image/svg+xml</dc:format><dc:type
           rdf:resource="http://purl.org/dc/dcmitype/StillImage" /></cc:Work></rdf:RDF></metadata><defs
     id="defs6" /><g
     transform="matrix(1.3333333,0,0,-1.3333333,0,73.72)"
     id="g10"><g
       transform="scale(0.1)"
       id="g12"><path
         id="path14"
         style="fill:#254aa5;fill-opacity:1;fill-rule:evenodd;stroke:none"
         d="M 1622.06,0 H 0 V 552.859 H 1622.06 V 0" /><path
         id="path16"
         style="fill:#ffffff;fill-opacity:1;fill-rule:nonzero;stroke:none"
         d="m 199.391,375.898 c -10.743,-3.433 -16.715,-4.027 -20.59,-4.027 -25.071,0 -28.953,17.305 -28.953,27.008 0,15.066 11.191,26.258 28.203,26.258 8.058,0 15.219,-1.789 21.039,-4.028 v 27.602 l -2.391,0.449 c -4.769,0.899 -13.574,2.836 -25.511,2.836 -46.555,0 -63.415,-27.156 -63.415,-54.019 0,-31.481 21.934,-54.036 62.368,-54.036 7.609,0 17.16,0.895 29.25,4.204 v 27.753 z m 4.472,74.309 v -30.891 h 35.215 v -73.558 h 39.988 v 73.558 h 35.215 v 30.891 H 203.863 Z m 119.367,0 V 345.758 h 39.993 v 30.14 h 21.933 c 32.528,0 44.469,20.141 44.469,36.856 0,19.098 -13.727,37.453 -45.215,37.453 h -61.18 z m 38.946,-24.176 h 8.66 c 15.215,0 18.5,-6.859 18.5,-12.98 0,-12.684 -13.578,-12.985 -18.356,-12.985 h -8.804 v 25.965 z m 132.953,25.965 c -36.859,0 -58.195,-20.742 -58.195,-54.019 0,-33.27 21.336,-54.036 58.195,-54.036 36.851,0 58.191,20.766 58.191,54.036 0,33.277 -21.34,54.019 -58.191,54.019 z m 0,-25.066 c 15.07,0 16.109,-18.059 16.109,-28.953 0,-10.887 -1.039,-28.942 -16.109,-28.942 -15.074,0 -16.117,18.055 -16.117,28.942 0,10.894 1.043,28.953 16.117,28.953 z m 68.637,23.277 V 345.758 h 46.703 l 26.41,58.492 h 0.598 v -58.492 h 39.988 v 104.449 h -46.703 l -26.41,-59.684 h -0.598 v 59.684 h -39.988 z m 122.652,0 v -30.891 h 35.215 v -73.558 h 39.988 v 73.558 h 35.215 v 30.891 H 686.418 Z m 119.367,0 V 345.758 h 92.219 v 24.617 h -52.227 v 16.266 h 48.938 v 23.875 h -48.938 v 15.07 h 51.176 v 24.621 H 805.785 Z M 980.512,345.758 H 1020.5 V 450.207 H 926.051 V 416.93 c 0,-19.547 2.242,-44.617 -12.981,-44.617 -2.539,0 -6.566,0.601 -8.808,1.05 V 346.5 c 6.269,-1.516 13.73,-2.559 20.297,-2.559 35.812,0 36.558,26.434 36.558,60.008 v 17.906 h 19.395 v -76.097 z m 54.918,0 h 62.52 c 29.84,0 42.82,17.305 42.82,37.152 0,19.844 -12.98,37.153 -42.82,37.153 h -22.54 v 30.144 h -39.98 V 345.758 Z m 38.94,24.172 v 25.965 h 8.21 c 4.17,0 17.9,-0.301 17.9,-12.985 0,-12.238 -12.53,-12.98 -18.05,-12.98 h -8.06 z m 145.03,44.168 h -26.7 v 36.109 h -39.99 V 345.758 h 39.99 v 38.496 h 26.7 v -38.496 h 39.99 v 104.449 h -39.99 v -36.109 z m 81.77,36.109 -36.58,-104.449 h 40.02 l 7.01,22.527 h 31.33 l 7.16,-22.527 h 42.08 l -37.15,104.449 h -53.87 z m 26.41,-24.773 10.89,-32.676 h -22.23 l 10.75,32.676 h 0.59 z M 1505,450.207 h -62.52 c -14.78,0 -42.09,-1.496 -42.09,-27.902 0,-15.223 10.9,-24.621 24.48,-26.86 v -0.3 c -7.01,-1.043 -17.46,-5.071 -20.59,-19.098 l -6.87,-30.289 h 41.79 l 3.87,26.113 c 1.34,9.102 8.66,10.293 12.98,10.293 h 8.95 v -36.406 h 40 v 104.449 z m -38.2,-23.277 v -22.383 h -9.85 c -3.58,0 -16.27,-0.152 -16.27,11.488 0,10.594 11.2,10.895 15.67,10.895 h 10.45" /><path
         id="path18"
         style="fill:#ffffff;fill-opacity:1;fill-rule:nonzero;stroke:none"
         d="m 211.563,311.574 c -71.868,0 -113.4771,-40.441 -113.4771,-105.328 0,-64.883 41.6091,-105.375 113.4771,-105.375 71.871,0 113.476,40.492 113.476,105.375 0,64.887 -41.605,105.328 -113.476,105.328 z m 0,-48.883 c 29.382,0 31.421,-35.207 31.421,-56.445 0,-21.242 -2.039,-56.441 -31.421,-56.441 -29.391,0 -31.426,35.199 -31.426,56.441 0,21.238 2.035,56.445 31.426,56.445 z m 133.835,45.391 V 104.41 h 77.981 v 58.774 h 42.773 c 63.43,0 86.703,39.281 86.703,71.863 0,37.242 -26.765,73.035 -88.164,73.035 H 345.398 Z m 75.946,-47.133 h 16.875 c 29.676,0 36.078,-13.386 36.078,-25.316 0,-24.735 -26.481,-25.317 -35.785,-25.317 h -17.168 v 50.633 z M 575.84,308.082 V 104.41 h 118.422 c 68.375,0 84.082,34.336 84.082,62.266 0,30.551 -20.653,62.265 -77.098,62.265 h -47.43 v 28.223 h 103.293 v 50.918 H 575.84 Z m 75.941,-119.293 h 21.242 c 17.454,0 25.606,-11.059 25.606,-21.535 0,-11.926 -9.313,-21.527 -24.152,-21.527 h -22.696 v 43.062 z M 803.375,308.082 V 104.41 h 91.063 l 51.503,114.055 h 1.164 V 104.41 h 77.975 V 308.082 H 934.008 L 882.516,191.699 h -1.168 v 116.383 h -77.973 z m 239.165,0 v -60.23 h 68.67 V 104.41 h 77.97 v 143.442 h 68.67 v 60.23 h -215.31 z m 285.14,0 h 105.03 l 72.45,-203.672 h -82.05 l -13.97,43.934 h -61.09 l -13.68,-43.934 h -78.03 l 71.34,203.672 z m 51.5,-48.297 h -1.17 l -20.94,-63.722 h 43.34 l -21.23,63.722" /></g></g></svg>