<?xml version="1.0" encoding="utf-8"?>
<!-- Generator: Adobe Illustrator 21.0.2, SVG Export Plug-In . SVG Version: 6.00 Build 0)  -->
<svg version="1.1" id="Layer_1" xmlns="http://www.w3.org/2000/svg" xmlns:xlink="http://www.w3.org/1999/xlink" x="0px" y="0px"
	 viewBox="0 0 129.8 129.8" style="enable-background:new 0 0 129.8 129.8;" xml:space="preserve">
<style type="text/css">
	.st0{fill:#94013D;}
</style>
<g>
	<g>
		<path class="st0" d="M34.8,35.9h8l-9.9-6h-12L34.8,35.9z M32.6,16.2l-12,0.1v12h12V16.2z M107.1,74.1L98.7,69h-4.4l8.8,5.1H107.1z
			 M107.8,75h-4.4v4.6h4.4V75z M40.2,63.7l-4,2.6h4.9l4-2.6C45.1,63.7,40.2,63.7,40.2,63.7z M32.9,44.2v4l6,0.2v-4.3L32.9,44.2
			L32.9,44.2z M67.1,68.7v-5.2l-2.8-9.1l0.1,2.2L67.1,68.7z M64.6,53.9l3.7,8.6h8.3L67,53.9H64.6z M75.3,18H56.5l1.6,8.6h13.8
			L75.3,18z M75.7,0H55.9v16.2h19.8V0z M88.7,13.8h-3.1v3.1h3.1V13.8z M96.2,35.3l-11.9,4.3H95l14.9-4.3H96.2z M94.1,18.8L83.7,29.1
			v9.5l10.4-5.1V18.8z M110.7,18.4H96v15.1h14.7V18.4z M70.1,44.6l5.6-3.6h-5.4l-2.9,3.6H70.1z M66.8,44.2l2.3-3.9v-5.1l-2.3,6.2
			V44.2z M70.1,39.9h6.1v-5.6h-6.1V39.9z M25.2,40.2v-1.9h-1.9v1.9H25.2z M28,64.8l24.1-11.3v-4H28C28,49.5,28,64.8,28,64.8z
			 M26.2,49.7H12.6v15.1h13.6V49.7z M68.4,72.1h4v-4.4h4.7v-3.8h-8.7V72.1z M64.2,82.5h-3.5V86h3.5V82.5z M51.4,92.9l7.5-24.1v-4.7
			l-7.5,17.4V92.9z M58.4,62.9h-5.8L33.9,80.2h15.7L58.4,62.9z M35.9,72.8h4l1.4-1.2v-4.1h-5.4V72.8z M49.5,82H33.1v14.9h16.4V82z
			 M101.7,46.7v-1.2h-1.2v1.2H101.7z M63.6,48.2c-0.5,0-0.9,0.4-0.9,0.9s0.4,0.9,0.9,0.9s0.9-0.4,0.9-0.9S64.1,48.2,63.6,48.2z
			 M104.3,50.1H79.6v3.3l24.7,7V50.1z M115.1,50.2h-8.9v10.4h8.9V50.2z M73.5,84.3l2.3,8.1V75.3l-2.3-5V84.3z M95.7,73.9l-6.5-5.1
			H74.3l3.6,5.2L95.7,73.9z M97.8,76.3l4.2,3.2v-4.6l-8.4-5.6v1.4l4.2,2.9L97.8,76.3z M96.1,75.7H77.7v19.5l18.4-0.1V75.7z
			 M45.6,64.3l-3.2,2.9v3.3l3.2-2.9V64.3z M40.3,44.2v4.3l6,0.2v-3L40.3,44.2z M43.6,29.5l-1.3-1.3v-2.7l-8-8.3v11.4l9.3,6.7V29.5z
			 M57.5,39.8L49,23.3v3.9l8.5,14V39.8z M56.1,41.7h1.1l-9-13.3h-4.7L56.1,41.7z M48,22.5h-4.8v5.1H48V22.5z"/>
	</g>
</g>
<g>
	<path class="st0" d="M5.3,126.9c-1.6,0-2.7-0.4-3.6-1.3c-0.8-0.9-1.2-2.1-1.2-3.7c0-0.8,0.1-1.5,0.4-2.1c0.2-0.6,0.6-1.1,1-1.6
		c0.4-0.4,1-0.8,1.6-1c0.6-0.2,1.3-0.3,2-0.3c0.4,0,0.8,0,1.1,0.1c0.3,0.1,0.6,0.1,0.9,0.2c0.2,0.1,0.5,0.2,0.6,0.2
		c0.2,0.1,0.3,0.1,0.4,0.2l-0.6,1.7c-0.3-0.2-0.6-0.3-1-0.4c-0.4-0.1-0.8-0.2-1.3-0.2c-0.3,0-0.7,0.1-1,0.2
		c-0.3,0.1-0.6,0.3-0.8,0.5c-0.2,0.2-0.4,0.6-0.6,0.9c-0.1,0.4-0.2,0.9-0.2,1.4c0,0.4,0,0.9,0.1,1.2c0.1,0.4,0.3,0.7,0.5,1
		s0.5,0.5,0.9,0.7C4.6,125,5,125,5.5,125c0.3,0,0.6,0,0.8-0.1c0.2,0,0.5-0.1,0.7-0.1c0.2-0.1,0.4-0.1,0.5-0.2s0.3-0.1,0.4-0.2
		l0.6,1.7c-0.3,0.2-0.7,0.4-1.3,0.5C6.7,126.9,6,126.9,5.3,126.9z"/>
	<path class="st0" d="M9.9,126.8v-9.6h6.5v1.8H12v1.9h3.8v1.8H12v2.3h4.6v1.8H9.9z"/>
	<path class="st0" d="M21.2,117c1.4,0,2.5,0.3,3.3,0.8c0.8,0.5,1.1,1.3,1.1,2.5c0,1.2-0.4,2-1.2,2.5c-0.8,0.5-1.9,0.8-3.3,0.8h-0.7
		v3.2h-2.2v-9.5c0.5-0.1,1-0.2,1.5-0.2C20.3,117.1,20.8,117,21.2,117z M21.3,118.9c-0.2,0-0.3,0-0.5,0c-0.2,0-0.3,0-0.4,0v2.8h0.7
		c0.7,0,1.3-0.1,1.7-0.3c0.4-0.2,0.6-0.6,0.6-1.1c0-0.3,0-0.5-0.1-0.7c-0.1-0.2-0.2-0.3-0.4-0.4c-0.2-0.1-0.4-0.2-0.7-0.2
		C21.9,118.9,21.6,118.9,21.3,118.9z"/>
	<path class="st0" d="M30.4,126.9c-0.5,0-1.1,0-1.6,0c-0.5,0-1.1-0.1-1.6-0.2v-9.3c0.4-0.1,0.9-0.1,1.5-0.2c0.5,0,1-0.1,1.5-0.1
		c0.6,0,1.2,0,1.7,0.1c0.5,0.1,1,0.2,1.3,0.4c0.4,0.2,0.7,0.5,0.9,0.8c0.2,0.3,0.3,0.8,0.3,1.3c0,0.8-0.4,1.4-1.1,1.8
		c0.6,0.2,1,0.5,1.2,0.9c0.2,0.4,0.3,0.8,0.3,1.3c0,1-0.4,1.8-1.1,2.3S31.8,126.9,30.4,126.9z M29.3,120.9h1.1
		c0.7,0,1.1-0.1,1.4-0.3c0.3-0.2,0.4-0.4,0.4-0.8c0-0.4-0.1-0.7-0.4-0.8c-0.3-0.2-0.7-0.2-1.3-0.2c-0.2,0-0.4,0-0.6,0
		c-0.2,0-0.4,0-0.6,0V120.9z M29.3,122.6v2.5c0.2,0,0.3,0,0.5,0c0.2,0,0.4,0,0.6,0c0.6,0,1.2-0.1,1.6-0.3c0.4-0.2,0.6-0.5,0.6-1
		c0-0.4-0.2-0.8-0.5-0.9c-0.3-0.2-0.8-0.3-1.4-0.3H29.3z"/>
	<path class="st0" d="M36.5,126.8v-9.6h2.1v5.7c0.3-0.5,0.7-1,1.1-1.6c0.4-0.5,0.8-1.1,1.1-1.6c0.4-0.5,0.8-1,1.1-1.4
		c0.4-0.4,0.7-0.8,1-1.1h1.8v9.6h-2.1v-6.3c-0.8,1-1.6,2-2.3,3c-0.7,1.1-1.4,2.2-2,3.3H36.5z"/>
	<path class="st0" d="M51.4,126.9c-1.6,0-2.7-0.4-3.6-1.3c-0.8-0.9-1.2-2.1-1.2-3.7c0-0.8,0.1-1.5,0.4-2.1c0.2-0.6,0.6-1.1,1-1.6
		c0.4-0.4,1-0.8,1.6-1c0.6-0.2,1.3-0.3,2-0.3c0.4,0,0.8,0,1.1,0.1c0.3,0.1,0.6,0.1,0.9,0.2c0.2,0.1,0.5,0.2,0.6,0.2
		c0.2,0.1,0.3,0.1,0.4,0.2l-0.6,1.7c-0.3-0.2-0.6-0.3-1-0.4c-0.4-0.1-0.8-0.2-1.3-0.2c-0.3,0-0.7,0.1-1,0.2
		c-0.3,0.1-0.6,0.3-0.8,0.5c-0.2,0.2-0.4,0.6-0.6,0.9c-0.1,0.4-0.2,0.9-0.2,1.4c0,0.4,0,0.9,0.1,1.2c0.1,0.4,0.3,0.7,0.5,1
		c0.2,0.3,0.5,0.5,0.9,0.7c0.4,0.2,0.8,0.2,1.3,0.2c0.3,0,0.6,0,0.8-0.1c0.2,0,0.5-0.1,0.7-0.1c0.2-0.1,0.4-0.1,0.5-0.2
		s0.3-0.1,0.4-0.2l0.6,1.7c-0.3,0.2-0.7,0.4-1.3,0.5C52.7,126.9,52.1,126.9,51.4,126.9z"/>
	<path class="st0" d="M61.7,117.2h2.2v9.6h-2.2v-4.1h-3.6v4.1H56v-9.6h2.2v3.7h3.6V117.2z"/>
	<path class="st0" d="M73.4,123.6c0,0.5-0.1,1-0.3,1.4c-0.2,0.4-0.5,0.7-0.9,1s-0.9,0.5-1.4,0.6c-0.5,0.1-1.2,0.2-1.8,0.2
		c-0.4,0-0.8,0-1.3-0.1c-0.5-0.1-1-0.1-1.5-0.3v-9.4h2.2v3.2c0.1,0,0.2,0,0.3,0s0.2,0,0.3,0c1.5,0,2.6,0.3,3.4,0.8
		C73,121.7,73.4,122.5,73.4,123.6z M68.7,122.2c0,0-0.1,0-0.2,0c-0.1,0-0.2,0-0.2,0v2.9c0.1,0,0.2,0,0.3,0c0.1,0,0.3,0,0.5,0
		c0.3,0,0.6,0,0.8-0.1c0.3,0,0.5-0.1,0.7-0.2c0.2-0.1,0.3-0.3,0.4-0.4c0.1-0.2,0.2-0.4,0.2-0.7c0-0.6-0.2-0.9-0.6-1.1
		C70.1,122.3,69.5,122.2,68.7,122.2z M74.6,117.2h2.2v9.6h-2.2V117.2z"/>
	<path class="st0" d="M79,126.8v-9.6h2.1v5.7c0.3-0.5,0.7-1,1.1-1.6c0.4-0.5,0.8-1.1,1.1-1.6c0.4-0.5,0.8-1,1.1-1.4
		c0.4-0.4,0.7-0.8,1-1.1h1.8v9.6h-2.1v-6.3c-0.8,1-1.6,2-2.3,3c-0.7,1.1-1.4,2.2-2,3.3H79z M83.3,116.3c-0.3,0-0.6,0-0.9-0.1
		c-0.3-0.1-0.5-0.2-0.7-0.4c-0.2-0.2-0.4-0.4-0.5-0.6c-0.1-0.2-0.2-0.5-0.3-0.8l1.4-0.4c0.1,0.4,0.2,0.6,0.4,0.7
		c0.2,0.1,0.4,0.2,0.6,0.2c0.2,0,0.4-0.1,0.6-0.2c0.2-0.1,0.3-0.4,0.4-0.8l1.4,0.4c0,0.3-0.1,0.6-0.3,0.8c-0.1,0.2-0.3,0.4-0.5,0.6
		c-0.2,0.2-0.5,0.3-0.7,0.4C83.8,116.3,83.6,116.3,83.3,116.3z"/>
	<path class="st0" d="M98.4,126.8c-0.2-0.3-0.4-0.7-0.7-1c-0.3-0.4-0.5-0.7-0.9-1.1c-0.3-0.4-0.6-0.7-1-1.1c-0.3-0.3-0.7-0.6-1-0.9
		v4.1h-2.2v-9.6h2.2v3.6c0.6-0.6,1.1-1.2,1.7-1.8c0.6-0.6,1.1-1.2,1.6-1.8h2.6c-0.7,0.8-1.3,1.5-2,2.2c-0.7,0.7-1.4,1.4-2.1,2.2
		c0.8,0.6,1.5,1.4,2.2,2.3c0.7,0.9,1.4,1.8,2.1,2.9H98.4z"/>
	<path class="st0" d="M106.6,119c0,0.6-0.1,1.2-0.1,1.9c0,0.6-0.1,1.2-0.2,1.8c-0.1,0.6-0.3,1.1-0.5,1.6c-0.2,0.5-0.5,1-0.8,1.3
		c-0.3,0.4-0.8,0.7-1.3,0.9c-0.5,0.2-1.1,0.4-1.9,0.4l-0.2-1.9c0.7-0.1,1.2-0.2,1.5-0.5s0.6-0.7,0.8-1.2c0.2-0.7,0.4-1.5,0.5-2.6
		c0.1-1.1,0.1-2.3,0.1-3.6h6.6v9.6H109V119H106.6z"/>
	<path class="st0" d="M118.4,123.9c-0.3,0.6-0.5,1.1-0.8,1.5c-0.3,0.4-0.6,0.7-0.9,0.9c-0.3,0.2-0.6,0.4-1,0.5
		c-0.3,0.1-0.7,0.1-1,0.1c-0.3,0-0.6,0-1-0.1c-0.3-0.1-0.7-0.1-0.9-0.3l0.4-1.7c0.5,0.2,0.9,0.2,1.4,0.2c0.3,0,0.6-0.1,0.8-0.2
		c0.3-0.1,0.5-0.4,0.8-0.8c-0.4-0.6-0.7-1.2-1.1-1.8c-0.3-0.6-0.7-1.2-1-1.8c-0.3-0.6-0.6-1.2-0.9-1.7c-0.3-0.6-0.5-1.1-0.7-1.5h2.4
		c0.1,0.4,0.3,0.7,0.5,1.2c0.2,0.4,0.4,0.8,0.6,1.3c0.2,0.4,0.4,0.9,0.6,1.3c0.2,0.4,0.4,0.9,0.6,1.3c0.3-0.8,0.6-1.6,0.8-2.5
		c0.3-0.9,0.5-1.7,0.8-2.5h2.3c-0.2,0.7-0.5,1.4-0.7,2c-0.2,0.6-0.5,1.2-0.7,1.8c-0.2,0.6-0.4,1.1-0.7,1.6
		C118.9,123,118.7,123.5,118.4,123.9z"/>
	<path class="st0" d="M124.4,119v1.6h0.7c0.7,0,1.3,0.1,1.9,0.2c0.6,0.1,1,0.3,1.4,0.5c0.4,0.2,0.7,0.6,0.9,1
		c0.2,0.4,0.3,0.9,0.3,1.5c0,1.1-0.4,1.9-1.2,2.4c-0.8,0.5-1.9,0.8-3.3,0.8c-0.4,0-0.8,0-1.3-0.1c-0.5,0-1-0.1-1.5-0.2v-9.4h6.4v1.8
		H124.4z M125.3,125c0.3,0,0.6,0,0.8-0.1c0.3,0,0.5-0.1,0.7-0.2c0.2-0.1,0.4-0.2,0.5-0.4c0.1-0.2,0.2-0.4,0.2-0.7
		c0-0.3-0.1-0.5-0.2-0.7c-0.1-0.2-0.3-0.3-0.5-0.4c-0.2-0.1-0.5-0.2-0.7-0.2c-0.3,0-0.6-0.1-1-0.1h-0.6v2.6c0.1,0,0.2,0,0.4,0
		C124.9,125,125.1,125,125.3,125z"/>
</g>
</svg>
