<?xml version="1.0" encoding="iso-8859-1"?>
<!-- Generator: Adobe Illustrator 19.0.0, SVG Export Plug-In . SVG Version: 6.00 Build 0)  -->
<svg version="1.1" id="Layer_1" xmlns="http://www.w3.org/2000/svg" xmlns:xlink="http://www.w3.org/1999/xlink" x="0px" y="0px"
	 viewBox="0 0 512.001 512.001" style="enable-background:new 0 0 512.001 512.001;" xml:space="preserve">
<g>
	<g>
		<path d="M134.939,142.148c-29.548,0-53.586,24.038-53.586,53.586c0,29.547,24.038,53.585,53.586,53.585
			c29.547,0.001,53.585-24.037,53.585-53.585S164.486,142.148,134.939,142.148z M134.939,232.454
			c-20.248,0-36.721-16.472-36.721-36.72c0-20.248,16.473-36.721,36.721-36.721c20.248,0,36.72,16.473,36.72,36.721
			C171.659,215.983,155.187,232.454,134.939,232.454z"/>
	</g>
</g>
<g>
	<g>
		<path d="M404.867,454.684c-43.467-29.626-64.298-71.106-74.118-100.686c-29.214-87.995-79.905-107.955-99.488-112.439V191.18
			c20.647,2.651,73.891,14.709,104.999,69.213c2.308,4.045,7.459,5.453,11.503,3.144c4.045-2.308,5.453-7.459,3.144-11.503
			c-22.862-40.058-56.354-59.258-80.424-68.312c-16.425-6.177-30.698-8.594-39.222-9.54v-57.905h30.082
			c3.593,0,6.793-2.278,7.969-5.675c1.175-3.397,0.069-7.164-2.756-9.387L140.153,1.804c-3.059-2.405-7.368-2.405-10.426,0
			L3.323,101.217c-2.826,2.223-3.931,5.991-2.757,9.387c1.176,3.397,4.376,5.675,7.969,5.675h30.082v167.347v219.943
			c0,4.658,3.774,8.433,8.433,8.433s8.433-3.774,8.433-8.433V292.058h39.062v211.511c0,4.658,3.774,8.433,8.433,8.433
			s8.433-3.774,8.433-8.433v-29.795h45.197v29.795c0,4.658,3.774,8.433,8.433,8.433s8.433-3.774,8.433-8.433V292.058h40.924v211.511
			c0,4.658,3.774,8.433,8.433,8.433s8.433-3.774,8.433-8.433V283.625V259c17.905,5.327,58.627,25.444,83.482,100.313
			c15.258,45.959,43.138,83.757,80.626,109.307c1.453,0.991,3.105,1.466,4.741,1.466c2.694,0,5.344-1.29,6.975-3.685
			C409.71,462.553,408.716,457.307,404.867,454.684z M111.409,456.908v-20.238h45.197v20.238H111.409z M156.606,308.495h-45.197
			v-16.438h45.197V308.495z M156.606,325.36v20.238h-45.197V325.36H156.606z M156.606,362.463v20.238h-45.197v-20.238H156.606z
			 M156.606,399.566v20.238h-45.197v-20.238H156.606z M222.829,99.412h-107.26c-4.658,0-8.433,3.774-8.433,8.433
			s3.774,8.433,8.433,8.433h98.827v65.729v66.693v26.493H55.482V116.277h26.356c4.658,0,8.433-3.774,8.433-8.433
			s-3.774-8.433-8.433-8.433H47.049H32.898L134.939,19.16L236.98,99.412H222.829z"/>
	</g>
</g>
<g>
	<g>
		<path d="M504.7,427.766c-43.97-6.505-74.896-22.769-97.33-51.182c-19.937-25.25-30.525-57.203-40.765-88.103l-1.265-3.817
			c-1.467-4.42-6.24-6.813-10.66-5.346c-4.42,1.468-6.814,6.24-5.346,10.66l1.263,3.807c10.699,32.287,21.76,65.671,43.538,93.251
			c23.651,29.955,56.707,48.396,100.899,56.244v45.177c-22.353-3.331-43.036-9.284-61.604-17.738
			c-4.24-1.926-9.238-0.057-11.169,4.181c-1.929,4.239-0.058,9.239,4.181,11.169c22.749,10.357,48.342,17.215,76.067,20.378
			c0.319,0.037,0.639,0.055,0.957,0.055c2.06,0,4.061-0.756,5.614-2.141c1.793-1.6,2.819-3.888,2.819-6.292v-61.96
			C511.899,431.928,508.835,428.377,504.7,427.766z"/>
	</g>
</g>
<g>
</g>
<g>
</g>
<g>
</g>
<g>
</g>
<g>
</g>
<g>
</g>
<g>
</g>
<g>
</g>
<g>
</g>
<g>
</g>
<g>
</g>
<g>
</g>
<g>
</g>
<g>
</g>
<g>
</g>
</svg>
