<?xml version="1.0" encoding="iso-8859-1"?>
<!-- Generator: Adobe Illustrator 19.0.0, SVG Export Plug-In . SVG Version: 6.00 Build 0)  -->
<svg version="1.1" id="Layer_1" xmlns="http://www.w3.org/2000/svg" xmlns:xlink="http://www.w3.org/1999/xlink" x="0px" y="0px"
	 viewBox="0 0 496 496" style="enable-background:new 0 0 496 496;" xml:space="preserve">
<g>
	<g>
		<g>
			<path d="M363.432,432c0,15.744,12.816,28.568,28.568,28.568c15.752,0,28.568-12.824,28.568-28.568
				c0-15.744-12.816-28.568-28.568-28.568S363.432,416.256,363.432,432z M404.568,432c0,6.928-5.64,12.568-12.568,12.568
				c-6.928,0-12.568-5.64-12.568-12.568s5.64-12.568,12.568-12.568S404.568,425.072,404.568,432z"/>
			<path d="M208,403.432c-15.752,0-28.568,12.816-28.568,28.568s12.816,28.568,28.568,28.568s28.568-12.824,28.568-28.568
				C236.568,416.256,223.752,403.432,208,403.432z M208,444.568c-6.928,0-12.568-5.64-12.568-12.568
				c0-6.928,5.64-12.568,12.568-12.568s12.568,5.64,12.568,12.568S214.928,444.568,208,444.568z"/>
			<path d="M409.232,352H456c13.232,0,24-10.768,24-24v-64c0-13.232-10.768-24-24-24h-25.472c0.896-2.512,1.472-5.184,1.472-8v-64
				c0-13.232-10.768-24-24-24h-72v-35.8l-12.784,5.096l0.24-0.504L125.088,17.568C116.28,6.848,102.928,0,88,0
				C61.528,0,40,21.528,40,48c0,2.344,0.224,4.624,0.552,6.88l-0.464-0.064L17.4,206.056c-0.68,2.624-1.096,5.336-1.224,8.144
				l-0.096,0.616l0.032,0.008C16.104,215.216,16,215.592,16,216c0,19.312,13.768,35.472,32,39.192V272c0,22.056,17.944,40,40,40h48
				c22.056,0,40-17.944,40-40v-63.704c0-5.768-3.688-10.808-9.184-12.536c-5.472-1.712-11.408,0.272-14.72,4.992
				c-6.816,9.728-18.752,14.496-30.672,12.176l-26.328-5.264c-1.24-5.816-3.832-11.08-7.304-15.664H88V96
				c10.352,0,19.92-3.328,27.768-8.92l77.848,77.848L192,165.576v170.816c-4.688,0.872-8.824,3.68-11.152,7.968
				c-2.808,5.152-2.56,11.408,0.624,16.328L186.2,368H160c-22.056,0-40,17.944-40,40v48c0,22.056,17.944,40,40,40h280
				c22.056,0,40-17.944,40-40v-48c0-22.056-17.944-40-40-40h-38l4.728-7.304C408.44,358.056,409.232,355.032,409.232,352z
				 M52.472,80.16C57.76,85.992,64.44,90.52,72.008,93.2v86.192H72C67.088,177.232,61.696,176,56,176
				c-6.76,0-13.04,1.848-18.632,4.824L52.472,80.16z M32.04,216.352l1.08-7.2C36.08,199.272,45.16,192,56,192
				c5.384,0,10.304,1.84,14.312,4.848l-37.504,25C32.36,220.08,32.064,218.256,32.04,216.352z M56,240
				c-5.384,0-10.304-1.84-14.312-4.848l37.504-25C79.672,212.032,80,213.968,80,216C80,229.232,69.232,240,56,240z M95.192,224
				l23.424,4.68c15.184,2.96,30.672-1.888,41.384-12.56V272c0,13.232-10.768,24-24,24H88c-13.232,0-24-10.768-24-24v-16.808
				C79.648,252,92,239.648,95.192,224z M56,48c0-12.728,7.52-23.64,18.296-28.8L87.8,79.976C70.248,79.872,56,65.584,56,48z
				 M103.288,75.936L90.016,16.208C106.704,17.264,120,31.04,120,48C120,60.08,113.192,70.488,103.288,75.936z M336,160h72
				c4.408,0,8,3.584,8,8v64c0,4.416-3.592,8-8,8h-72V160z M328,352h65.288l-7.984,12.344c-1.48,2.288-3.992,3.656-6.72,3.656
				H209.608c-2.728,0-5.232-1.368-6.712-3.648L194.904,352H224h80H328z M250.456,240H240v-48h28.456L250.456,240z M285.544,192H288
				v48h-20.456L285.544,192z M288,256v24h-24v16h24v40h-48v-80H288z M320,336h-16v-80v-16v-64h-80v160h-16V176.424L320,131.8V336z
				 M127.08,75.768C132.672,67.92,136,58.352,136,48c0-2.656-0.272-5.24-0.688-7.776l168.416,80.84L209.8,158.488L127.08,75.768z
				 M160,480c-13.232,0-24-10.768-24-24v-48c0-13.232,10.768-24,24-24h19.304C162.984,393.8,152,411.616,152,432
				c0,20.384,10.984,38.2,27.304,48H160z M208,472c-22.056,0-40-17.944-40-40c0-22.056,17.944-40,40-40c22.056,0,40,17.944,40,40
				C248,454.056,230.056,472,208,472z M236.696,480c14.144-8.488,24.216-23.008,26.664-40H304v-16h-40.64
				c-2.448-16.992-12.52-31.512-26.664-40h126.608c-14.144,8.488-24.216,23.008-26.664,40H320v16h16.64
				c2.448,16.992,12.52,31.512,26.664,40H236.696z M440,384c13.232,0,24,10.768,24,24v48c0,13.232-10.768,24-24,24h-19.304
				c16.32-9.8,27.304-27.616,27.304-48c0-20.384-10.984-38.2-27.304-48H440z M432,432c0,22.056-17.944,40-40,40
				c-22.056,0-40-17.944-40-40c0-22.056,17.944-40,40-40C414.056,392,432,409.944,432,432z M393.296,336H336v-16h80v-16h-80v-48h72
				h48c4.408,0,8,3.584,8,8v64c0,4.416-3.592,8-8,8H393.296z"/>
			<rect x="432" y="304" width="16" height="16"/>
		</g>
	</g>
</g>
<g>
</g>
<g>
</g>
<g>
</g>
<g>
</g>
<g>
</g>
<g>
</g>
<g>
</g>
<g>
</g>
<g>
</g>
<g>
</g>
<g>
</g>
<g>
</g>
<g>
</g>
<g>
</g>
<g>
</g>
</svg>
