<?xml version="1.0" encoding="utf-8"?>
<!-- Generator: Adobe Illustrator 21.0.2, SVG Export Plug-In . SVG Version: 6.00 Build 0)  -->
<svg version="1.1" id="Layer_1" xmlns="http://www.w3.org/2000/svg" xmlns:xlink="http://www.w3.org/1999/xlink" x="0px" y="0px"
	 viewBox="0 0 159.8 115.9" style="enable-background:new 0 0 159.8 115.9;" xml:space="preserve">
<style type="text/css">
	.st0{clip-path:url(#SVGID_2_);}
	.st1{clip-path:url(#SVGID_4_);}
	.st2{clip-path:url(#SVGID_6_);}
	.st3{clip-path:url(#SVGID_8_);fill:#FFFFFF;}
	.st4{clip-path:url(#SVGID_10_);}
	.st5{clip-path:url(#SVGID_12_);}
	.st6{clip-path:url(#SVGID_14_);fill:#FFFFFF;}
</style>
<g>
	<g>
		<defs>
			<rect id="SVGID_1_" x="22" width="137.8" height="115.9"/>
		</defs>
		<clipPath id="SVGID_2_">
			<use xlink:href="#SVGID_1_"  style="overflow:visible;"/>
		</clipPath>
		<g class="st0">
			<g>
				<defs>
					<rect id="SVGID_3_" x="22" width="137.8" height="115.9"/>
				</defs>
				<clipPath id="SVGID_4_">
					<use xlink:href="#SVGID_3_"  style="overflow:visible;"/>
				</clipPath>
				<g class="st1">
					<g>
						<g>
							<defs>
								<rect id="SVGID_5_" x="13" y="48.3" width="110.1" height="68.6"/>
							</defs>
							<clipPath id="SVGID_6_">
								<use xlink:href="#SVGID_5_"  style="overflow:visible;"/>
							</clipPath>
							<g class="st2">
								<g>
									<defs>
										<rect id="SVGID_7_" x="22" y="55.3" width="92.1" height="60.6"/>
									</defs>
									<clipPath id="SVGID_8_">
										<use xlink:href="#SVGID_7_"  style="overflow:visible;"/>
									</clipPath>
									<path class="st3" d="M105.2,90.6c-2.8,0-12,0.7-12-2.2c0-2.9,9.2-8.3,12-8.3s5.1,2.4,5.1,5.3
										C110.2,88.2,108,90.6,105.2,90.6 M107.7,100.9c-0.1,0.3-0.3,0.6-0.5,1c-0.2,0.3-0.5,0.7-1,1c-0.8,0.6-1.9,1.2-3.5,1.7H97
										h-6.3l6.5-7.5h9.8C106.9,97,108.4,98.9,107.7,100.9 M83.3,95.6H52.7c-3.2,0-5.8-3.9-5.8-8.8h42.2
										C89.1,91.7,86.5,95.6,83.3,95.6 M82.1,104.5H53.9c-2.9,0-5.3-2.4-5.3-5.3h38.8C87.4,102.1,85,104.5,82.1,104.5 M41,104.5
										h-2h-5.7c-1.6-0.5-2.7-1.1-3.5-1.7c-0.4-0.3-0.7-0.6-1-1c-0.2-0.3-0.4-0.7-0.5-1c-0.7-2,0.8-3.9,0.8-3.9h9.8l6.5,7.5
										L41,104.5z M25.7,85.3c0-2.9,2.3-5.3,5.1-5.3s12,5.4,12,8.3s-9.2,2.2-12,2.2C28,90.6,25.7,88.2,25.7,85.3 M47.6,62.1
										c1.2-1,3.2-1.7,4.2-1.7h32.4c1,0,3.1,0.7,4.2,1.7l10.9,10.6H36.7L47.6,62.1z M108.3,74.7c-0.1-0.1-0.1-0.1-0.2-0.2
										l-3.2-3.1c2.7-0.6,5.6-2.8,5.6-5.1c0-2.7-3.7-3.6-6.9-3.6c-3.3,0-3.7,2.3-3.7,3.9l-8.3-8c-1.7-1.7-4.9-3-7.3-3H51.8
										c-2.4,0-5.6,1.3-7.3,3l-8.3,8c0-1.6-0.4-3.9-3.7-3.9c-3.2,0-6.9,1-6.9,3.6c0,2.3,2.9,4.5,5.6,5.1L28,74.5
										c-0.1,0.1-0.1,0.1-0.2,0.2c-3.5,3-5.8,8.4-5.8,12.4v11.8c0,2.9,1.1,5.5,3,7.4v4.6c0,2.7,2.2,4.9,5,4.9h6c2.8,0,5-2.2,5-4.9
										v-1.2h54v1.2c0,2.7,2.2,4.9,5,4.9h6c2.8,0,5-2.2,5-4.9v-4.6c1.8-1.9,3-4.5,3-7.4V87.1C114,83.1,111.7,77.7,108.3,74.7"/>
								</g>
							</g>
						</g>
						<g>
							<defs>
								<rect id="SVGID_9_" x="22" width="137.8" height="115.9"/>
							</defs>
							<clipPath id="SVGID_10_">
								<use xlink:href="#SVGID_9_"  style="overflow:visible;"/>
							</clipPath>
							<g class="st4">
								<g>
									<g>
										<defs>
											<rect id="SVGID_11_" x="79.3" y="-7" width="89.5" height="55.1"/>
										</defs>
										<clipPath id="SVGID_12_">
											<use xlink:href="#SVGID_11_"  style="overflow:visible;"/>
										</clipPath>
										<g class="st5">
											<g>
												<defs>
													<rect id="SVGID_13_" x="88.3" y="5" width="71.5" height="37.1"/>
												</defs>
												<clipPath id="SVGID_14_">
													<use xlink:href="#SVGID_13_"  style="overflow:visible;"/>
												</clipPath>
												<path class="st6" d="M135.2,35.7h11.9v2.9h-11.9V35.7z M158.9,36.6c-0.8-0.5-1.8-0.2-2.3,0.6c0,0-0.9,1.4-2.7,1.4h-3.1
													v-2.9h1.9c1.9,0,3.4-1.5,3.4-3.4c0-0.1,0-0.1,0-0.2c0-7.5-3.3-13.2-9.4-16.6c-3.9-2.1-8.5-3-12.3-3.2v-4h12.9
													c0.9,0,1.7-0.8,1.7-1.7s-0.8-1.7-1.7-1.7h-29.1c-0.9,0-1.7,0.8-1.7,1.7s0.8,1.7,1.7,1.7H131v3.9c-3.6,0-6.2,0.4-6.3,0.5
													c-1.3,0.2-2.3,1.1-2.7,2.4l-1.9,6.3h-17.3l-8.5-6.9c-0.6-0.5-1.4-0.8-2.2-0.8h-0.5c-1.9,0-3.4,1.5-3.4,3.4v8.7
													c0,1.9,1.5,3.4,3.4,3.4h25.8l5.5,5.5c0.6,0.6,1.5,1,2.4,1h6.1v2.9h-6.9c-0.9,0-1.7,0.8-1.7,1.7s0.8,1.7,1.7,1.7h29.4
													c2.9,0,4.9-1.9,5.6-3C160,38.2,159.7,37.1,158.9,36.6"/>
											</g>
										</g>
									</g>
								</g>
							</g>
						</g>
					</g>
				</g>
			</g>
		</g>
	</g>
</g>
</svg>
