<?xml version="1.0" encoding="utf-8"?>
<!-- Generator: Adobe Illustrator 21.0.2, SVG Export Plug-In . SVG Version: 6.00 Build 0)  -->
<svg version="1.1" id="Layer_1" xmlns="http://www.w3.org/2000/svg" xmlns:xlink="http://www.w3.org/1999/xlink" x="0px" y="0px"
	 viewBox="0 0 212 102" style="enable-background:new 0 0 212 102;" xml:space="preserve">
<style type="text/css">
	.st0{clip-path:url(#SVGID_2_);}
	.st1{clip-path:url(#SVGID_4_);}
	.st2{clip-path:url(#SVGID_6_);}
	.st3{clip-path:url(#SVGID_8_);fill:#FFFFFF;}
	.st4{clip-path:url(#SVGID_10_);}
	.st5{clip-path:url(#SVGID_12_);fill:#FFFFFF;}
	.st6{clip-path:url(#SVGID_14_);fill:#FFFFFF;}
	.st7{clip-path:url(#SVGID_16_);fill:#FFFFFF;}
</style>
<g>
	<defs>
		<rect id="SVGID_1_" width="212" height="102"/>
	</defs>
	<clipPath id="SVGID_2_">
		<use xlink:href="#SVGID_1_"  style="overflow:visible;"/>
	</clipPath>
	<g class="st0">
		<defs>
			<rect id="SVGID_3_" width="212" height="102"/>
		</defs>
		<clipPath id="SVGID_4_">
			<use xlink:href="#SVGID_3_"  style="overflow:visible;"/>
		</clipPath>
		<g class="st1">
			<g>
				<defs>
					<rect id="SVGID_5_" x="-9" y="-7" width="147.3" height="110"/>
				</defs>
				<clipPath id="SVGID_6_">
					<use xlink:href="#SVGID_5_"  style="overflow:visible;"/>
				</clipPath>
				<g class="st2">
					<defs>
						<rect id="SVGID_7_" width="129.3" height="102"/>
					</defs>
					<clipPath id="SVGID_8_">
						<use xlink:href="#SVGID_7_"  style="overflow:visible;"/>
					</clipPath>
					<path class="st3" d="M84.9,34h23.7v64.4H84.9V34z M66.3,84.8h6.8v13.6h-6.8V84.8z M56.1,84.8h6.8v13.6h-6.8V84.8z M47.6,32.3
						V3.5h33.9v94.9h-5.1V83.1c0-1-0.7-1.7-1.7-1.7H54.4c-1,0-1.7,0.7-1.7,1.7v15.2h-5.1V32.3z M20.5,34h23.7v64.4H20.5V34z
						 M113.7,98.4H112V32.3c0-1-0.7-1.7-1.7-1.7H84.9V1.8c0-1-0.7-1.7-1.7-1.7H46c-1,0-1.7,0.7-1.7,1.7v28.8H18.8
						c-1,0-1.7,0.7-1.7,1.7v66.1h-1.7c-1,0-1.7,0.7-1.7,1.7c0,1,0.7,1.7,1.7,1.7h98.3c1,0,1.7-0.7,1.7-1.7
						C115.4,99,114.7,98.4,113.7,98.4"/>
					<path class="st3" d="M54.4,10.3h3.4v8.5c0,1,0.7,1.7,1.7,1.7h10.2c1,0,1.7-0.7,1.7-1.7v-8.5h3.4V34h-3.4v-8.5
						c0-1-0.7-1.7-1.7-1.7H59.5c-1,0-1.7,0.7-1.7,1.7V34h-3.4V10.3z M52.7,37.4h6.8c1,0,1.7-0.7,1.7-1.7v-8.5H68v8.5
						c0,1,0.7,1.7,1.7,1.7h6.8c1,0,1.7-0.7,1.7-1.7V8.6c0-1-0.7-1.7-1.7-1.7h-6.8c-1,0-1.7,0.7-1.7,1.7V17h-6.8V8.6
						c0-1-0.7-1.7-1.7-1.7h-6.8c-1,0-1.7,0.7-1.7,1.7v27.1C51,36.7,51.7,37.4,52.7,37.4"/>
					<path class="st3" d="M37.5,44.1H27.3v-3.4h10.2V44.1z M39.2,37.4H25.6c-1,0-1.7,0.7-1.7,1.7v6.8c0,1,0.7,1.7,1.7,1.7h13.6
						c1,0,1.7-0.7,1.7-1.7v-6.8C40.9,38.1,40.2,37.4,39.2,37.4"/>
					<path class="st3" d="M71.4,47.5H57.8v-3.4h13.6V47.5z M73.1,40.8H56.1c-1,0-1.7,0.7-1.7,1.7v6.8c0,1,0.7,1.7,1.7,1.7h16.9
						c1,0,1.7-0.7,1.7-1.7v-6.8C74.8,41.4,74.1,40.8,73.1,40.8"/>
					<path class="st3" d="M71.4,61.1H57.8v-3.4h13.6V61.1z M73.1,54.3H56.1c-1,0-1.7,0.7-1.7,1.7v6.8c0,1,0.7,1.7,1.7,1.7h16.9
						c1,0,1.7-0.7,1.7-1.7V56C74.8,55,74.1,54.3,73.1,54.3"/>
					<path class="st3" d="M71.4,74.6H57.8v-3.4h13.6V74.6z M73.1,67.9H56.1c-1,0-1.7,0.7-1.7,1.7v6.8c0,1,0.7,1.7,1.7,1.7h16.9
						c1,0,1.7-0.7,1.7-1.7v-6.8C74.8,68.5,74.1,67.9,73.1,67.9"/>
					<path class="st3" d="M37.5,57.7H27.3v-3.4h10.2V57.7z M39.2,50.9H25.6c-1,0-1.7,0.7-1.7,1.7v6.8c0,1,0.7,1.7,1.7,1.7h13.6
						c1,0,1.7-0.7,1.7-1.7v-6.8C40.9,51.6,40.2,50.9,39.2,50.9"/>
					<path class="st3" d="M37.5,71.3H27.3v-3.4h10.2V71.3z M39.2,64.5H25.6c-1,0-1.7,0.7-1.7,1.7V73c0,1,0.7,1.7,1.7,1.7h13.6
						c1,0,1.7-0.7,1.7-1.7v-6.8C40.9,65.2,40.2,64.5,39.2,64.5"/>
					<path class="st3" d="M37.5,84.8H27.3v-3.4h10.2V84.8z M39.2,78H25.6c-1,0-1.7,0.7-1.7,1.7v6.8c0,1,0.7,1.7,1.7,1.7h13.6
						c1,0,1.7-0.7,1.7-1.7v-6.8C40.9,78.7,40.2,78,39.2,78"/>
					<path class="st3" d="M101.9,44.1H91.7v-3.4h10.2V44.1z M103.6,37.4H90c-1,0-1.7,0.7-1.7,1.7v6.8c0,1,0.7,1.7,1.7,1.7h13.6
						c1,0,1.7-0.7,1.7-1.7v-6.8C105.2,38.1,104.6,37.4,103.6,37.4"/>
					<path class="st3" d="M101.9,57.7H91.7v-3.4h10.2V57.7z M103.6,50.9H90c-1,0-1.7,0.7-1.7,1.7v6.8c0,1,0.7,1.7,1.7,1.7h13.6
						c1,0,1.7-0.7,1.7-1.7v-6.8C105.2,51.6,104.6,50.9,103.6,50.9"/>
					<path class="st3" d="M101.9,71.3H91.7v-3.4h10.2V71.3z M103.6,64.5H90c-1,0-1.7,0.7-1.7,1.7V73c0,1,0.7,1.7,1.7,1.7h13.6
						c1,0,1.7-0.7,1.7-1.7v-6.8C105.2,65.2,104.6,64.5,103.6,64.5"/>
					<path class="st3" d="M101.9,84.8H91.7v-3.4h10.2V84.8z M103.6,78H90c-1,0-1.7,0.7-1.7,1.7v6.8c0,1,0.7,1.7,1.7,1.7h13.6
						c1,0,1.7-0.7,1.7-1.7v-6.8C105.2,78.7,104.6,78,103.6,78"/>
				</g>
			</g>
		</g>
		<g class="st1">
			<g>
				<defs>
					<rect id="SVGID_9_" x="120.3" y="28.7" width="100.8" height="73.3"/>
				</defs>
				<clipPath id="SVGID_10_">
					<use xlink:href="#SVGID_9_"  style="overflow:visible;"/>
				</clipPath>
				<g class="st4">
					<defs>
						<rect id="SVGID_11_" x="129.3" y="35.7" width="82.8" height="65.3"/>
					</defs>
					<clipPath id="SVGID_12_">
						<use xlink:href="#SVGID_11_"  style="overflow:visible;"/>
					</clipPath>
					<path class="st5" d="M194.9,102.9c-0.9,0-1.6-0.7-1.6-1.6s0.7-1.6,1.6-1.6s1.6,0.7,1.6,1.6S195.8,102.9,194.9,102.9
						 M176.5,102.9c-0.9,0-1.6-0.7-1.6-1.6s0.7-1.6,1.6-1.6c0.9,0,1.6,0.7,1.6,1.6S177.3,102.9,176.5,102.9 M185.7,46.3
						c-8.4,0-15.5,6-17.2,13.9c0.7-0.3,1.6-0.8,3-0.7c1.9-6.1,7.5-10.5,14.1-10.5c8.2,0,14.8,6.6,14.8,14.8v32.6
						c0,0.2-0.2,0.4-0.4,0.4h-28.8c-0.2,0-0.4-0.2-0.4-0.4V70.8l-2.7,1.2v24.4c0,1.7,1.4,3.1,3.1,3.1h0.9c-0.2,0.6-0.4,1.2-0.4,1.8
						c0,2.6,2.1,4.7,4.6,4.7c2.6,0,4.7-2.1,4.7-4.7c0-0.6-0.1-1.3-0.4-1.8h9.9c-0.2,0.6-0.4,1.2-0.4,1.8c0,2.6,2.1,4.7,4.6,4.7
						s4.6-2.1,4.6-4.7c0-0.6-0.1-1.3-0.4-1.8h0.9c1.7,0,3.1-1.4,3.1-3.1V63.8C203.2,54.2,195.3,46.3,185.7,46.3"/>
				</g>
				<g class="st4">
					<defs>
						<rect id="SVGID_13_" x="138.1" y="35.7" width="65.1" height="65.3"/>
					</defs>
					<clipPath id="SVGID_14_">
						<use xlink:href="#SVGID_13_"  style="overflow:visible;"/>
					</clipPath>
					<path class="st6" d="M156.5,44.3c-1.4-0.8-2.4-1.7-5.2-1.7c-2.7,0-3.7,0.8-5.1,1.6c-0.2,0.5-0.2,1-0.2,1.6c0,3,2.4,5.4,5.4,5.4
						c3,0,5.4-2.4,5.4-5.4C156.7,45.2,156.6,44.7,156.5,44.3"/>
					<path class="st6" d="M138.1,76.7l0,1.3c0,1.4,1.1,2.6,2.6,2.6h0c1.4,0,2.6-1.2,2.6-2.6l0-1.4H138.1z"/>
				</g>
				<g class="st4">
					<defs>
						<rect id="SVGID_15_" x="129.3" y="35.7" width="82.8" height="65.3"/>
					</defs>
					<clipPath id="SVGID_16_">
						<use xlink:href="#SVGID_15_"  style="overflow:visible;"/>
					</clipPath>
					<path class="st7" d="M173.6,63.8c-0.6-1.3-2.1-1.9-3.4-1.4l-1.4,0.6l2,4.8l1.4-0.6C173.6,66.7,174.2,65.2,173.6,63.8"/>
					<path class="st7" d="M151.3,64c-0.4,0-0.8-0.3-0.8-0.8c0-0.4,0.3-0.8,0.8-0.8c0.4,0,0.8,0.4,0.8,0.8
						C152.1,63.7,151.7,64,151.3,64 M151.3,67.8c-0.4,0-0.8-0.4-0.8-0.8c0-0.4,0.4-0.8,0.8-0.8c0.4,0,0.8,0.3,0.8,0.8
						C152.1,67.4,151.7,67.8,151.3,67.8 M151.3,71.5c-0.4,0-0.8-0.3-0.8-0.8s0.4-0.8,0.8-0.8c0.4,0,0.8,0.4,0.8,0.8
						S151.7,71.5,151.3,71.5 M166.8,63.9l-2.4,1l0-5.9v0c0-3.4-2.8-6.1-6.1-6.1h-2.9c-0.6,1.5-2.5,6.4-3.1,8l0.7-3.4
						c0.1-0.2,0-0.5-0.1-0.7l-1-1.8l0.9-1.6c0.1-0.2,0-0.5-0.3-0.5h-2.4c-0.3,0-0.4,0.3-0.3,0.5l0.9,1.6l-1,1.8
						c-0.1,0.2-0.2,0.5-0.1,0.7l0.6,3.4c-0.6-1.5-2.4-6.5-3-8h-2.8c-3.4,0-6.1,2.7-6.1,6.1l-0.1,15.6h5.2l0.1-15.6c0,0,0,0,0,0
						c0-0.3,0.2-0.5,0.5-0.5c0.3,0,0.5,0.2,0.5,0.5c0,4,0,20.8,0,43.9c0,1.7,1.4,3.1,3.1,3.1s3.1-1.4,3.1-3.1c0-26.7,0-24.9,0-25.1
						h1.4c0,0.2,0-1.5,0,25.1c0,1.7,1.4,3.1,3.1,3.1c1.7,0,3.1-1.4,3.1-3.1c0-2.9-0.1-43.3-0.1-43.9c0-0.3,0.2-0.5,0.5-0.5
						c0.3,0,0.5,0.2,0.5,0.5c0,0,0,0,0,0.1l0,9.9c0,1.9,1.9,3.1,3.6,2.4l6-2.6L166.8,63.9z"/>
					<path class="st7" d="M155.3,35.8h-8c-0.4,0-0.6,0.3-0.6,0.6v5.4c1.1-0.6,2.8-1,4.6-1c1.9,0,3.6,0.4,4.7,1.1v-5.4
						C156,36.1,155.7,35.8,155.3,35.8"/>
					<path class="st7" d="M194,84.7h-17c-1,0-1.8,0.8-1.8,1.8v4c0,1,0.8,1.8,1.8,1.8h17c1,0,1.8-0.8,1.8-1.8v-4
						C195.8,85.5,195,84.7,194,84.7"/>
					<path class="st7" d="M192.7,78.1v1.2c0,0.2-0.2,0.4-0.4,0.4h-1.7c-0.2,0-0.4-0.2-0.4-0.4v-1.2h-9.3v1.2c0,0.2-0.2,0.4-0.4,0.4
						h-1.7c-0.2,0-0.4-0.2-0.4-0.4v-1.2h-3.2v2.2c0,1,0.8,1.8,1.8,1.8h17c1,0,1.8-0.8,1.8-1.8v-2.2H192.7z"/>
					<path class="st7" d="M194,74.5h-17c-1,0-1.8,0.8-1.8,1.8v0h20.5v0C195.8,75.3,195,74.5,194,74.5"/>
					<path class="st7" d="M187.1,64.6h-2.9v-1.7c0-0.2,0.1-0.3,0.3-0.3h2.3c0.2,0,0.3,0.1,0.3,0.3V64.6z M189.6,64.6h-0.9v-1.7
						c0-1-0.8-1.8-1.8-1.8h-2.3c-1,0-1.8,0.8-1.8,1.8v1.7h-0.9c-0.7,0-1.2,0.5-1.2,1.2v5c0,0.7,0.5,1.2,1.2,1.2h7.8
						c0.7,0,1.2-0.5,1.2-1.2v-5C190.8,65.1,190.3,64.6,189.6,64.6"/>
				</g>
			</g>
		</g>
	</g>
</g>
</svg>
