<?xml version="1.0" encoding="utf-8"?>
<!-- Generator: Adobe Illustrator 21.0.2, SVG Export Plug-In . SVG Version: 6.00 Build 0)  -->
<svg version="1.1" id="Layer_1" xmlns="http://www.w3.org/2000/svg" xmlns:xlink="http://www.w3.org/1999/xlink" x="0px" y="0px"
	 viewBox="0 0 199.4 122.7" style="enable-background:new 0 0 199.4 122.7;" xml:space="preserve">
<style type="text/css">
	.st0{clip-path:url(#SVGID_2_);}
	.st1{clip-path:url(#SVGID_4_);}
	.st2{clip-path:url(#SVGID_6_);}
	.st3{clip-path:url(#SVGID_8_);fill:#FFFFFF;}
	.st4{clip-path:url(#SVGID_10_);}
	.st5{clip-path:url(#SVGID_12_);fill:#FFFFFF;}
	.st6{clip-path:url(#SVGID_14_);fill:#FFFFFF;}
</style>
<g>
	<defs>
		<rect id="SVGID_1_" width="199.4" height="122.7"/>
	</defs>
	<clipPath id="SVGID_2_">
		<use xlink:href="#SVGID_1_"  style="overflow:visible;"/>
	</clipPath>
	<g class="st0">
		<defs>
			<rect id="SVGID_3_" width="199.4" height="122.7"/>
		</defs>
		<clipPath id="SVGID_4_">
			<use xlink:href="#SVGID_3_"  style="overflow:visible;"/>
		</clipPath>
		<g class="st1">
			<g>
				<defs>
					<rect id="SVGID_5_" x="73.4" y="-7" width="135" height="100.3"/>
				</defs>
				<clipPath id="SVGID_6_">
					<use xlink:href="#SVGID_5_"  style="overflow:visible;"/>
				</clipPath>
				<g class="st2">
					<defs>
						<rect id="SVGID_7_" x="94.9" y="0" width="92" height="92.3"/>
					</defs>
					<clipPath id="SVGID_8_">
						<use xlink:href="#SVGID_7_"  style="overflow:visible;"/>
					</clipPath>
					<path class="st3" d="M183.5,0.3l-9.7,4.4c-0.6,0.3-1.2,0.7-1.7,1.2l-15.9,15.9l-54.6-6.5c-1-0.1-2,0.2-2.7,0.9l-3,3
						c-1.6,1.6-1.1,4.3,1,5.3L136,42l-11.2,11.2h-19.6c-0.9,0-1.7,0.3-2.3,0.9l-1.6,1.7c-1.6,1.6-1.1,4.4,1,5.3l16.6,7.1l7.1,16.6
						c0.9,2.1,3.7,2.6,5.3,1l1.6-1.7c0.6-0.6,0.9-1.4,0.9-2.3V62.2L145,51l17.5,39.2c0.9,2.1,3.7,2.6,5.3,1l3-3
						c0.7-0.7,1-1.7,0.9-2.7l-6.6-54.6l15.9-15.9c0.5-0.5,0.9-1.1,1.2-1.7l4.4-9.7C187.6,1.5,185.5-0.6,183.5,0.3"/>
				</g>
			</g>
		</g>
		<g class="st1">
			<g>
				<defs>
					<rect id="SVGID_9_" x="-9" y="45.2" width="110.1" height="78.5"/>
				</defs>
				<clipPath id="SVGID_10_">
					<use xlink:href="#SVGID_9_"  style="overflow:visible;"/>
				</clipPath>
				<g class="st4">
					<defs>
						<rect id="SVGID_11_" y="52.2" width="92" height="70.5"/>
					</defs>
					<clipPath id="SVGID_12_">
						<use xlink:href="#SVGID_11_"  style="overflow:visible;"/>
					</clipPath>
					<path class="st5" d="M89.3,78.8L80.6,108c-0.1,0.4-0.5,0.7-0.9,0.7c-0.1,0-0.2,0-0.3,0l-19.6-5.8l0.5-1.5
						c0.2-0.7-0.2-1.5-0.9-1.7c-0.7-0.2-1.5,0.2-1.7,0.9l-0.5,1.5l-53.9-16c-0.5-0.2-0.8-0.7-0.7-1.2l8.6-29.1
						c0.1-0.4,0.5-0.7,0.9-0.7c0.1,0,0.2,0,0.3,0l53.9,16l-0.6,1.9c-0.2,0.7,0.2,1.5,0.9,1.7c0.1,0,0.3,0.1,0.4,0.1
						c0.6,0,1.1-0.4,1.3-1l0.6-1.9l19.6,5.8c0.3,0.1,0.5,0.2,0.6,0.5C89.3,78.3,89.3,78.6,89.3,78.8 M86.3,118.8c0,0.5-0.4,1-1,1
						H64.9v-1.6c0-0.7-0.6-1.3-1.3-1.3c-0.7,0-1.3,0.6-1.3,1.3v1.6H6c-0.5,0-1-0.4-1-1V89.4L17.4,93l-0.9,0.9l-6-0.7l-1.3,1l4.8,2.1
						l-1.7,1.7l-1.8-0.2c0,0-0.1,0-0.1,0l-0.6,0.6c0,0,0,0.1,0,0.1c0,0,0,0,0,0l1.6,0.7c0,0.3,0.1,0.5,0.3,0.7
						c0.2,0.2,0.4,0.3,0.7,0.3l0.7,1.6c0,0.1,0.1,0.1,0.1,0.1c0,0,0,0,0,0l0.6-0.6c0,0,0-0.1,0-0.1l-0.2-1.8l1.7-1.7l2.1,4.8l1-1.3
						l-0.7-6l1.6-1.6l2.8,0.8v0.7c0,0.2,0.2,0.4,0.4,0.4h3.5l10.1,3H22.8c-0.2,0-0.4,0.2-0.4,0.4v2.8c0,0.2,0.2,0.4,0.4,0.4h26.2
						l13.2,3.9c0,0.1,0,0.2,0,0.3v5.8c0,0.7,0.6,1.3,1.3,1.3s1.3-0.6,1.3-1.3v-5.3l13.7,4.1c0.3,0.1,0.7,0.2,1,0.2
						c1.6,0,3.1-1.1,3.5-2.6l3.1-10.4V118.8z M91.5,76.8c-0.5-0.9-1.2-1.5-2.2-1.8l-76-22.5c-0.3-0.1-0.7-0.2-1-0.2
						c-1.6,0-3.1,1.1-3.5,2.6L0.2,84.1c-0.5,1.8,0.4,3.8,2.2,4.5v30.2c0,2,1.6,3.7,3.7,3.7h79.3c2,0,3.7-1.6,3.7-3.7V89.3l2.9-9.7
						C92.1,78.7,92,77.7,91.5,76.8"/>
				</g>
				<g class="st4">
					<defs>
						<rect id="SVGID_13_" y="52.2" width="92.1" height="70.5"/>
					</defs>
					<clipPath id="SVGID_14_">
						<use xlink:href="#SVGID_13_"  style="overflow:visible;"/>
					</clipPath>
					<path class="st6" d="M62.7,88.6c-0.7-0.2-1.5,0.2-1.7,0.9L59.4,95c-0.2,0.7,0.2,1.5,0.9,1.7c0.1,0,0.3,0.1,0.4,0.1
						c0.6,0,1.1-0.4,1.3-1l1.6-5.5C63.8,89.6,63.4,88.8,62.7,88.6"/>
					<path class="st6" d="M65.9,77.6c-0.7-0.2-1.5,0.2-1.7,0.9L62.6,84c-0.2,0.7,0.2,1.5,0.9,1.7c0.1,0,0.3,0.1,0.4,0.1
						c0.6,0,1.1-0.4,1.3-1l1.6-5.5C67,78.5,66.6,77.8,65.9,77.6"/>
					<path class="st6" d="M13.1,67l1.3,1.1c-0.1,0.2,0,0.5,0.1,0.8c0.1,0.2,0.3,0.4,0.6,0.5l0.2,1.7c0,0.1,0.1,0.1,0.1,0.1
						c0,0,0,0,0,0l0.8-0.4c0,0,0,0,0.1-0.1l0.3-1.8l2.1-1.1l0.7,5.2l1.3-0.9l1.1-6l2.3-1.2c0.5-0.3,0.7-0.9,0.4-1.4
						c-0.3-0.5-0.9-0.7-1.4-0.4l-2.3,1.2l-5.6-2.4l-1.5,0.6l4,3.4l-2.1,1.1L14,66.4c0,0-0.1,0-0.1,0l-0.8,0.4
						C13,66.9,13,66.9,13.1,67C13.1,67,13.1,67,13.1,67"/>
					<path class="st6" d="M54.6,93.4L8.6,79.7C8.3,79.6,8.1,79.8,8,80l-0.8,2.7c0,0.1,0,0.2,0,0.3c0.1,0.1,0.2,0.2,0.3,0.2
						l46.1,13.7c0,0,0.1,0,0.1,0c0.1,0,0.1,0,0.2-0.1c0.1-0.1,0.2-0.2,0.2-0.3l0.8-2.7C55,93.7,54.9,93.4,54.6,93.4"/>
					<path class="st6" d="M56.5,86.9L10.5,73.2c-0.1,0-0.2,0-0.3,0c-0.1,0.1-0.2,0.2-0.2,0.3l-0.8,2.7c-0.1,0.2,0.1,0.5,0.3,0.6
						l46.1,13.7c0,0,0.1,0,0.1,0c0.1,0,0.1,0,0.2-0.1c0.1-0.1,0.2-0.2,0.2-0.3l0.8-2.7C56.9,87.2,56.8,87,56.5,86.9"/>
					<path class="st6" d="M58.5,80.4l-33-9.8c-0.2-0.1-0.5,0.1-0.6,0.3l-0.8,2.7c0,0.1,0,0.2,0,0.3c0.1,0.1,0.2,0.2,0.3,0.2l33,9.8
						c0,0,0.1,0,0.1,0c0.1,0,0.1,0,0.2-0.1c0.1-0.1,0.2-0.2,0.2-0.3l0.8-2.7C58.8,80.8,58.7,80.5,58.5,80.4"/>
					<path class="st6" d="M59.4,77.6c0.2,0,0.4-0.1,0.4-0.3l0.8-2.7c0-0.1,0-0.2,0-0.3c-0.1-0.1-0.2-0.2-0.3-0.2l-33-9.8
						c-0.2-0.1-0.5,0.1-0.6,0.3l-0.8,2.7c0,0.1,0,0.2,0,0.3c0.1,0.1,0.2,0.2,0.3,0.2l33,9.8C59.4,77.6,59.4,77.6,59.4,77.6"/>
					<path class="st6" d="M57.2,112.2H9.1c-0.2,0-0.4,0.2-0.4,0.4v2.8c0,0.2,0.2,0.4,0.4,0.4h48.1c0.2,0,0.4-0.2,0.4-0.4v-2.8
						C57.7,112.4,57.5,112.2,57.2,112.2"/>
					<path class="st6" d="M57.2,105.4H9.1c-0.1,0-0.2,0-0.3,0.1s-0.1,0.2-0.1,0.3v2.8c0,0.2,0.2,0.4,0.4,0.4h48.1
						c0.2,0,0.4-0.2,0.4-0.4v-2.8C57.7,105.6,57.5,105.4,57.2,105.4"/>
				</g>
			</g>
		</g>
	</g>
</g>
</svg>
