<?xml version="1.0" encoding="utf-8"?>
<!-- Generator: Adobe Illustrator 21.0.2, SVG Export Plug-In . SVG Version: 6.00 Build 0)  -->
<svg version="1.1" id="Layer_1" xmlns="http://www.w3.org/2000/svg" xmlns:xlink="http://www.w3.org/1999/xlink" x="0px" y="0px"
	 viewBox="0 0 163 124.3" style="enable-background:new 0 0 163 124.3;" xml:space="preserve">
<style type="text/css">
	.st0{clip-path:url(#SVGID_2_);}
	.st1{clip-path:url(#SVGID_4_);}
	.st2{clip-path:url(#SVGID_6_);}
	.st3{clip-path:url(#SVGID_8_);fill:#FFFFFF;}
	.st4{clip-path:url(#SVGID_10_);}
	.st5{clip-path:url(#SVGID_12_);fill:#FFFFFF;}
</style>
<g>
	<defs>
		<rect id="SVGID_1_" width="163" height="124.3"/>
	</defs>
	<clipPath id="SVGID_2_">
		<use xlink:href="#SVGID_1_"  style="overflow:visible;"/>
	</clipPath>
	<g class="st0">
		<defs>
			<rect id="SVGID_3_" y="0" width="163" height="124.3"/>
		</defs>
		<clipPath id="SVGID_4_">
			<use xlink:href="#SVGID_3_"  style="overflow:visible;"/>
		</clipPath>
		<g class="st1">
			<g>
				<defs>
					<rect id="SVGID_5_" x="-9" y="-7" width="135" height="100.3"/>
				</defs>
				<clipPath id="SVGID_6_">
					<use xlink:href="#SVGID_5_"  style="overflow:visible;"/>
				</clipPath>
				<g class="st2">
					<defs>
						<rect id="SVGID_7_" y="0" width="117" height="92.3"/>
					</defs>
					<clipPath id="SVGID_8_">
						<use xlink:href="#SVGID_7_"  style="overflow:visible;"/>
					</clipPath>
					<path class="st3" d="M89.1,38.4c-2.1,0-3.8-1.7-3.8-3.8s1.7-3.8,3.8-3.8c2.1,0,3.8,1.7,3.8,3.8S91.2,38.4,89.1,38.4 M89.1,19.3
						c-8.5,0-15.3,6.9-15.3,15.3c0,5.7,6.6,16,10.7,21.8c-0.2,0.2-0.5,0.4-0.6,0.7c-0.4,0.9-0.1,2,0.8,2.5c-0.8,0.5-1.2,1.6-0.7,2.5
						c0.3,0.7,1,1.1,1.7,1.1c0.3,0,0.6-0.1,0.9-0.2l3.4-1.7h0l0,0l0,0c0.3-0.1,0.5-0.3,0.7-0.5c1.4-1.8,13.8-18.2,13.8-26.1
						C104.4,26.1,97.6,19.3,89.1,19.3"/>
					<path class="st3" d="M27.8,69.1c-2.1,0-3.8-1.7-3.8-3.8c0-2.1,1.7-3.8,3.8-3.8c2.1,0,3.8,1.7,3.8,3.8
						C31.6,67.4,29.9,69.1,27.8,69.1 M32.5,87c4.1-5.9,10.7-16.1,10.7-21.7c0-8.5-6.9-15.3-15.3-15.3c-8.5,0-15.3,6.9-15.3,15.3
						c0,7.8,12.4,24.2,13.8,26.1c0.4,0.5,0.9,0.8,1.5,0.8c0.3,0,0.6-0.1,0.9-0.2l0,0l3.4-1.7c0.9-0.5,1.3-1.6,0.9-2.6
						C32.8,87.3,32.7,87.1,32.5,87"/>
					<path class="st3" d="M54.6,74.6l-6.1,3c-0.9,0.5-1.3,1.6-0.9,2.6c0.3,0.7,1,1.1,1.7,1.1c0.3,0,0.6-0.1,0.9-0.2l6-3
						c0.9-0.5,1.3-1.6,0.9-2.6C56.7,74.5,55.5,74.2,54.6,74.6"/>
					<path class="st3" d="M78.8,62.5l-6.1,3c-0.9,0.5-1.3,1.6-0.9,2.6c0.3,0.7,1,1.1,1.7,1.1c0.3,0,0.6-0.1,0.9-0.2l6.1-3
						c0.9-0.5,1.3-1.6,0.9-2.6C80.9,62.4,79.7,62,78.8,62.5"/>
					<path class="st3" d="M42.5,80.7l-6.1,3c-0.9,0.5-1.3,1.6-0.9,2.6c0.3,0.7,1,1.1,1.7,1.1c0.3,0,0.6-0.1,0.9-0.2l6.1-3
						c0.9-0.5,1.3-1.6,0.9-2.6C44.6,80.6,43.4,80.2,42.5,80.7"/>
					<path class="st3" d="M66.7,68.6l-6.1,3c-0.9,0.5-1.3,1.6-0.9,2.6c0.3,0.7,1,1.1,1.7,1.1c0.3,0,0.6-0.1,0.9-0.2l6.1-3
						c0.9-0.5,1.3-1.6,0.9-2.6C68.8,68.5,67.6,68.1,66.7,68.6"/>
					<path class="st3" d="M78.6,56.6c0.7,0,1.4-0.4,1.7-1.1c0.4-1,0-2.1-0.9-2.5l-7-3.2c-1-0.4-2.1,0-2.5,0.9c-0.4,1,0,2.1,1,2.5
						l7,3.2C78.1,56.6,78.3,56.6,78.6,56.6"/>
					<path class="st3" d="M55.7,44.3c-0.4,1,0,2.1,1,2.5l7,3.2c0.3,0.1,0.5,0.2,0.8,0.2c0.7,0,1.4-0.4,1.7-1.1c0.4-1,0-2.1-0.9-2.5
						l-7-3.2C57.3,42.9,56.2,43.4,55.7,44.3"/>
					<path class="st3" d="M43.1,15.4c0-2.1,1.7-3.8,3.8-3.8c2.1,0,3.8,1.7,3.8,3.8s-1.7,3.8-3.8,3.8C44.8,19.3,43.1,17.5,43.1,15.4
						 M50.4,43.8c0.7,0,1.4-0.4,1.7-1.1c0.4-1,0-2.1-0.9-2.5l-1.3-0.6c3.6-5,12.4-17.6,12.4-24.2C62.3,7,55.4,0.1,47,0.1
						c-8.5,0-15.3,6.9-15.3,15.3c0,7.8,12.4,24.2,13.8,26.1c0.2,0.2,0.4,0.4,0.7,0.6c0,0,0,0,0,0l3.5,1.6
						C49.9,43.8,50.2,43.8,50.4,43.8"/>
				</g>
			</g>
		</g>
		<g class="st1">
			<g>
				<defs>
					<rect id="SVGID_9_" x="82.4" y="61.3" width="89.5" height="64"/>
				</defs>
				<clipPath id="SVGID_10_">
					<use xlink:href="#SVGID_9_"  style="overflow:visible;"/>
				</clipPath>
				<g class="st4">
					<defs>
						<rect id="SVGID_11_" x="97.9" y="68.3" width="58.6" height="56"/>
					</defs>
					<clipPath id="SVGID_12_">
						<use xlink:href="#SVGID_11_"  style="overflow:visible;"/>
					</clipPath>
					<path class="st5" d="M121.9,116.9l7.5-2.6c0.3-0.1,0.7,0.1,0.7,0.5l0.7,5.6c0.2,1.4-0.6,2.8-1.9,3.4l-0.7,0.3
						c-0.4,0.2-1,0.1-1.3-0.3l-5.3-6C121.4,117.5,121.5,117.1,121.9,116.9 M136.3,103.1l-6.6,3l0.1-1.4l4.3-1.9
						c-0.6,0-1.2-0.1-1.9-0.1c-2.3,0-6.3,1.2-10.7,2.9l-14.1-3.7c-1.3-0.3-2.7-0.1-3.9,0.6l-0.7,0.4c-0.7,0.4-0.7,1.4,0,1.8l8.5,5.5
						c-2,1-3.9,2.1-5.6,3.1l-4.3-2.3c-0.7-0.4-1.5-0.4-2.3-0.1l-0.4,0.2c-0.6,0.2-0.9,1-0.5,1.6l2.4,4.3h0c-0.9,0.8-1.4,1.4-1.4,1.9
						c0,1.3,1.6,1.7,3.1,1.7c2.6,0,36.7-7.8,36.7-14.9C138.8,104.2,137.8,103.5,136.3,103.1 M156.4,95.3c0,13.4-9.9,24.6-22.8,26.6
						c0.1-0.6,0.1-1.2,0.1-1.8c0,0-0.1-0.7-0.2-1.5c4.6-0.8,8.7-2.9,12-5.9c-0.2-0.2-0.4-0.4-0.6-0.7c-0.9-1.3,0.3-2.5,0.3-3.6
						c0-1.1-2.2-1-2.3-1.7c-0.3-2.5,1.5-2.5,2.5-3.5c1-1-1-3.2-2.2-3c-1.2,0.1-4.8-0.6-4.4-3.3c0.4-3.3-4.2-3-4.8-4.5
						c-1-2.2,0.6-5,2.7-5.6c2.9-0.9,5.8-3.3,5.6-5.9c-0.3-3-1.6-5.7-3.9-7.3c-2.3-0.9-4.9-1.5-7.5-1.7c-2.4,0.1-4.4,0.6-4.3,1.7
						c0.2,2.6,7.7,3.3,6.5,5.8c-0.7,1.3-5.6,3.1-4.7,5c0.6,1.2,2.1,0.2,1.5,2.6c-0.3,1.1-1.2,3.2-2.7,3.3c-1.5,0.1-2.8-3.9-6.9-4
						c-2-0.1-4.7,3-2.4,5.2c1.4,1.3,4.1-1.6,4.8,0.7c0.6,1.6-0.1,5,2.5,6.4c0.9,0.5,2.4,1,3.8,1.7c-2.1,0.4-4.7,1.2-7.8,2.4
						l-2.6-0.7c1.1-0.9,2.8-1.5,2.4-3.5c-0.6-2.9-5.7-1.8-9.1-5.3c-1.1-1.1-3.3-4.6-3.3-8.8c-1.7,3.3-2.7,7-2.7,10.9
						c0,1.2,0.1,2.4,0.3,3.6c0,0-0.1,0-0.1,0c-1.1,0-2.2,0.2-3.1,0.7c-0.2-1.4-0.3-2.8-0.3-4.2c0-14.8,12.1-26.9,26.9-26.9
						C144.4,68.4,156.4,80.5,156.4,95.3"/>
				</g>
			</g>
		</g>
	</g>
</g>
</svg>
