<?xml version="1.0" encoding="UTF-8" standalone="no"?>
<!-- Generator: Adobe Illustrator 15.1.0, SVG Export Plug-In . SVG Version: 6.00 Build 0)  -->

<svg
   xmlns:dc="http://purl.org/dc/elements/1.1/"
   xmlns:cc="http://creativecommons.org/ns#"
   xmlns:rdf="http://www.w3.org/1999/02/22-rdf-syntax-ns#"
   xmlns:svg="http://www.w3.org/2000/svg"
   xmlns="http://www.w3.org/2000/svg"
   xmlns:sodipodi="http://sodipodi.sourceforge.net/DTD/sodipodi-0.dtd"
   xmlns:inkscape="http://www.inkscape.org/namespaces/inkscape"
   version="1.1"
   id="Layer_1"
   x="0px"
   y="0px"
   width="323.49359"
   height="92.172249"
   viewBox="0 0 323.49359 92.172245"
   enable-background="new 0 0 841.89 595.275"
   xml:space="preserve"
   inkscape:version="0.91 r13725"
   sodipodi:docname="zb_guideline.svg"><metadata
     id="metadata15"><rdf:RDF><cc:Work
         rdf:about=""><dc:format>image/svg+xml</dc:format><dc:type
           rdf:resource="http://purl.org/dc/dcmitype/StillImage" /><dc:title></dc:title></cc:Work></rdf:RDF></metadata><defs
     id="defs13" /><sodipodi:namedview
     pagecolor="#ffffff"
     bordercolor="#666666"
     borderopacity="1"
     objecttolerance="10"
     gridtolerance="10"
     guidetolerance="10"
     inkscape:pageopacity="0"
     inkscape:pageshadow="2"
     inkscape:window-width="1920"
     inkscape:window-height="1017"
     id="namedview11"
     showgrid="false"
     fit-margin-top="0"
     fit-margin-left="0"
     fit-margin-right="0"
     fit-margin-bottom="0"
     inkscape:zoom="0.3964554"
     inkscape:cx="255.01761"
     inkscape:cy="84.556438"
     inkscape:window-x="0"
     inkscape:window-y="30"
     inkscape:window-maximized="1"
     inkscape:current-layer="Layer_1" /><path
     d="m 5.4285315,34.22817 c 1.15843,0 2.01698,-0.84722 2.01698,-1.87757 0,-0.54943 -0.19637,-1.07652 -0.70024,-1.2805 -0.24356,-0.0983 -0.50538,0.13103 -0.42927,0.37521 0.19332,0.63579 -0.19485,1.30433 -0.91335,1.31475 -0.67588,0.007 -1.09298,-0.50029 -1.09298,-1.11523 0,-1.43833 1.71253,-2.15749 4.72811,-1.95053 2.3990705,0.16379 4.2288105,0.97229 6.5654705,2.97345 0.43232,0.37075 0.98185,0.52709 1.437,0.13549 0.43841,-0.3767 0.22073,-0.90379 -0.10808,-1.3207 -1.88607,-2.38977 -4.49064,-3.70452 -4.29731,-7.76341 0.11265,-2.42253 1.4233,-4.22565 3.52249,-4.22565 1.95152,0 3.25761,1.49789 3.16628,3.29506 -0.0609,1.17478 -0.79614,1.79121 -1.6349,1.81056 -0.75199,0.0179 -1.38981,-0.41541 -1.44462,-1.05269 -0.0715,-0.82637 0.51148,-1.26263 1.17823,-1.27752 1.05948,-0.0238 0.7185,-1.36984 -0.56933,-1.2537 -1.40351,0.12507 -2.26358,1.23137 -2.19812,2.61014 0.0761,1.54107 1.28782,2.47315 2.86335,2.51633 1.32283,0.0342 2.53607,-0.64621 3.19063,-2.20365 0.14005,-0.3365 0.5678,-0.58963 0.88595,-0.40351 0.61347,0.36033 0.79614,1.3207 0.79614,1.89097 0,1.53065 -0.77787,4.00976 0.81441,5.17859 0.21007,0.15485 0.52365,-0.13103 0.43688,-0.37671 -0.68806,-1.92224 0.18115,-2.89006 0.18115,-4.85101 0,-1.70932 -0.59825,-3.04045 -2.49649,-4.00529 -0.27857,-0.14145 -0.68045,-0.43328 -0.82963,-0.70278 -0.23595,-0.42584 -0.85702,-1.24924 -1.19192,-1.58276 -0.23747,-0.23675 -0.20855,-0.59409 0.0441,-0.81595 1.0747,-0.94251 1.95609,-1.70932 1.95609,-3.22954 0,-1.69294 -1.21933,-3.09851 -3.00645,-3.09851 -1.35937,0 -2.64719,0.95442 -2.64719,2.29001 0,0.70278 0.35468,1.40855 0.9849,1.64827 0.25726,0.0953 0.52365,-0.16527 0.41405,-0.41095 -0.41101,-0.92464 -0.0168,-2.00562 1.14016,-2.00562 1.36698,0 2.15246,1.73016 0.87682,2.93026 -2.07178,1.95351 -4.16336,1.04971 -6.46348,3.17445 -1.17365,1.08396 -1.67295,2.94962 -1.89672,4.66191 -0.0548,0.4184 -0.7169805,0.30524 -1.1888805,-0.61196 -0.30901,-0.60153 -0.53126,-1.31176 -0.67892,-2.01455 -0.0533,-0.25015 -0.37143,-0.3365 -0.5541,-0.15485 -1.16148,1.15096 -1.95305,2.97195 -1.95305,4.14078 0,0.65365 0.27553,1.3207 1.09602,1.36835 0.61347,0.0372 1.32436,-0.33502 1.59989,-1.27753 0.74133,0.47647 0.95902,2.42253 -1.66991,2.52974 -2.91054,0.11911 -4.7068,1.53362 -4.7068,3.4499 0,1.50385 1.30153,2.56845 2.77659,2.56845 m 11.6117205,1.42791 c -0.24813,-0.0476 -0.36686,-0.33502 -0.21616,-0.53007 1.33654,-1.75101 4.515,-2.67565 6.4102,-0.8219 1.05035,1.02886 1.13255,3.14318 2.71874,5.12051 1.21019,1.50831 -0.47494,3.96657 2.21335,6.44568 -0.60586,3.76556 1.47354,5.72056 2.03525,9.02157 0.67892,3.99487 2.59391,4.53684 2.0322,7.12167 -0.0639,0.28737 -0.32119,0.40202 -0.50082,0.40202 -0.84941,0 -1.55422,-0.35586 -1.89977,-0.96187 -0.14004,-0.24419 -0.43993,-0.35139 -0.71241,-0.25759 -0.84333,0.28737 -1.61967,0.19654 -2.2027,-0.14443 -0.30749,-0.18165 -0.20093,-0.49433 -0.0152,-0.63429 0.55258,-0.41691 0.77483,-0.87551 0.77483,-1.50384 0,-1.88949 -3.06582,-1.63488 -4.52718,-9.2211 -0.7596,-3.95168 -1.01534,-6.21191 -1.39742,-7.86018 -0.23595,-1.00951 -1.3274,-1.06014 -1.3822,0.0596 -0.0929,1.8731 -0.33642,3.75365 -1.36851,6.23425 -0.13091,0.31416 -0.49625,0.4705 -0.81136,0.32905 -0.0913,-0.0387 -0.40796,-0.13698 -0.49168,-0.16825 -0.30902,-0.11316 -0.47799,-0.45264 -0.35621,-0.75192 0.7596,-1.84779 1.57857,-5.06989 0.97728,-8.71485 -0.0533,-0.31863 0.15223,-0.71916 0.65153,-0.64769 1.22693,0.17569 1.98349,-0.15188 2.13724,-0.99462 -0.7931,0.23376 -1.97132,0.15187 -2.40059,-0.77277 -0.12178,-0.25759 -0.36534,-0.44073 -0.64544,-0.51667 -0.26487,-0.07 -0.61651,-0.15485 -1.02295,-0.23227 z m 14.94089,-1.51725 c -1.84801,0.32608 -5.5623,0.79957 -4.75247,4.57556 0.0609,0.27545 0.41862,0.36926 0.60281,0.15485 1.41722,-1.67507 3.72495,-2.20068 4.53631,-4.28223 0.0944,-0.24419 -0.1233,-0.49285 -0.38665,-0.44818 z m 39.45368,-3.93233 c -0.0426,-0.23078 -0.30597,-0.35586 -0.50995,-0.23674 -1.163,0.67152 -2.78724,1.02589 -4.57132,1.02589 -0.80375,0 -1.63946,-0.0774 -2.47822,-0.22781 -0.87986,-0.15634 -1.57249,-0.0313 -1.95609,1.22839 -0.38057,1.25965 0.23899,1.72718 1.06709,2.02051 1.45832,0.52113 2.87553,0.79808 4.11465,0.79808 4.04766,0.001 4.65199,-2.85731 4.33384,-4.60832 z m -0.45515,5.44362 c 0.0457,2.20961 -0.94532,4.81974 -4.57588,4.81974 -1.91804,0 -4.15879,-0.89932 -6.13772,-2.45379 -0.64695,-0.5122 -1.08384,-1.08545 -0.47798,-2.1441 0.60585,-1.06013 1.38372,-1.19116 2.24227,-0.85466 1.79778,0.70279 3.56663,1.07801 5.12694,1.07801 1.27717,0 2.41124,-0.24568 3.30785,-0.73108 0.22986,-0.12656 0.50843,0.0313 0.51452,0.28588 z m -13.2588,13.5197 c 1.42787,0 3.23935,-0.36181 4.41757,-1.63785 0.17506,-0.19207 0.067,-0.49731 -0.19028,-0.55389 -2.7294,-0.58516 -5.3705,-2.5744 -7.01453,-5.30514 -0.48103,-0.79808 -1.22693,-1.12863 -2.39602,-0.69534 -1.16757,0.43179 -1.26804,1.27305 -1.02143,2.13516 0.9514,3.3159 3.10539,6.05706 6.20469,6.05706 z m 10.73339,-7.23185 c 0.0548,-0.24865 -0.17506,-0.46902 -0.42471,-0.4035 -0.51452,0.14145 -1.0534,0.21887 -1.6212,0.21887 -2.30164,0 -4.91382,-1.04822 -7.18045,-2.90644 -0.70785,-0.5792 -1.43548,-0.73554 -2.49954,0.0179 -1.06101,0.75639 -0.98337,1.68103 -0.44754,2.49698 1.78864,2.72478 4.68853,4.50855 7.50774,4.50855 2.42647,10e-4 4.18619,-1.75697 4.6657,-3.93233 z m -24.2251,-17.30015 c 0.0989,-0.26355 -0.12786,-0.53454 -0.39578,-0.47498 -1.94087,0.43478 -3.626,0.96633 -4.99146,3.30101 -0.14766,0.25163 0.0518,0.57027 0.33794,0.53603 2.11441,-0.24568 4.1664,-0.98867 5.0493,-3.36206 z m -16.20435,4.98055 c -0.0442,0.25163 0.20246,0.4586 0.45059,0.37819 2.17073,-0.68641 2.59696,-1.59616 3.61077,-2.85581 0.17963,-0.22334 0.0107,-0.55687 -0.27857,-0.54496 -1.9226,0.0655 -3.42354,0.93358 -3.78279,3.02258 z m 45.69491,2.05773 c -0.79309,0.3514 -1.38829,1.03929 -1.55422,1.87608 -0.15222,0.75937 -0.13091,1.47407 -0.0959,2.08305 0.0411,0.69385 0.77178,1.23137 1.42026,0.94698 10.87496,-4.78401 13.66524,-16.65842 10.7958,-20.25573 -0.20855,-0.26355 -0.6226,-0.17123 -0.63934,0.15931 -0.10656,2.27215 -0.85703,7.78128 -4.95645,11.79103 -1.32436,1.29688 -2.94099,2.50442 -4.97015,3.39928 z m -20.38445,17.81087 c -1.50855,0.43924 -3.93959,0.35586 -5.17413,-0.85317 -0.99099,-0.96633 -1.51769,-2.63247 -1.54509,-4.81379 -0.0106,-0.88593 0.32729,-1.70038 1.54965,-1.77037 1.24673,-0.0744 1.81909,0.42882 2.052,1.30433 0.64391,2.43295 1.75972,4.33285 3.24696,5.5538 0.21159,0.17271 0.13548,0.50326 -0.12939,0.5792 z m -9.68456,-7.65025 c -1.07014,-0.0998 -1.75059,0.65514 -1.7856,1.60212 -0.10047,2.56249 1.1493,3.98891 3.65188,4.43113 0.2603,0.0432 0.48103,-0.2025 0.38969,-0.44371 -0.411,-1.08247 -0.61194,-2.38829 -0.60128,-3.90255 0.009,-0.80106 -0.48104,-1.57383 -1.65469,-1.68699 z m 20.62954,-20.96596 c 2.41124,-0.13102 4.31558,-0.96335 4.31558,-2.69798 0,-1.41897 -0.95598,-2.08305 -2.33514,-2.08305 -0.68196,0 -1.51768,0.5122 -2.33361,1.01249 -0.45058,0.27992 -0.54801,0.80404 -0.51147,1.32517 0.0487,0.6477 0.0411,0.98271 -0.0274,1.50235 -0.0685,0.51518 0.35925,0.96931 0.89204,0.94102 z m 9.16699,5.09818 c 4.07963,-2.9928 6.3767,-7.25716 6.3767,-11.88483 0,-1.70187 -0.32423,-3.06278 -0.61803,-4.02911 -0.0944,-0.3022598 0.25726,-0.5538898 0.52365,-0.3737298 1.65926,1.1182098 2.51172,3.8385298 2.51172,6.3682598 0,4.8659 -2.62741,11.11206 -8.35259,14.07508 -0.57693,0.29928 -1.27717,-0.0834 -1.3411,-0.71767 -0.10656,-1.05716 0.0152,-1.63636 0.0868,-2.09496 0.0837,-0.53454 0.37143,-1.01994 0.81288,-1.34304 z m -42.56359,-1.06311 c -0.12787,0.24419 0.0807,0.53602 0.35925,0.48838 1.57096,-0.26355 3.05363,0.19803 4.46476,-1.69443 0.15374,-0.20697 0.0228,-0.4988 -0.23443,-0.53007 -1.51464,-0.19208 -3.63209,-0.0908 -4.58958,1.73612 z m 38.9285,-16.6405498 c 1.96827,0 4.03245,1.58276 4.03245,5.1279598 0,1.87161 -0.72612,3.96806 -2.48584,5.72502 -0.51604,0.51518 -1.25129,0.2844 -1.42939,-0.46753 -0.10352,-0.4437 -0.20246,-0.89337 -0.33642,-1.50533 -0.12026,-0.55687 0.0365,-1.13607 0.42623,-1.55893 0.83419,-0.90827 1.40351,-2.022 1.40351,-3.35015 0,-1.07354 -0.56018,-1.7793 -1.23606,-2.0488 -0.44298,-0.17421 -0.80375,0.31119 -0.53583,0.69832 0.42927,0.61643 -0.0107,1.617 -1.05949,1.617 -0.97424,0 -1.70492,-0.77574 -1.70492,-1.80014 0.002,-1.4859798 1.2589,-2.4374198 2.92576,-2.4374198 z M 38.552692,19.38628 c -1.42787,0.42435 -3.18911,0.61345 -4.26078,2.02646 -0.16897,0.22335 -0.009,0.54198 0.27401,0.54347 2.19204,0.0164 3.59556,-0.17718 4.40387,-2.1158 0.10808,-0.26355 -0.13852,-0.539 -0.4171,-0.45413 z m 18.24113,9.3819 c -0.22225,0.75638 0.0959,1.17329 0.56323,1.52617 0.9301,0.70428 1.70797,1.49789 2.18595,2.31979 0.11722,0.20101 0.39579,0.23824 0.55562,0.0745 0.46429,-0.47795 0.66371,-0.9976 0.66371,-1.45768 0,-1.1197 -1.03818,-2.34511 -2.5239,-3.18041 -0.55409,-0.31119 -1.22084,-0.0357 -1.44461,0.71768 z m -18.12239,4.90908 c 0.13548,-0.46902 -0.14766,-0.49434 -0.42775,-0.43776 -1.95457,0.41542 -5.54708,0.65812 -5.30961,4.02614 0.0183,0.25907 0.33946,0.40201 0.57084,0.2561 1.95305,-1.23435 4.38713,-1.18075 5.16652,-3.84448 z m -2.18595,3.83107 c -1.50094,0.60303 -4.47542,1.88651 -3.13736,5.1369 0.0868,0.20845 0.34859,0.28587 0.52974,0.14889 1.03818,-0.77723 2.77506,-2.36297 3.36113,-4.84059 0.15375,-0.65365 -0.49169,-0.54793 -0.75351,-0.4452 z m 4.70984,-6.24467 c -0.35164,0.0625 -0.61042,-0.28588 -0.41557,-0.55687 1.01229,-1.41897 1.37459,-2.60418 3.27283,-3.60327 0.21007,-0.1072 0.4856,-0.0268 0.57541,0.1757 1.02296,2.37339 -1.437,3.63305 -3.43267,3.98444 z m 2.45235,-13.883 c 0.005,-0.2978 -0.35926,-0.45562 -0.57846,-0.25313 -1.00469,0.92167 -2.42038,1.43089 -3.26979,3.43353 -0.10656,0.25015 0.11112,0.5122 0.38056,0.46455 2.45539,-0.41839 3.43724,-1.67358 3.46769,-3.64495 z m 20.17438,12.0635 c -0.4993,-0.0983 -0.94684,-0.48093 -0.79462,-1.59616 0.0959,-0.70576 0.34099,-1.34601 1.2041,-1.31177 3.05668,0.12656 5.11933,-0.61791 5.91547,-1.31325 0.14766,-0.13103 0.37904,-0.10423 0.50386,0.0462 0.80984,0.96931 1.0945,2.29299 0.16593,3.20125 -1.17366,1.15245 -4.00504,1.55745 -6.99474,0.97378 z m -2.95773,-0.83232 c -0.40036,-0.4452 -0.92096,-0.92911 -1.61816,-1.36686 -0.60737,-0.38415 -0.74285,-1.12863 0.0548,-1.58872 0.61955,-0.36033 1.3137,-0.27694 1.78712,0.18761 0.74438,0.72959 0.90574,1.68996 0.33946,2.7099 -0.11265,0.20547 -0.40492,0.23376 -0.56323,0.0581 z m -28.59243,0.0729 c 1.71253,-2.29001 3.10539,-2.13665 4.9671,-2.19918 0.27096,-0.009 0.44907,0.28141 0.30902,0.51071 -1.09146,1.76292 -2.30621,2.02944 -4.97167,2.2245 -0.2938,0.0238 -0.47799,-0.30226 -0.30445,-0.53603 z m 4.11312,-3.96955 c 1.72014,-2.22152 3.54684,-2.4389 4.62307,-2.63693 0.25726,-0.0476 0.47495,0.19207 0.39122,0.43477 -0.5952,1.76888 -2.17377,2.68458 -4.72811,2.74563 -0.29075,0.007 -0.46124,-0.31715 -0.28618,-0.54347 z m 11.80048,15.72038 c 0.43537,-0.51369 0.44146,-1.50682 0.0944,-2.59376 -0.19637,-0.61643 -0.76569,-0.96186 -1.48267,-0.90826 -0.77635,0.0581 -1.03665,0.67747 -0.88443,1.26859 0.19942,0.76979 0.10352,1.60211 -0.19484,2.1694 -0.10961,0.20995 0.0152,0.46307 0.25117,0.4988 1.06101,0.15932 1.83126,0.0208 2.21639,-0.43477 z m -16.79194,-2.7635 c -2.64872,1.5098 -4.68549,3.73579 -3.14801,6.31763 0.14461,0.23972 0.42014,0.34842 0.52669,0.0923 1.07471,-2.64736 3.64427,-1.91331 3.38092,-6.02133 -0.0167,-0.24419 -0.26487,-0.67152 -0.7596,-0.38862 z m 15.46454,-19.24622 c -0.14461,1.92969 -1.35328,4.14674 -3.75996,4.57556 -0.25269,0.0432 -0.47342,-0.18314 -0.40035,-0.42287 0.62565,-2.089 2.07483,-3.31739 3.62752,-4.46984 0.23291,-0.17271 0.55562,0.0342 0.53279,0.31715 z m -13.11723,12.45659 c 0.0837,-0.22632 -0.10047,-0.46455 -0.34707,-0.44818 -2.58783,0.15634 -5.59884,0.22335 -5.99006,3.15659 -0.0365,0.27396 0.25878,0.46902 0.50691,0.33948 2.2027,-1.15841 4.98233,-0.76235 5.83022,-3.04789 z m 6.39193,-1.36537 c 0.10503,-0.24419 -0.0685,-0.51816 -0.34098,-0.49136 -2.08092,0.20846 -4.39474,0.66854 -5.48011,3.27868 -0.11416,0.27397 -0.10046,0.77575 0.63935,0.48391 2.19813,-0.86359 3.99134,-0.50029 5.18174,-3.27123 z m 13.11419,4.96119 c 0.60737,-0.44668 1.2041,-0.29034 1.57705,0.19506 0.6226,0.81148 0.98946,1.66316 0.98946,2.37488 0,1.0646 -0.92248,1.59467 -1.86019,1.76441 -0.22073,0.0402 -0.41253,-0.13103 -0.40796,-0.34842 0.0228,-0.88444 -0.23443,-1.80908 -0.64391,-2.63693 -0.22986,-0.46456 -0.17963,-0.96634 0.34555,-1.349 z m -3.1191,5.93944 c 1.09603,-0.10125 2.12354,-0.58963 2.12354,-1.98477 0,-0.53156 -0.13852,-1.12119 -0.36686,-1.68103 -0.24812,-0.60601 -0.82506,-0.90529 -1.57857,-0.65217 -0.75199,0.25164 -0.90574,0.86062 -0.72916,1.45025 0.25117,0.84572 0.33794,1.70783 0.17963,2.46719 -0.0457,0.21888 0.14309,0.42138 0.37142,0.40053 z m 5.35376,-8.40217 c 0.41253,-0.63131 1.15234,-0.68789 1.66686,-0.24567 1.12495,0.96633 1.66382,1.89841 1.66382,2.82305 0,0.87402 -0.51604,1.42493 -1.28478,1.85673 -0.20093,0.11614 -0.46428,0.0119 -0.51299,-0.21143 -0.1979,-0.88593 -0.69111,-1.81355 -1.42331,-2.67119 -0.36991,-0.43477 -0.51756,-0.92017 -0.1096,-1.55149 z M 66.922872,7.9659502 c -0.25421,0.21739 -0.63782,-0.006 -0.5678,-0.32608 0.30598,-1.38622 2.01546,-2.56249 4.15422,-2.56249 4.60025,0 7.99486,4.31797 7.99486,8.5957298 0,2.76648 -0.68044,7.35097 -5.48619,11.03017 -0.52061,0.39755 -1.26651,0.16974 -1.33805,-0.58218 -0.0731,-0.7415 -0.0442,-1.5634 0.0137,-2.42551 0.0396,-0.60302 0.3973,-1.46959 0.81744,-1.91479 1.87998,-1.99371 2.63654,-4.35221 2.63654,-6.46802 0,-4.0186798 -2.50106,-6.3295398 -5.35832,-6.3295398 -1.15691,0.001 -2.10375,0.33502 -2.8664,0.98271 z M 9.9328615,50.53068 c 0.4308005,0.43626 0.8676905,0.86508 1.3441505,1.14053 0.10808,0.0625 0.24204,0.0685 0.35164,0.009 1.77647,-1.00951 2.42799,-2.74712 2.66394,-3.76557 0.10199,-0.44966 0.55258,-0.73554 1.01534,-0.65067 l 0.50234,0.0938 c 0.15984,0.0313 0.31968,-0.0536 0.38361,-0.201 0.86464,-1.96096 0.35925,-4.81528 -3.15106,-5.87839 -0.64543,-0.19655 -0.85398,-0.44073 -0.98642,-0.95145 -0.94075,-3.63155 -4.3216605,-3.50202 -5.3613605,-3.45139 -0.16593,0.009 -0.30445,0.13252 -0.32576,0.29332 -0.0274,0.20399 -0.0685,0.48838 -0.11113,0.72661 -0.0731,0.42733 -0.37295,0.69386 -0.83571,0.78021 -1.82518,0.34544 -3.60317,0.97974 -4.71745996,3.31739 -0.07,0.14592 -0.0472,0.338 0.0533,0.46456 0.37599996,0.47646 0.87224996,0.8219 1.23149996,1.14798 0.40035,0.36628 0.50691,0.90975 0.0883,1.38622 -0.8555,0.9708 -1.45221996,1.57829 -1.63336996,1.97137 -0.0624,0.13401 -0.0228,0.28737 0.0852,0.38713 0.51299996,0.47647 0.4445,0.98569 0.21616,1.36537 -0.57388,0.94995 -0.72002,1.62445 -0.74589999818,2.38531 C -0.00582846,51.29159 0.14631154,51.439 0.33963154,51.4524 1.6046215,51.5492 2.6077915,51.18885 3.3247715,50.91489 c 0.34402,-0.13252 0.91182,-0.0983 1.3,0.67747 0.0807,0.15783 0.22986,0.26801 0.40948,0.23079 1.26804,-0.24568 2.43256,-0.79808 3.46921,-1.42195 0.4719,-0.28588 1.04274,-0.2561 1.42939,0.12954 z m -7.27178,-1.58425 0,0 c 0.91639,-1.85077 4.76007,-4.61427 5.33548,-5.22921 0.3212,-0.34097 0.16288,-0.82339 -0.19789,-1.01546 -1.22541,-0.64174 -2.61675,-0.91124 -4.26535,-1.20159 0.93771,-0.69087 2.77659,-0.32757 4.378,0.0864 0.37751,0.0968 0.67588,-0.0655 0.77178,-0.36033 0.22681,-0.69534 0.27096,-1.22987 0.18115,-2.24832 0.68349,0.40351 1.01077,1.27604 0.73372,2.50293 -0.28466,1.25073 0.32576,1.7391 1.3943805,1.66912 2.09462,-0.134 3.12518,0.65216 3.25914,1.31773 -0.77787,-0.27248 -1.47354,-0.39458 -2.06265,-0.39309 -0.46885,0.004 -0.94988,0.40351 -0.76721,0.877 0.69719,1.79865 0.7185,3.39481 0.26943,3.94721 -0.37599,-1.49193 -0.95292,-3.13276 -1.63794,-4.1512 -0.2207205,-0.33055 -0.6652205,-0.51518 -1.1203705,-0.18314 -1.42026,1.02738 -4.60329,3.56009 -6.27167,4.38199 z M 15.097862,34.01371 c 0.37904,0.27546 0.50234,0.72512 0.26487,1.12565 -0.0913,0.15038 -0.26944,0.50624 -0.32424,0.77872 -0.0578,0.29184 0.0959,0.58516 0.38665,0.6611 0.50539,0.13847 0.92097,0.23823 1.23759,0.32459 0.21007,0.0551 0.31054,0.28588 0.21464,0.47795 -0.23443,0.46307 -0.59063,0.84722 -1.1219,1.14799 -0.27857,0.15932 -0.28466,0.55984 -0.008,0.72512 0.29075,0.17421 0.58607,0.23227 0.80375,0.24716 0.20246,0.0134 0.35012,0.19506 0.31511,0.39011 -0.12483,0.71321 -0.59064,1.15245 -1.25434,1.15245 -0.88747,0 -2.56956,-1.09885 -2.56956,-2.93473 0,-0.44817 0.0244,-0.73405 -0.18723,-1.1718 -0.54193,-1.11672 -0.21312,-2.04583 0.38817,-3.0196 0.26792,-0.43478 0.85855,-0.55687 1.3,-0.28142 0.18724,0.11912 0.37295,0.24419 0.5541,0.37671 z m 47.67993,-8.82503 c -1.03666,-0.17272 -1.52226,-0.94102 -0.77635,-1.92075 0.49625,-0.65067 0.80831,-1.17776 1.87845,-1.17776 2.75071,0 4.33233,-0.80404 5.05844,-1.58276 0.11113,-0.11912 0.29227,-0.15336 0.4308,-0.0655 1.03361,0.64174 1.63794,2.15303 0.47951,3.28762 -1.46745,1.43386 -4.63221,1.86565 -7.07085,1.45917 z m 32.00988,11.23862 c 0.39121,-0.14442 1.17365,-0.24121 1.63641,-0.29481 0.70328,-0.0789 0.9712,-0.55091 0.90879,-1.0914 -0.17049,-1.45471 -1.28935,-3.52882 -3.49509,-4.15121 -0.47037,-0.13549 -0.71698,-0.0104 -0.66218,0.22037 0.33033,1.32964 0.35621,2.18281 0.0563,3.77003 -0.20094,1.06311 0.36686,1.98478 1.55574,1.54702 z m -10.17777,-2.08453 c 0.17658,-0.18761 0.6089,-0.16974 0.65304,0.21739 0.21464,1.7927 0.91944,2.34361 2.39146,3.15807 0.69262,0.38415 0.73372,1.2671 -0.003,1.77036 -0.52366,0.35735 -0.74743,0.45711 -1.43244,1.23732 -0.42167,0.47796 -1.04427,0.57772 -1.59836,0.14741 -1.47507,-1.14054 -1.68361,-4.77061 -0.0107,-6.53055 z m 4.31253,1.03929 c -0.33489,0.56431 -1.08232,0.81595 -1.68056,0.39308 -2.12354,-1.50533 0.83572,-7.65918 4.06898,-8.65678 0.51756,-0.15931 0.77025,0.067 0.63173,0.52114 -0.76721,2.47613 0.22986,4.23607 -0.0304,5.88286 -0.10351,0.64918 -0.80679,1.07502 -1.55421,0.83828 -0.3623,-0.11614 -0.77178,-0.23973 -0.77178,-0.23973 0,0 -0.33794,0.71172 -0.66371,1.26115 z m -42.20286,26.86222 c 0.11264,0.25907 -0.0685,0.42584 -0.2801,0.45264 -3.50574,0.42584 -1.7993,3.66729 -3.07647,5.44808 -0.28161,0.39457 -0.53126,0.24866 -0.62716,-0.0253 -0.61651,-1.75697 -1.61511,-2.6012 -2.86488,-2.34064 1.92565,1.64827 2.45235,4.86739 1.26804,6.62138 -0.12787,0.18761 -0.40797,0.19654 -0.5541,0.0208 -1.05036,-1.27008 -1.81605,-1.61403 -2.95012,-1.26859 2.34883,1.8597 3.2911,4.92546 1.76885,7.76638 -0.11721,0.22186 -0.49169,0.26355 -0.58454,0.0298 -0.65305,-1.62594 -1.35176,-3.96062 -3.44638,-3.13425 2.58022,1.42195 1.46289,5.87988 4.75703,6.98022 0.23291,0.0774 0.31359,0.36628 0.14462,0.54496 -0.71698,0.76085 -1.41113,0.97377 -2.20726,0.97377 -0.99556,0 -1.95914,-0.7281 -2.43256,0.5256 -0.13548,0.35586 -0.51604,1.96095 -1.00164,3.83704 -0.54497,2.09198 -1.58314,3.49457 -3.91218,3.49457 -2.84052,0 -3.26828,-1.39515 -5.86371,-0.83381 -0.26335,0.0596 -0.49473,-0.17719 -0.42928,-0.43329 0.12635,-0.48242 0.50235,-1.16734 1.60141,-1.5768 0.27857,-0.10423 0.49778,-0.3231 0.59672,-0.59856 0.40492,-1.12416 1.26195,-1.61403 2.26359,-1.53511 0.35316,0.0283 0.51909,-0.41542 0.22834,-0.61643 -0.91183,-0.6328 -2.6061,-0.60005 -3.49814,1.1599 -0.1233,0.2427 -0.34859,0.42435 -0.61651,0.50028 -0.53126,0.14592 -1.03513,0.40947 -1.3959,0.62983 -0.25878,0.15634 -0.59063,-0.0462 -0.55258,-0.34097 0.0609,-0.45711 0.27553,-1.04078 0.93466,-1.47108 0.16745,-0.10572 0.30293,-0.2561 0.38057,-0.43478 0.70023,-1.58574 2.34731,-2.31086 3.98525,-2.31086 1.8404,0 2.16464,-0.76234 2.16464,-2.56397 0,-5.47191 2.6685,-3.16254 2.6685,-11.97119 0,-5.96178 0.4993,-6.68838 0.4993,-8.41408 0,-2.35404 -1.29543,-2.44784 -2.18899,-6.66754 -0.86769,-4.09909 -2.0109,-4.80187 -2.0109,-7.62791 0,-1.52618 0.46277,-2.67565 1.43092,-3.65538 0.42318,-0.43031 1.04122,-0.4854 1.45984,0.17272 0.40187,0.63131 0.80983,1.14798 0.80983,1.14798 6.54872,-3.68218 5.01277,-8.67613 7.95681,-11.55726 2.18595,-2.13665 5.77998,-2.06071 7.7041,-3.93977 2.839,-2.77839 1.76429,-7.01 3.39462,-8.60764 1.97436,-1.92969 7.45446,-1.34006 7.44533,-3.87724 0,-0.21143 0.19028,-0.39606 0.40035,-0.34395 3.26371,0.7683 3.09474,7.08891 -3.93349,9.38041 -0.29989,0.0953 -0.41558,0.31864 -0.41558,0.58516 0,6.91917 -5.66581,9.82859 -12.69557,9.82859 0.27401,0.58218 1.13256,0.93655 1.5253,2.08304 0.40492,1.17628 -0.28466,2.35999 -1.63946,2.16196 -1.24521,-0.18016 -2.03221,-1.01397 -2.21031,-2.54611 -0.46429,0.38564 -0.56932,1.43089 -0.18115,2.32724 0.21616,0.4988 0.28923,1.04524 0.17506,1.57531 -0.48408,2.23343 -0.37447,5.02075 2.20878,6.53055 0.9027,0.52709 1.46441,1.47407 1.4568,2.50293 -0.0213,2.73968 -1.66382,5.8233 1.17517,7.3733 0.12483,0.067 0.19638,0.20548 0.17963,0.34246 -0.0624,0.50327 -0.30141,0.9708 -0.53279,1.32368 -0.2192,0.33204 -0.13548,0.77724 0.1979,1.00207 0.42623,0.27694 1.07014,0.80701 1.31979,1.36984 z m -8.45154,-3.84746 c 3.30329,0 4.55001,-4.15418 4.18467,-5.95135 -1.32893,2.75159 -2.25598,4.43113 -4.18467,4.43113 -2.99883,0 -3.41288,-5.65356 -5.24111,-6.29679 1.09602,2.79626 1.43701,7.81701 5.24111,7.81701 z m -23.82778,6.50226 c -1.2178,0 -2.20879,0.9708 -2.20879,2.16196 0,1.18968 0.99099,2.16047 2.20879,2.16047 1.2178,0 2.20878,-0.97079 2.20878,-2.16047 0,-1.19116 -0.99098,-2.16196 -2.20878,-2.16196 z m 2.12049,-11.57364 c 1.12342,0 2.0383,-0.89635 2.0383,-1.9952 0,-1.09736 -0.9164,-1.99371 -2.0383,-1.99371 -1.1219,0 -2.03829,0.89635 -2.03829,1.99371 0,1.09885 0.91487,1.9952 2.03829,1.9952 z m 1.93783,1.03036 c -1.31218,0 -2.37928,1.04376 -2.37928,2.32723 0,1.28199 1.0671,2.32724 2.37928,2.32724 1.31218,0 2.37927,-1.04376 2.37927,-2.32724 0,-1.28347 -1.06709,-2.32723 -2.37927,-2.32723 z m 1.84649,-3.69856 c -0.25879,-0.0759 -0.51452,0.13996 -0.49017,0.4035 0.009,0.0879 0.0122,0.17719 0.0122,0.2695 0,0.52114 -0.12635,1.01249 -0.35164,1.44876 -0.11112,0.21292 0.005,0.47051 0.23595,0.55389 0.44602,0.15932 0.85094,0.40201 1.19497,0.70874 0.16744,0.14889 0.4384,0.12358 0.57084,-0.0551 0.2603,-0.35437 0.41557,-0.78915 0.41557,-1.25817 -0.002,-0.98122 -0.67131,-1.80759 -1.5877,-2.07113 z m -6.21383,8.07459 c 1.38829,0 2.5178,1.10481 2.5178,2.46273 0,1.36091 -1.12951,2.46273 -2.5178,2.46273 -1.38981,0 -2.51932,-1.10182 -2.51932,-2.46273 0,-1.35643 1.12951,-2.46273 2.51932,-2.46273 z m -3.65644,3.43353 c -0.0731,-0.26652 -0.36382,-0.41542 -0.6241305,-0.31566 -0.86768,0.33055 -1.48571,1.15245 -1.48571,2.11878 0,1.26115 1.04731,2.28257 2.3320805,2.28257 0.2801,0 0.39731,-0.14294 0.46886,-0.3365 0.15374,-0.41691 0.3836,-0.7951 0.68044,-1.11821 0.19028,-0.20845 0.16288,-0.52411 -0.0609,-0.69683 -0.62716,-0.48391 -1.09449,-1.1584 -1.31065,-1.93415 z m 7.99638,-1.71081 c -0.28771,-0.10571 -0.59673,0.11316 -0.56932,0.41095 0.0106,0.1087 0.0167,0.21739 0.0167,0.33055 0,1.0244 -0.42927,1.955 -1.11885,2.62652 -0.21921,0.2159 -0.15223,0.57771 0.14004,0.68045 0.33185,0.11763 0.70328,0.15932 1.08689,0.0998 0.96358,-0.14294 1.72928,-0.9172 1.84801,-1.86566 0.12787,-1.03333 -0.49473,-1.94308 -1.40351,-2.28257 z m -5.91242,-7.52517 c 1.34262,0 2.4356,1.07056 2.4356,2.38828 0,1.31624 -1.09298,2.38531 -2.4356,2.38531 -1.34567,0 -2.44017,-1.06907 -2.44017,-2.38531 0.002,-1.31772 1.0945,-2.38828 2.44017,-2.38828 z m -2.22553,6.08833 c 0,-1.19265 -0.9925105,-2.16345 -2.2118305,-2.16345 -1.22085,0 -2.21183,0.9708 -2.21183,2.16345 0,1.19563 0.99098,2.16643 2.21183,2.16643 1.21932,0 2.2118305,-0.97229 2.2118305,-2.16643 z M 6.8472615,55.80753 c 0.46125,-0.13103 0.84637,-0.20697 1.39286,-0.22781 0.33946,-0.0149 0.62869,-0.21739 0.66218,-0.54794 0.0563,-0.59856 0.19789,-1.10182 0.45668,-1.59764 0.14918,-0.28588 0.0974,-0.64025 -0.19028,-0.79213 -0.43994,-0.23376 -0.96663,-0.32757 -1.52378,-0.21292 -0.80527,0.16379 -1.45679,0.78021 -1.67752,1.55596 -0.16592,0.57771 -0.0715,1.10927 0.17354,1.55744 0.13396,0.24568 0.4308,0.34395 0.70632,0.26504 z M 51.117352,16.06586 c -0.24204,-1.4964 -0.76113,-2.55505 -2.3397,-3.17147 -0.24052,-0.0938 -0.4993,0.0938 -0.47647,0.34692 0.15527,1.59318 1.02448,2.66076 2.34275,3.18785 0.24812,0.0983 0.513,-0.10571 0.47342,-0.3633 z m -1.96979,8.43641 c 0.59215,-1.71527 0.14004,-3.12233 -1.11886,-4.29861 -0.18571,-0.16974 -0.48712,-0.0923 -0.57084,0.14741 -0.71698,2.02647 0.33033,3.11787 1.0671,4.22714 0.15831,0.24121 0.52822,0.19952 0.6226,-0.0759 z m 1.2315,-4.23458 c 0.34402,-1.72719 -0.65,-3.15807 -1.91652,-4.0306 -0.20855,-0.14294 -0.50082,-0.0298 -0.54344,0.21739 -0.35012,2.01008 0.89356,3.05086 1.88455,3.98593 0.19332,0.18463 0.52517,0.0878 0.57541,-0.17272 z m 0.0822,-7.81701 c 0.25269,0.064 0.4856,-0.15485 0.42775,-0.405 -0.33033,-1.40706 -1.02904,-2.2780998 -2.59696,-2.5892898 -0.23747,-0.0491 -0.45363,0.14592 -0.4171,0.37969 0.24965,1.5827498 1.539,2.3421198 2.58631,2.6145998 z m -3.66101,16.48123 c 1.33196,-1.14649 1.4233,-3.81917 -0.30445,-5.43617 -0.17963,-0.16527 -0.4719,-0.11763 -0.60282,0.0879 -1.20257,1.94755 0.11265,3.30548 0.26031,5.11009 0.0259,0.30672 0.40948,0.44222 0.64696,0.23823 z m -22.3847,49.06848 c 0.31207,-0.79064 -0.48864,-1.1331 -1.02751,-0.29035 -2.00481,3.13276 -7.07086,3.71792 -10.29346,1.12714 -0.56628,-0.4586 -0.5815,-1.07503 0.0837,-0.94698 3.53467,0.68641 7.99182,0.57772 10.62683,-1.99371 2.92577,-2.85134 2.86944,-6.61691 4.94884,-8.91883 0.2877,-0.31715 -0.0776,-0.72959 -0.376,-0.5524 -2.38536,1.41302 -2.29251,4.06484 -4.00961,6.08982 -0.1644,0.19208 -0.47037,0.29035 -0.63477,0.0983 -1.39286,-1.60956 -2.85879,-2.07113 -4.18467,-1.95202 -1.60141,0.14592 -2.58478,0.91571 -3.07038,1.92224 -0.29075,0.60601 0.44145,0.77575 0.64391,0.50774 0.56324,-0.74001 1.53139,-1.15543 2.68069,-1.08545 1.68969,0.10571 2.66241,1.145 2.92424,2.02795 0.1096,0.36777 0.10503,0.63728 -0.0837,0.84871 -1.18888,1.32368 -4.11465,1.84779 -6.44369,1.81503 -2.69134,-0.0372 -4.75094,-0.42286 -6.4086705,-2.81114 -0.69872,-1.00505 -1.23607,-3.27272 -1.16757,-5.64463 0.0167,-0.58516 0.0502,-1.20754 -0.55106,-1.56638 -0.81135,-0.4854 -1.19192,-0.1072 -1.26346,0.69386 -0.34403,3.91148 1.06557,8.23242 3.6077305,11.24755 4.58806,5.43915 12.31196,3.68368 13.99861,-0.61642 z M 5.9780615,61.85119 c 0.29075,0.405 0.0548,0.8636 -0.0837,1.23435 -0.92552,2.44932 -0.91639,5.98112 0.0563,8.22498 0.32576,0.75043 -0.31967,1.25816 -0.80375,0.46604 -1.22389,-2.01307 -1.59836,-3.68814 -1.57553,-5.74885 0.0152,-1.39664 0.30141,-2.99429 0.81745,-4.2465 0.22834,-0.54793 0.70937,-0.63876 1.10363,-0.33501 0.10504,0.0834 0.40796,0.29779 0.4856,0.40499 z M 35.823302,6.9534602 c -0.12939,-0.33799 0.0989,-0.74596 0.44297,-0.55091 0.51452,0.29183 1.0671,0.0134 1.14017,0.32757 0.0609,0.26354 -0.22682,0.62983 -0.6089,0.71916 -0.38361,0.0938 -0.81745,-0.0834 -0.97424,-0.49582 z M 62.299802,58.035 c 4.87272,3.35462 11.7335,1.63934 11.7335,9.68714 0,1.60509 -0.89051,5.06542 -1.9363,6.11513 0.41862,-2.56547 0.71394,-4.62767 0.71394,-6.11513 0,-6.90279 -5.6369,-4.97311 -11.26161,-8.6404 -1.68818,-1.10034 -3.13127,-1.68103 -5.50598,-0.72363 -5.07062,2.03986 -5.3842,4.23011 -4.45258,7.23036 2.36862,7.6428 1.1082,9.0037 5.22132,13.02685 1.8404,1.80015 3.95328,2.86624 5.65211,4.46836 0.5267,0.49731 0.48864,1.03929 -0.23138,1.27156 -1.77951,0.57623 -3.54989,1.00058 -6.4376,1.00058 -1.39742,0 -2.7507,-1.04674 -4.77377,-1.04674 -1.63795,0 -3.28654,0.72364 -3.98526,2.31086 -0.0791,0.17868 -0.21463,0.32906 -0.38056,0.43478 -0.65913,0.4303 -0.87529,1.01546 -0.93314,1.47108 -0.038,0.29481 0.29227,0.4988 0.55106,0.34097 0.34859,-0.21143 0.82658,-0.46455 1.33653,-0.61196 0.2801,-0.0819 0.52213,-0.26652 0.64391,-0.5256 0.43994,-0.94697 1.50855,-1.66763 2.76593,-1.66763 0.57085,0 1.14474,0.11912 1.64251,0.42138 0.31663,0.19505 0.14766,0.68194 -0.22225,0.63131 -1.60902,-0.21738 -2.70199,0.41244 -3.14801,1.62296 -0.099,0.27397 -0.31967,0.4854 -0.59672,0.58963 -1.09755,0.40946 -1.47354,1.0914 -1.59989,1.5768 -0.067,0.2561 0.16441,0.49433 0.42928,0.43478 2.59391,-0.56134 3.02014,0.83381 5.86218,0.83381 1.46136,0 3.49205,-0.47051 6.53198,-0.47051 6.1712,0 8.62659,0.29184 10.61313,0.29184 2.64567,0 3.72342,-1.3892 3.72342,-2.88411 0,-2.65183 -4.55153,-3.61667 -8.92647,-7.52368 -5.52121,-4.92993 -8.7362,-12.77672 -7.91723,-14.76596 1.68818,5.03862 6.20013,12.86605 12.45962,16.44401 0.57541,0.33055 1.40961,0.5658 1.0534,-0.92315 -0.32424,-1.35346 -0.0137,-2.76201 0.96054,-3.50798 -0.19942,2.47167 0.54192,4.72296 1.69579,5.68036 0.47646,0.39904 0.73372,0.37522 0.93466,-0.11167 1.36393,-3.33675 -2.31382,-6.85812 0.65913,-9.23747 -0.38817,1.94011 0.10656,4.63214 1.58923,5.79947 0.17963,0.14146 0.44145,0.0908 0.56323,-0.10124 0.45211,-0.72661 0.61043,-1.77037 0.70024,-2.40466 0.11873,-0.82637 0.64848,-1.1733 1.53443,-0.86062 1.55269,0.54794 2.97143,0.77872 4.01417,0.77575 6.28385,-0.001 10.1047,-4.56514 10.07578,-10.55073 -0.0107,-2.22301 -0.98642,-4.37455 -1.11734,-6.48886 -0.12939,-2.09347 0.5815,-3.44693 1.87846,-3.95615 1.05797,-0.4184 2.28338,0.13698 2.53455,1.16436 0.21768,0.88295 0.93466,0.5256 1.06101,-0.32459 0.3014,-2.03838 -1.29239,-3.53627 -3.35809,-3.44842 -1.80843,0.073 -3.18454,1.46066 -3.62904,4.24054 -0.0807,0.50327 -0.59216,0.52709 -1.30305,-0.43329 -5.03712,-6.81047 -13.48257,-9.50697 -13.48257,-13.43781 0,-1.28347 0.98337,-2.53419 2.67612,-2.53419 4.56675,0 7.95223,8.20264 12.41699,8.20264 2.89228,0 4.70985,-2.01009 4.70985,-4.91652 0,-1.41302 -0.4856,-2.09049 -0.4856,-3.54967 0,-1.53809 0.76264,-2.82157 2.56803,-3.04342 0.2116,-0.0268 0.3623,-0.22632 0.28923,-0.47349 -0.41253,-1.37877 -1.98197,-1.74356 -3.90609,-0.70279 -0.58607,0.31864 -1.23607,0.2978 -1.6349,-0.22781 -0.50539,-0.66556 -0.96967,-1.61849 -2.43103,-2.09346 -0.16288,-0.0551 -0.3623,0.0194 -0.43385,0.17123 -0.47037,0.99462 -0.17201,1.92819 0.0198,3.13424 0.0913,0.56283 -0.17505,1.10332 -0.73524,1.25668 -1.33502,0.35735 -2.65785,1.68847 -1.99263,3.34568 0.0807,0.20399 0.34099,0.28588 0.51909,0.15485 0.69414,-0.50475 1.51159,-1.01398 2.6,-1.01398 2.00481,0 3.31546,1.50534 3.31546,3.45438 0,1.30134 -1.02447,2.26172 -2.33513,2.26172 -3.31242,0 -6.62483,-8.36346 -12.49767,-8.36346 -3.0308,0 -5.27765,2.09198 -5.27765,4.93589 0,7.01446 14.94394,9.65884 16.34441,21.66725 0.0944,0.80255 -0.59216,1.17925 -1.0397,0.11316 -1.80996,-4.30158 -5.4116,-3.79236 -5.42378,-6.31912 -0.003,-0.41839 -0.10047,-0.45711 -0.38513,-0.30821 -0.61955,0.32161 -0.97576,0.95293 -0.99403,1.96244 -0.0183,1.11523 0.93314,2.32128 2.11897,2.79328 0.41101,0.16229 0.37296,0.31566 -0.14156,0.48391 -1.75059,0.57473 -1.915,2.74712 -0.61499,3.56009 0.46885,0.29183 0.58454,0.0879 0.57541,-0.39458 -0.0183,-0.93804 0.72002,-1.5366 1.65012,-1.57829 1.73688,-0.0789 2.50867,1.56787 2.34883,3.22954 -0.19333,2.02349 -1.99567,3.25932 -3.97155,3.13276 -2.76136,-0.17718 -3.95176,-1.57084 -4.50739,-4.29265 -1.94695,-9.5576 -5.86218,-15.92585 -11.29662,-21.15952 -1.87389,-1.80759 -3.51792,-0.83382 -5.22284,0.59409 -1.56335,1.31028 -3.28349,2.19025 -6.51675,1.95797 -1.15539,-0.0879 -1.38981,-0.0313 -2.37167,0.22483 -3.14497,0.85466 -4.78595,0.31864 -7.07998,-0.54495 -0.97881,-0.3648 -1.30153,0.38117 -1.41113,1.28794 -0.10047,0.84871 -0.21007,1.39366 -0.35164,2.11432 -0.37295,1.88203 -0.0426,3.11191 1.54052,3.67325 0.4445,0.134 0.64848,0.48093 0.49778,0.88741 -0.55715,1.52618 -0.43537,2.05625 0.31358,3.12978 0.90117,1.45024 0.44602,2.45827 -1.1493,2.61014 -1.16909,0.11018 -1.30609,0.90826 -1.31979,2.05327 0.0289,0.49433 0.12026,0.74596 0.54192,0.93953 1.58923,0.64918 3.1404,0.86061 4.53935,0.78468 0.38056,-0.0313 0.53735,-0.15783 0.40644,-0.52709 -0.45211,-1.25668 -1.37459,-3.46927 -0.36077,-6.17916 0.74438,-1.6453 2.40668,-2.79924 5.22436,-3.86384 3.03385,-1.15096 4.652,-0.57027 6.73596,0.86657 z m -7.43011,30.02327 c 0.71851,1.94457 3.04603,1.44875 5.03561,1.44875 4.37038,0 6.46347,0.20548 8.3739,0.20548 2.9349,0 2.34122,-3.05831 0.86159,-3.05831 0.64696,1.13756 0.31815,1.77632 -0.90269,1.77632 -1.43244,0 -4.15575,-0.0462 -8.31453,-0.0462 -1.80692,-0.001 -3.62448,0.29481 -5.05388,-0.32608 z m -24.66045,-73.4501 c 0.63326,-0.30374 1.23454,-0.68938 2.02307,-0.8487 0.97272,-0.14145 0.97272,-1.27008 -0.0259,-1.42195 -0.8007,-0.11763 -1.61358,0.42137 -2.39298,0.86359 -0.18571,0.10572 -0.61803,0.32757 -1.05948,0.46009 -0.42623,0.12656 -1.22846,0.23972 -1.22998,-0.40797 0.0335,-0.46605 -0.42166,-0.58814 -0.79157,-0.17421 -0.31511,0.34692 -0.38817,0.87699 -0.18267,1.31028 0.31206,0.65216 1.06405,0.7817 1.72928,0.74299 0.67588,-0.0447 1.39894,-0.27099 1.93021,-0.52412 z m 8.66465,-7.2422698 c 0.68653,0.067 1.40656,0.0149 1.73232,-0.33948 -1.54661,-0.46604 -3.23022,-1.62743 -4.46781,-1.88204 -0.89508,-0.18463 -1.80386,0.0462 -1.4096,1.19861 0.33946,0.99164 0.55562,1.91777 1.7993,2.04433 0.55867,0 1.01534,-0.25758 1.31979,-0.59409 0.23138,-0.25312 0.45972,-0.472 1.026,-0.42733 z m -2.2164,8.2502998 c 2.65481,-0.3916 4.84989,-1.42493 5.26547,-4.7319 1.50093,2.42402 -0.83876,6.19405 -5.26547,4.7319 z m 1.03513,1.89841 c -2.05808,-0.13103 -4.00961,-0.81743 -5.94134,-0.28588 -0.77939,0.2159 -1.44005,0.56878 -2.1342,0.94996 -0.9377,0.5122 -1.01534,0.0193 -1.54508,-0.3916 -0.12482,-0.0953 -0.28162,-0.17272 -0.4582,-0.24866 -1.22541,-0.5792 -0.63478,-1.58722 0.11874,-1.54106 1.44614,0.0208 3.64731,-0.2159 5.17413,-0.88593 1.30913,-0.57474 2.13419,-1.41748 1.81604,-2.966 -0.34403,-1.68103 -2.04286,-2.8870798 -4.40235,-2.4895298 -0.17049,0.0298 -0.3151,-0.0536 -0.42166,-0.18612 -1.07775,-1.17031 -3.09626,-1.29092 -3.96546,0.0194 -0.11569,0.21292 -0.24965,0.24419 -0.45515,0.12805 -2.32296,-1.58871 -1.88912,-5.6342 3.09169,-4.88377 0.50691,0.0328 0.78548,-0.0357 1.10058,-0.36479 0.86464,-0.90231 1.8815,-0.5122 3.12975,-0.0849 0.24965,0.0864 0.53279,0 0.7185,-0.18463 0.28771,-0.29184 0.72916,-0.64025 1.25129,-0.64025 0.96967,0 2.08396,0.75787 3.04602,0.75787 0.81745,0 2.0657,-0.4303 3.38853,-0.30374 0.38818,0.0372 0.70633,0.36926 0.68654,0.75043 -0.0457,0.93953 0.12635,1.83439 0.85246,2.36148 -0.46733,-5.38108 5.92155,-4.29414 7.65387,-6.78664998 0.24509,-0.35288 0.44602,-0.29184 0.66218,0.0387 0.66675,1.01844998 0.96054,2.20960998 0.86768,3.03299998 -0.46733,4.12291 -5.40855,3.16701 -5.40855,5.70269 0,1.6125398 2.02003,5.6059198 -1.08689,8.1579798 -0.55714,0.45711 -0.90421,0.24866 -0.65609,-0.33948 1.14474,-2.70245 0.46277,-5.74736 -1.29391,-7.3524498 2.02764,4.4102798 -0.26335,8.3872698 -5.78912,8.0358798 z M 32.112052,5.7518802 c -0.2877,-0.79957 -1.36393,-0.58665 -1.20258,0.28141 0.13853,0.73405 0.90118,1.2805 1.97284,1.2805 -0.45515,-0.64472 -0.5952,-1.07652 -0.77026,-1.56191 z m 12.56161,1.69591 c 1.25434,-2.99577 5.44052,-1.89395 5.27155,-5.05648 -2.25293,1.68549 -6.64766,1.42493 -5.27155,5.05648 z"
     id="path3"
     inkscape:connector-curvature="0"
     style="clip-rule:evenodd;fill:#3a3a3a;fill-rule:evenodd" /><g
     id="g5"
     transform="matrix(1.5222503,0,0,1.4889539,-421.52768,-476.89695)"><path
       d="m 485.713,330.882 0,0 c 0,0 -0.629,-0.158 -1.449,-0.158 -3.641,0 -5.525,1.742 -5.525,4.479 0,3.307 2.723,5.336 7.104,4.695 -0.001,-7.745 -0.13,-9.016 -0.13,-9.016 m -23.695,12.111 0,0 c -0.926,0 -2.008,-0.057 -3.27,-0.289 1.379,-5.23 3.025,-9.711 3.025,-9.711 0,0 1.805,4.395 3.621,9.729 -1.259,0.23 -2.46,0.271 -3.376,0.271 z m 10.003,7.457 0,0 -8.377,-21.209 -2.137,0.492 c -2.33,7.045 -5.301,14.305 -8.277,20.717 l 3.908,0 c 0.254,-1.922 0.68,-3.998 1.172,-6.023 1.219,-0.191 2.932,-0.195 3.707,-0.195 0.797,0 2.723,0.004 3.951,0.213 0.648,1.982 1.273,4.037 1.789,6.006 l 4.264,0 z m -26.041,-20.721 0,0 c -2.66,0 -4.875,-0.035 -7.82,-0.219 l -0.436,3.596 c 1.672,-1.299 3.719,-1.992 5.965,-1.992 l 0.346,0 c 0.059,2.273 0.193,11.568 -0.26,19.336 l 1.984,0 1.982,0 c -0.453,-7.768 -0.318,-17.063 -0.271,-19.336 l 0.521,0 c 2.336,0 3.529,0.453 4.885,1.658 l 0.646,-3.262 c -2.942,0.184 -4.883,0.219 -7.542,0.219 z m -31.608,10.25 0,0 c 0,-6.695 4.987,-10.729 11.068,-10.729 6.08,0 11.068,4.033 11.068,10.729 0,6.697 -4.988,10.73 -11.068,10.73 -6.081,10e-4 -11.068,-4.032 -11.068,-10.73 z m 18.405,0 0,0 c 0,-5.709 -2.83,-9.5 -7.338,-9.5 -4.507,0 -7.337,3.791 -7.337,9.5 0,5.711 2.892,9.502 7.337,9.502 4.446,0 7.338,-3.791 7.338,-9.502 z m -78.362,-8.919 0,0 c 1.69,-1.1 4.222,-1.809 6.755,-1.809 4.199,0 7.227,1.967 7.227,4.652 0,2.783 -1.893,4.613 -4.927,5.178 3.636,0.326 6.236,2.27 6.236,5.369 0,3.582 -3.551,6.26 -8.719,6.26 -2.573,0 -5.151,-0.635 -6.825,-1.631 l 0.794,-2.875 0.211,0 c 1.244,1.834 3.608,3.115 5.951,3.115 3.065,0 5.132,-2.154 5.132,-4.869 0,-2.82 -2.229,-4.26 -4.854,-4.26 -1.002,0 -1.705,0.162 -2.344,0.475 l 0.262,-2.109 c 0.535,0.08 1.019,0.082 1.574,0.031 2.568,-0.236 4.072,-1.898 4.072,-4.412 0,-2.006 -1.873,-3.539 -4.062,-3.539 -2.324,0 -4.112,1.279 -5.086,2.869 l -0.15,0 -1.247,-2.445 z m 18.065,8.919 0,0 c 0,-6.695 4.987,-10.729 11.067,-10.729 6.08,0 11.068,4.033 11.068,10.729 0,6.697 -4.988,10.73 -11.068,10.73 -6.08,0 -11.067,-4.032 -11.067,-10.73 z m 18.405,0 0,0 c 0,-5.709 -2.83,-9.5 -7.338,-9.5 -4.507,0 -7.337,3.791 -7.337,9.5 0,5.711 2.892,9.502 7.337,9.502 4.447,0 7.338,-3.791 7.338,-9.502 z m 12.573,-6.986 0,0 c 0,0 -3.638,9.908 -4.635,17.457 l -3.907,0 c 2.976,-6.412 5.948,-13.672 8.276,-20.717 l 2.137,-0.492 8.377,21.209 -4.262,0 c -2.103,-8.01 -5.986,-17.457 -5.986,-17.457 z m 80.593,8.334 -1.064,1.561 c -2.668,3.908 -3.703,5.633 -4.809,7.563 l -4.313,0 7.076,-9.324 c -3.547,-0.662 -5.68,-2.709 -5.68,-5.924 0,-3.369 2.807,-5.691 8.27,-5.691 0.756,0 1.906,0.084 3.49,0.084 1.104,0 2.4,-0.084 2.4,-0.084 0,0 -0.26,2.23 -0.26,10.469 0,8.24 0.26,10.471 0.26,10.471 l -3.816,0 c 0,0 0.213,-2.367 0.234,-9.229 -0.837,0.145 -1.794,0.069 -1.788,0.104 z"
       id="path7"
       inkscape:connector-curvature="0"
       style="clip-rule:evenodd;fill:#3a3a3a;fill-rule:evenodd" /><path
       d="m 380.645,359.53 0,0 -2.205,0 -0.047,7.264 c 6.087,-0.83 10.574,1.375 10.574,6.047 0,3.371 -2.804,6.4 -7.196,6.4 -1.585,0 -2.488,-0.086 -3.378,-0.121 -0.247,0 -3.762,0.121 -3.762,0.121 0,0 0.259,-2.23 0.259,-10.471 0,-8.238 -0.259,-10.469 -0.259,-10.469 l 3.762,0 9.357,0 -0.512,3.262 c -1.735,-1.406 -3.529,-2.033 -6.593,-2.033 m -2.305,18.162 0,0 c 0,0 0.807,0.277 1.946,0.277 3.342,0 5.204,-2.393 5.204,-5.129 0,-3.338 -2.756,-5.414 -7.098,-4.813 l -0.052,9.665 z m 21.165,-5.91 0,0 c -0.925,0 -2.008,-0.053 -3.271,-0.287 1.381,-5.23 3.025,-9.711 3.025,-9.711 0,0 1.807,4.395 3.622,9.729 -1.257,0.23 -2.459,0.269 -3.376,0.269 z m 10.004,7.459 0,0 -8.377,-21.209 -2.137,0.492 c -2.329,7.045 -5.301,14.305 -8.276,20.717 l 3.907,0 c 0.254,-1.922 0.679,-3.998 1.172,-6.023 1.22,-0.191 2.932,-0.195 3.707,-0.195 0.798,0 2.723,0.004 3.951,0.213 0.648,1.98 1.273,4.037 1.79,6.006 l 4.263,0 z m 49.438,-7.459 0,0 c -0.924,0 -2.006,-0.053 -3.27,-0.287 1.381,-5.23 3.025,-9.711 3.025,-9.711 0,0 1.807,4.395 3.621,9.729 -1.257,0.23 -2.458,0.269 -3.376,0.269 z m 10.004,7.459 0,0 -8.377,-21.209 -2.137,0.492 c -2.328,7.045 -5.301,14.305 -8.275,20.717 l 3.906,0 c 0.254,-1.922 0.68,-3.998 1.172,-6.023 1.221,-0.191 2.934,-0.195 3.707,-0.195 0.799,0 2.723,0.004 3.953,0.213 0.646,1.98 1.271,4.037 1.789,6.006 l 4.262,0 z m -31.359,-10.287 0,0 c 0,0 4.229,-6.066 6.287,-10.652 l 4.457,0 0,0.209 c -2.957,2.439 -6.041,5.621 -8.213,8.852 l 8.605,11.879 -4.309,0 c -1.387,-2.373 -2.014,-3.336 -4.832,-7.406 l -1.995,-2.882 z m -0.432,-10.652 0,0 -3.814,0 c 0,0 0.236,2.65 0.236,10.469 0,7.819 -0.236,10.471 -0.236,10.471 l 3.814,0 c 0,0 -0.258,-2.23 -0.258,-10.471 0,-8.239 0.258,-10.469 0.258,-10.469 z m -12.894,14.586 -4.252,-11.197 c 0,0 -3.688,10.002 -4.686,17.551 l -3.907,0 c 2.976,-6.412 5.948,-13.672 8.276,-20.717 l 2.137,-0.492 8.377,21.209 -4.086,0 c -0.463,-2.251 -1.096,-4.241 -1.859,-6.354 z"
       id="path9"
       inkscape:connector-curvature="0"
       style="clip-rule:evenodd;fill:#3a3a3a;fill-rule:evenodd" /></g></svg>