<?xml version="1.0" encoding="utf-8"?>
<!-- Generator: Adobe Illustrator 21.0.2, SVG Export Plug-In . SVG Version: 6.00 Build 0)  -->
<svg version="1.1" id="Layer_1" xmlns="http://www.w3.org/2000/svg" xmlns:xlink="http://www.w3.org/1999/xlink" x="0px" y="0px"
	 viewBox="0 0 259.7 102.7" style="enable-background:new 0 0 259.7 102.7;" xml:space="preserve">
<style type="text/css">
	.st0{fill:#F8991D;}
	.st1{fill:#F6B41B;}
	.st2{fill:none;stroke:#F6B41B;stroke-width:2;stroke-miterlimit:10;}
	.st3{fill:#00ACCD;}
	.st4{fill:none;stroke:#F8991D;stroke-miterlimit:10;}
</style>
<g>
	<g>
		<g id="XMLID_103_">
			<g>
				
					<rect x="8.6" y="45.5" transform="matrix(0.6985 -0.7156 0.7156 0.6985 -26.0293 29.4106)" class="st0" width="26.5" height="0.3"/>
			</g>
		</g>
		<polygon class="st1" points="12.7,55.5 12.2,55 12.4,54.8 31.1,35.7 31.6,36.2 		"/>
	</g>
	<g>
		<g id="XMLID_102_">
			<g>
				<path class="st0" d="M69.8,13.6l0,0.1c0,0,0,0-0.1,0c-0.1,0-0.1,0-0.2,0c0,0,0,0,0,0l0-0.1C69.5,13.6,69.6,13.6,69.8,13.6
					C69.7,13.6,69.7,13.6,69.8,13.6z"/>
			</g>
		</g>
		<path class="st1" d="M69.7,14c-0.1,0-0.1,0-0.2,0l-0.2,0l0-0.6l0.2,0c0.1,0,0.1,0,0.2,0c0,0,0,0,0,0l0.3,0l0,0.6L69.7,14
			C69.8,14,69.7,14,69.7,14z M69.4,13.9C69.4,13.9,69.4,13.9,69.4,13.9L69.4,13.9z"/>
	</g>
	<g>
		<g id="XMLID_101_">
			<g>
				<path class="st0" d="M69.8,13.7l0,0.1c0,0,0,0-0.1,0c-0.1,0-0.2,0-0.2,0l0-0.1c0,0,0,0,0,0C69.6,13.7,69.6,13.7,69.8,13.7
					C69.7,13.7,69.7,13.7,69.8,13.7z"/>
			</g>
		</g>
		<path class="st1" d="M69.7,14.1c-0.1,0-0.2,0-0.3,0l-0.2,0l0-0.6l0.3,0c0.1,0,0.1,0,0.2,0c0,0,0,0,0,0l0.3,0l0,0.6L69.7,14.1
			C69.8,14.1,69.7,14.1,69.7,14.1z M69.4,13.9C69.4,13.9,69.4,13.9,69.4,13.9L69.4,13.9z M69.5,13.5L69.5,13.5
			C69.5,13.5,69.5,13.5,69.5,13.5z"/>
	</g>
	<g>
		<g id="XMLID_100_">
			<g>
				<path class="st0" d="M69.8,13.9l-0.2,6.2l0,0.3l-0.1,3.1l0,0.3l-0.2,5.7l0,0.3l-0.4,10.8c-0.1,0-0.1,0-0.2,0c0,0-0.1,0-0.1,0
					l0.4-10.8l0-0.3l0.2-5.8l0-0.3l0.1-3.1l0-0.3l0.2-6.2C69.5,13.9,69.6,13.9,69.8,13.9C69.7,13.9,69.7,13.9,69.8,13.9z"/>
			</g>
		</g>
		<path class="st1" d="M68.3,40.9l0.9-27.3l0.2,0c0.1,0,0.1,0,0.2,0c0,0,0,0,0,0l0.3,0l0,0.3l-0.9,27l-0.2,0c-0.1,0-0.1,0-0.2,0
			c0,0,0,0,0,0L68.3,40.9z"/>
	</g>
	<g>
		<g id="XMLID_99_">
			<g>
				<path class="st0" d="M69.8,12.3l0,1.3c0,0,0,0-0.1,0c-0.1,0-0.1,0-0.2,0v0l0-1.3L69.8,12.3z"/>
			</g>
		</g>
		<path class="st1" d="M69.7,13.8c-0.1,0-0.2,0-0.2,0l-0.2,0v-0.2l0-1.5l0.7,0L70,13.8l-0.2,0C69.8,13.8,69.7,13.8,69.7,13.8z"/>
	</g>
	<g>
		<g id="XMLID_47_">
			<g>
				<path class="st0" d="M39.7,44.8l0.1-0.1L39.7,44.8c-0.3-0.3-6.6-6.2-9-8.4l0.2-0.2c0,0,2.2,2.1,4.5,4.2c3.2,3,4.2,3.9,4.4,4.2
					l0,0l0,0c0.1,0.1,0.1,0.2,0.1,0.2L39.7,44.8z"/>
			</g>
		</g>
		<path class="st1" d="M39.3,45.1l0.1-0.3c-0.5-0.6-5.7-5.3-8.9-8.3l-0.2-0.1l0.5-0.5l0.2,0.1c0,0,2.2,2.1,4.5,4.2
			c2.9,2.8,4,3.7,4.4,4.1l0.4-0.3l-0.2,0.5c0.1,0.1,0.1,0.2,0,0.3l0,0.1L39.3,45.1z"/>
	</g>
	<g>
		<g id="XMLID_98_">
			<g>
				<path class="st0" d="M85.8,28c0.1,0.1,0.1,0.1,0.2,0.2L70.5,41.7c0-0.1-0.1-0.2-0.2-0.2L85.8,28z"/>
			</g>
		</g>
		<path class="st1" d="M70.5,42.1l-0.1-0.2c0-0.1-0.1-0.1-0.1-0.2l-0.1-0.2l15.8-13.8l0.1,0.2c0.1,0.1,0.1,0.1,0.2,0.2l0.2,0.2
			L70.5,42.1z"/>
	</g>
	<g>
		<g id="XMLID_97_">
			<g>
				
					<rect x="79.4" y="54.2" transform="matrix(0.5788 -0.8155 0.8155 0.5788 -20.709 92.8284)" class="st0" width="0.3" height="24.5"/>
			</g>
		</g>
		<rect x="79.1" y="54" transform="matrix(0.5788 -0.8155 0.8155 0.5788 -20.709 92.8284)" class="st1" width="0.7" height="24.9"/>
	</g>
	<g>
		<g id="XMLID_96_">
			<g>
				
					<rect x="43.9" y="62.2" transform="matrix(0.7115 -0.7027 0.7027 0.7115 -44.2154 54.314)" class="st0" width="0.3" height="37.7"/>
			</g>
		</g>
		<polygon class="st1" points="57.2,94.8 57,94.7 30.4,67.7 30.9,67.2 31.1,67.4 57.7,94.3 		"/>
	</g>
	<g>
		<g id="XMLID_95_">
			<g>
				
					<rect x="54.4" y="84.2" transform="matrix(0.8457 -0.5336 0.5336 0.8457 -33.6972 52.1684)" class="st0" width="37.9" height="0.3"/>
			</g>
		</g>
		
			<rect x="54.2" y="84" transform="matrix(0.8457 -0.5337 0.5337 0.8457 -33.7009 52.1806)" class="st1" width="38.3" height="0.7"/>
	</g>
	<g>
		<g id="XMLID_35_">
			<g>
				
					<rect x="21.6" y="51.3" transform="matrix(0.5238 -0.8518 0.8518 0.5238 -42.485 48.0243)" class="st0" width="0.3" height="21.4"/>
			</g>
		</g>
		
			<rect x="21.4" y="51.1" transform="matrix(0.5238 -0.8518 0.8518 0.5238 -42.4849 48.0241)" class="st1" width="0.7" height="21.8"/>
	</g>
	<g>
		<g id="XMLID_94_">
			<g>
				<path class="st0" d="M68.1,12.9L67.9,13c-0.1-0.1-0.1-0.2-0.2-0.2l0.1-0.1c0,0,0,0,0,0C68,12.8,68,12.8,68.1,12.9z"/>
			</g>
		</g>
		<path class="st1" d="M67.9,13.3l-0.1-0.2c-0.1-0.1-0.1-0.2-0.2-0.3l-0.1-0.2l0.5-0.3l0.1,0.2c0,0.1,0.1,0.1,0.1,0.2l0.1,0.2
			L67.9,13.3z M67.7,12.7C67.7,12.7,67.7,12.7,67.7,12.7L67.7,12.7z M68.1,12.6L68.1,12.6C68.1,12.6,68.1,12.6,68.1,12.6z"/>
	</g>
	<g>
		<g id="XMLID_93_">
			<g>
				<path class="st0" d="M67.8,12.7c0,0.1,0.1,0.2,0.2,0.2L61,17.3l-0.3,0.2h0L55,21.1l-0.4,0.2h0l-3.8,2.4l-0.2,0.2L38,31.8
					L37.6,32l-4.9,3.1l-0.1,0.1l-0.1,0.1l-1.1,0.7l0,0l0,0l-0.2,0.1l0,0v0L31,36.1l0,0l0,0l0,0l-0.1-0.2l0.1-0.1l0.1-0.1l0.2-0.1
					l0.3-0.2l0.8-0.5l0.1-0.1l0.1-0.1l5.1-3.2l0.3-0.2l12.3-7.7l0.2-0.2l3.5-2.2l0.4-0.2h0l5.8-3.6l0.3-0.2L67.8,12.7z"/>
			</g>
		</g>
		<path class="st1" d="M31,36.4l-0.2-0.3l-0.2-0.3l7.3-4.6l30-18.8l0.1,0.2c0,0.1,0.1,0.1,0.1,0.2l0.1,0.2L31,36.4z"/>
	</g>
	<g>
		<g id="XMLID_92_">
			<g>
				<path class="st0" d="M43.1,11.5c0,0.1-0.1,0.2-0.1,0.3l-0.1,0c0.1-0.1,0.1-0.2,0.1-0.3c0,0,0,0,0,0L43.1,11.5z"/>
			</g>
		</g>
		<path class="st1" d="M43,12l-0.6-0.2l0.2-0.2c0-0.1,0.1-0.1,0.1-0.2l0-0.3l0.6,0.2l-0.1,0.2c0,0.1-0.1,0.2-0.1,0.3L43,12z"/>
	</g>
	<g>
		<g id="XMLID_91_">
			<g>
				<path class="st0" d="M85.7,25.4c-0.1,0.1-0.1,0.2-0.1,0.3l-16-5.2l-0.3-0.1l-2.8-0.9l-0.3-0.1l-5.5-1.8h0l-0.4-0.1l-17.4-5.7
					c0.1-0.1,0.1-0.2,0.1-0.3l17.6,5.7l0.4,0.1l5.3,1.7l0.3,0.1l2.7,0.9l0.3,0.1L85.7,25.4z"/>
			</g>
		</g>
		<path class="st1" d="M85.7,25.9l-43-14.1l0.1-0.2c0-0.1,0.1-0.1,0.1-0.2l0.1-0.2L86,25.3l-0.2,0.2c-0.1,0.1-0.1,0.1-0.1,0.2
			L85.7,25.9z"/>
	</g>
	<g>
		<g id="XMLID_90_">
			<g>
				
					<rect x="29.4" y="16.9" transform="matrix(0.9919 -0.1271 0.1271 0.9919 -3.1417 3.9763)" class="st0" width="0.3" height="19.3"/>
			</g>
		</g>
		
			<rect x="29.2" y="16.7" transform="matrix(0.9919 -0.1271 0.1271 0.9919 -3.1418 3.9764)" class="st1" width="0.7" height="19.8"/>
	</g>
	<g>
		<g id="XMLID_89_">
			<g>
				
					<rect x="60.4" y="41.2" transform="matrix(0.1118 -0.9937 0.9937 0.1118 -16.8775 123.237)" class="st0" width="0.3" height="59.8"/>
			</g>
		</g>
		<polygon class="st1" points="90.4,74.8 90.2,74.8 30.6,68.1 30.6,67.3 30.8,67.4 90.4,74.1 		"/>
	</g>
	<g>
		<g id="XMLID_86_">
			<g>
				
					<rect x="45.5" y="77.2" transform="matrix(0.3449 -0.9386 0.9386 0.3449 -30.6527 110.7222)" class="st0" width="36.9" height="0.3"/>
			</g>
		</g>
		
			<rect x="45.3" y="77" transform="matrix(0.3447 -0.9387 0.9387 0.3447 -30.6469 110.7386)" class="st1" width="37.3" height="0.7"/>
	</g>
	<g>
		<g id="XMLID_85_">
			<g>
				<path class="st0" d="M85.3,26.7c0,0.1,0,0.2,0,0.3l-16.2,2.7l-0.3,0L62,31l-0.3,0.1l-4.9,0.8l-0.3,0.1l-19,3.2l-0.3,0.1L33,35.9
					l-0.1,0l-0.1,0l-1.5,0.3l0,0l-0.1,0l0-0.1l0,0v0l0-0.1l0.2,0l0,0l0,0l1.3-0.2l0.1,0l0.1,0l4.2-0.7l0.3-0.1l18.8-3.2l0.3-0.1
					l5.2-0.9l0.3-0.1l6.8-1.2l0.3-0.1L85.3,26.7z"/>
			</g>
		</g>
		<path class="st1" d="M31,36.5l-0.1-0.7l6.6-1.1l31.5-5.3l0.3-0.1l16.3-2.8l0,0.2c0,0.1,0,0.2,0,0.3l0,0.2L31,36.5z"/>
	</g>
	<g>
		<g id="XMLID_84_">
			<g>
				<rect x="19.2" y="76.2" transform="matrix(0.33 -0.944 0.944 0.33 -53.3421 77.5084)" class="st0" width="17.4" height="0.3"/>
			</g>
		</g>
		<rect x="19" y="76" transform="matrix(0.3301 -0.944 0.944 0.3301 -53.3423 77.4987)" class="st1" width="17.9" height="0.7"/>
	</g>
	<g>
		<g id="XMLID_83_">
			<g>
				<path class="st0" d="M40.3,12.5l-0.1,0.1c-0.1,0-0.2-0.1-0.3-0.1l0.1-0.1C40.1,12.4,40.1,12.4,40.3,12.5
					C40.2,12.5,40.3,12.5,40.3,12.5z"/>
			</g>
		</g>
		<path class="st1" d="M40.3,12.9l-0.2-0.1c-0.1,0-0.2-0.1-0.3-0.2l-0.1-0.1l0.2-0.6l0.2,0.2c0.1,0,0.1,0.1,0.2,0.1l0.2,0.1
			L40.3,12.9z"/>
	</g>
	<g>
		<g id="XMLID_82_">
			<g>
				<path class="st0" d="M40,12.5c0.1,0.1,0.2,0.1,0.3,0.1L38,18.4h0l-0.1,0.3l-6,15.7l0,0.1l-0.1,0.1l-0.4,0.9l-0.2,0.4l0,0h0
					l0,0.1l0,0.1l0,0.1l0,0.1l0,0.1l0,0.1l0,0.1l-0.1,0l-0.2-0.1l0.1-0.2l0,0l0-0.1l0-0.1l0.1-0.2l0.1-0.3l0.4-1l0.1-0.1l0.1-0.1
					l6-15.6l0.1-0.3L40,12.5z"/>
			</g>
		</g>
		<path class="st1" d="M31.2,36.7l-0.7-0.3l0.9-2.4l8.4-21.9l0.2,0.2c0.1,0,0.1,0.1,0.2,0.1l0.2,0.1L31.2,36.7z"/>
	</g>
	<g>
		<g id="XMLID_81_">
			<g>
				<path class="st0" d="M69.4,23.5l16,2.6c0,0.1,0,0.2-0.1,0.3l-15.9-2.6l-0.3,0l-4.1-0.7l-0.3,0l-10.2-1.7l-0.4-0.1l-5.9-1
					l-0.4-0.1v0L40.1,19l-0.3,0l-1.9-0.3l-0.3,0l-3.3-0.5L34,18L30,17.4l-0.1,0l-0.1,0l-1.4-0.2l-0.3,0l0,0l0,0l-0.1,0l0-0.1v0
					l0-0.1l1.9,0.3l0.1,0l0.1,0l4.1,0.7l0.4,0.1l3.2,0.5l0.3,0l1.8,0.3l0.3,0l7.5,1.2L48,20l6.5,1.1l0.4,0.1l9.9,1.6l0.3,0l4,0.6
					L69.4,23.5z"/>
			</g>
		</g>
		<path class="st1" d="M85.5,26.6l-57.9-9.4l0.1-0.7l57.9,9.4l-0.1,0.2c0,0.1,0,0.2,0,0.2L85.5,26.6z"/>
	</g>
	<g>
		<g id="XMLID_80_">
			<g>
				<path class="st0" d="M42.4,12.4c-0.1,0.1-0.2,0.1-0.2,0.2c0,0-0.1-0.1-0.1-0.1c0,0,0.1,0,0.1,0c0,0,0.1,0,0.1-0.1c0,0,0,0,0,0
					c0,0,0,0,0,0C42.3,12.3,42.4,12.3,42.4,12.4z"/>
			</g>
		</g>
		<path class="st1" d="M42.1,12.8L42,12.7c0,0-0.1-0.1-0.1-0.1l-0.2-0.2l0.2-0.1c0,0,0,0,0.1,0c0,0,0,0,0.1,0l0,0l0.1,0l0.2-0.2
			l0.2,0.3c0,0,0,0,0,0.1l0.1,0.2l-0.2,0.1c-0.1,0.1-0.2,0.1-0.3,0.2L42.1,12.8z"/>
	</g>
	<g>
		<g id="XMLID_79_">
			<g>
				<path class="st0" d="M59.3,34.2c-0.1,0.1-0.2,0.1-0.2,0.2c-0.5-0.7-1.2-1.6-2-2.7c-0.1-0.1-0.1-0.2-0.2-0.3
					c-1.6-2.2-3.7-4.9-5.9-7.7l-0.2-0.2c-0.9-1.1-1.7-2.2-2.6-3.4c0,0,0,0,0,0c-0.1-0.1-0.2-0.2-0.3-0.3c-2-2.6-3.9-5.1-5.6-7.3
					c0.1,0,0.2-0.1,0.3-0.2c1.3,1.7,3.4,4.5,5.8,7.6c0.1,0.1,0.2,0.2,0.3,0.3c0.8,1,1.5,2,2.3,3c0,0,0.1,0.1,0.1,0.1
					c0.1,0.1,0.1,0.2,0.2,0.2c2.2,2.8,4.3,5.6,6,7.8c0.1,0.1,0.1,0.2,0.2,0.3c0.1,0.1,0.1,0.2,0.2,0.2
					C58.3,32.9,58.8,33.6,59.3,34.2z"/>
			</g>
		</g>
		<path class="st1" d="M59,34.7l-0.1-0.2c-0.5-0.7-1.2-1.6-2-2.7c-0.1-0.1-0.1-0.2-0.2-0.3c-1.6-2.2-3.7-4.9-5.9-7.7L50.1,23
			c-0.7-0.9-1.4-1.8-2.1-2.7l-0.1-0.1l0,0c-0.1-0.1-0.1-0.2-0.2-0.3c-2-2.6-3.9-5.1-5.6-7.3L42,12.4l0.2-0.1c0.1,0,0.2-0.1,0.2-0.1
			l0.2-0.1l1.7,2.2c1.2,1.6,2.7,3.5,4.2,5.5l0.1,0.1c0.1,0.1,0.1,0.1,0.2,0.2c0.5,0.6,1,1.3,1.5,2l1.1,1.4c2.2,2.8,4.3,5.6,6,7.8
			l0.1,0.1c0,0.1,0.1,0.1,0.1,0.2c0,0,0.1,0.1,0.1,0.1l0.1,0.1c0.6,0.8,1.1,1.4,1.5,1.9l0.4,0.5l-0.2,0.1c-0.1,0-0.1,0.1-0.2,0.2
			L59,34.7z"/>
	</g>
	<g>
		<g id="XMLID_78_">
			<g>
				<path class="st0" d="M24.8,83.8l0.1-0.1l0,0l-0.1,0c0.2-0.8,2.1-44.1,3-66.8l0.3,0c0,0.2-0.7,16.9-1.4,33.4
					c-1.5,33.5-1.6,33.5-1.7,33.6L24.8,83.8z"/>
			</g>
		</g>
		<path class="st1" d="M24.5,84.1l0.1-0.2l-0.1,0l0-0.2c0.2-0.9,1.9-40.4,3-66.8l0-0.2l0.7,0l0,0.4c-0.2,4.1-0.8,18.8-1.4,33.2
			c-0.7,15.3-1.1,24.6-1.4,29.3c-0.2,4.3-0.3,4.3-0.4,4.4l0,0L24.5,84.1z"/>
	</g>
	<g>
		<g id="XMLID_77_">
			<g>
				<path class="st0" d="M11.4,55.7l-0.3-0.1c5.7-13.1,16.6-38,16.7-38.7l0.1,0l0.1-0.1c0.2,0.1,0.2,0.1-2.5,6.3
					c-1.4,3.2-3.3,7.7-5.8,13.3C15.6,45.9,11.4,55.6,11.4,55.7z"/>
			</g>
		</g>
		<path class="st1" d="M11.5,56l-0.7-0.3l0.1-0.2c6.6-15.1,16.5-37.9,16.7-38.7l0-0.2l0.2,0l0.1-0.2l0.2,0.1
			c0.4,0.2,0.4,0.2-2.3,6.6c-1.4,3.2-3.3,7.7-5.8,13.3c-4.1,9.4-8.3,18.9-8.4,19.3L11.5,56z"/>
	</g>
	<g>
		<g id="XMLID_72_">
			<g>
				<path class="st0" d="M25,84.9l0.1-0.1l-0.1,0c-0.1-0.7-8.1-30-12.3-45.4l0.3-0.1c0,0.1,3.1,11.5,6.2,22.7
					c1.8,6.6,3.2,11.8,4.2,15.6c1.9,7.2,1.9,7.2,1.8,7.3L25,84.9z"/>
			</g>
		</g>
		<path class="st1" d="M24.6,85.1l0.1-0.2l0-0.2c-0.1-0.8-7.4-27.6-12.3-45.4l-0.1-0.2l0.7-0.2l0.1,0.3c0.8,2.8,3.5,12.7,6.2,22.6
			c1.8,6.6,3.2,11.8,4.2,15.6c1.3,4.7,1.7,6.4,1.8,7l0,0l0,0.1c0,0.3,0,0.4-0.1,0.4l0,0L24.6,85.1z"/>
	</g>
	<g>
		<g id="XMLID_65_">
			<g>
				<path class="st0" d="M57.7,94.8l0.1-0.1l-0.1,0c-0.1-0.6-7.6-19-11.5-28.6l0.3-0.1c0,0.1,2.9,7.2,5.8,14.3
					c5.8,14.4,5.8,14.4,5.7,14.5L57.7,94.8z"/>
			</g>
		</g>
		<path class="st1" d="M57.3,95.1l0.1-0.2l0-0.1c-0.1-0.6-7-17.4-11.5-28.6L45.8,66l0.7-0.3l0.1,0.2c0,0.1,2.9,7.2,5.8,14.3
			c4.2,10.3,5.4,13.3,5.7,14.3l0.1,0L58,94.6c0.1,0.3,0,0.3-0.1,0.4l0,0L57.3,95.1z"/>
	</g>
	<g>
		<g id="XMLID_55_">
			<g>
				
					<rect x="24.6" y="79.6" transform="matrix(0.9871 -0.1603 0.1603 0.9871 -12.0345 10.2102)" class="st0" width="65.3" height="0.3"/>
			</g>
		</g>
		<polygon class="st1" points="24.9,85.3 24.8,84.6 89.7,74.1 89.8,74.8 89.6,74.8 		"/>
	</g>
	<g>
		<g id="XMLID_54_">
			<g>
				
					<rect x="41.2" y="73.5" transform="matrix(0.278 -0.9606 0.9606 0.278 -56.5646 104.6778)" class="st0" width="0.3" height="33"/>
			</g>
		</g>
		<polygon class="st1" points="57.3,95 57.1,94.9 25.2,85.7 25.4,85 25.6,85 57.5,94.3 		"/>
	</g>
	<g>
		<g id="XMLID_76_">
			<g>
				
					<rect x="21.6" y="36.7" transform="matrix(0.8475 -0.5307 0.5307 0.8475 -25.1726 19.747)" class="st0" width="0.3" height="34"/>
			</g>
		</g>
		
			<rect x="21.4" y="36.5" transform="matrix(0.8475 -0.5307 0.5307 0.8475 -25.1727 19.747)" class="st1" width="0.7" height="34.4"/>
	</g>
	<g>
		<g id="XMLID_75_">
			<g>
				<path class="st0" d="M39.9,12.3l-0.1,0.1c-0.1-0.1-0.2-0.1-0.2-0.2l0.1-0.1C39.7,12.1,39.8,12.2,39.9,12.3
					C39.8,12.2,39.9,12.3,39.9,12.3z"/>
			</g>
		</g>
		<path class="st1" d="M39.8,12.7l-0.2-0.1c-0.1-0.1-0.2-0.1-0.2-0.2l-0.1-0.1l0.4-0.4l0.2,0.2c0,0,0.1,0.1,0.1,0.1l0,0c0,0,0,0,0,0
			l0.2,0.2L39.8,12.7z"/>
	</g>
	<g>
		<g id="XMLID_53_">
			<g>
				<path class="st0" d="M39.6,12.2c0.1,0.1,0.1,0.1,0.2,0.2l-5.2,5.4l-0.2,0.3l-5,5.2l-0.3,0.3l-1.3,1.4l-0.3,0.3l-5.1,5.3v0
					l-0.6,0.6l-7,7.3l-0.1,0.1l-0.1,0.1l-0.7,0.7l-0.1,0.1l-0.2-0.2l0,0l0.9-0.9l0.1-0.1l0.1-0.1l7.5-7.8l0.6-0.6l4.8-5l0.3-0.3
					l1.3-1.3l0.3-0.3L34,18l0.2-0.3h0L39.6,12.2z"/>
			</g>
		</g>
		<path class="st1" d="M13.7,39.8l-0.5-0.5l0.2-0.2l26.3-27.3l0.2,0.2c0.1,0.1,0.1,0.1,0.2,0.2l0.2,0.1L13.7,39.8z"/>
	</g>
	<g>
		<g id="XMLID_52_">
			<g>
				
					<rect x="56.9" y="89.4" transform="matrix(0.9156 -0.4021 0.4021 0.9156 -30.1479 35.5089)" class="st0" width="25.1" height="0.3"/>
			</g>
		</g>
		
			<rect x="56.7" y="89.2" transform="matrix(0.9155 -0.4023 0.4023 0.9155 -30.157 35.5256)" class="st1" width="25.5" height="0.7"/>
	</g>
	<g>
		<g id="XMLID_51_">
			<g>
				
					<rect x="78.9" y="79.5" transform="matrix(0.6382 -0.7699 0.7699 0.6382 -30.3736 94.5826)" class="st0" width="13.1" height="0.3"/>
			</g>
		</g>
		
			<rect x="78.7" y="79.2" transform="matrix(0.6383 -0.7698 0.7698 0.6383 -30.3769 94.5577)" class="st1" width="13.5" height="0.7"/>
	</g>
	<g>
		<g id="XMLID_74_">
			<g>
				
					<rect x="17.6" y="55" transform="matrix(0.9103 -0.4139 0.4139 0.9103 -27.3115 13.602)" class="st0" width="0.3" height="29.6"/>
			</g>
		</g>
		
			<rect x="17.4" y="54.8" transform="matrix(0.9103 -0.4139 0.4139 0.9103 -27.3116 13.6021)" class="st1" width="0.7" height="30"/>
	</g>
	<g>
		<g id="XMLID_50_">
			<g>
				<path class="st0" d="M87.2,25.6L87,25.8l0,0l0,0h0l0,0l-0.8-0.6l-0.1-0.1L86,25L71.2,13.3c0.1-0.1,0.1-0.1,0.2-0.2l14.9,11.8
					l0.2,0.2L87.2,25.6z"/>
			</g>
		</g>
		<path class="st1" d="M87,26.1L86.9,26l-1-0.8l-15-11.9l0.2-0.2c0.1-0.1,0.1-0.1,0.2-0.2l0.1-0.2l16.2,12.8L87.2,26L87,26.1z"/>
	</g>
	<g>
		<g id="XMLID_73_">
			<g>
				<path class="st0" d="M67.8,11.7c0,0,0,0.1,0,0.1l-0.1,0v0c0,0,0-0.1,0-0.1c0-0.1,0-0.1,0-0.2l0.1,0
					C67.8,11.6,67.8,11.7,67.8,11.7z"/>
			</g>
		</g>
		<path class="st1" d="M68.1,12.1l-0.6,0v-0.2c0,0,0-0.1,0-0.1c0-0.1,0-0.1,0-0.2l0-0.2l0.6,0l0,0.2c0,0,0,0.1,0,0.1
			c0,0,0,0.1,0,0.1L68.1,12.1z"/>
	</g>
	<g>
		<g id="XMLID_71_">
			<g>
				<path class="st0" d="M67.7,11.7c0,0,0,0.1,0,0.1v0l-0.1,0c0,0,0-0.1,0-0.1c0-0.1,0-0.1,0-0.2l0.1,0
					C67.7,11.6,67.7,11.7,67.7,11.7z"/>
			</g>
		</g>
		<path class="st1" d="M67.7,12.1l-0.3,0l0-0.2c0,0,0-0.1,0-0.1c0-0.1,0-0.1,0-0.2l0-0.2l0.6,0l0,0.2c0,0,0,0.1,0,0.1c0,0,0,0,0,0.1
			l0,0v0.2L67.7,12.1z"/>
	</g>
	<g>
		<g id="XMLID_70_">
			<g>
				<path class="st0" d="M43.2,10.7c0,0.1,0,0.2,0,0.2l-0.1,0c0,0,0,0,0,0c0-0.1,0-0.1,0-0.2c0,0,0,0,0-0.1L43.2,10.7
					C43.2,10.7,43.2,10.7,43.2,10.7z"/>
			</g>
		</g>
		<path class="st1" d="M43.4,11.1l-0.5,0l0-0.2c0-0.1,0-0.1,0-0.2c0,0,0,0,0,0l0-0.3l0.6,0l0,0.2c0,0,0,0.1,0,0.1c0,0.1,0,0.2,0,0.3
			L43.4,11.1z"/>
	</g>
	<g>
		<g id="XMLID_49_">
			<g>
				<path class="st0" d="M67.6,11.7c0,0,0,0.1,0,0.1l-24.3-0.9c0-0.1,0-0.2,0-0.2c0,0,0,0,0-0.1l24.3,0.9
					C67.6,11.6,67.6,11.7,67.6,11.7z"/>
			</g>
		</g>
		<path class="st1" d="M67.8,12.1l-24.8-1l0-0.2c0-0.1,0-0.1,0-0.2c0,0,0,0,0,0l0-0.3l24.8,0.9l0,0.2c0,0.1,0,0.1,0,0.2
			c0,0,0,0.1,0,0.1L67.8,12.1z"/>
	</g>
	<g>
		<g id="XMLID_48_">
			<g>
				
					<rect x="75.4" y="58.8" transform="matrix(0.9128 -0.4083 0.4083 0.9128 -22.8618 37.1451)" class="st0" width="0.3" height="26.7"/>
			</g>
		</g>
		
			<rect x="75.2" y="58.6" transform="matrix(0.9128 -0.4083 0.4083 0.9128 -22.8619 37.1454)" class="st1" width="0.7" height="27.1"/>
	</g>
	<g>
		<g id="XMLID_69_">
			<g>
				
					<rect x="56.2" y="50.2" transform="matrix(0.2967 -0.955 0.955 0.2967 -32.9731 107.3207)" class="st0" width="0.3" height="51.6"/>
			</g>
		</g>
		<polygon class="st1" points="81.1,84.1 80.9,84.1 31.4,68.7 31.6,68 81.3,83.4 		"/>
	</g>
	<g>
		<g id="XMLID_67_">
			<g>
				
					<rect x="21.6" y="75.3" transform="matrix(0.7579 -0.6524 0.6524 0.7579 -40.6031 41.5755)" class="st0" width="28.2" height="0.3"/>
			</g>
		</g>
		
			<rect x="21.4" y="75.1" transform="matrix(0.7578 -0.6524 0.6524 0.7578 -40.6053 41.5805)" class="st1" width="28.6" height="0.7"/>
	</g>
	<g>
		<g id="XMLID_66_">
			<g>
				<path class="st0" d="M68.8,13.4l-0.1,0.1c-0.1,0-0.1-0.1-0.2-0.1c0,0,0,0-0.1,0l0.1-0.1C68.6,13.2,68.7,13.3,68.8,13.4z"/>
			</g>
		</g>
		<path class="st1" d="M68.9,13.8l-0.2-0.1c-0.1,0-0.2-0.1-0.2-0.1c0,0-0.1,0-0.1-0.1l-0.1-0.1l0.2-0.6l0.2,0.2
			c0.1,0,0.1,0.1,0.2,0.1l0.2,0.1L68.9,13.8z"/>
	</g>
	<g>
		<g id="XMLID_64_">
			<g>
				<path class="st0" d="M68.7,13.5l-0.1,0.1c-0.1,0-0.2-0.1-0.3-0.2l0.1-0.1c0,0,0,0,0.1,0C68.6,13.4,68.7,13.5,68.7,13.5z"/>
			</g>
		</g>
		<path class="st1" d="M68.8,13.9l-0.2-0.1c-0.1,0-0.2-0.1-0.3-0.2l-0.1-0.1l0.2-0.6l0.2,0.2c0,0,0,0,0,0c0.1,0,0.1,0.1,0.2,0.1
			l0.2,0.1L68.8,13.9z"/>
	</g>
	<g>
		<g id="XMLID_61_">
			<g>
				<path class="st0" d="M68.7,13.6l-2.1,5.5l-0.1,0.3l-1.3,3.4l-0.1,0.3l-2.9,7.6L62,31l-1.2,3.2c-0.1,0-0.2-0.1-0.3-0.1l1.2-3
					l0.1-0.3l3-7.7l0.1-0.3l1.3-3.4l0.1-0.3l2.2-5.6C68.5,13.5,68.6,13.6,68.7,13.6z"/>
			</g>
		</g>
		<path class="st1" d="M60.9,34.5l-0.2-0.1c-0.1,0-0.2-0.1-0.2-0.1l-0.2-0.1l8.1-21.1l0.2,0.2c0.1,0.1,0.1,0.1,0.2,0.1l0.2,0.1
			L60.9,34.5z"/>
	</g>
	<g>
		<g id="XMLID_60_">
			<g>
				<path class="st0" d="M41.1,12.7l0,0.1c-0.1,0-0.2,0-0.3,0l0-0.1c0,0,0.1,0,0.1,0h0C41,12.7,41,12.7,41.1,12.7
					C41.1,12.7,41.1,12.7,41.1,12.7L41.1,12.7z"/>
			</g>
		</g>
		<path class="st1" d="M41.3,13h-0.2c-0.1,0-0.2,0-0.3,0l-0.2,0l0.1-0.6l0.2,0.1c0,0,0,0,0.1,0l0,0c0,0,0.1,0,0.1,0h0.3l0,0.3
			L41.3,13z"/>
	</g>
	<g>
		<g id="XMLID_59_">
			<g>
				<path class="st0" d="M40.8,12.7c0.1,0,0.2,0,0.3,0l-1.1,5.8l-0.1,0.3l-2.4,12.3l-0.1,0.4l-0.6,3.1L36.8,35l-1.2,6.1l-0.1,0.3
					l-0.5,2.3L35,44l-4.2,21.7l0,0.2l0,0.2l-0.1,0.5l-0.3-0.1l0.1-0.7l0-0.2l0-0.2l4.2-21.6l0.1-0.3l0.5-2.5l0.1-0.3l1.1-5.8
					l0.1-0.3l0.6-2.9l0.1-0.4l2.4-12.6l0.1-0.3L40.8,12.7z"/>
			</g>
		</g>
		<path class="st1" d="M30.8,66.9l-0.7-0.1l0.2-1.2l10.3-53.1l0.2,0c0.1,0,0.1,0,0.2,0l0.3,0l-6.1,31.5L31,65.8L30.8,66.9z"/>
	</g>
	<g>
		<g id="XMLID_418_">
			<g>
				<polygon class="st0" points="14.2,40.4 14.1,40.1 30.9,36.1 31,36.4 				"/>
			</g>
		</g>
		<polygon class="st1" points="14,40.6 13.8,39.9 31,35.9 31.3,36.6 		"/>
	</g>
	<path id="XMLID_1_" class="st3" d="M69.5,61c-0.9,0-1.3-0.6-1.4-1.3c-2.6,4.3-7.2,7.7-12.7,7.7c-8.6,0-15.7-7-15.7-15.5
		c0-8.6,7-15.5,15.7-15.5c5,0,9.1,2.6,11.8,6.3c0-0.7,0.5-1.4,1.4-1.4c0.1,0,0.1,0,0.2,0c-0.4-0.5-0.7-0.9-1.1-1.4
		c-3.3-3.6-7.6-5.6-12.2-5.6c-9.8,0-17.7,7.9-17.7,17.6s7.9,17.6,17.7,17.6c6.4,0,11.5-3.7,14.4-8.4C69.6,61,69.6,61,69.5,61z"/>
	<g id="XMLID_504_">
		<g>
			<circle class="st0" cx="57.4" cy="94.6" r="2.1"/>
		</g>
		<g>
			<circle class="st4" cx="57.4" cy="94.6" r="2.1"/>
		</g>
	</g>
	<g id="XMLID_505_">
		<g>
			<circle class="st0" cx="25.1" cy="84.7" r="2.1"/>
		</g>
		<g>
			<circle class="st4" cx="25.1" cy="84.7" r="2.1"/>
		</g>
	</g>
	<g id="XMLID_506_">
		<g>
			<circle class="st0" cx="81.1" cy="84.2" r="2.1"/>
		</g>
		<g>
			<circle class="st4" cx="81.1" cy="84.2" r="2.1"/>
		</g>
	</g>
	<g id="XMLID_507_">
		<g>
			<circle class="st0" cx="89.7" cy="74.4" r="2.1"/>
		</g>
		<g>
			<circle class="st4" cx="89.7" cy="74.4" r="2.1"/>
		</g>
	</g>
	<g id="XMLID_508_">
		<g>
			<circle class="st0" cx="30.9" cy="67.3" r="2.1"/>
		</g>
		<g>
			<circle class="st4" cx="30.9" cy="67.3" r="2.1"/>
		</g>
	</g>
	<g id="XMLID_509_">
		<g>
			<circle class="st0" cx="46.5" cy="66" r="2.1"/>
		</g>
		<g>
			<circle class="st4" cx="46.5" cy="66" r="2.1"/>
		</g>
	</g>
	<g id="XMLID_510_">
		<g>
			<circle class="st0" cx="69.4" cy="59.4" r="2.1"/>
		</g>
		<g>
			<circle class="st4" cx="69.4" cy="59.4" r="2.1"/>
		</g>
	</g>
	<g id="XMLID_511_">
		<g>
			<circle class="st0" cx="11.6" cy="56" r="2.1"/>
		</g>
		<g>
			<circle class="st4" cx="11.6" cy="56" r="2.1"/>
		</g>
	</g>
	<g id="XMLID_512_">
		<g>
			<circle class="st0" cx="40.3" cy="44.8" r="2.1"/>
		</g>
		<g>
			<circle class="st4" cx="40.3" cy="44.8" r="2.1"/>
		</g>
	</g>
	<g id="XMLID_513_">
		<g>
			<circle class="st0" cx="68.7" cy="42.8" r="2.1"/>
		</g>
		<g>
			<circle class="st4" cx="68.7" cy="42.8" r="2.1"/>
		</g>
	</g>
	<g id="XMLID_514_">
		<g>
			<circle class="st0" cx="12.8" cy="39.3" r="2.1"/>
		</g>
		<g>
			<circle class="st4" cx="12.8" cy="39.3" r="2.1"/>
		</g>
	</g>
	<g id="XMLID_515_">
		<g>
			<circle class="st0" cx="59.9" cy="36.2" r="2.1"/>
		</g>
		<g>
			<circle class="st4" cx="59.9" cy="36.2" r="2.1"/>
		</g>
	</g>
	<g id="XMLID_516_">
		<g>
			<circle class="st0" cx="30.9" cy="36.4" r="2.1"/>
		</g>
		<g>
			<circle class="st4" cx="30.9" cy="36.4" r="2.1"/>
		</g>
	</g>
	<g id="XMLID_517_">
		<g>
			<circle class="st0" cx="87.5" cy="26.6" r="2.1"/>
		</g>
		<g>
			<circle class="st4" cx="87.5" cy="26.6" r="2.1"/>
		</g>
	</g>
	<g id="XMLID_518_">
		<g>
			<circle class="st0" cx="28" cy="16.7" r="2.1"/>
		</g>
		<g>
			<circle class="st4" cx="28" cy="16.7" r="2.1"/>
		</g>
	</g>
	<g id="XMLID_519_">
		<g>
			<circle class="st0" cx="69.7" cy="11.7" r="2.1"/>
		</g>
		<g>
			<circle class="st4" cx="69.7" cy="11.7" r="2.1"/>
		</g>
	</g>
	<g id="XMLID_520_">
		<g>
			<circle class="st0" cx="41.1" cy="10.7" r="2.1"/>
		</g>
		<g>
			<circle class="st4" cx="41.1" cy="10.7" r="2.1"/>
		</g>
	</g>
</g>
<g id="XMLID_266_">
	<g>
		<path class="st3" d="M122,24.5c-1.5-1.6-3-2.1-4.3-2c-3,0.1-4.7,2.5-4.7,5.2c0,2.7,1.7,5.1,4.7,5.1c1.3,0,3.1-0.6,4.5-2.4l2.9,2.4
			c-2.2,2.7-4.5,4-7.4,4c-5.9,0-9.1-4.4-9.1-9.2c0-4.7,3.2-9.2,9.1-9.2c2.6,0,4.8,0.9,7,3.5L122,24.5z"/>
		<path class="st3" d="M144.2,27.7c0,5.6-4.2,9.2-9.2,9.2c-5,0-9.2-3.6-9.2-9.2c0-5.6,4.2-9.2,9.2-9.2
			C140,18.5,144.2,22.2,144.2,27.7z M135,32.8c2.3,0,4.6-1.3,4.6-5.1c0-3.7-2.4-5.1-4.6-5.1c-2.4,0-4.6,1.7-4.6,5.1
			C130.4,31.1,132.7,32.8,135,32.8z"/>
		<path class="st3" d="M150.1,23.1l0.8,3.9v9.6h-4.5V18.8h6l4.7,9.7l1.6,4.2l0.2-0.1l-0.7-4.4v-9.5h4.5v17.8h-6.4l-4.6-9.7l-1.4-3.8
			L150.1,23.1z"/>
		<path class="st3" d="M169.7,23.1l0.8,3.9v9.6h-4.5V18.8h6l4.7,9.7l1.6,4.2l0.2-0.1l-0.7-4.4v-9.5h4.5v17.8h-6.4l-4.6-9.7l-1.4-3.8
			L169.7,23.1z"/>
		<path class="st3" d="M195.9,22.6h-6.5v2.8h6.3v3.8h-6.3v3.5h6.5v3.8H185V18.8h10.9V22.6z"/>
		<path class="st3" d="M211.1,24.5c-1.5-1.6-3-2.1-4.3-2c-3,0.1-4.7,2.5-4.7,5.2c0,2.7,1.7,5.1,4.7,5.1c1.3,0,3.1-0.6,4.5-2.4
			l2.9,2.4c-2.2,2.7-4.5,4-7.4,4c-5.9,0-9.1-4.4-9.1-9.2c0-4.7,3.2-9.2,9.1-9.2c2.6,0,4.8,0.9,7,3.5L211.1,24.5z"/>
		<path class="st3" d="M227.7,18.8v3.9h-4.1v13.8H219V22.7h-4.1v-3.9H227.7z"/>
		<path class="st0" d="M122,47.7c-1.5-1.6-3-2.1-4.3-2c-3,0.1-4.7,2.5-4.7,5.2c0,2.7,1.7,5.1,4.7,5.1c1.3,0,3.1-0.6,4.5-2.4l2.9,2.4
			c-2.2,2.7-4.5,4-7.4,4c-5.9,0-9.1-4.4-9.1-9.2c0-4.7,3.2-9.2,9.1-9.2c2.6,0,4.8,0.9,7,3.5L122,47.7z"/>
		<path class="st0" d="M144.2,50.9c0,5.6-4.2,9.2-9.2,9.2c-5,0-9.2-3.6-9.2-9.2c0-5.6,4.2-9.2,9.2-9.2
			C140,41.7,144.2,45.4,144.2,50.9z M135,56c2.3,0,4.6-1.3,4.6-5.1c0-3.7-2.4-5.1-4.6-5.1c-2.4,0-4.6,1.7-4.6,5.1
			C130.4,54.3,132.7,56,135,56z"/>
		<path class="st0" d="M150.1,46.3l0.8,3.9v9.6h-4.5V42h6l4.7,9.7l1.6,4.2l0.2-0.1l-0.7-4.4V42h4.5v17.8h-6.4l-4.6-9.7l-1.4-3.8
			L150.1,46.3z"/>
		<path class="st0" d="M167.6,54.1c1.3,1.8,2.6,1.9,3.4,1.9c1,0,1.7-0.6,1.8-1.5c0.1-1.3-1.2-1.8-2.3-2.1h0
			c-1.9-0.5-5.4-1.7-5.4-5.5c0.1-3.7,3.1-5.2,6-5.2c2.1,0,4.3,1,5.6,3.4l-2.9,1.8c-0.7-0.9-1.5-1.3-2.5-1.3c-0.9,0-1.7,0.4-1.7,1.3
			c-0.1,1,1.2,1.4,2.1,1.6c2.8,0.7,5.8,2.1,5.6,6.2c-0.2,3.6-3.4,5.2-6.3,5.2c-1.9,0-4.6-0.8-6.3-3.8L167.6,54.1z"/>
		<path class="st0" d="M190.7,42v3.9h-4.1v13.8h-4.5V45.9H178V42H190.7z"/>
		<path class="st0" d="M205.9,59.7h-5.1l-3.5-6.2h-0.6v6.2h-4.5V42h6.2c2.6,0,4.7,0.8,5.8,2.6c0.6,1,0.8,2.1,0.8,3.2
			c-0.1,2.1-1.2,4.1-3.5,4.9L205.9,59.7z M198.4,49.8c1.4,0,2.2-1,2.1-2c0-0.9-0.7-1.9-2.1-1.9h-1.8v3.9H198.4z"/>
		<path class="st0" d="M212,42v12c0,1.4,1.1,2.1,2.3,2.1c1.1,0,2.2-0.7,2.2-2.1V42h4.5v12c0,4-3.4,6-6.8,6s-6.8-2-6.8-6V42H212z"/>
		<path class="st0" d="M236.7,47.7c-1.5-1.6-3-2.1-4.3-2c-3,0.1-4.7,2.5-4.7,5.2c0,2.7,1.7,5.1,4.7,5.1c1.3,0,3.1-0.6,4.5-2.4
			l2.9,2.4c-2.2,2.7-4.5,4-7.4,4c-5.9,0-9.1-4.4-9.1-9.2c0-4.7,3.2-9.2,9.1-9.2c2.6,0,4.8,0.9,7,3.5L236.7,47.7z"/>
		<path class="st0" d="M253.4,42v3.9h-4.1v13.8h-4.5V45.9h-4.1V42H253.4z"/>
		<path class="st3" d="M122,70.9c-1.5-1.6-3-2.1-4.3-2c-3,0.1-4.7,2.5-4.7,5.2c0,2.7,1.7,5.1,4.7,5.1c1.3,0,3.1-0.6,4.5-2.4l2.9,2.4
			c-2.2,2.7-4.5,4-7.4,4c-5.9,0-9.1-4.4-9.1-9.2c0-4.7,3.2-9.2,9.1-9.2c2.6,0,4.8,0.9,7,3.5L122,70.9z"/>
		<path class="st3" d="M140.7,82.9h-5.1l-3.5-6.2h-0.6v6.2h-4.5V65.2h6.2c2.6,0,4.7,0.8,5.8,2.6c0.6,1,0.8,2.1,0.8,3.2
			c-0.1,2.1-1.2,4.1-3.5,4.9L140.7,82.9z M133.2,73c1.4,0,2.2-1,2.1-2c0-0.9-0.7-1.9-2.1-1.9h-1.8V73H133.2z"/>
		<path class="st3" d="M142,65.1h4.5v17.8H142V65.1z"/>
		<path class="st3" d="M163,65.1h6v17.8h-4.4v-7.5l0.7-4.9l-0.2-0.1l-1.8,4.8l-2.2,5h-3.7l-2.2-5l-1.8-4.8l-0.2,0.1l0.7,4.9v7.5
			h-4.4V65.1h6.1l3.7,10L163,65.1z"/>
		<path class="st3" d="M182.5,69H176v2.8h6.3v3.8H176v3.5h6.5v3.8h-10.9V65.2h10.9V69z"/>
		<path class="st3" d="M195.1,78.6h-5.6l-1.3,4.3h-4.8l6.1-17.9h5.9l6.1,17.9h-4.8L195.1,78.6z M192.2,68.3l-0.5,2.5l-1.1,3.8h3.3
			l-1.1-3.8l-0.5-2.5H192.2z"/>
	</g>
</g>
</svg>
