<?xml version="1.0" encoding="UTF-8" standalone="no"?>
<!-- Generator: Adobe Illustrator 16.0.2, SVG Export Plug-In . SVG Version: 6.00 Build 0)  -->
<!DOCTYPE svg  PUBLIC '-//W3C//DTD SVG 1.1//EN'  'http://www.w3.org/Graphics/SVG/1.1/DTD/svg11.dtd'>
<svg id="Layer_1" xmlns="http://www.w3.org/2000/svg" xml:space="preserve" height="403.07px" viewBox="0 0 385.822 403.069" width="385.82px" version="1.1" y="0px" x="0px" xmlns:xlink="http://www.w3.org/1999/xlink" enable-background="new 0 0 385.822 403.069">
<g clip-rule="evenodd" fill-rule="evenodd">
	<path fill="#9C7D23" d="m333.25 370.31l0.057 0.019c0.013 0.671 0.466 1.211 1.015 1.208 0.062-0.001 0.123-0.008 0.183-0.023-0.146 0.781-0.085 1.587 0.179 2.237 1.21 2.924 3.438 3.791 3.914 4.897 0.112 0.259 0.236-0.617 0.43-0.407 2.249 2.47 6.087 4.218 9.591 2.507 2.349-1.462 1.934-4.767 0.331-6.637-1.904-2.221-4.894-3.569-6.381-4.293 0.128-0.229 0.545-0.712 0.374-0.771-1.369 0.271-4.965-1.08-6.781-0.068-0.37 0.208-0.681 0.493-0.933 0.828-0.157-0.435-0.516-0.736-0.926-0.733-0.024 0-0.047 0-0.07 0.002-0.26 0.37-0.58 0.78-0.97 1.22m27.1-43.61c-6.681-1.578-7.831 4.144-11.345 4.262-1.866 0.063-0.899-1.927-2.837-2.683 0.257-0.121 0.459-0.317 0.563-0.578 0.028-0.07 0.049-0.144 0.061-0.217 0.818 0.525 1.763 0.831 2.623 0.832 3.879-0.021 5.894-2.149 7.371-2.178 0.345-0.007-0.594-0.556-0.266-0.676 3.845-1.411 7.604-4.959 7.284-9.729-0.573-3.345-4.516-4.4-7.38-3.446-3.402 1.134-6.317 3.904-7.827 5.257-0.201-0.252-0.557-0.948-0.702-0.781-0.326 1.68-3.523 5.136-3.215 7.667 0.063 0.516 0.244 1 0.508 1.44-0.566-0.021-1.076 0.245-1.263 0.713-0.093 0.232-0.093 0.483-0.018 0.723l-0.515 0.729c-2.527 0.374-3.128 4.297-5.488 4.683-0.399 0.02-1.532-0.414-1.863-1.566-0.004 0.003-0.008 0.007-0.012 0.01-0.967-2.28-3.163-9.848-8.437-17.453-2.044-2.947-4.317-6.025-6.594-9.109 0.229 3.989-5.269-0.069-8.006 5.077-1.148 2.16 0.1 4.672-1.286 6.585-1.101 1.519-3.206-1.082-4.593 2.352-2.257 5.59-5.558 10.931-7.766 16.061-2.452 5.697-0.61 11.354-3.046 15.309 10.122 5.037 17.204 15.597 38.951 15.699 0.993-0.661 1.546-1.227 2.169-0.928 2.156-0.217 5.004 2.189 6.981 3.109 1.977 0.919 3.625-1.26 5.591-1.863 3.501-1.072 7.336 6.404 12.248 4.071 2.313-1.096 1.24-1.86 2.745-2.747 2.11-0.823 7.047 4.805 10.271 2.723 2.763-1.784 1.215-3.486 2.349-4.359 1.547 0.081 4.219 0.562 6.066-0.573 1.385-0.852 1.861-1.635 2.031-2.588 0.893-5.035-3.734-4.843-3.833-6.603-0.099-1.739 3.901-1.499 1.416-6.361-2.337-3.176-4.946-0.571-6.84-1.833-0.911-0.209 2.084-2.16-1.262-4.175-1.565-0.942-6.094-1.182-6.962-1.188-0.86-1.149-1.127-1.836-1.954-2.661 0.446-1.595 4.467-2.614 5.563-4.504 0.843-1.452 0.769-3.802-0.129-4.794-2.946-2.546-5.594-1.685-8.957-0.105-1.68-0.53 0.21-2.84-2.38-3.6zm-46.9 66.86c-3.271-1.698-4.269-0.136-4.147-6.482 0.054-2.846-4.996-1.618-8.21-3.042-4.38-2.576 1.975-3.959-2.826-6.996-0.56-0.355-6.927-1.217-10.158-1.807-1.358-0.247-0.301-2.399-0.512-4.127-0.086-0.055-0.172-0.109-0.258-0.165 0.071-0.048 0.14-0.097 0.204-0.145-0.264-1.165-1.257-2.053-4.233-1.869-1.055 0.065-5.109 1.369-7.138 0.277-0.415-3.558-1.614-3.238-2.583-3.494-2.987-0.79-5.051 1.637-7.015 1.289-3.469-1.958-0.487-1.477-3.874-3.275-3.105-0.443-7.953 1.807-11.135 1.608 2.572 2.9 5.034 6.154 7.29 9.67 5.847 9.112 10.157 17.14 16.796 18.411 0.476-0.004 1.044 0.048 1.806 0.245 2.416 0.625 0.488 5.428 4.412 5.8 3.982 0.775 2.752-2.559 4.479-1.946 1.957 0.693 2.68 4.74 5.738 4.688 2.66 0.186 1.894-2.54 3.562-2.26 1.891 0.316 2.829 3.629 6.311 3.067 3.038 0.028 2.834-3.769 4.54-4.704 4.99 2.39 12.55-0.38 6.95-4.77zm-65.28-31.79l0.1-0.114c0.768 0.296 1.591 0.032 1.84-0.593 0.028-0.07 0.049-0.144 0.061-0.217 0.818 0.525 1.763 0.831 2.622 0.831 3.88-0.019 5.895-2.148 7.372-2.178 0.345-0.007-0.594-0.555-0.266-0.675 3.845-1.411 7.604-4.959 7.284-9.729-0.573-3.345-4.516-4.401-7.38-3.446-3.402 1.134-6.318 3.904-7.827 5.257-0.201-0.252-0.557-0.948-0.702-0.781-0.326 1.68-3.524 5.136-3.215 7.667 0.063 0.516 0.244 1 0.508 1.44-0.566-0.021-1.076 0.245-1.263 0.713-0.093 0.232-0.093 0.482-0.018 0.723l-0.11 0.155c0.35 0.31 0.68 0.63 1.01 0.95zm105.33-92.87c-1.929-0.715-3.816-1.324-5.204-0.732-2.304 0.983-2.765 3.739-3.02 3.367-1.064-1.563-0.442-3.424 0.484-4.277 1.505-1.387 4.979-1.764 5.835-2.677 2.051-2.188-0.177-3.208 0.16-4.385 0.621-2.168 7.637-4.619 8.638-6.039 0.73-1.037 1.204-2.232 0.037-3.686-1.188-1.478 0.358-2.931 2.415-4.393 5.983-6.168 1.317-7.89-0.56-8.28-0.605-0.127 4.502-4.283 5.186-7.645 0.531-2.614-3.375-4.578-3.369-4.883 8.614-10.906-3.073-12.891-6.943-6.771-0.931 1.38-3.121-2.853-5.428-2.036-0.952 0.338-3.251 2.046-3.796 2.531l1.669-3.189c1.604 0.394 3.131-0.059 4.756-1.061 3.598-1.453 4.681-4.177 6.043-4.75 0.318-0.134-0.757-0.296-0.496-0.529 3.05-2.733 5.23-7.421 3.167-11.733-1.769-2.896-5.822-2.418-8.131-0.472-2.741 2.312-4.425 5.965-5.326 7.78-0.104-0.059-0.247-0.167-0.393-0.268-0.229 0.479-0.471 0.937-0.717 1.372-0.536 2.181-1.93 5.469-0.984 7.196 0.249 0.456 0.506 1.112 0.914 1.424-0.534 0.19-1.547 0.626-1.547 1.13 0 0.25 0.093 0.482 0.251 0.678l-2.177 6.672c-1.159-0.373-3.544-1.799-4.851 0.241-1.341 2.095-1.168 8.997-2.785 7.937-0.988-0.648-2.148-1.677-4.085-0.756l-0.006 0.003c-0.008 0.004-0.015 0.007-0.021 0.011-0.023 0.012-0.047 0.022-0.07 0.035 0.245-1.282 0.617-3.159-0.02-3.946-0.636-0.788-2.882-0.144-3.151-1.526-0.395-2.021 1.785-6.212 1.676-8.18-0.109-1.969-2.561-1.476-3.145-1.724-0.036-0.015-0.07-0.032-0.104-0.049-0.015-0.008-0.028-0.015-0.043-0.022-0.022-0.012-0.044-0.023-0.064-0.036-0.017-0.009-0.032-0.019-0.048-0.027-0.018-0.012-0.034-0.022-0.052-0.034-0.012-0.008-0.023-0.016-0.035-0.023-0.021-0.016-0.042-0.03-0.062-0.046-0.018-0.014-0.036-0.027-0.053-0.042-0.024-0.021-0.048-0.041-0.07-0.062-0.026-0.025-0.053-0.05-0.077-0.076-0.006-0.006-0.011-0.012-0.017-0.018-0.022-0.024-0.044-0.049-0.064-0.074-0.004-0.005-0.01-0.011-0.015-0.017-0.019-0.023-0.037-0.048-0.056-0.072-0.004-0.007-0.01-0.012-0.014-0.019-0.023-0.032-0.045-0.065-0.066-0.1-0.152-0.241-0.259-0.522-0.334-0.834 0-0.002-0.001-0.005-0.001-0.008-0.083-0.351-0.123-0.74-0.139-1.153-0.001-0.012-0.001-0.023-0.002-0.036-0.049-1.452 0.208-3.199 0.063-4.651h0.001c-0.066-0.664-0.218-1.266-0.521-1.749-1.204-1.922-5.048 1.337-5.396-0.56-0.298-5.608-3.619-9.415-5.249-5.952-0.648 1.787-1.164 0.153-1.764-0.722-3.053-3.427-2.772-4.085-7.064-4.591-1.755 1.05-1.538 5.414 0.926 9.496 0.705 1.667 0.223 1.764-0.748 2.402-5.563 3.664 4.038 10.795 0.279 12.517-5.209 3.569 3.463 7.959 2.279 10.685-2.673 0.831-3.975 2.921-2.726 4.448 1.681 2.057 5.616 4.502 5.271 6.273 0.015 2.719-3.835 5.457 0.128 8.148 0.747 0.506 1.55 1.1 1.563 1.975 0.01 0 0.02 0 0.03 0.001-0.572 2.481 3.621 13.983 13.735 26.679 11.603 14.562 21.47 32.049 20.987 37.257 0 0.036-0.001 0.072-0.003 0.108 0 0.001-0.001 0.003-0.001 0.005 0 0.012-0.002 0.022-0.003 0.034 0.776-0.522 2.783-1.343 3.718-2.543 0.885-1.138 0.469-3.063-0.22-4.438-1.386-2.772 9.124 1.644 9.641-7.695 0.017-0.995-1.635-2.89 0.583-4.287 4.609-1.376 7.872-5.086 6.27-8.257-0.381-0.755-2.936-1.273-2.18-3.158 5.389-3.34 6.558-9.228 2.986-10.297-4.101-1.228 0.503-3.588 1.19-6.604 0.44-1.934-0.153-3.784-0.862-4.742-1.208-1.633-4.808-1.328-7.954 3.159-1.732 0.377-1.162-2.361-2.86-2.903-4.14-1.33-4.52 6.25-5.83 6.25zm19.18-139.2c-2.137 0.681-2.822 1.588-5.404 3.134-2.354 0.605-0.81-2.062-3.74-2.301-3.794-0.309-5.598 3.674-7.062 6.6-1.306 1.926-0.599-2.531-5.15-2.076-3.036 0.304-5.094 4.731-6.751 8.271-0.905 0.491-1.376-0.727-2.597-1.352l1.362-3.91c0.823-0.009 1.49-0.558 1.49-1.23 0-0.076-0.008-0.151-0.024-0.224 0.956 0.186 1.945 0.12 2.745-0.198 3.597-1.453 4.68-4.176 6.042-4.75 0.318-0.134-0.757-0.295-0.496-0.529 3.05-2.733 5.23-7.42 3.168-11.732-1.77-2.896-5.823-2.418-8.131-0.472-2.741 2.312-4.425 5.965-5.327 7.78-0.28-0.16-0.868-0.675-0.941-0.466 0.318 1.682-1.374 6.076-0.15 8.313 0.249 0.456 0.597 0.839 1.005 1.15-0.534 0.19-0.909 0.625-0.909 1.129 0 0.25 0.093 0.483 0.251 0.678l-1.004 4.162c-0.751-0.121-1.724-0.001-3.038 0.594-3.073 3.55-2.4 4.16-3.861 9.022-1.108 2.112-1.091-1.11-4.658 1.598-0.629 1.569-1.407 3.82-1.953 5.297 4.246 5.927 13.201 16.932 18.67 26.623 0.053 0.009 0.104 0.02 0.158 0.027 1.052 0.145 3.695 0.105 4.58-0.872 1.137-1.257 0.407-3.545 0.636-3.476 1.704 0.512 6.338-0.885 7.641-2.867 1.304-1.983-0.642-4.793 0.803-4.709 4.8-0.896 6.795-0.972 9.068-4.243 1.246-4.244-3.806-3.02-0.677-5.312 2.775-2.034 4.736-1.895 7.344-6.056 0.933-5.847-5.503-4.32-1.076-7.157 2.168-2.024 7.201-7.296 1.826-9.021-3.232-1.022 1.897-4.89 1.088-8.949-0.77-1.94-1.79-2.96-4.93-2.46zm-21.61-21.68c-0.389-1.34 1.104-2.224 1.725-2.562 8.854-4.846 4.303-6.877 3.048-8.936-1.009-1.655 3.089-2.389 4.09-3.809 0.731-1.038 1.635-3.091 0.467-4.544-1.188-1.478-3.845-0.1-2.475-1.819 3.066-6.253 1.833-9.604-0.045-9.996-1.077-0.225-2.229 0.608-2.216-0.088 1.271-13.314-7.31-8.683-8.945-3.128-0.93 1.379-1.87-1.177-4.025-0.017-0.957 0.514-1.305 3.887-2.028 3.887-4.36-2.646 4.324-14.036-4.537-12.897-2.723 0.349 2.92-10.665-4.907-10.729-2.112-0.018-3.799 2.507-4.597 0.328-0.298-5.607-5.506-9.672-7.308-4.494-0.648 1.787-1.765 1.697-2.364 0.822-3.053-3.427-4.38-5.626-9.015-4.502-1.755 1.049-2.679 3.621-0.215 7.704 0.705 1.667-1.405 1.763-2.377 2.402-5.563 3.664 6.155 6.397 2.396 8.118-5.208 3.569 5.906 7.145 4.723 9.87-1.986 2.29-1.849 4.189-0.599 5.717 1.681 2.057 8.051 3.885 7.705 5.656-0.93 4.759 5.202 7.316 5.412 11.864-1.806 1.822-1.504 0.885-3.409 4.109-0.958 1.665-1.97-2.2-4.769-0.332-1.678 1.12-2.268 6.027-2.907 7.038-0.659 1.04-4.171 0.355-4.848 3.496-0.604 2.8 1.628 8.046 0.944 9.278-1.164 2.1-2.949-0.271-3.819 5.048-0.614 3.762 3.473 5.87 2.459 7.779-0.766 1.44-2.656 2.991-2.119 5.876 0.782 4.198 3.629 9.739 4.797 13.329 4.247-7.373 11.051-13.879 18.21-17.639 0.154-0.213 0.236-0.41 0.235-0.599-0.008-1.479 4.042-3.755 7.693-6.404-0.004-0.013-0.008-0.025-0.012-0.038 1.069-0.807 1.369-1.151 1.843-1.389 0.004 0.006 0.007 0.011 0.011 0.017 2.649-2.167 4.579-4.517 3.643-6.846-1.025-2.547 4.086-4.374 6.809-6.201 2.83-1.91 1.3-5.22 1.33-5.39z"/>
	<path fill="#9C7D23" d="m171.8 363.73c1.535 0.629 2.609 1.373 3.568 2.577 1.022 1.269 1.937 2.681 3.071 2.963 0.342-0.033 0.645-0.06 0.916-0.083 1.398-0.178 4.122 0.222 5.232 1.023 2.273 1.643 3.28 4.206 4.92 6.31 0.097 0.141 0.195 0.278 0.292 0.415-0.013-0.079-0.027-0.155-0.041-0.234 0.017 0.013 0.035 0.025 0.052 0.038 0.194 0.575 3.104 2.762 3.398 3.332 0.883 1.712-0.584 1.794 0 3.521-6.519 2.116-12.313 9.302-18.198 16.085-1.314-0.721-2.859-1.557-2.561-4.235 4.615-4.986 10.613-9.339 16.784-13.23-3.991 0.825-8.271 0.672-12.607 4.09-1.006 0.666-3.455 0.694-4.16 0.136-0.908-0.72-0.007-2.36-1.2-2.223-2.122 0.244-4.303 4.253-7.261 3.845-1.016 0.039-2.024-2.543-3.367-2.398-2.564 0.275-1.73 4.507-6.542 1.935-3.56-3.512-3.289-2.647-7.017-0.163-5.735-0.016-1.197-2.86-2.071-4.23-0.875-1.371-2.375-0.769-3.434-0.373-1.602 0.599-5.563 0.945-6.509-0.982-0.544-1.423 1.081-3.729 1.934-3.942 3.069-0.613 5.529-0.831 2.441-3.509-2.084-1.808 2.871-4.249 7.079-3.146 4.896-0.556-2.381-5.681 3.069-6.481 0.634-0.093 4.987 2.387 8.117 1.809 2.386-0.441-0.117-7.26 6.839-3.894 0.921 0.446 2.491 2.929 4.419 2.762 1.08-1.82 2.04-1.97 2.84-1.73"/>
	<path fill="#9C7D23" d="m213.97 363.84c-1.536 0.63-2.612 1.374-3.571 2.58-1.023 1.269-1.938 2.682-3.074 2.965-0.342-0.033-0.645-0.06-0.917-0.083-1.399-0.178-4.125 0.222-5.236 1.024-2.276 1.644-3.284 4.21-4.926 6.315-0.097 0.14-0.195 0.278-0.292 0.415 0.014-0.079 0.027-0.155 0.041-0.233-0.018 0.013-0.035 0.024-0.053 0.037-0.194 0.576-3.107 2.765-3.401 3.335-0.884 1.714 0.585 1.796 0 3.524 6.524 2.119 12.324 9.312 18.214 16.101 1.316-0.722 2.862-1.559 2.563-4.24-4.619-4.99-10.623-9.347-16.8-13.242 3.995 0.826 8.278 0.673 12.619 4.094 1.007 0.667 3.458 0.695 4.164 0.136 0.908-0.72 0.007-2.362 1.201-2.225 2.124 0.244 4.307 4.257 7.268 3.849 1.017 0.039 2.026-2.546 3.37-2.401 2.566 0.276 1.731 4.512 6.548 1.937 3.563-3.515 3.292-2.65 7.023-0.163 5.739-0.016 1.197-2.862 2.072-4.234s2.378-0.77 3.438-0.373c1.604 0.599 5.567 0.946 6.515-0.983 0.545-1.425-1.082-3.731-1.936-3.945-3.071-0.614-5.533-0.832-2.443-3.513 2.086-1.81-2.873-4.253-7.085-3.149-4.9-0.557 2.384-5.687-3.071-6.487-0.635-0.093-4.991 2.39-8.125 1.811-2.389-0.441 0.117-7.267-6.845-3.897-0.922 0.446-2.493 2.931-4.424 2.764-1.07-1.81-2.04-1.96-2.83-1.72"/>
	<path fill="#ACD4F2" d="m89.593 117.59h206.67v193.97l-0.002 0.002c0 0.054 0.002 0.106 0.002 0.159 0 14.113-11.448 25.35-25.532 25.476l-0.003 0.003h-51.33v0.013c-0.249-0.008-0.499-0.013-0.75-0.013-4.767 0-24.078 2.023-25.72 14.652-1.641-12.629-21.967-14.655-25.38-14.652-0.201 0-0.401 0.003-0.601 0.008v-0.008h-52.227l-0.008-0.008c-13.894-0.346-25.118-11.496-25.118-25.471 0-0.054 0.001-0.105 0.002-0.159l-0.002-0.002v-193.97z"/>
	<path fill="#F3D400" d="m307.54 48.029c0 2.242 1.193 3.309 1.882 6.239-0.246 2.012-4.729 1.593-4.192 3.716 0.467 1.845 3.323 1.706 4.99 4.921-0.362 1.996-3.463 2.175-2.019 3.766 2.037 2.245 4.226 2.81 6.039 5.88-0.049 2.685-2.895 3.347-1.46 5.285 1.967 2.656 8.324 4.758 8.935 6.992-0.05 0.606-0.147 1.277-0.591 2.222 0.107 1.958 4.67 5.228 5.035 9.109 0.813-0.231 1.349-0.175 3.559-0.774 0.197-2.344 0.037-4.84-0.364-7.443-0.037-0.24-5.774-2.722-5.814-2.964-0.041-0.242 5.612 1.683 5.567 1.439-0.447-2.434-1.085-4.884-1.815-7.45-0.086-0.302-9.805-3.66-9.894-3.964 4.252-0.847 9.451 2.442 9.36 2.137-0.647-2.174-1.349-4.376-2.047-6.585-1.228-0.001-9.797-3.527-13.093-6.099 8.087-0.024 11.828 3.547 11.631 3.187-3.687-6.738-9.125-13.122-12.553-19.892-1.36-1.688-2.71-0.698-3.17 0.278m42.79 20.917c-1.71 1.452-1.007 3.466-2.795 5.887-1.692 1.115-3.035-1.994-4.306-0.211-1.104 1.549-0.39 1.652-1.761 5.004-1.756 1.015-4.614 0.088-5.253 2.139-1.219 3.915 1.255 3.882 0.089 7.251-2.078 1.7-4.839 2.026-5.388 4.375-0.199 0.855-0.097 1.708-0.107 2.792 1.46 3.162 0.177 6.654-0.845 8.543 0.633 2.996 4.767-0.867 5.153 2.868 0.345 3.511-1.707 2.983-2.071 6.416-0.003 1.837 2.072 0.733 2.659 3.526 0.021 3.873-7.02 7.507-1.581 10.213 1.914-1.367 3.382-13.441 5.107-15.431 0.159-0.184-5.136-13.275-4.978-13.462s4.996 4.21 5.732 10.716c1.565-1.917 2.12-6.423 3.429-9.017-1.314-0.839-5.789-10.257-5.615-10.521 3.397 2.693 6.075 9.281 6.249 9.015 1.238-1.9 1.802-6.672 3.033-8.634-0.793-0.936-4.563-4.873-4.734-9.049 4.343 3.669 4.951 6.516 5.099 6.133 2.75-7.171 2.525-10.736 5.467-17.731 0.41-2.126-1.56-1.113-2.59-0.827zm-23.57 28.509c-1.709 1.451-2.418 2.318-4.206 4.739-2.399 1.998-4.358-1.375-5.542 0.142-1.169 1.5-1.008 2.888-1.231 6.152-1.756 1.898-4.832 1.201-5.341 3.287-0.954 3.914 2.666 5.647 1.501 9.017-2.167 2.495-3.161 1.673-4.151 3.404-0.783 4.865 1.735 4.034 2.26 9.084-0.362 2.451-2.149 1.217-2.514 4.65 1.404 4.777 3.054 8.385 4.785 12.768 0.943-2.337 2.94-9.47 3.166-12.606 0.017-0.241-6.106-11.422-5.948-11.608s5.613 2.885 6.35 9.391c1.565-1.917 0.62-5.628 1.929-8.222-1.313-0.839-4.907-9.727-4.732-9.991 3.396 2.692 5.104 7.956 5.277 7.69 1.238-1.899 1.008-5.26 2.239-7.222-0.793-0.937-3.063-4.078-3.234-8.255 4.344 3.668 4.246 5.632 4.393 5.25 2.751-7.17 3.761-9.323 6.703-16.318 0.41-2.107-0.67-1.624-1.71-1.337zm45.29 33.965c-2.136 0.681-1.787 2.467-4.369 4.013-2.354 0.605-1.844-3.259-4.775-3.498-3.796-0.31-4.323 4.952-5.787 7.877-3.295 2.884-2.089-5.88-6.981-3.114-2.551 1.441-2.468 5.609-4.841 8.27-2.96 1.468-2.774-3.921-6.794-0.739-2.595 4.188-1.524 3.841-2.986 8.703-2.143 2.831-3.238-1.749-4.896 1.279-0.65 1.624-1.143 3.977-1.691 5.448 0.592 0.956 1.201 1.903 1.813 2.826 2.165 2.873 4.74 6.258 7.313 9.831 0.158-0.216 0.438-0.619 0.942-1.364 0.135-0.2-2.968-13.602-2.75-13.712 0.217-0.11 2.811 1.442 4.053 12.607 2.183-1.166 4.628-5.113 6.834-7.003-0.417-1.752-2.593-14.406-2.329-14.583 2.492 3.793 3.693 13.319 3.955 13.142 1.874-1.275 4.843-4.781 6.735-6.511-0.371-1.169-1.885-8.404-1.616-12.482 2.597 5.059 2.828 10.663 3.134 10.392 6.087-5.4 12.804-15.18 18.213-20.502-0.75-1.97-2.09-1.47-3.15-0.9zm-5.4 132.02c-1.496 0.64-2.16 2.054-3.918 3.35-1.658 0.601-2.45-3.192-4.583-3.161-2.763 0.04-1.366 4.396-3.559 6.537-1.808 1.791-2.957-2.838-6.299-0.501-1.741 1.218-0.872 4.37-2.401 6.457-2.854 2.604-3.837-0.261-6.519 2.316-1.387 2.806 0.373 5.5-2.945 8.166 2.857 3.756 6.808 9.627 7.991 11.076 0.03 0.008 0.349-1.477 1.03-2.728 0.083-0.153-3.013-11.401-2.715-11.793 0.107-0.141 2.056 3.002 3.728 10.979 1.495-0.994 2.394-4.015 3.855-5.532-0.423-1.236-1.534-11.563-1.208-11.634 2.063 2.566 2.031 10.478 2.207 10.331 1.266-1.051 3.761-5.275 5.008-6.655-0.35-0.819 0.434-6.162 0.345-9.126 2.226 3.473 0.702 7.652 0.903 7.436 4.021-4.321 7.896-10.885 11.433-15.104-0.67-1.4-1.61-0.94-2.34-0.45zm-5.01-46.45c-1.392 0.472-2.001 1.369-3.562 2.897-2.747 1.494-4.061-2.672-6.168-2.344-2.729 0.424-2.45 4.989-4.918 7.488-2.433 2.025-2.951-3.66-5.936-0.883-0.472 0.438-0.182 5.786-1.938 8.017-1.123 1.428-4.903-2.116-6.432 0.892-0.745 1.469-1.521 3.771-1.436 5.709 0.046 1.024 0.377 3.356-1.012 5.105-3.468-0.212-4.183 1.973-4.593 2.854-1.266 2.718 1.219 6.269 0.552 8.084-2.464 2.976-1.978-0.095-4.274 2.83-0.982 2.972 1.506 6.436-0.294 9.314 3.353 3.321 5.479 7.545 6.854 8.814 0.03 0.004 2.22-6.192 2.721-7.525 0.062-0.164-3.232-11.467-2.991-11.896 0.086-0.153 1.189 1.199 3.955 8.866 0.588-0.521 2.297-4.883 4.641-9.015 0.211-0.373-4.051-15.185-3.852-15.502 0.199-0.316 4.86 13.86 5.082 13.493 2.706-4.503 5.646-8.808 6.244-9.633-0.591-1.166-2.979-12.352-2.666-12.468 2.399 2.255 3.321 11.207 3.475 11.038 1.107-1.216 5.071-6.268 6.113-7.808-0.46-0.763-0.428-6.162-0.928-9.085 2.688 3.129 1.76 7.479 1.93 7.237 3.379-4.839 10.168-11.357 13.083-16.028-0.85-1.25-2.97-1.04-3.63-0.46zm6.06 113.79c-1.423-0.367-2.569 0.484-4.711 0.91-3.117-0.251-1.506-3.158-3.449-4.036-2.517-1.137-5.791 2.981-8.935 4.302-4.731 1.376-2.634-2.514-6.65-1.82-0.635 0.109-2.74 1.57-5.285 3.487-1.45 1.094-3.236-3.73-6.16-2.049-1.427 0.821-1.461 0.305-2.448 1.974-0.521 0.884-2.386 3.738-4.506 4.443-2.786-2.074-3.858-1.212-4.684-0.699-2.546 1.583-2.84 7.07-4.393 8.225-3.688 1.145-3.335-0.439-6.857 0.754-2.363 1.883-3.211 6.591-5.39 8.717 2.681 1.881 5.493 3.849 8.804 5.578 0.504-0.237 0.998-0.474 1.456-0.697 1.084-0.529 1.966-0.989 2.298-1.232 0.141-0.104-1.342-10.069-0.906-10.297 0.155-0.081 2.216 3.965 1.927 9.442 0.776-0.115 5.315-4.275 9.536-6.453 0.38-0.196 0.294-11.609 0.634-11.766 0.341-0.156 0.099 10.8 0.484 10.612 4.728-2.289 5.359-2.555 6.311-2.918 0.144-1.3 5.126-12.837 5.452-12.763 0.776 3.2-4.214 12.065-3.993 12.008 1.591-0.412 8.395-4.206 10.109-4.926 0.032-0.89 4.455-5.537 5.635-8.258-0.616 3.945-4.022 7.436-3.786 7.259 6.053-4.512 18.044-5.969 23.039-8.284-0.03-1.51-2.64-1.63-3.51-1.49zm-56.36 63.16c-3.172-1.646-4.14-0.131-4.021-6.286 0.052-2.761-4.846-1.569-7.963-2.95-4.247-2.499 1.915-3.84-2.74-6.786-0.543-0.344-6.719-1.18-9.853-1.751-2.317-0.423 2.615-6.565-4.654-6.116-1.023 0.063-4.955 1.328-6.922 0.269-0.403-3.45-1.566-3.14-2.506-3.389-2.896-0.766-4.898 1.588-6.803 1.251-3.364-1.899-0.473-1.433-3.758-3.177-2.618-0.374-6.513 1.226-9.513 1.524 1.202 1.418 2.378 2.911 3.515 4.472 3.514 1.414 7.663 2.527 8.694 2.891 0.403 0.143 9.446-1.668 9.793-1.527s-7.789 2.395-7.389 2.547c4.908 1.869 6.134 2.944 7.051 3.388 1.043-0.788 11.359-2.286 11.529-1.998-3.092 2.361-10.372 2.021-10.079 2.541 0.806 1.433 6.525 4.119 8.226 4.874 0.669-0.588 9.279-1.057 12.067-2.065-3.293 2.259-10.323 3.38-9.873 3.622 6.326 3.393 20.91 10.229 26.72 11.478 1.06-1.05-0.85-2.24-1.54-2.78zm-64.42-15.53c-3.069-0.614-5.031-1.23-1.942-3.908 2.085-1.809-3.669-2.754-7.078-2.748-4.896-0.556 2.88-5.283-2.57-6.082-0.635-0.094-5.086 2.287-8.218 1.709-2.388-0.441 0.716-7.062-5.742-3.695-0.908 0.475-2.292 3.527-4.52 3.36-1.771-2.989-1.512-2.033-2.47-1.878-2.958 0.478-4.628 4.738-6.505 5.205-3.846-0.367-0.117-0.119-3.827-0.377-3.01 0.855-7.627 10.648-10.576 11.587-0.29 1.553-1.941 0.615 1.479 0.384 3.091-3.011 11.854-5.747 13.08-5.846 0.427-0.034 5.26-7.559 5.634-7.571s-3.25 6.751-2.823 6.728c5.244-0.288 6.104-0.701 7.122-0.67 0.633-1.144 5.759-7.306 6.031-7.112-1.865 3.415-4.965 6.663-4.486 7.019 1.318 0.98 5.443 0.312 7.303 0.31 0.373-0.809 4.458-3.144 6.596-5.198-2.09 3.402-4.467 5.69-3.957 5.729 7.158 0.527 14.587 4.133 20.103 5.603 0.56-1.4-1.77-2.31-2.62-2.53zm75.12-72.41c-4.011 5.648-4.32 0.73-6.534 2.648-0.485 0.421-2.279 3.917-1.86 7.161-1.01 3.195-3.587 0.647-4.958 3.151-1.504 2.746 1.821 7.184-0.253 9.57-2.444 1.51-3.505 2.222-3.665 2.938-0.653 2.925 0.435 3.635-0.313 5.418-2.016 2.72-2.518 0.599-4.941 3.42-0.865 2.273-1.086 7.105-1.615 10.52 0.87 0.492 1.724 1.021 2.573 1.575 2.553-2.965 6.652-7.815 7.035-8.712 0.068-0.159-1.232-9.569-0.973-9.987 0.092-0.148 2.05 3.871 2.281 8.877 0.61-0.494 2.108-1.913 4.632-5.936 0.228-0.363-1.907-11.729-2.127-15.212-0.014-0.209 1.982 3.474 3.015 7.431 0.804 3.077 0.684 6.663 0.786 6.507 2.903-4.377 5.043-7.525 5.677-8.323-0.539-1.19-2.704-11.78-2.675-14.336 2.299 2.357 3.566 12.413 3.69 12.223 2.853-4.415 4.544-7.644 6.293-10.481-0.166-0.249-0.335-0.499-0.508-0.748-1.75-2.5-3.65-5.09-5.57-7.7zm-14.65-107.59c0.925 1.84 2.391 4.921 2.346 7.104-0.914 2.991-1.063 1.574-2.337 3.284-1.649 2.213 2.912 5.171 2.901 8.683-0.318 3.149-1.916 0.938-2.102 5.011-0.029 0.643 2.971 3.833 3.279 6.654 0.198 1.806-5.09 1.452-3.118 4.188 1.131 1.569 4.097 2.381 5.304 5.927 0.33 0.972-1.511 3.826-1.277 6.048 1.932 2.596 3.588 4.125 3.912 5.042 1 2.826-0.776 4.68 0.019 6.443 0.091 1.064 0.284 1.853 0.613 2.609 0.057 0.122 0.114 0.246 0.172 0.369 0.604 1.215 1.57 2.457 3.029 4.766-0.299-5.97-0.836-9.469-0.669-18.951 0.019-1.055-4.843-8.742-4.922-9.107-0.08-0.366 4.396 3.943 4.287 3.528-1.222-4.686-0.444-4.629-0.596-5.637-1.238-0.418-6.859-9.163-6.717-9.466 3.186 1.093 6.513 5.036 6.505 4.809-0.062-1.643-0.877-6.437-1.213-8.266-0.861-0.222-4.197-3.146-5.648-6.787 3.793 1.621 5.093 5.062 5.07 4.767-0.659-8.574-5.358-18.299-7.714-23.887-1.48-0.26-1.58 1.27-1.11 2.89zm19.52-142.78c-1.831 3.753-3.255 8.727-2.441 14.107 2.79-3.314 2.89-11.006 2.44-14.107zm28.92 30.6c-4.046 1.033-8.511 1.43-7.951 3.714 1.52 0.977 5.88-1.364 7.95-3.714zm15.33 68.413c-4.107-0.75-14.054-1.084-14.604 0.48 0.97 1.52 11.74 0.78 14.6-0.48zm-4.35 124.51c-3.019-0.257-9.407 0.564-9.696 1.732 0.81 1.03 7.71-0.62 9.7-1.73zm-9.89-36.33c-3.885-0.33-11.139 0.652-11.511 2.155 1.04 1.32 8.96-0.73 11.51-2.16zm4.24-8.26c-3.885-0.33-8.611-0.687-8.983 0.816 1.04 1.33 6.43 0.62 8.98-0.82zm-39.87-21.58c-2.219 3.205-4.877 7.129-3.758 8.2 1.67-0.25 3.74-5.28 3.76-8.2zm3.29 6.98c-2.219 3.206-5.724 11.79-4.605 12.861 1.66-0.24 4.57-9.93 4.6-12.86zm3.81 10.07c-2.218 3.206-9.113 13.591-7.994 14.661 1.66-0.25 7.97-11.74 7.99-14.66zm26.78-109.62c-1.475-2.412-4.851-2.014-6.772-0.393-2.811 2.37-4.43 6.366-4.757 7.295-0.685 2.688 3.198 5.48 5.802 4.808 3.93-0.54 8.12-6.72 5.73-11.72zm6.81 78.33c-1.474-2.412-4.85-2.014-6.772-0.393-2.81 2.37-4.43 6.366-4.757 7.295-0.684 2.688 3.199 5.48 5.803 4.808 3.94-0.53 8.12-6.71 5.73-11.71zm0.44 117.52c-0.478-2.786-3.762-3.665-6.147-2.87-3.487 1.163-6.471 4.276-7.118 5.018-1.63 2.244 0.944 6.275 3.612 6.613 3.85 0.97 10.03-3.23 9.66-8.76zm-14.64 63.6c1.958-1.218 1.611-3.97 0.276-5.526-1.952-2.277-5.223-3.571-5.982-3.832-2.196-0.541-4.448 2.646-3.883 4.764 0.45 3.21 5.52 6.58 9.58 4.6zm-16.05-265.65c-4.046 1.033-10.188 1.96-9.628 4.244 1.53 0.98 7.56-1.89 9.63-4.24zm3.88-38.065c-2.61 3.259-5.093 7.799-5.479 13.227 3.46-2.62 5.24-10.104 5.48-13.227zm14.93 30.415c-4.174 0.12-5.851 0.67-10.239 3.888 1.09 2.92 7.7-2.05 10.24-3.89zm3.4 65.51c-3.843-1.634-8.298-1.941-13.629-0.85-0.23 3.11 10.56 1.46 13.63 0.85zm5.36 122.05c-2.888-0.914-9.175 0.735-12.949 1.894 0.05 2.27 10.77-1.23 12.95-1.89zm-33.63 40.41c-2.889-0.913-6.866 0.591-10.641 1.749 0.05 2.26 8.47-1.09 10.64-1.75zm7.94-8.22c-2.889-0.914-8.31-1.862-12.229 0.883 0.05 2.26 10.05-0.23 12.23-0.88zm30.82 38.93c-0.119-3.027-0.052-6.14-3.963-8.896-2.11 0.81 2.61 7.07 3.96 8.9zm5.01-1.52c-0.083-2.119-0.036-4.297-2.773-6.227-1.48 0.57 1.83 4.95 2.77 6.23zm-11.88-16.21c-2.192-2.092-6.644-5.328-11.37-4.586-0.95 2.06 9.13 4.22 11.37 4.59zm-9.45 6.53c-5.434-2.52-6.904-6.073-11.679-6.384-1.38 1.79 8.56 6.82 11.68 6.38zm-8.95 3.75c-1.682-2.521-6.184-3.332-10.525-5.951-1.81 3.81 8.42 5.1 10.52 5.95zm-12.84 5.48c-1.682-2.52-4.595-3.043-8.359-4.796-0.08 4.83 6.25 3.95 8.36 4.8zm-34.48 33.35c0.024-3.03-4.187-7.394-6.317-10.958-2.77 3.95 5.06 9.07 6.32 10.96zm-56.21-14.03c-0.983-2.2-5.074-5.163-7.793-7.04-0.7 3.77 6.25 6.09 7.79 7.04zm50.13 11.93c0.024-3.029-7.577-10.684-9.707-14.248-2.78 3.96 8.44 12.37 9.71 14.25zm-57.02-10.64c-0.984-2.2-6.82-6.026-9.54-7.902-0.7 3.77 8 6.95 9.54 7.9zm46.15 3.96c0.023-3.029-6.78-9.187-8.91-12.752-2.78 3.95 7.64 10.87 8.91 12.75zm-56.62-3.71c-0.983-2.201-5.249-5.407-7.969-7.283-0.7 3.77 6.43 6.33 7.97 7.28zm126.98-119c-3.717 0.461-8.535 1.542-13.169 2.214 2.78 2.6 6.93 1.43 13.17-2.21zm-17.57-134.39c-4.174 0.119-6.909 2.612-11.298 5.83 1.09 2.92 8.76-3.99 11.3-5.83zm5.48-68.497c-2.09 3.615-4.674 11.664-4.24 17.088 3.02-3.109 4.48-13.964 4.24-17.088zm20.02 34.277c-4.108 0.746-8.692 1.34-8.742 3.528 0.77 1.53 6.51-1.333 8.74-3.53zm10.22 66.74c-4.045-1.038-14.71-1.455-15.67 0.513 0.06 1.71 12.72 0.55 15.67-0.51zm1.07 124.96c-2.993-0.468-12.435-0.252-12.991 1.234 0.17 1.23 10.94-0.26 12.99-1.23zm-10.77-34.78c-3.852-0.603-14.959 2.277-15.675 4.19 0.21 1.59 13.03-2.93 15.68-4.19zm-22.85-131.68c-4.108 0.747-11.87 3.106-11.92 5.294 0.77 1.54 9.69-3.09 11.92-5.29zm43.5 223.09c-1.736-0.868-3.553-1.569-5.801-0.857 0.554 2.311-5.822 3.864-6.731 3.864-3.063 0.32 0.533 3.313-1.465 5.305 0.093 0-0.936 1.389-2.522 1.752-3.032 0.692-5.846-0.954-6.555 1.134 0.117 0.72-0.596 3.177-2.968 3.752-4.229 1.026-6.598-2.204-9.544 0.255-0.725 0.532-1.074 2.646-2.252 3.471-2.066 1.446-5.07 1.706-2.182 1.949 2.349 0.381 4.58-1.491 5.436-4.338 0.576-1.25 4.564 0.652 6.014 0.693 4.431 0.653 5.8-1.696 6.796-4.244-0.224-1.241 3.501 0.006 6.091-0.936 1.676-0.609 1.915-1.4 2.15-2.313 0.542-0.682 8.936-4.875 9.196-4.783 0.262 0.091-8.34 5.004-7.828 5.099 0.896 0.164 1.746 0.392 2.582 0.643 0.835 0.25 1.656 0.524 2.491 0.781 0.298 0.092 7.38-2.82 7.581-2.725 0.334 0.16-6.246 3.332-5.771 3.5 7.374 2.606 13.486 6.104 14.182 6.035 2.104-0.208 2.275-4.252-2.363-5.412-1.854-3.521 2.705-3.377 1.853-6.049-1.265-4.187-5.467 0.022-7.834-1.335-1.74-0.98 1.56-3.22-0.57-5.23zm-163.55 49.81c-0.532 0.665-1.063 1.33-1.596 1.995-1.59-3.172-4.388-6.02-6.581-8.845 3.14 1.87 6.08 3.88 8.18 6.84zm-0.6 2.99c-0.692-0.711 0.797-1.834 1.162-2.632 0.398 0.366 0.732 0.97 1.132 1.335-0.24 0.71-0.98 2.2-2.29 1.29zm55.59-48.02c-0.477-2.786-3.761-3.665-6.146-2.87-3.487 1.162-6.471 4.275-7.118 5.018-1.63 2.244 0.944 6.275 3.612 6.613 3.86 0.96 10.03-3.23 9.66-8.76z"/>
	<path fill="#105A26" d="m327.26 207.94h0.452c1.603-2.145 1.65-3.11 1.475-5.42-8.885-8.71-22.236-24.458-22.236-33.289-1.272-15.272 14.086-32.561 28.469-36.805 2.65-1.184 2.459-3.172 2.024-4.614 1.069-0.807 1.369-1.151 1.843-1.389 4.27 6.075-6.613 13.005-13.72 28.749 2.649 4.898 17.942 22.416 23.336 34.97 5.395 12.554-2.246 17.192-3.816 21.304-1.79 4.835-8.427 17.41-11.546 15.486v3.608c-0.126 0.049-0.255 0.107-0.388 0.175 0.245-1.282 0.617-3.159-0.02-3.946-0.636-0.788-2.882-0.144-3.151-1.526-0.395-2.021 1.785-6.212 1.676-8.18-0.109-1.969-2.561-1.476-3.145-1.724-2.12-0.91-0.97-4.68-1.24-7.4"/>
	<path fill="#008E21" d="m343.82 210.3c3.521-4.247 6.518-11.237 4.983-14.284-6.438-22.066-31.112-37.109-26.93-54.872-5.741 5.486-10.463 13.014-13.142 21.053-2.521 12.294 6.815 22.483 15.813 32.922 7.225 8.383 15.51 17.017 9.834 29.982 6.82-7.06 5.58-6.98 9.45-14.8"/>
	<path fill="#D92819" d="m344.44 209.45c-2.864-14.529-12.843-23.723-21.533-35.229-5.705-7.552-9.069-18.365-7.714-25.443-0.63 1.08-1.385 2.48-2.015 3.56 0.501 22.592 13.455 26.155 24.472 45.364 2.267 3.953 3.548 9.228 5.174 14.751 0.47-0.96 0.75-1.73 1.62-3"/>
	<path fill="#105A26" d="m348.99 314.24c0.482-5.208-8.057-23.662-19.658-38.224-10.115-12.694-15.637-23.23-15.064-25.712-1.622-0.118-0.622 3.835-2.013 9.394-2.051 8.205-5.489 16.414-5.489 18.528-0.438 3.256 1.085 9.48 4.291 14.623 4.393 7.048 10.375 14.73 15.456 22.058 5.272 7.605 8.557 13.966 9.523 16.246 1.21-0.959 2.075-4.505 4.141-6.713 3.94-4.22 8.81-7.87 8.81-10.21"/>
	<path fill="#008E21" d="m347.26 314.32c0.439-4.736-7.886-22.902-18.437-36.146-9.198-11.544-14.952-19.375-14.432-21.632-1.475-0.107 0.171 0.908-1.093 5.964-1.864 7.461-4.809 14.742-4.809 16.666-0.397 2.96 2.094 8.807 5.009 13.482 3.994 6.409 9.097 13.38 13.717 20.044 4.794 6.916 8.489 12.718 9.369 14.792 1.101-0.873 1.335-3.361 3.213-5.368 3.58-3.81 7.46-5.66 7.46-7.79"/>
	<path fill="#D92819" d="m342.6 319.58c-3.729-12.269-10.804-21.367-18.903-32.09-5.315-7.037-10.358-14.149-11.743-20.746-0.587 1.007-0.549 2.946-1.136 3.953 6.716 16.713 14.659 20.034 24.925 37.936 2.111 3.684 3.519 7.541 5.033 12.688 0.45-0.9 1.02-0.98 1.83-1.74"/>
	<path fill="#105A26" d="m335.57 365.68c-23.009-2.446-31.901-17.423-48.911-18.284-5.523-0.647-13.562 2.969-19.868 8.771-6.677 3.434-10.174 5.895-10.607 8.241l-0.035 0.016v0.257c2.324-0.555 4.734-1.215 6.55-0.956 3.387 1.799 0.405 1.317 3.874 3.275 1.964 0.348 4.027-2.079 7.015-1.289 0.969 0.256 2.168-0.063 2.583 3.494 2.028 1.092 6.083-0.212 7.138-0.277 2.977-0.184 3.97 0.704 4.233 1.868l-0.003 0.003c-0.003 0.002-0.004 0.003-0.006 0.005-0.063 0.046-0.127 0.092-0.195 0.138 4.476 2.887 8.907 4.792 12.986 7.092 5.963 3.361 11.071 6.488 13.534 5.589 5.127-0.687 6.641-4.68 11.197-7.933 2.388-1.704 5.272-2.522 7.088-4.24 3.18-3 3.44-5.11 3.44-5.77"/>
	<path fill="#008E21" d="m333.28 367.05c-3.094 0.343-8.438-2.057-17.03-5.396-12.974-5.041-19.166-12.889-31.537-12.432-3.217 0.102-6.878 0.649-11.291 3.239-3.894 2.284-7.496 6.539-12.25 7.846 2.209 0 19.657 4.057 30.745 10.652 9.188 5.465 17.642 11.235 21.594 10.718 6.182-0.081 7.476-6.508 11.832-8.14 7.59-2.84 7.94-5.72 7.94-6.49"/>
	<path fill="#D92819" d="m322.06 376.1c-12.374-1.22-18.883-8.632-30.614-14.301-7.699-3.722-14.589-7.004-21.124-7.07 0.846-0.749 1.536-0.997 2.382-1.746 8.286 0.918 16.796 5.262 24.89 9.956 9.465 5.491 18.393 11.371 26.191 11.429-0.77 0.58-1.15 0.81-1.73 1.73"/>
	<path fill="#912C17" d="m158.77 351.27c3.145-0.764 7.179 2.703 12.745 5.025 8.124 3.392 15.176 1.942 18.286 20.635-1.975-2.781-3.979-6.488-5.939-7.045-2.514-0.739-1.577-0.988-5.422-0.62-1.877-0.467-3.148-4.03-5.308-4.907-0.899-0.364-2.394-1.908-4.166 1.081-1.928 0.167-3.498-2.315-4.419-2.762-6.956-3.366-4.453 3.452-6.839 3.894-3.13 0.578-7.483-1.901-8.117-1.809-5.45 0.801 1.827 5.926-3.069 6.481-4.208-1.103-9.163 1.339-7.079 3.146 3.088 2.678 0.628 2.896-2.441 3.509-0.853 0.214-2.478 2.52-1.934 3.942 0.946 1.928 4.907 1.581 6.509 0.982 1.059-0.396 2.56-0.998 3.434 0.373 0.874 1.37-3.664 4.215 2.071 4.23 0.572-0.292 1.364-0.793 2.215-1.208-0.732 1.008-1.596 2.116-2.625 3.337-9.978 11.849-16.729 7.692-25.935 6.114-6.505-1.115-10.388 0.927-11.915-2.111 7.42-0.38 11.907-8.86 18.139-18.573 9.36-14.57 22.26-24.66 31.81-23.72"/>
	<path fill="#105A26" d="m227.04 351.28c-3.146-0.764-7.179 2.702-12.745 5.026-8.124 3.391-15.177 1.941-18.286 20.634 1.975-2.78 3.979-6.488 5.938-7.045 2.514-0.739 1.577-0.988 5.422-0.62 1.878-0.467 3.149-4.03 5.309-4.906 0.899-0.365 2.395-1.908 4.166 1.08 1.929 0.167 3.498-2.315 4.42-2.762 6.956-3.366 4.452 3.453 6.839 3.894 3.13 0.579 7.483-1.901 8.117-1.808 5.45 0.8-1.827 5.925 3.069 6.481 4.207-1.104 9.162 1.338 7.078 3.146-3.088 2.678-0.628 2.896 2.441 3.509 0.853 0.214 2.478 2.52 1.934 3.941-0.946 1.929-4.907 1.582-6.51 0.983-1.058-0.396-2.559-0.998-3.434 0.373-0.874 1.37 3.664 4.215-2.07 4.23-0.572-0.292-1.365-0.793-2.216-1.208 0.731 1.008 1.597 2.116 2.624 3.337 9.979 11.85 16.73 7.692 25.937 6.114 6.505-1.115 10.389 0.927 11.915-2.11-7.421-0.381-11.907-8.861-18.139-18.574-9.36-14.57-22.27-24.65-31.82-23.71"/>
	<path fill="#008E21" d="m227.85 352.35c-3.297 0.076-7.346 2.731-12.403 4.843-1.365 0.569-2.666 1.015-3.898 1.47l7.05 5.333c1.269-0.659 2.299-2.444 2.961-2.766 6.32-3.059 4.979 3.963 7.146 4.364 2.846 0.525 7.294-1.674 7.87-1.589 6.818 1.663-0.946 5.715 3.502 6.22 3.823-1.002 9.313 2.317 7.42 3.96-2.806 2.434-1.559 2.356 1.23 2.914 2.53 0.249 3.787 3.609 3.293 4.902-0.859 1.752-1.99 3.198-7.012 1.938-1.401-0.14-2.161-0.906-2.956-0.046-0.465 1.19 3.965 5.577-3.155 4.292 9.066 10.768 14.928 8.477 23.293 7.042 5.911-1.014 5.929-0.148 9.62-1.146-7.291-6.619-9.229-10.584-14.892-19.41-8.49-13.21-20.39-23.14-29.07-22.29"/>
	<path fill="#D92819" d="m232.61 364.98c-4.62-4.264-9.093-7.745-13.923-9.426 1.094-0.463 1.469-0.715 2.563-1.177 4.812 2.236 9.458 5.812 13.815 9.925-0.302 0.035-0.673 0.104-0.673 0.208-0.237 0-0.711 0-0.869 0.079v0.078c-0.158 0.079-0.632 0.158-0.789 0.158 0 0.11-0.08 0.14-0.12 0.15m25.61 30.93c-4.524-3.517-7.233-7.462-9.874-11.66 0.135-0.024 0.257-0.054 0.341-0.081 0.563-0.188 1.423-0.127 1.913-0.485 3.19 5.352 6.062 10.03 10.708 11.633-0.97 0.33-2.06 0.36-3.09 0.6z"/>
	<path fill="#912C17" d="m76.368 110.14c-0.598-0.73-0.634-1.262-2.071-1.561 0.454-1.731-0.132-4.616-1.147-5.979-3.218-4.323-7.789-7.726-7.748-13.118 0.041-5.396 8.354-5.958 13.025-11.277-0.895-6.701 2.41-8.466 7.341-12.791 3.373-2.958 6.682-7.687 9.046-8.277 18.379-0.288 19.8 16.009 29.174 28.165 10.845-7.894 13.929-12.685 21.377-11.604 11.685 3.373 13.125 11.373 26.236 16.932 10.834 4.594 15.77 0.894 21.325 7.793 0 4.493-0.285 6.824 0 11.774-2.81-3.583-9.445-1.8-21.946-4.43-11.432-2.404-20.814-13.138-32.052-13.653-0.417 8.047-4.483 5.72-8.841 8.838-4.939 3.533-6.62 7.998-12.346 7.318-10.829-1.285-17.814-20.255-19.763-22.133 0-1.252-3.516 1.857-6.721 5.24-1.982 2.093-2.595 4.863-4.779 6.732-2.647 2.267-4.914 2.14-7.75 1.657 0.789 4.794-1.659 9.574-2.369 10.364"/>
	<path fill="#105A26" d="m309.45 110.14c0.598-0.73 0.634-1.262 2.07-1.561-0.453-1.731 0.133-4.616 1.147-5.98 3.218-4.323 7.789-7.726 7.748-13.118-0.041-5.396-8.354-5.958-13.025-11.277 0.895-6.701-2.41-8.466-7.341-12.791-3.374-2.958-6.683-7.687-9.047-8.277-18.38-0.288-19.802 16.01-29.175 28.165-10.846-7.894-13.93-12.685-21.379-11.604-11.685 3.373-13.125 11.373-26.236 16.933-10.834 4.593-15.77 0.894-21.326 7.794 0 4.492 0.286 6.824 0 11.774 2.811-3.583 9.201-3.564 21.947-4.43 11.566-0.785 20.814-13.138 32.053-13.654 0.418 8.047 4.484 5.72 8.843 8.838 4.938 3.533 6.62 7.999 12.346 7.319 10.829-1.285 17.815-20.256 19.763-22.133 0-1.252 3.517 1.857 6.722 5.24 1.982 2.093 2.595 4.863 4.779 6.733 2.646 2.267 4.913 2.14 7.75 1.656-0.8 4.804 1.65 9.594 2.36 10.374"/>
	<path fill="#008E21" d="m316.96 85.571c-2.08 0-9.246-4.915-10.771-6.24 0 2.494-3.31 5.525-5.448 8.812-2.417 3.715-3.486 7.292-0.168 9.63 3.767 2.653 7.391 1.261 9.454-1.771 1.392-2.044 1.745-5.234 2.813-7.225 1.3-2.399 4.13-2.905 4.13-3.206"/>
	<path fill="#D92819" d="m311.22 82.722c-0.445 0-0.99-0.688-1.795-1.054-0.592 0.335-2.465 0.861-3.579 2.937-1.068 1.99-1.422 5.18-2.813 7.225-1.082 1.589-2.591 2.726-4.325 3.068 0.061 0.285 0.099 0.539 0.099 0.712 0.022 0.021 0.052 0.057 0.081 0.1 2.4 0.212 4.525-1.09 5.929-3.152 1.392-2.044 1.744-5.234 2.813-7.225 1.29-2.4 3.6-2.31 3.6-2.611"/>
	<path fill="#008E21" d="m291.46 59.029c-3.055-0.722-8.102-0.238-12.69 3.881-5.723 5.136-10.431 16.219-15.458 23.142-5.434 7.482-11.012 10.22-12.178 10.22 0.284 2.286 2.705 2.029 5.548 3.986 2.951 2.032 5.812 4.561 7.028 5.995 2.669 2.19 8.825-0.146 12.703-4.749 4.401-5.222 12.183-21.042 17.335-26.569 6.519-6.993 10.101-3.166 11.343-3.166-2.74-2.874-11.1-10.528-13.62-12.746"/>
	<path fill="#D92819" d="m259.52 102.29c14.171-4.743 20.184-37.612 38.228-37.785-1.152-0.486-1.25-1.254-2.402-1.741-19.422 2.946-20.523 30.438-37.955 38.108 1 0.34 0.74 0.72 2.12 1.42"/>
	<path fill="#D92819" d="m140.28 74.932c11.38-1.716 15.321 8.843 27.466 15.25 12.928 6.819 18.629 2.708 25.183 9.253v9.169c-8.325-4.591-14.669-2.079-23.248-4.791-10.588-3.347-24.88-15.656-31.348-13.141-0.41-2.08-2.92-13.006 1.95-15.737"/>
	<path fill="#F9F200" d="m139 76.024c11.379-1.716 16.468 8.764 28.612 15.169 1.871 0.987 3.592 1.746 5.189 2.343 9.434 3.525 14.489 1.371 20.095 6.969v1.218c-2.441-4.138-9.748-4.842-16.3-6.139-3.399-0.673-8.932-3.373-10.434-4.298-10.446-6.438-18.204-16.985-27.87-14.133-0.03 0.01 0.26-0.624 0.7-1.126"/>
	<path fill="#F9F200" d="m138.03 77.778c11.38-1.716 17.436 8.765 29.58 15.169 1.871 0.987 3.592 1.747 5.189 2.343 9.434 3.525 14.489 1.371 20.095 6.969v1.219c-2.441-4.138-9.748-4.842-16.3-6.14-3.399-0.673-8.932-3.372-10.434-4.298-10.446-6.438-18.841-16.892-28.506-14.04-0.03 0.005 0.13-0.696 0.37-1.224"/>
	<path fill="#F9F200" d="m137.79 87.955c1.543 0.018 2.226-1.186 11.766 2.872 5.172 2.199 11.879 8.313 23.492 11.449 7.241 1.063 10.929-0.18 19.839 3.747 0.009 0.674 0.01 0.763-0.008 1.122-8.325-4.591-14.021-2.754-20.307-4.074-11.603-2.436-28.109-16.398-34.577-13.883l-0.2-1.242z"/>
	<path fill="#F9F200" d="m137.52 86.268c3.014-0.621 5.691-0.154 9.042 1.349 3.148 1.412 8.678 4.27 12.256 6.417 5.374 3.223 10.371 5.562 15.298 6.574 6.138 1.26 10.356-0.296 18.702 3.863 0.009 0.674 0.01 0.763-0.007 1.122-8.325-4.591-14.352-2.585-20.509-4.411-4.007-1.188-8.874-3.297-13.384-5.977-8.346-4.959-16.999-9.536-21.192-7.905l-0.21-1.03z"/>
	<path fill="#008E21" d="m245.54 74.933c-11.381-1.716-15.322 8.844-27.467 15.25-12.929 6.82-18.629 2.708-25.185 9.254v9.169c8.326-4.591 18.96-3.482 23.518-4.319 8.16-1.498 24.613-16.128 31.081-13.613 0.41-2.086 2.93-13.013-1.94-15.744"/>
	<path fill="#D92819" d="m248.49 82.43c-8.055-1.378-18.719 7.84-30.857 13.348-10.058 4.563-20.848 2.485-24.648 7.099 0.04 1.014-0.08 0.815-0.12 1.809 4.629-5.216 17.071-3.276 25.176-7.096 11.847-5.583 19.041-13.958 30.314-13.078 0.16-0.935 0.13-0.653 0.14-2.086"/>
	<path fill="#9C7D23" d="m80 108.08h225.86v210.32l-0.002 0.002c0.001 0.058 0.002 0.115 0.002 0.174 0 15.423-12.511 28.016-27.902 28.154l-0.003 0.004h-56.095v0.013c-0.273-0.008-0.546-0.013-0.82-0.013-14.276 0-26.13 10.719-27.923 24.52-1.793-13.801-13.645-24.52-27.921-24.52-0.219 0-0.438 0.003-0.656 0.007v-0.007h-57.075l-0.009-0.01c-15.194-0.37-27.46-12.86-27.46-28.14 0-0.059 0.002-0.116 0.002-0.174h-0.002v-210.32z"/>
	<path fill="#40187A" d="m182.4 338.05c-5.947-2.447-12.52-3.02-14.314-3.018-0.196 0-0.393 0.002-0.588 0.007v-0.007h-51.122l-0.008-0.009c-13.6-0.339-24.587-11.251-24.587-24.931 0-0.052 0.001-0.104 0.002-0.155l-0.002-0.002v-22.004l90.62 28.372v21.74zm12.8 5.74c-1.176 1.574-1.989 3.423-2.271 5.591-0.289-2.226-1.174-4.113-2.445-5.715l2.674 1.351 2.05-1.22zm98.88-55.78v21.929l-0.002 0.002c0.001 0.052 0.002 0.104 0.002 0.155 0 13.815-11.206 24.813-24.991 24.936l-0.003 0.004h-50.246v0.011c-0.244-0.007-0.488-0.011-0.733-0.011-2.429 0-8.713 0.536-14.408 2.794v-21.522l90.38-28.3zm-202.3-167.94h202.3v146.43l-100.92 32.041-101.38-32.12v-146.35z"/>
	<path fill="#F3D400" d="m296.26 268.32l-103.1 32.642v-0.006l-103.57-32.56v-150.8h206.67v150.73zm-94.99 72.95v-26.648l94.991-30.04v26.985l-0.002 0.002c0 0.054 0.002 0.106 0.002 0.159 0 14.113-11.448 25.35-25.532 25.476l-0.003 0.003h-51.33v0.013c-0.249-0.008-0.499-0.013-0.75-0.013-2.87 0-11 0.74-17.38 4.07zm-111.68-56.64l95.44 29.998v27.015c-6.65-3.657-15.358-4.443-17.486-4.442-0.201 0-0.401 0.003-0.601 0.008v-0.008h-52.227l-0.008-0.008c-13.894-0.346-25.118-11.496-25.118-25.471 0-0.054 0.001-0.105 0.002-0.159l-0.002-0.002v-26.93zm-5.597-172.59h217.86v203.57l-0.003 0.002c0.001 0.057 0.003 0.112 0.003 0.168 0 14.877-12.068 26.847-26.915 26.98l-0.003 0.003h-54.114v0.013c-0.263-0.008-0.525-0.013-0.79-0.013-11.189 0-25.384 5.567-27.113 18.881-1.73-13.313-18.149-18.884-26.755-18.881-0.212 0-0.423 0.003-0.633 0.008v-0.008h-55.055l-0.009-0.009c-14.646-0.364-26.479-12.243-26.479-26.975 0-0.057 0.002-0.111 0.002-0.168l-0.002-0.002v-203.57z"/>
	<path fill="#9C7D23" d="m158.97 164.62c18.172-12.412 26.463-26.232 34.049-44.015v-0.426c0.037 0.079 0.08 0.161 0.116 0.233v-0.045c0.004 0.01 0.008 0.02 0.013 0.03 0.03-0.073 0.063-0.145 0.094-0.218v0.435c7.597 17.771 15.874 31.578 34.048 43.975-1.739 7.518-10.212 10.184-14.609 5.883-1.022 2.289-3.343 3.373-6.434 2.503 11.544 15.17 28.251 27.203 47.563 36.893-2.723 6.497-7.738 9.809-15.69 6.651-2.474 5.602-8.603 6.505-12.352 3.342-0.025 1.55-1.702 2.787-1.945 2.725 18.075 14.114 37.328 24.519 58.552 33.734-2.446 6.188-12.678 11.579-21.126 9.098-1 5.786-11.528 10.585-18.148 4.825-2.509 7.711-15.491 9.034-18.963 4.171-4.52 6.875-15.619 6.47-20.054 1.87-0.033 5.506-1.339 11.582 5.319 11.557-2.448 2.142-6.459 3.456-10.089 2.598-2.017 0.842-3.455 2.765-6.071 2.494v0.092c-0.036-0.015-0.071-0.03-0.106-0.045v0.105c-0.036 0.034-0.079 0.034-0.116 0.034v-0.08c-2.611 0.273-4.05-1.632-6.073-2.483-3.623 0.852-7.622-0.474-10.08-2.612 6.661 0.035 5.334-6.065 5.334-11.558-4.478 4.594-15.563 5.022-20.087-1.861-3.453 4.86-16.456 3.542-18.984-4.166-6.614 5.76-17.16 0.935-18.135-4.863-8.486 2.493-18.717-2.886-21.166-9.072 21.244-9.218 40.503-19.652 58.607-33.776-0.24 0.073-1.906-1.174-1.952-2.722-3.728 3.151-9.882 2.253-12.375-3.349-7.933 3.151-12.955-0.16-15.682-6.66 19.307-9.689 36.038-21.708 47.593-36.89-3.106 0.852-5.405-0.232-6.454-2.529-4.4 4.34-12.85 1.66-14.59-5.85"/>
	<path fill="#F3D400" d="m161.58 165.78c16.999-11.594 24.237-22.724 31.358-39.266v-0.811c0.082 0.149 0.119 0.263 0.198 0.426v-0.058c0.006 0.014 0.011 0.027 0.017 0.041 0.06-0.14 0.119-0.279 0.18-0.42v0.839c7.122 16.517 14.346 27.638 31.357 39.228-0.155 0.683-0.371 1.266-0.594 1.793-0.088 0.185-3.707-1.574-3.804-1.423-0.151 0.281 3.22 2.478 3.036 2.727-0.495 0.68-1.118 1.207-1.791 1.573-0.161 0.066-3.746-3.089-3.907-2.999-0.463 0.188 2.511 3.559 2.016 3.618-0.619 0.094-1.209 0.129-1.827 0.063-0.405-0.063-3.124-2.847-3.532-2.938-0.396-0.092 1.493 2.505 1.089 2.322-1.304-0.526-2.57-1.336-3.654-2.381-0.153 0.83-0.463 1.73-1.238 2.438-0.248 0.251-2.472-1.946-2.849-1.76-0.365 0.184 1.085 2.749 0.563 2.879-0.408 0.093-0.903 0.149-1.426 0.182-0.373 0.034-2.538-3.525-2.908-3.525-0.376 0 1.08 3.525 0.712 3.493-0.432-0.03-1.83-1.639-2.292-1.704-0.279-0.03 0.374 1.485 0.092 1.424 9.938 15.788 30.821 29.897 49.054 39.063-0.152 0.399-0.341 0.741-0.524 1.077-0.127 0.28-7.086-3.398-7.275-3.151-0.153 0.247 6.466 4.425 6.314 4.638-0.402 0.464-0.836 0.871-1.301 1.214-0.434 0.304-6.836-3.777-7.301-3.596-0.498 0.184 4.916 4.707 4.363 4.803-0.81 0.119-1.672 0.177-2.602 0.06-0.434-0.06-4.983-3.992-5.445-4.086-0.619-0.125 2.813 3.59 2.163 3.404-1.175-0.311-2.414-0.713-3.711-1.207-0.096 0.217-2.2-1.859-2.291-1.672s1.798 2.661 1.702 2.848c-0.465 0.803-0.992 1.486-1.544 2.077-0.279 0.273-4.028-3.285-4.332-3.036-0.313 0.217 2.846 4.242 2.501 4.396-0.742 0.368-1.485 0.588-2.294 0.618-0.493 0.029-2.997-3.688-3.491-3.777-0.497-0.088 1.054 3.432 0.557 3.217-0.587-0.248-1.205-0.588-1.795-1.022-0.066 1.487-4.733 6.595-4.981 6.535 17.081 13.334 37.597 24.77 57.654 33.462l0.148 0.037-2.624 2.555-5.958-4.009 4.409 5.034-3.708 0.91-5.285-4.231 3.487 4.859-3.344 0.164-6.082-5.023 3.795 5.177-4.367-0.492-4.978-3.811 5.059 6.468-1.456 1.8-5.013-4.832 4.133 5.877-2.262 1.267-4.739-4.972 3.399 5.562-2.967 0.357-4.504-5.253 2.371 4.887-3.805-2.081-4.082-5.073 2.368 5.571-1.606 2.568-3.398-4.68 2.075 6.136-2.726 1.737-3.085-4.736 1.221 5.205-3.522 0.471-2.54-4.697 0.38 4.384-3.94-1.46-2.409-5.01 0.657 4.773-2.082 2.416-1.754-4.516-0.244 5.487-3.725 1.011-1.405-4.515-0.654 4.595-3.732-0.631-1.021-4.62-0.619 3.942-3.335-1.942-0.99-5.305-0.422 4.81-1.606 2.218-0.755-4.886-0.502 5.9-2.514 1.222-0.479-4.932-1.045 5.415-2.446 0.448-0.432-3.829v0.124l-0.427 3.81-2.449-0.462-1.06-5.412-0.464 4.938-2.528-1.199-0.51-5.921-0.737 4.869-1.594-2.217-0.425-4.79-1.019 5.29-3.345 1.949-0.58-3.936-1.049 4.629-3.74 0.628-0.624-4.589-1.435 4.515-3.705-1.015-0.265-5.487-1.754 4.516-2.056-2.414 0.66-4.789-2.414 5.023-3.973 1.439 0.395-4.398-2.53 4.71-3.545-0.47 1.246-5.213-3.117 4.748-2.722-1.752 2.1-6.11-3.418 4.674-1.604-2.571 2.378-5.566-4.087 5.057-3.811 2.103 2.377-4.896-4.524 5.253-2.955-0.356 3.382-5.566-4.746 4.985-2.253-1.279 4.122-5.875-4.974 4.817-1.479-1.782 5.058-6.464-4.988 3.811-4.354 0.469 3.812-5.178-6.108 5.021-3.349-0.153 3.5-4.868-5.287 4.245-3.696-0.9 4.399-5.057-5.958 4.007-2.646-2.528 0.151-0.035c20.082-8.719 40.595-20.159 57.716-33.506-0.275 0.07-4.941-5.056-4.987-6.536-0.612 0.426-1.199 0.772-1.822 1.006-0.474 0.232 1.084-3.267 0.576-3.188-0.497 0.07-2.99 3.811-3.499 3.767-0.817-0.029-1.557-0.232-2.296-0.614-0.347-0.163 2.805-4.167 2.494-4.399-0.312-0.238-4.052 3.303-4.32 3.039-0.541-0.589-1.094-1.294-1.559-2.068-0.08-0.196 1.792-2.69 1.722-2.876-0.082-0.162-2.227 1.905-2.309 1.667-1.281 0.506-2.52 0.897-3.693 1.209-0.659 0.197 2.765-3.499 2.146-3.385-0.474 0.083-5.022 4.008-5.452 4.086-0.934 0.118-1.787 0.037-2.607-0.078-0.546-0.078 4.86-4.596 4.398-4.78-0.472-0.197-6.891 3.88-7.319 3.577-0.465-0.311-0.891-0.736-1.328-1.211-0.151-0.193 6.508-4.397 6.351-4.628-0.198-0.232-7.16 3.419-7.276 3.153-0.195-0.349-0.393-0.661-0.551-1.089 18.253-9.146 39.15-23.276 49.078-39.073-0.274 0.037 0.384-1.439 0.117-1.439-0.464 0.077-1.87 1.673-2.296 1.708-0.394 0.044 1.093-3.499 0.702-3.499-0.355 0-2.528 3.577-2.92 3.543-0.509-0.044-1.018-0.08-1.409-0.194-0.543-0.12 0.936-2.691 0.554-2.889-0.391-0.193-2.607 2.033-2.841 1.756-0.784-0.703-1.097-1.593-1.246-2.415-1.087 1.053-2.332 1.826-3.662 2.371-0.391 0.194 1.48-2.415 1.089-2.334-0.382 0.123-3.108 2.886-3.535 2.96-0.623 0.041-1.21 0.041-1.833-0.074-0.465-0.046 2.494-3.428 2.02-3.625-0.149-0.07-3.732 3.073-3.881 3.001-0.703-0.355-1.324-0.897-1.798-1.557-0.197-0.277 3.194-2.45 3.036-2.726-0.117-0.149-3.731 1.593-3.811 1.396-0.27-0.47-0.47-1.06-0.62-1.77"/>
	<path fill="#9C7D23" d="m166.56 190.88h53.054v48.823 0.04c0 3.58-2.938 6.504-6.555 6.536v0.001h-13.177v0.002c-0.064-0.001-0.129-0.002-0.193-0.002-3.354 0-6.138 2.488-6.559 5.691-0.422-3.203-3.206-5.691-6.559-5.691-0.051 0-0.103 0-0.154 0.001v-0.001h-13.408l-0.001-0.002c-3.567-0.088-6.449-2.99-6.449-6.535 0-0.014 0.001-0.027 0.001-0.04l-0.001-0.001v-48.82z"/>
	<path fill="#E0BF66" d="m168.9 193.38h48.38v44.676 0.037c0 3.265-2.68 5.892-5.977 5.921l-0.001 0.001h-12.017v0.002c-0.058-0.001-0.116-0.002-0.175-0.002-2.484 0-5.637 1.222-6.021 4.144-0.385-2.922-4.031-4.145-5.942-4.144-0.046 0-0.094 0.001-0.141 0.001v-0.001h-12.225l-0.002-0.002c-3.252-0.08-5.88-2.688-5.88-5.92v-0.037-44.68z"/>
	<path fill="#105A26" d="m215.49 229.81v7.045l-0.001 0.002c0 0.011 0.001 0.021 0.001 0.032 0 3.025-2.48 5.494-5.535 5.521h-11.131v0.002c-0.053-0.001-0.107-0.002-0.162-0.002-2.83 0-5.184 1.117-5.538 3.821-0.357-2.704-2.707-3.821-5.539-3.821-0.046 0-0.089 0.001-0.131 0.001v-0.001h-11.325l-0.001-0.002c-3.013-0.072-5.445-2.524-5.445-5.519 0-0.011 0.001-0.021 0.001-0.032l-0.001-0.002v-7.045h44.81z"/>
	<path fill="#008E21" d="m214.7 230.92v5.39l-0.001 0.002c0 0.01 0.001 0.021 0.001 0.032 0 2.918-2.396 5.266-5.341 5.291v0.001h-10.736v0.001c-0.053-0.001-0.104-0.001-0.155-0.001-2.222 0-5.036 0.104-5.381 2.715-0.344-2.61-3.601-2.716-5.307-2.715-0.042 0-0.086 0-0.126 0.001v-0.001h-10.922l-0.003-0.001c-2.904-0.071-5.253-2.401-5.253-5.291v-0.032-5.392h43.23z"/>
	<rect height="32.99" width="44.807" y="195.24" x="170.67" fill="#912C17"/>
	<path fill="#D92819" d="m171.64 196.22h42.975v30.9h-11.358l-3.584-5.732-2.189-0.001c-0.441-4.22-4.563-4.073-7.157-6.123-0.681-3.933-4.088-2.992-5.635-0.692-0.563 0.838-0.983 1.908-1.031 3.009-0.091 2.103 1.034 4.095 3.652 3.224l0.614 0.584h-3.603l-2.091 5.732h-10.592v-30.9z"/>
	<polygon points="176.78 235.46 179.1 235.46 176.78 233.47 179.72 234.3 180.39 231.73 181.03 234.3 184.25 233.47 181.68 235.46 184.25 235.46 184.25 236.75 176.78 236.75" fill="#105A26"/>
	<polygon points="202.29 235.46 204.61 235.46 202.29 233.47 205.23 234.3 205.9 231.73 206.54 234.3 209.76 233.47 207.19 235.46 209.76 235.46 209.76 236.75 202.29 236.75" fill="#105A26"/>
	<polygon points="189.21 237.2 191.53 237.2 189.21 235.21 192.15 236.04 192.82 233.47 193.46 236.04 196.69 235.21 194.11 237.2 196.69 237.2 196.69 238.49 189.21 238.49" fill="#105A26"/>
	<path fill="#912C17" d="m206.53 222.55c0.56 0 1.016 0.456 1.016 1.016s-0.456 1.015-1.016 1.015-1.016-0.455-1.016-1.015 0.46-1.01 1.02-1.01"/>
	<path fill="#912C17" d="m205.04 224.8c0.56 0 1.016 0.456 1.016 1.016s-0.456 1.016-1.016 1.016-1.016-0.456-1.016-1.016 0.46-1.02 1.02-1.02"/>
	<path fill="#912C17" d="m176.8 224c0.728 0 1.321 0.593 1.321 1.32 0 0.729-0.593 1.321-1.321 1.321s-1.322-0.593-1.322-1.321c0-0.73 0.59-1.32 1.32-1.32"/>
	<path fill="#912C17" d="m209.19 222.55c0.56 0 1.016 0.456 1.016 1.016s-0.456 1.015-1.016 1.015-1.016-0.455-1.016-1.015 0.46-1.01 1.02-1.01"/>
	<path fill="#912C17" d="m207.71 224.8c0.56 0 1.016 0.456 1.016 1.016s-0.456 1.016-1.016 1.016-1.016-0.456-1.016-1.016 0.46-1.02 1.02-1.02"/>
	<path fill="#912C17" d="m176.8 218.01c0.728 0 1.321 0.593 1.321 1.32 0 0.729-0.593 1.321-1.321 1.321s-1.322-0.593-1.322-1.321c0-0.73 0.59-1.32 1.32-1.32"/>
	<path fill="#912C17" d="m209.19 217.94c0.56 0 1.016 0.456 1.016 1.016 0 0.559-0.456 1.015-1.016 1.015s-1.016-0.456-1.016-1.015c0-0.56 0.46-1.02 1.02-1.02"/>
	<path fill="#912C17" d="m174.86 221c0.728 0 1.321 0.594 1.321 1.321s-0.593 1.321-1.321 1.321c-0.728 0-1.321-0.594-1.321-1.321s0.6-1.32 1.32-1.32"/>
	<path fill="#912C17" d="m207.7 220.25c0.56 0 1.016 0.456 1.016 1.016s-0.456 1.015-1.016 1.015-1.016-0.455-1.016-1.015 0.46-1.01 1.02-1.01"/>
	<path fill="#912C17" d="m180.44 224c0.728 0 1.321 0.593 1.321 1.32 0 0.729-0.593 1.321-1.321 1.321s-1.321-0.593-1.321-1.321c0-0.73 0.59-1.32 1.32-1.32"/>
	<path fill="#912C17" d="m211.99 222.55c0.56 0 1.016 0.456 1.016 1.016s-0.456 1.015-1.016 1.015c-0.559 0-1.016-0.455-1.016-1.015s0.46-1.01 1.02-1.01"/>
	<path fill="#912C17" d="m210.51 224.8c0.559 0 1.015 0.456 1.015 1.016s-0.456 1.016-1.015 1.016c-0.561 0-1.017-0.456-1.017-1.016s0.47-1.02 1.03-1.02"/>
	<path fill="#912C17" d="m213.34 224.8c0.559 0 1.015 0.456 1.015 1.016s-0.456 1.016-1.015 1.016c-0.56 0-1.016-0.456-1.016-1.016s0.46-1.02 1.02-1.02"/>
	<path fill="#912C17" d="m178.5 221c0.728 0 1.321 0.594 1.321 1.321s-0.593 1.321-1.321 1.321c-0.728 0-1.322-0.594-1.322-1.321s0.6-1.32 1.32-1.32"/>
	<path fill="#912C17" d="m210.5 220.25c0.56 0 1.016 0.456 1.016 1.016s-0.456 1.015-1.016 1.015c-0.559 0-1.015-0.455-1.015-1.015s0.46-1.01 1.02-1.01"/>
	<path fill="#999" d="m181.29 1.746c16.501-4.58 31.899 0.118 43.953 10.976 17.485 17.485 17.485 46.005 0 63.49-15.426 15.426-39.441 17.239-56.89 5.444-1.212-1.211-2.424-2.424-3.636-3.636l1.879-2.181 11.837 4.882 2.787 2.419-0.181-2.113 3.705 2.501 0.136-2.173 4.011 2.104-0.333-2.171 5.058 1.546-0.494-2.093 4.755 0.985-0.26-2.276 4.848 0.609-0.937-2.101 4.777 0.203-1.739-1.727 7.946-4.151 2.668-4.184 3.725-1.075-1.774-1.62 4.119-1.898-1.757-1.652 3.366-1.562-1.639-1.454 3.217-2.109-1.908-1.217 3.177-2.8-1.957-0.752 2.824-3.312-1.986-0.462 2.394-3.527-2.104-0.229 2.151-3.493-1.927-0.133 1.716-3.757-2.011 0.416 1.236-4.222-1.895 0.528 0.751-4.557-1.601 0.677-0.083-4.845-1.536 1.045-0.434-4.882-1.342 1.429-1.083-4.915-1.402 1.215-1.245-4.25-1.007 1.221-1.558-3.895-0.993 1.314-1.624-3.451-0.961 1.177-1.781-3.185-0.65 1.303-2.151-2.695-0.477 0.986-2.074-2.324-0.543 0.995-2.131-2.103-0.374 0.941-2.589-2.245-0.497 1.088c-1.452-0.642-3.591-0.96-6.068-1.032l0.009-0.031-9.45-1.004z"/>
	<path fill="#B7C6C9" d="m197.74 1.314c9.928 1.121 18.727 5.904 26.434 12.846 16.695 16.696 16.695 43.929 0 60.625-14.73 14.73-37.819 16.749-54.48 5.486-0.948-0.618-1.805-1.151-2.543-2.024 0.175-0.187 0.56-0.615 0.735-0.801l9.813 4.357 4.158 3.034 0.049-2.157 3.681 2.569-0.009-2.604 4.163 2.287-0.318-2.574 5.19 1.698-0.5-2.304 4.68 0.968-0.388-2.508 5.128 0.609-0.977-2.2 4.893 0.276-3.018-3.901 7.588-3.964 3.213-2.382 5.136-1.138-2.027-1.964 4.349-1.84-2.009-1.716 3.491-1.603-1.813-1.583 3.349-2.125-1.989-1.385 3.505-2.841-2.229-0.801 2.918-3.497-2.118-0.497 2.37-3.563-2.231-0.218 2.305-3.558-2.063-0.155 1.611-3.977-1.976 0.397 1.153-4.392-2.031 0.726 0.939-4.879-1.974 0.841-0.022-5.488-1.661 1.498-0.441-5.441-1.53 1.837-1.09-5.026-1.396 1.578-1.466-4.477-0.989 1.389-1.543-3.915-1.059 1.282-1.717-3.628-0.779 1.569-1.979-3.263-0.676 1.465-2.221-2.74-0.482 1.053-2.15-2.575-0.436 1.173-2.173-2.008-0.412 0.872-2.556-2.066-0.525 0.896c-0.013-0.004-0.025-0.009-0.039-0.013l0.033-0.044-0.333-0.047c-0.97-0.272-2.278-0.447-3.748-0.535l-4.937-0.705c3.26-0.523 6.65-0.51 10.21-0.209"/>
	<path fill="#9C7D23" d="m167.29 34.618l5.972-5.972c23.001 20.745 46.002 41.49 69.002 62.235 2.94 9.707-3.031 15.679-12.54 12.54l-62.43-68.802z"/>
	<path fill="#F3D400" d="m169.24 34.809l4.266-4.265c16.429 14.817 50.15 46.927 66.58 61.745 2.1 6.934-2.166 11.199-8.958 8.957l-61.89-66.441z"/>
	<polygon points="157.09 49.496 181.57 25.013 208.1 26.058 170.87 63.281" fill="#999"/>
	<polygon points="160.04 49.634 182.19 27.492 203.14 27.915 170.73 60.323" fill="#B7C6C9"/>
	<path fill="#9C7D23" d="m189.48 215.14c1.794 2.08 3.976 1.739 6.342 3.952 2.66 2.867-0.55 6.269-3.232 5.042-3.38-1.285-3.979-3.952-6.038-4.31 1.09-1.68 1.86-3 2.93-4.68"/>
	<path fill="#E0BF66" d="m189.09 215.57c0.784 1.14 1.929 1.601 3.156 2.129 0.044 0.148 0.076 0.306 0.089 0.467 0.098 1.062-0.489 2.072-1.398 2.577 1.143-0.423 1.945-1.558 1.906-2.781 0.415 0.189 0.835 0.401 1.248 0.66l-0.268 0.024c0.083 0.161 0.144 0.335 0.178 0.518 0.182 0.996-0.488 2.004-1.583 2.563 1.366-0.493 2.285-1.606 2.204-2.74 0.2 0.15 0.398 0.316 0.592 0.5 2.422 2.61 0.027 5.177-2.414 4.061-3.354-1.259-3.417-3.816-5.976-4.235 0.97-1.54 1.28-2.22 2.26-3.75"/>
	<polygon points="184.88 222.16 199.24 222.16 202.28 227.15 183.12 227.15" fill="#9C7D23"/>
	<path fill="#E0BF66" d="m185.61 222.95h6.199c-0.147 0.173-0.234 0.396-0.234 0.641 0 0.548 0.446 0.994 0.995 0.994 0.548 0 0.994-0.446 0.994-0.994 0-0.244-0.09-0.468-0.235-0.641h5.189l2.131 3.402h-0.797l-1.724-2.828h-2.158l1.723 2.828h-2.374v-2.828h-1.189v2.828h-6.079v-2.828h-1.189v2.828h-2.423l1.16-3.4z"/>
	<path fill="#9C7D23" d="m188.54 213.42c1.27 0.573 1.61 2.581 0.758 4.468-0.853 1.888-2.584 2.959-3.855 2.385s-1.61-2.581-0.758-4.469c0.86-1.89 2.59-2.97 3.86-2.39"/>
	<path fill="#E0BF66" d="m188.31 214.16c0.937 0.509 1.17 2.054 0.513 3.51-0.678 1.501-2.056 2.354-3.065 1.896-1.012-0.456-1.282-2.053-0.603-3.555 0.507-1.121 1.404-1.88 2.246-2.002 0.798 0.423 0.999 1.731 0.442 2.962-0.437 0.97-1.221 1.618-1.946 1.693 0.849 0.094 1.854-0.64 2.384-1.813 0.45-1 0.44-2.05 0.03-2.7"/>
	<path fill="#9C7D23" d="m52.568 370.3l-0.056 0.02c-0.013 0.671-0.466 1.211-1.015 1.208-0.062-0.001-0.123-0.009-0.183-0.023 0.146 0.78 0.085 1.587-0.179 2.237-1.209 2.924-3.438 3.791-3.914 4.897-0.112 0.258-0.236-0.618-0.43-0.407-2.249 2.469-6.086 4.218-9.59 2.506-2.35-1.462-1.934-4.767-0.332-6.636 1.904-2.221 4.894-3.569 6.381-4.293-0.129-0.23-0.545-0.713-0.375-0.771 1.369 0.271 4.965-1.08 6.781-0.068 0.37 0.207 0.681 0.492 0.933 0.827 0.157-0.434 0.515-0.736 0.926-0.733 0.024 0 0.047 0 0.07 0.003 0.272 0.37 0.596 0.78 0.983 1.22m-27.099-43.61c6.681-1.578 7.831 4.144 11.344 4.262 1.867 0.063 0.899-1.927 2.837-2.684-0.257-0.12-0.459-0.316-0.563-0.577-0.028-0.07-0.049-0.144-0.061-0.217-0.819 0.525-1.763 0.831-2.623 0.832-3.879-0.021-5.894-2.149-7.371-2.178-0.345-0.007 0.593-0.556 0.265-0.676-3.844-1.411-7.604-4.959-7.284-9.729 0.573-3.345 4.516-4.4 7.38-3.445 3.402 1.133 6.317 3.903 7.827 5.257 0.201-0.252 0.556-0.948 0.702-0.782 0.326 1.68 3.524 5.136 3.215 7.667-0.064 0.516-0.245 1-0.508 1.44 0.566-0.021 1.076 0.245 1.262 0.713 0.093 0.232 0.092 0.483 0.017 0.723l0.515 0.729c2.527 0.374 3.128 4.297 5.488 4.682 0.399 0.021 1.531-0.413 1.863-1.565 0.004 0.003 0.008 0.007 0.012 0.01 0.967-2.28 3.163-9.848 8.437-17.453 2.043-2.946 4.317-6.024 6.593-9.108-0.229 3.989 5.269-0.069 8.006 5.077 1.149 2.16-0.099 4.671 1.286 6.584 1.1 1.52 3.206-1.082 4.592 2.352 2.257 5.59 5.558 10.931 7.766 16.061 2.453 5.696 0.61 11.354 3.045 15.308-10.121 5.037-17.204 15.597-38.95 15.698-0.993-0.66-1.546-1.226-2.169-0.927-2.156-0.217-5.003 2.188-6.981 3.108-1.977 0.92-3.625-1.26-5.591-1.862-3.5-1.072-7.335 6.404-12.248 4.07-2.313-1.096-1.24-1.859-2.745-2.746-2.109-0.823-7.046 4.805-10.269 2.723-2.763-1.785-1.215-3.486-2.349-4.359-1.547 0.081-4.219 0.562-6.067-0.573-1.385-0.852-1.862-1.635-2.031-2.588-0.893-5.035 3.733-4.843 3.833-6.603 0.098-1.739-3.901-1.499-1.416-6.361 2.336-3.176 4.946-0.57 6.839-1.833 0.911-0.209-2.084-2.159 1.262-4.174 1.565-0.942 6.093-1.183 6.962-1.188 0.86-1.15 1.127-1.837 1.954-2.661-0.447-1.596-4.467-2.615-5.563-4.504-0.843-1.453-0.768-3.802 0.13-4.794 2.945-2.546 5.593-1.685 8.957-0.106 1.698-0.52-0.192-2.83 2.4-3.59zm46.902 66.86c3.271-1.699 4.268-0.136 4.147-6.482-0.054-2.846 4.996-1.617 8.21-3.042 4.379-2.576-1.975-3.958 2.825-6.996 0.56-0.354 6.927-1.217 10.159-1.806 1.357-0.247 0.301-2.399 0.511-4.127 0.086-0.055 0.173-0.109 0.258-0.165-0.072-0.049-0.14-0.097-0.205-0.146 0.265-1.165 1.258-2.052 4.234-1.868 1.055 0.065 5.109 1.368 7.137 0.277 0.416-3.559 1.615-3.238 2.583-3.495 2.987-0.789 5.05 1.637 7.015 1.29 3.468-1.959 0.487-1.477 3.874-3.275 3.105-0.443 7.953 1.806 11.134 1.608-2.572 2.9-5.034 6.153-7.29 9.669-5.847 9.112-10.158 17.14-16.796 18.411-0.476-0.004-1.044 0.048-1.806 0.245-2.416 0.625-0.488 5.428-4.412 5.8-3.982 0.775-2.752-2.559-4.479-1.947-1.957 0.693-2.679 4.741-5.738 4.688-2.66 0.187-1.894-2.539-3.562-2.26-1.891 0.316-2.829 3.63-6.311 3.068-3.039 0.027-2.834-3.769-4.54-4.704-4.967 2.42-12.529-0.35-6.929-4.74zm65.269-31.79l-0.1-0.114c-0.768 0.296-1.591 0.032-1.839-0.593-0.028-0.07-0.048-0.144-0.06-0.217-0.819 0.525-1.763 0.831-2.623 0.831-3.879-0.019-5.894-2.148-7.371-2.178-0.345-0.007 0.593-0.554 0.265-0.675-3.844-1.411-7.604-4.959-7.283-9.729 0.573-3.345 4.515-4.4 7.379-3.446 3.402 1.134 6.317 3.905 7.827 5.257 0.201-0.252 0.556-0.947 0.702-0.781 0.326 1.681 3.523 5.136 3.214 7.667-0.063 0.516-0.244 1-0.507 1.44 0.566-0.021 1.076 0.245 1.263 0.713 0.092 0.232 0.092 0.482 0.017 0.723l0.11 0.155c-0.33 0.3-0.66 0.62-1 0.94zm-105.32-92.87c1.928-0.715 3.816-1.324 5.204-0.732 2.303 0.982 2.764 3.739 3.019 3.366 1.065-1.563 0.442-3.423-0.484-4.276-1.505-1.387-4.979-1.763-5.835-2.677-2.05-2.188 0.177-3.208-0.16-4.384-0.621-2.169-7.637-4.62-8.637-6.039-0.731-1.038-1.205-2.233-0.038-3.687 1.188-1.477-0.358-2.931-2.415-4.393-5.983-6.167-1.318-7.889 0.559-8.279 0.605-0.127-4.501-4.283-5.185-7.645-0.531-2.613 3.375-4.578 3.369-4.883-8.613-10.905 3.073-12.891 6.943-6.771 0.931 1.379 3.121-2.854 5.428-2.036 0.952 0.337 3.25 2.045 3.795 2.53l-1.669-3.188c-1.604 0.394-3.13-0.059-4.756-1.061-3.597-1.453-4.681-4.177-6.043-4.751-0.318-0.134 0.757-0.295 0.497-0.528-3.05-2.733-5.23-7.421-3.167-11.733 1.77-2.896 5.823-2.418 8.13-0.472 2.741 2.312 4.425 5.965 5.327 7.78 0.103-0.059 0.247-0.167 0.392-0.268 0.229 0.479 0.471 0.937 0.717 1.371 0.535 2.182 1.929 5.469 0.983 7.197-0.249 0.456-0.505 1.112-0.913 1.424 0.534 0.189 1.546 0.626 1.546 1.129 0 0.251-0.093 0.483-0.251 0.678l2.177 6.672c1.16-0.373 3.544-1.799 4.851 0.241 1.341 2.095 1.168 8.997 2.785 7.937 0.988-0.648 2.149-1.677 4.085-0.756l0.006 0.003c0.007 0.004 0.015 0.008 0.021 0.011 0.023 0.012 0.046 0.023 0.069 0.035-0.245-1.282-0.616-3.159 0.02-3.946 0.636-0.788 2.882-0.144 3.151-1.526 0.395-2.021-1.785-6.211-1.676-8.18s2.561-1.475 3.145-1.723c0.036-0.016 0.07-0.032 0.104-0.049 0.015-0.008 0.029-0.016 0.044-0.023 0.021-0.012 0.043-0.022 0.064-0.035 0.017-0.009 0.032-0.019 0.047-0.028 0.018-0.011 0.035-0.022 0.052-0.034 0.012-0.008 0.024-0.015 0.035-0.023 0.021-0.015 0.042-0.029 0.062-0.046 0.018-0.014 0.035-0.027 0.053-0.042 0.023-0.02 0.047-0.04 0.069-0.061v-0.001c0.026-0.024 0.052-0.05 0.077-0.076 0.005-0.006 0.011-0.012 0.017-0.018 0.022-0.023 0.043-0.048 0.064-0.073 0.005-0.006 0.01-0.011 0.015-0.018 0.02-0.023 0.038-0.048 0.056-0.072 0.004-0.006 0.01-0.012 0.014-0.018 0.023-0.033 0.045-0.066 0.066-0.101 0.152-0.241 0.259-0.521 0.333-0.833 0.001-0.003 0.001-0.005 0.002-0.008 0.083-0.351 0.123-0.74 0.138-1.153 0-0.012 0.001-0.024 0.001-0.036 0.049-1.452-0.208-3.199-0.062-4.651h-0.001c0.066-0.664 0.218-1.266 0.521-1.75 1.205-1.921 5.048 1.338 5.397-0.559 0.297-5.608 3.619-9.415 5.249-5.952 0.648 1.787 1.164 0.153 1.764-0.722 3.052-3.427 2.772-4.084 7.063-4.59 1.755 1.049 1.538 5.413-0.925 9.496-0.705 1.667-0.223 1.763 0.748 2.402 5.563 3.664-4.038 10.795-0.279 12.516 5.208 3.569-3.463 7.96-2.279 10.685 2.672 0.831 3.974 2.921 2.726 4.448-1.681 2.056-5.616 4.502-5.271 6.272-0.015 2.72 3.834 5.457-0.128 8.148-0.747 0.507-1.549 1.1-1.562 1.975-0.01 0.001-0.02 0.001-0.03 0.001 0.572 2.481-3.621 13.983-13.735 26.678-11.602 14.562-21.468 32.048-20.986 37.256 0 0.036 0.001 0.072 0.003 0.108v0.006l0.003 0.033c-0.776-0.522-2.783-1.343-3.717-2.543-0.885-1.137-0.469-3.062 0.22-4.438 1.385-2.771-9.125 1.645-9.641-7.694-0.017-0.996 1.635-2.89-0.582-4.287-4.609-1.376-7.872-5.086-6.27-8.257 0.38-0.755 2.936-1.272 2.18-3.157-5.389-3.34-6.558-9.228-2.986-10.297 4.101-1.229-0.503-3.588-1.191-6.604-0.44-1.935 0.153-3.784 0.862-4.742 1.208-1.633 4.808-1.328 7.954 3.159 1.733 0.377 1.163-2.361 2.861-2.903 4.102-1.32 4.486 6.27 5.791 6.26zm-19.18-139.2c2.136 0.681 2.821 1.589 5.404 3.134 2.354 0.605 0.81-2.062 3.74-2.3 3.794-0.309 5.597 3.674 7.061 6.6 1.306 1.926 0.6-2.531 5.15-2.075 3.036 0.304 5.094 4.73 6.75 8.27 0.906 0.492 1.376-0.726 2.597-1.352l-1.362-3.909c-0.823-0.009-1.49-0.559-1.49-1.231 0-0.076 0.008-0.151 0.024-0.224-0.956 0.186-1.945 0.12-2.744-0.198-3.597-1.453-4.681-4.176-6.043-4.75-0.318-0.134 0.757-0.296 0.497-0.529-3.049-2.733-5.23-7.42-3.167-11.732 1.77-2.896 5.823-2.418 8.131-0.472 2.741 2.312 4.425 5.965 5.327 7.78 0.28-0.16 0.868-0.675 0.941-0.466-0.319 1.681 1.374 6.075 0.15 8.312-0.25 0.456-0.597 0.839-1.005 1.15 0.534 0.19 0.909 0.625 0.909 1.129 0 0.25-0.093 0.483-0.251 0.678l1.004 4.162c0.751-0.121 1.723-0.001 3.038 0.594 3.073 3.549 2.4 4.16 3.861 9.022 1.108 2.111 1.091-1.11 4.658 1.598 0.629 1.569 1.407 3.82 1.954 5.297-4.247 5.927-13.202 16.932-18.67 26.623-0.053 0.009-0.104 0.02-0.157 0.027-1.052 0.145-3.696 0.105-4.581-0.872-1.137-1.258-0.407-3.545-0.636-3.477-1.705 0.513-6.337-0.884-7.641-2.867-1.303-1.983 0.642-4.792-0.803-4.709-4.799-0.896-6.794-0.972-9.068-4.243-1.246-4.244 3.806-3.02 0.677-5.312-2.775-2.034-4.736-1.895-7.344-6.056-0.932-5.847 5.503-4.32 1.077-7.157-2.168-2.024-7.201-7.295-1.826-9.021 3.233-1.022-1.898-4.89-1.088-8.949 0.767-1.94 1.79-2.95 4.926-2.46zm21.611-21.67c0.388-1.339-1.104-2.223-1.724-2.562-8.855-4.846-4.302-6.876-3.047-8.936 1.008-1.655-3.09-2.389-4.091-3.809-0.731-1.038-1.634-3.09-0.466-4.543 1.188-1.478 3.845-0.1 2.475-1.819-3.066-6.253-1.833-9.604 0.045-9.996 1.077-0.225 2.229 0.608 2.215-0.088-1.271-13.313 7.31-8.683 8.945-3.128 0.93 1.379 1.871-1.177 4.026-0.017 0.956 0.515 1.304 3.887 2.027 3.887 4.36-2.646-4.323-14.036 4.537-12.897 2.723 0.349-2.92-10.664 4.907-10.729 2.112-0.018 3.798 2.507 4.597 0.328 0.297-5.607 5.506-9.672 7.307-4.493 0.648 1.787 1.765 1.697 2.364 0.822 3.053-3.427 4.38-5.626 9.015-4.502 1.755 1.049 2.678 3.621 0.214 7.704-0.705 1.666 1.406 1.762 2.377 2.402 5.563 3.664-6.155 6.397-2.396 8.118 5.208 3.569-5.906 7.145-4.723 9.87 1.986 2.289 1.849 4.188 0.599 5.717-1.681 2.057-8.05 3.885-7.705 5.656 0.929 4.759-5.202 7.316-5.412 11.863 1.805 1.823 1.504 0.886 3.409 4.109 0.958 1.665 1.969-2.199 4.768-0.332 1.678 1.119 2.268 6.026 2.908 7.037 0.659 1.04 4.17 0.355 4.847 3.496 0.604 2.8-1.627 8.046-0.944 9.278 1.165 2.1 2.949-0.272 3.819 5.047 0.615 3.762-3.472 5.87-2.458 7.778 0.765 1.44 2.656 2.991 2.119 5.876-0.782 4.198-3.628 9.74-4.797 13.329-4.247-7.372-11.05-13.878-18.208-17.638-0.155-0.213-0.237-0.41-0.236-0.6 0.008-1.479-4.042-3.755-7.693-6.403 0.004-0.013 0.008-0.025 0.011-0.038-1.069-0.807-1.368-1.151-1.842-1.389-0.004 0.005-0.007 0.011-0.011 0.017-2.649-2.167-4.578-4.517-3.642-6.845 1.025-2.548-4.085-4.374-6.809-6.201-2.823-1.93-1.298-5.23-1.327-5.4z"/>
	<path fill="#F3D400" d="m78.277 48.028c0 2.242-1.194 3.31-1.882 6.239 0.246 2.013 4.729 1.593 4.192 3.716-0.467 1.845-3.323 1.706-4.99 4.921 0.363 1.996 3.463 2.175 2.019 3.766-2.038 2.245-4.226 2.81-6.04 5.879 0.049 2.685 2.895 3.347 1.46 5.285-1.966 2.657-8.324 4.758-8.934 6.992 0.049 0.607 0.147 1.277 0.59 2.222-0.107 1.958-4.669 5.229-5.035 9.11-0.813-0.231-1.349-0.176-3.558-0.774-0.197-2.344-0.037-4.84 0.364-7.443 0.037-0.241 5.774-2.722 5.814-2.964 0.041-0.243-5.612 1.683-5.567 1.439 0.448-2.434 1.085-4.884 1.815-7.449 0.086-0.303 9.805-3.66 9.894-3.964-4.251-0.847-9.451 2.441-9.36 2.137 0.647-2.174 1.349-4.376 2.047-6.585 1.227-0.001 9.797-3.526 13.092-6.098-8.087-0.024-11.828 3.547-11.63 3.186 3.686-6.738 9.125-13.121 12.552-19.891 1.348-1.689 2.705-0.699 3.157 0.276m-42.785 20.918c1.709 1.451 1.006 3.466 2.794 5.887 1.693 1.115 3.035-1.995 4.306-0.212 1.104 1.549 0.389 1.653 1.761 5.005 1.755 1.015 4.614 0.088 5.252 2.139 1.219 3.915-1.254 3.881-0.088 7.251 2.078 1.7 4.838 2.026 5.387 4.375 0.2 0.854 0.097 1.708 0.107 2.792-1.459 3.162-0.176 6.654 0.845 8.543-0.633 2.996-4.766-0.867-5.153 2.867-0.345 3.51 1.708 2.983 2.071 6.416 0.003 1.837-2.072 0.733-2.659 3.526-0.02 3.873 7.02 7.507 1.581 10.213-1.914-1.367-3.382-13.441-5.107-15.431-0.159-0.184 5.136-13.275 4.978-13.462s-4.996 4.209-5.732 10.715c-1.565-1.917-2.12-6.423-3.429-9.016 1.314-0.84 5.79-10.256 5.615-10.521-3.397 2.693-6.075 9.28-6.249 9.015-1.238-1.9-1.802-6.672-3.033-8.634 0.793-0.936 4.562-4.872 4.735-9.049-4.343 3.668-4.952 6.516-5.099 6.133-2.75-7.171-2.525-10.735-5.467-17.73-0.415-2.128 1.548-1.115 2.584-0.828zm23.566 28.508c1.709 1.451 2.418 2.318 4.206 4.739 2.399 1.998 4.358-1.375 5.541 0.142 1.169 1.5 1.008 2.888 1.232 6.152 1.756 1.897 4.832 1.2 5.34 3.286 0.954 3.914-2.666 5.647-1.5 9.017 2.167 2.495 3.161 1.673 4.151 3.404 0.783 4.864-1.735 4.033-2.26 9.083 0.362 2.451 2.149 1.218 2.513 4.65-1.404 4.777-3.054 8.385-4.785 12.768-0.944-2.338-2.941-9.47-3.166-12.606-0.018-0.242 6.106-11.421 5.948-11.608-0.159-0.186-5.614 2.885-6.35 9.391-1.565-1.916-0.621-5.628-1.929-8.222 1.313-0.839 4.907-9.727 4.732-9.991-3.397 2.692-5.105 7.956-5.278 7.69-1.238-1.899-1.008-5.26-2.239-7.222 0.793-0.937 3.062-4.078 3.234-8.255-4.344 3.668-4.246 5.632-4.393 5.25-2.751-7.169-3.761-9.323-6.703-16.317-0.412-2.109 0.669-1.626 1.706-1.339zm-45.283 33.966c2.136 0.682 1.787 2.467 4.37 4.013 2.354 0.605 1.844-3.258 4.775-3.498 3.795-0.31 4.323 4.952 5.787 7.877 3.295 2.884 2.088-5.879 6.981-3.114 2.55 1.441 2.467 5.609 4.84 8.27 2.96 1.468 2.775-3.92 6.793-0.738 2.596 4.188 1.525 3.84 2.986 8.703 2.143 2.831 3.239-1.749 4.897 1.279 0.65 1.624 1.143 3.977 1.691 5.448-0.592 0.956-1.202 1.903-1.813 2.826-2.165 2.872-4.74 6.257-7.312 9.831-0.158-0.216-0.438-0.619-0.942-1.364-0.135-0.2 2.967-13.601 2.75-13.712-0.218-0.11-2.811 1.442-4.053 12.607-2.183-1.166-4.627-5.113-6.834-7.002 0.417-1.752 2.592-14.406 2.329-14.583-2.492 3.793-3.693 13.319-3.954 13.142-1.874-1.275-4.843-4.781-6.735-6.511 0.371-1.169 1.885-8.404 1.615-12.482-2.596 5.058-2.828 10.663-3.134 10.391-6.086-5.4-12.803-15.179-18.211-20.501 0.767-1.97 2.107-1.47 3.174-0.9zm5.394 132.01c1.496 0.64 2.16 2.054 3.918 3.35 1.658 0.601 2.45-3.192 4.583-3.161 2.762 0.04 1.366 4.396 3.558 6.536 1.808 1.792 2.957-2.837 6.298-0.5 1.742 1.217 0.873 4.37 2.402 6.457 2.853 2.603 3.836-0.261 6.518 2.316 1.387 2.805-0.372 5.5 2.945 8.165-2.857 3.756-6.807 9.627-7.991 11.075-0.03 0.009-0.348-1.476-1.03-2.727-0.083-0.153 3.013-11.4 2.714-11.792-0.107-0.141-2.056 3.001-3.727 10.979-1.495-0.994-2.393-4.014-3.855-5.532 0.423-1.236 1.535-11.562 1.208-11.633-2.063 2.565-2.031 10.477-2.207 10.33-1.265-1.05-3.761-5.274-5.007-6.655 0.349-0.818-0.434-6.161-0.346-9.125-2.226 3.473-0.701 7.652-0.903 7.436-4.021-4.322-7.895-10.885-11.432-15.104 0.69-1.39 1.623-0.94 2.354-0.45zm5.012-46.44c1.392 0.471 2.001 1.369 3.562 2.896 2.747 1.494 4.061-2.671 6.168-2.344 2.729 0.424 2.45 4.99 4.917 7.488 2.432 2.026 2.951-3.659 5.935-0.883 0.472 0.438 0.182 5.786 1.938 8.017 1.124 1.428 4.903-2.115 6.431 0.892 0.746 1.469 1.522 3.771 1.436 5.708-0.046 1.025-0.377 3.356 1.012 5.106 3.467-0.213 4.182 1.972 4.592 2.854 1.266 2.718-1.219 6.27-0.551 8.085 2.463 2.975 1.978-0.096 4.274 2.83 0.982 2.971-1.506 6.435 0.293 9.313-3.352 3.321-5.479 7.545-6.854 8.814-0.031 0.004-2.22-6.193-2.722-7.526-0.061-0.163 3.233-11.466 2.992-11.895-0.086-0.153-1.19 1.2-3.956 8.866-0.587-0.521-2.297-4.883-4.64-9.014-0.211-0.374 4.05-15.186 3.851-15.502s-4.86 13.86-5.082 13.492c-2.706-4.502-5.647-8.808-6.245-9.633 0.591-1.165 2.979-12.35 2.666-12.467-2.399 2.254-3.321 11.207-3.474 11.038-1.107-1.216-5.071-6.268-6.113-7.808 0.459-0.763 0.428-6.162 0.928-9.085-2.688 3.129-1.761 7.479-1.93 7.237-3.38-4.839-10.168-11.357-13.083-16.027 0.875-1.26 2.999-1.05 3.655-0.46zm-6.06 113.78c1.423-0.367 2.569 0.484 4.71 0.91 3.118-0.252 1.506-3.158 3.449-4.036 2.517-1.137 5.791 2.981 8.935 4.302 4.731 1.375 2.634-2.514 6.65-1.82 0.634 0.109 2.74 1.57 5.285 3.487 1.45 1.094 3.237-3.73 6.16-2.049 1.427 0.821 1.461 0.305 2.448 1.974 0.522 0.883 2.386 3.738 4.506 4.442 2.787-2.073 3.858-1.212 4.684-0.698 2.546 1.582 2.84 7.069 4.393 8.225 3.689 1.144 3.335-0.44 6.857 0.753 2.363 1.883 3.21 6.592 5.389 8.717-2.681 1.881-5.493 3.849-8.804 5.578-0.504-0.237-0.998-0.474-1.456-0.697-1.084-0.529-1.965-0.989-2.298-1.232-0.14-0.104 1.343-10.069 0.907-10.297-0.156-0.081-2.217 3.965-1.927 9.442-0.777-0.115-5.315-4.275-9.536-6.452-0.381-0.196-0.294-11.609-0.635-11.766-0.34-0.156-0.098 10.799-0.484 10.611-4.728-2.289-5.36-2.554-6.311-2.918-0.143-1.299-5.125-12.836-5.451-12.762-0.776 3.2 4.213 12.064 3.993 12.008-1.592-0.412-8.395-4.206-10.109-4.926-0.032-0.89-4.455-5.537-5.634-8.259 0.616 3.946 4.022 7.436 3.786 7.26-6.053-4.512-18.043-5.969-23.038-8.285 0.047-1.5 2.662-1.62 3.531-1.49zm56.36 63.16c3.172-1.646 4.139-0.131 4.022-6.286-0.052-2.761 4.845-1.569 7.962-2.95 4.247-2.499-1.915-3.839 2.74-6.786 0.543-0.344 6.719-1.18 9.852-1.751 2.317-0.422-2.615-6.564 4.654-6.115 1.023 0.063 4.955 1.327 6.922 0.269 0.403-3.45 1.566-3.14 2.505-3.389 2.897-0.767 4.899 1.587 6.804 1.25 3.363-1.898 0.472-1.432 3.757-3.176 2.618-0.374 6.513 1.226 9.513 1.524-1.203 1.418-2.378 2.911-3.515 4.472-3.513 1.413-7.663 2.527-8.694 2.89-0.403 0.143-9.446-1.667-9.793-1.526-0.347 0.14 7.789 2.394 7.389 2.547-4.908 1.869-6.134 2.944-7.051 3.387-1.043-0.787-11.359-2.285-11.529-1.997 3.091 2.361 10.372 2.021 10.079 2.541-0.806 1.432-6.525 4.119-8.226 4.873-0.669-0.587-9.279-1.057-12.067-2.065 3.293 2.259 10.323 3.381 9.873 3.622-6.326 3.394-20.909 10.229-26.718 11.477-1.084-1.06 0.822-2.25 1.513-2.79zm64.419-15.53c3.069-0.613 5.031-1.229 1.943-3.908-2.085-1.808 3.668-2.753 7.078-2.747 4.896-0.557-2.88-5.283 2.57-6.083 0.635-0.093 5.086 2.287 8.217 1.709 2.387-0.44-0.716-7.061 5.742-3.694 0.908 0.474 2.292 3.527 4.52 3.359 1.771-2.988 1.511-2.032 2.47-1.877 2.958 0.478 4.627 4.738 6.504 5.205 3.845-0.368 0.117-0.119 3.827-0.377 3.01 0.855 7.626 10.648 10.576 11.587 0.29 1.553 1.941 0.615-1.478 0.383-3.091-3.011-11.854-5.747-13.08-5.846-0.427-0.033-5.26-7.558-5.634-7.57-0.374-0.014 3.25 6.75 2.823 6.727-5.244-0.288-6.103-0.701-7.121-0.67-0.632-1.144-5.758-7.305-6.031-7.111 1.864 3.414 4.964 6.663 4.485 7.019-1.318 0.98-5.443 0.312-7.302 0.309-0.373-0.809-4.458-3.143-6.595-5.198 2.089 3.403 4.466 5.691 3.957 5.729-7.159 0.528-14.586 4.133-20.103 5.603-0.56-1.42 1.77-2.32 2.62-2.54zm-75.115-72.41c4.01 5.649 4.319 0.73 6.534 2.649 0.486 0.421 2.279 3.917 1.86 7.16 1.01 3.196 3.586 0.647 4.958 3.151 1.504 2.746-1.821 7.184 0.252 9.57 2.445 1.511 3.505 2.221 3.666 2.938 0.653 2.925-0.435 3.634 0.313 5.418 2.015 2.719 2.517 0.599 4.94 3.42 0.865 2.273 1.086 7.105 1.615 10.519-0.87 0.493-1.723 1.021-2.572 1.575-2.553-2.964-6.652-7.815-7.035-8.712-0.068-0.159 1.232-9.568 0.973-9.986-0.092-0.149-2.05 3.871-2.282 8.877-0.609-0.495-2.108-1.914-4.631-5.937-0.228-0.362 1.907-11.729 2.126-15.211 0.014-0.209-1.982 3.474-3.015 7.431-0.804 3.077-0.683 6.662-0.786 6.507-2.903-4.377-5.043-7.525-5.677-8.323 0.539-1.19 2.704-11.78 2.674-14.336-2.298 2.358-3.566 12.414-3.689 12.223-2.853-4.415-4.545-7.644-6.293-10.481 0.166-0.249 0.335-0.499 0.508-0.748 1.734-2.51 3.635-5.1 5.561-7.71zm14.644-107.59c-0.925 1.84-2.39 4.921-2.346 7.104 0.914 2.991 1.063 1.573 2.337 3.283 1.65 2.214-2.912 5.172-2.901 8.684 0.317 3.149 1.916 0.938 2.101 5.01 0.029 0.643-2.97 3.834-3.279 6.655-0.198 1.805 5.09 1.451 3.118 4.188-1.131 1.569-4.097 2.381-5.303 5.927-0.33 0.972 1.51 3.826 1.276 6.048-1.93 2.595-3.587 4.125-3.911 5.042-1 2.825 0.775 4.679-0.019 6.442-0.09 1.064-0.284 1.853-0.613 2.609-0.056 0.123-0.115 0.246-0.172 0.37-0.604 1.214-1.57 2.456-3.028 4.764 0.298-5.969 0.835-9.467 0.668-18.949-0.018-1.056 4.842-8.742 4.922-9.108 0.08-0.365-4.395 3.943-4.287 3.528 1.222-4.685 0.445-4.628 0.596-5.635 1.238-0.419 6.859-9.164 6.717-9.467-3.187 1.093-6.513 5.036-6.505 4.809 0.062-1.643 0.877-6.437 1.212-8.266 0.862-0.222 4.197-3.145 5.649-6.787-3.792 1.622-5.093 5.063-5.07 4.768 0.659-8.574 5.358-18.3 7.713-23.887 1.498-0.24 1.597 1.29 1.125 2.9zm-19.515-142.77c1.832 3.752 3.256 8.726 2.442 14.106-2.794-3.314-2.892-11.006-2.442-14.106zm-28.922 30.599c4.045 1.033 8.51 1.431 7.951 3.714-1.523 0.977-5.88-1.365-7.951-3.714zm-15.331 68.404c4.108-0.75 14.053-1.084 14.605 0.48-0.976 1.53-11.741 0.79-14.605-0.48zm4.355 124.51c3.019-0.258 9.407 0.563 9.696 1.731-0.811 1.03-7.716-0.61-9.696-1.73zm9.884-36.33c3.884-0.331 11.138 0.651 11.51 2.154-1.042 1.33-8.961-0.72-11.51-2.15zm-4.236-8.25c3.884-0.33 8.611-0.687 8.983 0.816-1.043 1.32-6.435 0.62-8.983-0.82zm39.864-21.59c2.218 3.206 4.877 7.13 3.758 8.2-1.672-0.25-3.737-5.28-3.758-8.2zm-3.283 6.99c2.218 3.205 5.724 11.79 4.605 12.86-1.672-0.24-4.584-9.94-4.605-12.86zm-3.813 10.06c2.218 3.206 9.113 13.59 7.994 14.66-1.672-0.24-7.973-11.74-7.994-14.66zm-26.782-109.61c1.474-2.412 4.85-2.014 6.772-0.393 2.81 2.37 4.43 6.366 4.756 7.295 0.685 2.688-3.198 5.48-5.802 4.807-3.929-0.54-8.116-6.73-5.726-11.72zm-6.811 78.33c1.474-2.412 4.85-2.014 6.772-0.393 2.81 2.37 4.43 6.366 4.756 7.295 0.685 2.688-3.198 5.479-5.802 4.808-3.929-0.53-8.116-6.72-5.726-11.71zm-0.432 117.52c0.477-2.786 3.761-3.666 6.146-2.87 3.488 1.162 6.471 4.275 7.118 5.018 1.63 2.243-0.945 6.274-3.612 6.612-3.847 0.96-10.024-3.24-9.652-8.76zm14.629 63.59c-1.958-1.218-1.611-3.969-0.276-5.526 1.952-2.276 5.222-3.571 5.982-3.832 2.197-0.54 4.449 2.646 3.882 4.765-0.457 3.2-5.528 6.57-9.588 4.59zm16.051-265.65c4.045 1.033 10.188 1.96 9.628 4.244-1.524 0.98-7.556-1.89-9.628-4.24zm-3.881-38.056c2.61 3.259 5.092 7.798 5.479 13.226-3.453-2.62-5.237-10.103-5.479-13.226zm-14.924 30.416c4.174 0.12 5.851 0.67 10.239 3.888-1.09 2.92-7.702-2.06-10.239-3.89zm-3.403 65.51c3.842-1.634 8.297-1.94 13.629-0.85 0.23 3.11-10.556 1.46-13.629 0.85zm-5.355 122.05c2.888-0.914 9.175 0.735 12.949 1.894-0.05 2.26-10.772-1.24-12.949-1.89zm33.624 40.4c2.889-0.914 6.866 0.591 10.64 1.749-0.049 2.26-8.463-1.09-10.64-1.75zm-7.937-8.22c2.889-0.914 8.309-1.862 12.228 0.883-0.05 2.26-10.05-0.23-12.228-0.88zm-30.821 38.93c0.119-3.027 0.052-6.14 3.963-8.896 2.111 0.81-2.611 7.07-3.963 8.9zm-5.013-1.52c0.083-2.118 0.037-4.296 2.773-6.226 1.477 0.58-1.826 4.95-2.773 6.23zm11.881-16.21c2.192-2.091 6.643-5.327 11.369-4.586 0.951 2.06-9.127 4.22-11.369 4.59zm9.453 6.53c5.434-2.52 6.905-6.073 11.679-6.383 1.376 1.79-8.561 6.82-11.679 6.38zm8.948 3.75c1.682-2.521 6.183-3.332 10.524-5.951 1.809 3.81-8.417 5.1-10.524 5.95zm12.843 5.48c1.682-2.52 4.596-3.043 8.36-4.796 0.077 4.83-6.253 3.95-8.36 4.8zm34.477 33.35c-0.023-3.03 4.187-7.394 6.317-10.958 2.77 3.95-5.056 9.07-6.321 10.96zm56.201-14.03c0.983-2.2 5.074-5.163 7.793-7.039 0.71 3.77-6.25 6.09-7.79 7.04zm-50.12 11.93c-0.024-3.029 7.577-10.684 9.707-14.248 2.77 3.96-8.44 12.36-9.71 14.25zm57.01-10.64c0.984-2.2 6.82-6.025 9.54-7.901 0.71 3.77-8 6.95-9.54 7.9zm-46.14 3.96c-0.024-3.029 6.78-9.188 8.91-12.753 2.78 3.95-7.64 10.86-8.91 12.75zm56.62-3.71c0.983-2.201 5.25-5.406 7.969-7.282 0.7 3.77-6.43 6.33-7.97 7.28zm-126.98-118.99c3.717 0.46 8.535 1.541 13.169 2.213-2.781 2.6-6.928 1.43-13.169-2.21zm17.573-134.39c4.174 0.119 6.91 2.611 11.298 5.829-1.09 2.92-8.76-3.99-11.298-5.83zm-5.484-68.497c2.09 3.615 4.674 11.663 4.24 17.087-3.02-3.109-4.471-13.963-4.24-17.087zm-20.018 34.275c4.108 0.747 8.691 1.34 8.742 3.528-0.77 1.53-6.51-1.334-8.742-3.532zm-10.215 66.732c4.044-1.037 14.709-1.455 15.669 0.513-0.06 1.72-12.723 0.56-15.669-0.51zm-1.076 124.96c2.993-0.469 12.434-0.253 12.991 1.234-0.164 1.23-10.938-0.26-12.991-1.23zm10.777-34.77c3.852-0.604 14.958 2.276 15.675 4.189-0.21 1.58-13.033-2.94-15.675-4.19zm22.843-131.68c4.108 0.746 11.869 3.106 11.919 5.294-0.769 1.53-9.687-3.09-11.919-5.29zm-43.497 223.08c1.736-0.869 3.552-1.569 5.8-0.857-0.554 2.31 5.822 3.863 6.731 3.863 3.063 0.32-0.533 3.313 1.465 5.305-0.093 0 0.935 1.389 2.522 1.752 3.032 0.692 5.846-0.954 6.555 1.135-0.118 0.719 0.595 3.177 2.967 3.751 4.23 1.026 6.597-2.204 9.544 0.254 0.724 0.533 1.074 2.647 2.251 3.471 2.066 1.447 5.07 1.707 2.182 1.95-2.349 0.38-4.58-1.491-5.435-4.338-0.577-1.25-4.564 0.652-6.013 0.693-4.432 0.653-5.8-1.696-6.797-4.244 0.225-1.241-3.5 0.006-6.089-0.936-1.676-0.609-1.915-1.4-2.15-2.313-0.542-0.682-8.936-4.875-9.197-4.783s8.339 5.004 7.828 5.099c-0.895 0.164-1.746 0.392-2.581 0.643s-1.657 0.524-2.491 0.781c-0.299 0.092-7.38-2.82-7.581-2.724-0.335 0.159 6.246 3.331 5.77 3.499-7.374 2.606-13.486 6.104-14.182 6.034-2.103-0.207-2.275-4.251 2.363-5.411 1.853-3.521-2.705-3.377-1.853-6.049 1.265-4.186 5.468 0.022 7.834-1.335 1.728-0.97-1.574-3.21 0.557-5.22zm163.55 49.81c0.532 0.665 1.063 1.329 1.596 1.994 1.589-3.171 4.388-6.019 6.582-8.844-3.14 1.88-6.09 3.89-8.18 6.85zm0.59 2.99c0.692-0.712-0.796-1.834-1.162-2.632-0.399 0.365-0.732 0.97-1.131 1.335 0.25 0.72 0.99 2.21 2.29 1.3zm-55.59-48.02c0.477-2.786 3.761-3.666 6.146-2.87 3.488 1.162 6.471 4.275 7.118 5.017 1.63 2.244-0.944 6.274-3.612 6.613-3.85 0.96-10.03-3.23-9.66-8.76z"/>
	<path fill="#912C17" d="m58.564 207.93h-0.452c-1.603-2.145-1.651-3.111-1.476-5.42 8.885-8.71 22.236-24.458 22.236-33.288 1.272-15.271-14.086-32.56-28.468-36.804-2.649-1.184-2.458-3.172-2.024-4.614-1.069-0.807-1.368-1.151-1.842-1.389-4.27 6.074 6.613 13.003 13.719 28.748-2.649 4.898-17.941 22.415-23.335 34.969s2.247 17.191 3.816 21.304c1.79 4.834 8.427 17.409 11.545 15.485v3.608c0.126 0.05 0.255 0.107 0.388 0.175-0.245-1.282-0.616-3.159 0.02-3.946 0.636-0.788 2.882-0.144 3.151-1.526 0.395-2.021-1.785-6.211-1.676-8.18s2.561-1.475 3.145-1.723c2.127-0.89 0.98-4.66 1.253-7.39"/>
	<path fill="#D92819" d="m41.997 210.29c-3.521-4.246-6.517-11.236-4.983-14.283 6.438-22.065 31.111-37.108 26.929-54.87 5.742 5.486 10.462 13.014 13.142 21.052 2.52 12.294-6.816 22.482-15.812 32.92-7.225 8.383-15.51 17.017-9.834 29.981-6.806-7.06-5.572-6.97-9.442-14.8"/>
	<path fill="#F9F200" d="m76.19 159.49c2.52 12.293-7.335 24.3-16.331 34.737-7.225 8.382-14.524 17.048-10.275 28.974-1.125-1.272-0.988-1.09-2.079-2.442-1.761-11.768 4.089-18.974 10.765-26.82 7.069-8.309 19.601-20.362 17.204-36.13 0.501 1.01 0.408 0.75 0.716 1.68"/>
	<path fill="#F9F200" d="m74.504 155.73c2.52 12.294-6.298 25.338-15.682 35.386-7.553 8.087-14.52 17.429-12.477 28.058-0.843-1.396-0.771-1.268-1.579-2.902-0.723-8.523 6.318-17.973 12.993-25.817 7.069-8.308 18.425-20.637 16.028-36.406 0.501 1.01 0.408 0.76 0.717 1.68"/>
	<path fill="#F9F200" d="m36.912 200.51c2.135-10.391 8.16-18.816 14.462-27.333 8.104-10.951 16.118-20.821 13.766-30.812 0.742 0.79 0.555 0.618 1.297 1.407 1.181 10.598-6.63 19.707-14.263 30.067-6.324 8.585-12.664 17.331-14.433 29.238-0.186-0.46-0.739-2.05-0.829-2.58"/>
	<path fill="#F9F200" d="m38.255 204.29c2.112-11.085 8.589-21.376 15.229-30.384 7.766-10.534 15.211-19.988 13.656-29.492 0.742 0.789 0.529 0.722 1.271 1.511 0.344 10.191-6.97 19.099-14.391 29.172-6.548 8.889-12.836 18.744-14.817 31.048-0.184-0.46-0.857-1.34-0.948-1.86"/>
	<path fill="#912C17" d="m36.834 314.23c-0.482-5.208 6.743-23.946 18.345-38.507 10.114-12.694 16.949-22.945 16.377-25.427 1.622-0.118 0.623 3.835 2.012 9.394 2.051 8.205 5.49 16.413 5.49 18.528 0.437 3.255-1.086 9.479-4.292 14.622-4.393 7.048-10.071 14.495-15.152 21.823-5.273 7.605-8.86 14.199-9.827 16.479-1.209-0.959-2.075-4.505-4.14-6.713-3.942-4.2-8.813-7.85-8.813-10.19"/>
	<path fill="#D92819" d="m38.565 314.32c-0.438-4.737 7.649-24.106 18.199-37.349 9.198-11.544 15.188-18.171 14.668-20.428 1.475-0.107-0.17 0.908 1.093 5.964 1.865 7.461 4.809 14.742 4.809 16.666 0.397 2.96-2.094 8.806-5.008 13.481-3.994 6.408-9.452 13.878-14.071 20.541-4.794 6.915-7.717 12.637-8.597 14.711-1.1-0.872-1.752-3.778-3.63-5.785-3.586-3.83-7.463-5.68-7.463-7.8"/>
	<path fill="#F9F200" d="m76.563 275.81c0.23 0.669 0.174 0.561 0.308 1.126 0.397 2.961-2.157 9.286-5.071 13.962-3.994 6.408-9.453 13.878-14.071 20.541-4.794 6.915-8.13 13.085-9.009 15.158l-0.588-1.16c2.275-4.82 5.141-8.899 7.887-13.325 4.219-6.801 10.31-14.221 14.447-21.145 3.019-5.06 5.051-9.52 6.097-15.17"/>
	<path fill="#F9F200" d="m75.74 273.32c0.233 0.675 0.177 0.565 0.311 1.137 0.401 2.985-2.175 9.365-5.114 14.081-4.028 6.464-9.533 13.997-14.192 20.718-4.835 6.976-8.146 13.27-9.034 15.361l-0.705-1.238c2.295-4.861 5.244-8.979 8.014-13.445 4.255-6.858 10.398-14.342 14.571-21.325 3.045-5.1 5.094-9.6 6.149-15.3"/>
	<path fill="#F9F200" d="m39.06 315.89c-0.442-5.829 7.896-24.474 18.539-37.831 9.278-11.646 14.867-17.773 14.342-20.05 0.247 1.339 0.141 1.439 0.388 2.778-4.965 8.218-14.958 18.246-19.923 26.407-6.193 10.181-11.276 19.976-12.402 29.485-0.523-0.42-0.213-0.14-0.944-0.79"/>
	<path fill="#F9F200" d="m40.674 317.42c-0.428-5.639 7.55-23.849 17.845-36.769 8.974-11.265 14.468-17.017 13.96-19.219 0.239 1.295 0.136 1.393 0.375 2.688-4.803 7.949-14.545 17.208-19.009 25.017-5.719 10.008-11.425 18.832-12.175 29.132-0.503-0.41-0.289-0.22-0.996-0.85"/>
	<path fill="#912C17" d="m50.25 365.67c24.965-3.426 31.9-17.423 48.909-18.284 5.524-0.647 13.562 2.969 19.868 8.771 6.677 3.434 10.174 5.895 10.608 8.24l0.035 0.017v0.257c-2.325-0.555-4.734-1.215-6.55-0.956-3.387 1.799-0.406 1.316-3.874 3.275-1.964 0.347-4.028-2.079-7.015-1.29-0.969 0.257-2.168-0.063-2.583 3.495-2.028 1.091-6.082-0.212-7.137-0.277-2.976-0.184-3.969 0.703-4.234 1.868 0.001 0.001 0.003 0.002 0.004 0.003 0.002 0.001 0.004 0.003 0.006 0.004 0.063 0.046 0.127 0.093 0.195 0.139-4.475 2.887-8.907 4.792-12.986 7.091-5.963 3.362-11.071 6.488-13.534 5.589-5.127-0.686-6.641-4.68-11.198-7.933-2.387-1.703-5.271-2.521-7.087-4.239-3.179-3-3.436-5.11-3.436-5.77"/>
	<path fill="#D92819" d="m52.535 367.04c3.094 0.343 9.906-3.035 18.498-6.374 12.973-5.041 17.698-11.91 30.068-11.452 3.217 0.101 6.878 0.649 11.291 3.238 3.894 2.284 7.497 6.539 12.25 7.846-2.208 0-19.656 4.057-30.745 10.652-9.187 5.465-17.64 11.234-21.592 10.717-6.182-0.08-7.475-6.508-11.832-8.14-7.58-2.85-7.936-5.73-7.936-6.5"/>
	<path fill="#F9F200" d="m52.869 368.31c3.094 0.343 10.896-3.614 19.488-6.953 13.984-5.434 18.076-13.209 36.199-10.75l1.275 0.467c-5.423-0.09-11.388-0.568-16.036 1.051-7.35 2.56-13.615 7.217-20.964 10.01-6.378 2.317-13.221 6.267-19.289 7.106-0.903-0.69-0.191-0.03-0.682-0.94"/>
	<path fill="#F9F200" d="m54.186 369.94c3.094 0.343 10.896-3.615 19.488-6.953 13.984-5.434 15.675-12.354 37.438-11.14l1.508 0.7c-5.423-0.09-14.253 0.209-18.902 1.828-7.35 2.56-12.221 6.596-19.57 9.389-6.378 2.317-12.911 6.266-18.979 7.106-0.894-0.68-0.492-0.03-0.983-0.94"/>
	<path fill="#F9F200" d="m122 359.24c-2.208 0-19.581 4.058-30.668 10.652-9.186 5.463-18.747 11.343-22.7 10.825-0.654-0.418-0.601-0.387-0.912-0.612 10.16-1.331 20.588-10.946 31.869-15.429 6.206-2.466 14.49-4.961 20.865-6.273 1.09 0.51 0.51 0.54 1.55 0.83"/>
	<path fill="#F9F200" d="m120.15 357.81c-2.208 0-19.581 4.058-30.668 10.652-9.187 5.464-18.763 11.343-22.715 10.825-0.384-0.386-0.229-0.202-0.603-0.612 10.16-1.331 20.294-10.945 31.574-15.428 6.206-2.466 14.491-4.961 20.866-6.274 1.09 0.53 0.52 0.56 1.55 0.84"/>
	<path fill="#D92819" d="m157.96 352.34c3.297 0.076 7.346 2.731 12.404 4.843 1.365 0.569 2.666 1.015 3.898 1.47l-7.05 5.333c-1.268-0.659-2.298-2.444-2.96-2.766-6.32-3.059-4.979 3.963-7.146 4.363-2.845 0.525-7.293-1.673-7.87-1.588-6.817 1.662 0.947 5.715-3.502 6.22-3.823-1.003-9.313 2.316-7.419 3.96 2.806 2.433 1.558 2.355-1.231 2.913-2.529 0.25-3.787 3.609-3.292 4.902 0.859 1.752 1.99 3.198 7.012 1.938 1.401-0.139 2.161-0.905 2.956-0.046 0.465 1.19-3.965 5.577 3.156 4.292-9.067 10.768-14.928 8.476-23.293 7.042-5.911-1.014-5.928-0.148-9.62-1.146 7.292-6.62 9.229-10.584 14.891-19.41 8.49-13.21 20.39-23.15 29.06-22.29"/>
	<path fill="#F9F200" d="m159.56 352.5c0.592 0.261 1.185 0.522 1.778 0.783-4.943-0.208-11.671 2.101-16.207 6.354-2.724 2.555-5.847 5.571-8.646 8.911-2.319 2.767-4.392 5.832-6.061 8.353-3.905 5.898-7.646 12.846-13.457 17.604-0.509-0.086-0.982 0.034-1.529-0.113 7.292-6.619 9.391-10.745 15.054-19.571 8.51-13.23 20.4-23.17 29.08-22.31"/>
	<path fill="#F9F200" d="m162.8 353.8c0.592 0.261 1.185 0.522 1.778 0.783-4.943-0.208-12.24 2.102-16.451 5.461-2.919 2.329-6.091 5.409-8.89 8.749-2.319 2.767-4.392 5.833-6.061 8.354-3.906 5.897-7.646 12.845-13.457 17.604-0.509-0.086-0.982 0.035-1.529-0.113 7.292-6.619 9.391-10.745 15.054-19.571 9.97-15.19 20.89-22.12 29.56-21.26"/>
	<path fill="#F9F200" d="m144.45 388.39c-1.257 1.902-2.242 2.977-3.246 4.147-0.687 0.802-1.458 1.645-2.8 2.717-0.509 0.236-0.953 0.415-1.558 0.531 2.318-2.217 4.739-4.968 6.539-7.658 0.35 0.29 0.68 0.27 1.07 0.26"/>
	<path fill="#F9F200" d="m173.06 358.18c-2.581 1.616-4.848 3.174-6.833 5.042-0.206-0.183-0.389-0.364-0.595-0.546 1.805-1.774 3.938-3.375 6.546-4.827 0.28 0.12 0.58 0.23 0.87 0.34"/>
	<path fill="#F9F200" d="m170.91 357.4c-2.581 1.616-4.107 2.477-6.092 4.345-0.206-0.183-0.39-0.365-0.596-0.547 1.805-1.773 3.198-2.677 5.806-4.129 0.29 0.12 0.58 0.23 0.88 0.34"/>
	<path fill="#F9F200" d="m142.82 387.35c-0.86 1.302-1.836 2.491-2.843 3.726-1.473 1.805-3.081 3.605-5.043 5.173-0.48 0.09-0.662 0.006-1.267 0.121 1.879-1.797 3.897-3.931 5.688-6.145 1.682-2.079 3.153-4.232 4.428-6.138-0.39 1.38-1.07 2.33-0.97 3.27"/>
	<path fill="#D92819" d="m68.858 85.57c2.08 0 9.245-4.915 10.77-6.24 0 2.495 3.31 5.525 5.448 8.812 2.417 3.715 3.486 7.292 0.168 9.63-3.766 2.653-7.391 1.261-9.454-1.771-1.392-2.044-1.744-5.234-2.813-7.225-1.288-2.399-4.119-2.905-4.119-3.206"/>
	<path fill="#F9F200" d="m70.698 85.001l0.866-0.427c1.727 1.102 1.914 1.469 3.292 2.852 1.35 1.74 2.246 6.526 3.736 8.021 1.595 1.67 3.959 2.262 6.499 2.427-0.712 0.449-0.309 0.206-1.093 0.646-2.732-0.054-5.56-1.679-6.542-3.123-1.39-2.043-1.788-5.067-2.987-6.979-1.464-2.329-3.771-3.116-3.771-3.417"/>
	<path fill="#F9F200" d="m72.168 84.266l0.866-0.428c1.727 1.103 1.914 1.47 3.292 2.852 1.35 1.74 2.105 6.351 3.596 7.847 1.594 1.67 3.906 2.045 6.445 2.211-0.35 0.391-0.257 0.31-0.702 0.699-2.733-0.055-5.758-1.341-6.74-2.785-1.39-2.042-1.788-5.067-2.987-6.979-1.462-2.329-3.77-3.116-3.77-3.417"/>
	<path fill="#D92819" d="m94.354 59.029c3.054-0.722 8.101-0.238 12.69 3.881 5.722 5.136 10.43 16.219 15.457 23.141 5.434 7.482 11.012 10.22 12.178 10.22-0.284 2.285-2.706 2.029-5.548 3.986-2.951 2.031-5.811 4.561-7.028 5.994-2.669 2.19-8.824-0.146-12.703-4.749-4.4-5.22-12.181-21.039-17.334-26.567-6.519-6.992-10.1-3.166-11.342-3.166 2.758-2.867 11.115-10.52 13.63-12.738"/>
	<path fill="#F9F200" d="m83.142 69.399l0.706-0.691c1.103-0.146 5.376-2.036 11.696 6.422 2.775 3.755 4.528 6.791 6.807 10.214 1.948 2.927 3.974 6.308 6.867 10.45 5.808 8.538 9.222 9.226 13.738 9.547-0.375 0.376-0.287 0.3-0.683 0.707-3.305-0.002-7.73-1.244-11.955-7.077-3.208-4.43-6.168-9.263-8.814-13.372-3.512-5.453-6.355-9.709-7.335-10.829-6.153-7.793-11.033-5.072-11.033-5.373"/>
	<path fill="#F9F200" d="m84.495 68.098l0.706-0.691c1.103-0.146 5.376-2.036 11.696 6.422 2.775 3.755 4.528 6.791 6.807 10.214 1.948 2.927 3.973 6.308 6.866 10.45 5.809 8.538 9.222 9.226 13.739 9.548-0.375 0.376-0.287 0.299-0.684 0.707-3.305-0.003-7.73-1.244-11.955-7.078-3.208-4.43-6.168-9.263-8.814-13.371-3.513-5.453-6.355-9.709-7.336-10.829-6.159-7.794-11.039-5.073-11.039-5.374"/>
	<path fill="#F9F200" d="m92.799 60.408l0.712-0.611c5.854-0.847 11.926 2.883 15.134 7.702 1.947 2.926 8.136 13.487 11.029 17.63 5.808 8.537 9.685 11.165 14.409 12.475-0.41 0.361-0.491 0.375-0.958 0.683-3.825-1.251-7.426-3.27-11.83-9.41-3.181-4.434-10.89-16.903-13.601-20.967-4.28-6.42-10.781-7.773-14.891-7.502"/>
	<path fill="#F9F200" d="m91.571 61.511l0.712-0.612c5.855-0.847 11.927 2.884 15.134 7.702 1.947 2.926 8.136 13.487 11.029 17.63 5.808 8.538 9.278 11.047 14.002 12.357-0.453 0.233-0.78 0.279-1.258 0.533-3.825-1.251-6.719-3.002-11.124-9.142-3.181-4.434-10.889-16.903-13.601-20.967-4.29-6.42-10.789-7.773-14.899-7.501"/>
	<path fill="#912C17" d="m173.34 224c0.728 0 1.321 0.593 1.321 1.32 0 0.729-0.594 1.321-1.321 1.321-0.728 0-1.321-0.593-1.321-1.321 0-0.73 0.59-1.32 1.32-1.32"/>
	<path fill="#9C7D23" d="m144.88 90.413c0.03-0.03 0.06-0.06 0.091-0.089-0.001 0-0.001 0-0.001-0.001 2.338-2.338 7.289-3.856 9.627-6.194 3.007-3.007 3.4-6.833 6.407-9.84l10.002 10.002c-2.631 2.63-7.177 3.827-9.809 6.458-2.714 2.714-3.512 6.863-6.227 9.577 0 0-0.001 0-0.001-0.001-0.03 0.031-0.059 0.062-0.089 0.092-2.754 2.755-7.248 2.755-10.002 0s-2.75-7.253 0-10.007"/>
	<path fill="#F3D400" d="m146.89 91.307c0.027-0.027 0.054-0.053 0.081-0.08 2.078-2.079 6.172-3.735 8.251-5.813 2.672-2.673 3.329-5.768 6.001-8.44l7.104 7.104c-2.338 2.339-6.081 3.701-8.419 6.039-2.413 2.413-3.421 5.801-5.834 8.214l-0.001-0.001c-0.026 0.027-0.052 0.055-0.079 0.081-2.449 2.449-6.041 2.85-7.998 0.894-1.95-1.958-1.55-5.55 0.9-7.998"/>
</g>
</svg>
