<?xml version="1.0" encoding="utf-8"?>
<!-- Generator: Adobe Illustrator 21.0.2, SVG Export Plug-In . SVG Version: 6.00 Build 0)  -->
<svg version="1.1" id="Layer_1" xmlns="http://www.w3.org/2000/svg" xmlns:xlink="http://www.w3.org/1999/xlink" x="0px" y="0px"
	 viewBox="0 0 3570.5 675.1" style="enable-background:new 0 0 3570.5 675.1;" xml:space="preserve">
<style type="text/css">
	.st0{display:none;}
	.st1{display:inline;}
	.st2{fill:#00ACCD;}
	.st3{fill:#F8991D;}
	.st4{display:none;fill:none;stroke:#FEBE10;stroke-width:2;}
	.st5{fill:none;stroke:#FEBE10;stroke-width:2;}
	.st6{display:inline;fill:#00ACCD;}
</style>
<g id="Layer_1_1_" class="st0">
	<path id="XMLID_61_" class="st1" d="M739.7,660.2c1.3,0.3,1.8,1.7,1.8,2.4c0,2.4-1.9,3.4-3.9,3.4H734v-10.8h3.7
		c1.7,0,3.2,0.8,3.4,2.5C741.2,658.7,740.8,659.7,739.7,660.2z M737.5,659.3c1.4,0,1.3-1.9,0-1.9h-1.1v1.9H737.5z M736.5,661.3v2.3
		h1.1c1.7,0,1.7-2.3,0-2.3H736.5z"/>
	<path id="XMLID_66_" class="st1" d="M751.9,658.4h0.9c5.4,0,5.4,7.6,0,7.6h-3.6v-10.8h2.7V658.4z M751.8,660.7v3h0.9c2,0,1.9-3,0-3
		H751.8z M758.3,655.2h2.7V666h-2.7V655.2z"/>
	<path id="XMLID_73_" class="st1" d="M777,658.6c-0.9-1-1.8-1.3-2.6-1.2c-1.8,0-2.8,1.5-2.8,3.2s1,3.1,2.8,3.1
		c0.8,0,1.9-0.3,2.8-1.4l1.7,1.5c-1.3,1.6-2.7,2.4-4.5,2.4c-3.6,0-5.6-2.7-5.6-5.6c0-2.9,1.9-5.6,5.6-5.6c1.6,0,2.9,0.5,4.3,2.1
		L777,658.6z"/>
	<path id="XMLID_76_" class="st1" d="M793.4,655.2v2.4h-2.5v8.4h-2.8v-8.4h-2.5v-2.4H793.4z"/>
	<path id="XMLID_78_" class="st1" d="M805.8,663.3h-3.4l-0.8,2.6h-2.9l3.7-10.9h3.6l3.7,10.9h-3L805.8,663.3z M804.1,657l-0.3,1.5
		l-0.7,2.3h2l-0.6-2.3L804.1,657L804.1,657z"/>
	<path id="XMLID_81_" class="st1" d="M822.5,660.2c1.3,0.3,1.8,1.7,1.8,2.4c0,2.4-1.9,3.4-3.9,3.4h-3.6v-10.8h3.7
		c1.7,0,3.2,0.8,3.4,2.5C824,658.7,823.6,659.7,822.5,660.2z M820.3,659.3c1.4,0,1.3-1.9,0-1.9h-1.1v1.9H820.3z M819.3,661.3v2.3
		h1.1c1.7,0,1.7-2.3,0-2.3H819.3z"/>
	<path id="XMLID_85_" class="st1" d="M831.8,655.2h2.7v4.3l0.6-1.1l2.4-3.1h3.2l-4,4.9l4.2,5.9h-3.2l-2.9-4l-0.3,0.3v3.7h-2.7V655.2
		z"/>
	<path id="XMLID_87_" class="st1" d="M854.4,663.3H851l-0.8,2.6h-2.9L851,655h3.6l3.7,10.9h-3L854.4,663.3z M852.6,657l-0.3,1.5
		l-0.7,2.3h2l-0.6-2.3L852.6,657L852.6,657z"/>
	<path id="XMLID_93_" class="st1" d="M880.6,661.8h-3v4.2h-2.8v-10.8h2.8v4.2h3v-4.2h2.8V666h-2.8V661.8z"/>
	<path id="XMLID_95_" class="st1" d="M898.1,657.5h-4v1.9h3.8v2.3h-3.8v1.9h4v2.3h-6.6v-10.8h6.6V657.5z"/>
	<path id="XMLID_97_" class="st1" d="M915.6,663.6v4.4h-2.5v-2h-5.2v2h-2.5v-4l1.1-0.2c0.5-0.5,0.6-2.1,0.7-2.9l0.4-5.5h7.3v8.4h0.7
		V663.6z M912,663.6v-6h-2.1l-0.2,3c0,1.1-0.2,2.3-0.8,3H912z"/>
	<path id="XMLID_100_" class="st1" d="M928.9,660.2c1.3,0.3,1.8,1.7,1.8,2.4c0,2.4-1.9,3.4-3.9,3.4h-3.6v-10.8h3.7
		c1.7,0,3.2,0.8,3.4,2.5C930.4,658.7,930,659.7,928.9,660.2z M926.7,659.3c1.4,0,1.3-1.9,0-1.9h-1v1.9H926.7z M925.6,661.3v2.3h1
		c1.7,0,1.7-2.3,0-2.3H925.6z"/>
	<path id="XMLID_104_" class="st1" d="M945.7,657.7l-0.8,2.3l-2.8,5.9h-3.9v-10.8h2.7v5.8l-0.4,2.7h0.1l1-2.6l2.9-5.9h3.6V666h-2.8
		v-5.8L945.7,657.7L945.7,657.7z"/>
	<path id="XMLID_107_" class="st1" d="M963.7,657.9v1.2h0.1l0.6-1.1l2.1-2.8h3.3v0.1l-3.9,4.8l3.9,5.9l0,0h-3.1l-2.4-3.7l-0.6-1.2
		h-0.1l0.1,1.3v3.6h-2.6v-3.6l0.1-1.3h-0.1l-0.6,1.2l-2.4,3.7H955l0,0l3.9-5.9l-3.9-4.8v-0.1h3.3l2.1,2.8l0.6,1.1h0.1v-1.2v-2.8h2.7
		L963.7,657.9L963.7,657.9z"/>
	<path id="XMLID_110_" class="st1" d="M984.1,657.7l-0.8,2.3l-2.8,5.9h-3.9v-10.8h2.7v5.8l-0.4,2.7h0.1l1-2.6l2.9-5.9h3.6V666h-2.8
		v-5.8L984.1,657.7L984.1,657.7z"/>
	<path id="XMLID_112_" class="st1" d="M1003,655.1h3.7V666h-2.7v-4.6l0.4-3h-0.1l-1.1,3l-1.4,3h-2.3l-1.4-3l-1.1-3h-0.1l0.4,3v4.6
		h-2.7v-10.9h3.7l2.3,6.1L1003,655.1z"/>
	<path id="XMLID_114_" class="st1" d="M1025.4,660.6c0,3.4-2.5,5.6-5.6,5.6s-5.6-2.2-5.6-5.6c0-3.4,2.5-5.6,5.6-5.6
		S1025.4,657.2,1025.4,660.6z M1019.8,663.7c1.4,0,2.8-0.8,2.8-3.1c0-2.2-1.4-3.1-2.8-3.1c-1.5,0-2.8,1-2.8,3.1
		C1017,662.7,1018.4,663.7,1019.8,663.7z"/>
	<path id="XMLID_117_" class="st1" d="M1041,658.6c-0.9-1-1.8-1.3-2.6-1.2c-1.8,0-2.8,1.5-2.8,3.2s1,3.1,2.8,3.1
		c0.8,0,1.9-0.3,2.8-1.4l1.7,1.5c-1.3,1.6-2.7,2.4-4.5,2.4c-3.6,0-5.6-2.7-5.6-5.6c0-2.9,1.9-5.6,5.6-5.6c1.6,0,2.9,0.5,4.3,2.1
		L1041,658.6z"/>
	<path id="XMLID_120_" class="st1" d="M1057.3,655.2v2.4h-2.5v8.4h-2.8v-8.4h-2.5v-2.4H1057.3z"/>
	<path id="XMLID_122_" class="st1" d="M1072.1,657.7l-0.8,2.3l-2.8,5.9h-3.9v-10.8h2.7v5.8l-0.4,2.7h0.1l1-2.6l2.9-5.9h3.6V666h-2.8
		v-5.8L1072.1,657.7L1072.1,657.7z"/>
	<g id="XMLID_3_" class="st1">
		<path id="XMLID_4_" class="st2" d="M766.6,467.9c-4-4.2-8.1-5.6-11.5-5.4c-8.1,0.2-12.5,6.7-12.5,14s4.5,13.8,12.5,13.8
			c3.5,0,8.4-1.5,12.2-6.3l7.7,6.4c-5.9,7.2-12.1,10.7-19.8,10.7c-15.9,0-24.5-11.9-24.5-24.6s8.6-24.8,24.5-24.8
			c7,0,12.9,2.4,18.7,9.4L766.6,467.9z"/>
		<path id="XMLID_6_" class="st2" d="M830,476.4c0,14.9-11.2,24.6-24.6,24.6c-13.5,0-24.7-9.6-24.7-24.6c0-14.9,11.2-24.7,24.7-24.7
			C818.8,451.8,830,461.7,830,476.4z M805.4,490.1c6.1,0,12.4-3.4,12.4-13.7c0-9.9-6.3-13.7-12.4-13.7c-6.5,0-12.4,4.6-12.4,13.7
			C793,485.7,799.3,490.1,805.4,490.1z"/>
		<path id="XMLID_9_" class="st2" d="M850.1,464.1l2.1,10.4v25.7H840v-47.6h16l12.6,26.1l4.3,11.3l0.5-0.1l-1.8-11.7v-25.6h12v47.6
			h-17.1l-12.2-26l-3.7-10.3L850.1,464.1z"/>
		<path id="XMLID_11_" class="st2" d="M906.6,464.1l2.1,10.4v25.7h-12.2v-47.6h16l12.6,26.1l4.3,11.3l0.5-0.1l-1.8-11.7v-25.6h12
			v47.6H923l-12.2-26l-3.7-10.3L906.6,464.1z"/>
		<path id="XMLID_13_" class="st2" d="M981.1,462.8h-17.5v7.5h16.8v10.2h-16.8v9.4h17.5v10.3h-29.2v-47.6h29.2V462.8z"/>
		<path id="XMLID_15_" class="st2" d="M1025.9,467.9c-4-4.2-8.1-5.6-11.5-5.4c-8.1,0.2-12.5,6.7-12.5,14s4.5,13.8,12.5,13.8
			c3.5,0,8.4-1.5,12.2-6.3l7.7,6.4c-5.9,7.2-12.1,10.7-19.8,10.7c-15.9,0-24.5-11.9-24.5-24.6s8.6-24.8,24.5-24.8
			c7,0,12.9,2.4,18.7,9.4L1025.9,467.9z"/>
		<path id="XMLID_17_" class="st2" d="M1074.5,452.6V463h-11.1v37.1h-12.2V463h-10.9v-10.5h34.2V452.6z"/>
		<path id="XMLID_19_" class="st3" d="M732.1,510.9h12.1v47.8h-12.1V510.9z"/>
		<path id="XMLID_21_" class="st3" d="M765.5,522.5l2.1,10.4v25.7h-12.2V511h16l12.6,26.1l4.3,11.3l0.5-0.1l-1.8-11.7V511h12v47.6
			h-17.1l-12.2-26l-3.7-10.3L765.5,522.5z"/>
		<path id="XMLID_23_" class="st3" d="M832.8,551.8l1.6-8.2l9.9-32.6H857l-16,47.8h-16.8L807.9,511h12.9l10.1,32.7l1.5,8.1H832.8z"
			/>
		<path id="XMLID_25_" class="st3" d="M893.6,521.3h-17.5v7.5h16.8V539h-16.8v9.4h17.5v10.3h-29.2v-47.6h29.2V521.3z"/>
		<path id="XMLID_27_" class="st3" d="M909.7,543.5c3.5,4.9,7.1,5.2,9.2,5.2c2.7,0.1,4.6-1.7,4.8-3.9c0.2-3.5-3.3-4.9-6-5.6h0.1
			c-5-1.3-14.6-4.6-14.5-14.7c0.2-10.1,8.4-14.1,16.1-14.1c5.7,0,11.4,2.7,15,9l-7.9,5c-1.9-2.4-3.9-3.5-6.7-3.5
			c-2.5,0-4.6,1-4.7,3.6c-0.1,2.8,3.3,3.7,5.5,4.3c7.5,2,15.5,5.6,15.1,16.6c-0.5,9.7-9,14-17,14c-5.2,0-12.4-2.2-16.8-10.2
			L909.7,543.5z"/>
		<path id="XMLID_29_" class="st3" d="M975.7,511.1v10.5h-11.1v37.1h-12.2v-37.1h-10.9v-10.5L975.7,511.1L975.7,511.1z"/>
		<path id="XMLID_31_" class="st2" d="M766.6,584.9c-4-4.2-8.1-5.6-11.5-5.4c-8.1,0.2-12.5,6.7-12.5,14s4.5,13.8,12.5,13.8
			c3.5,0,8.4-1.5,12.2-6.3l7.7,6.4c-5.9,7.2-12.1,10.7-19.8,10.7c-15.9,0-24.5-11.9-24.5-24.6s8.6-24.8,24.5-24.8
			c7,0,12.9,2.4,18.7,9.4L766.6,584.9z"/>
		<path id="XMLID_34_" class="st2" d="M820.6,617.1H807l-9.5-16.6h-1.6v16.6h-12.2v-47.6h16.6c6.9,0,12.6,2.1,15.5,7.1
			c1.6,2.7,2.2,5.7,2.2,8.7c-0.1,5.6-3.2,10.9-9.3,13.2L820.6,617.1z M800.5,590.3c3.9,0,5.8-2.7,5.7-5.4c-0.1-2.5-2-5-5.7-5h-4.9
			v10.5L800.5,590.3L800.5,590.3z"/>
		<path id="XMLID_38_" class="st2" d="M828.4,569.3h12.1v47.8h-12.1V569.3z"/>
		<path id="XMLID_40_" class="st2" d="M888.7,569.3h16.1v47.8h-11.9v-20l1.8-13l-0.4-0.1l-5,13l-6,13.3h-9.9l-6-13.3l-5-13l-0.4,0.1
			l1.8,13v20h-11.9v-47.8h16.3l10.1,26.7L888.7,569.3z"/>
		<path id="XMLID_42_" class="st2" d="M945.1,579.7h-17.5v7.5h16.8v10.2h-16.8v9.4h17.5v10.3h-29.2v-47.6h29.2V579.7z"/>
		<path id="XMLID_44_" class="st2" d="M983.1,605.5H968l-3.6,11.6h-12.9l16.2-48h15.8l16.4,48h-13L983.1,605.5z M975.3,577.8
			l-1.2,6.7l-3,10.3h8.8l-2.9-10.3l-1.2-6.7H975.3z"/>
	</g>
</g>
<line id="XMLID_401_" class="st4" x1="475" y1="353.7" x2="691.3" y2="208.9"/>
<line id="XMLID_35_" class="st4" x1="194.6" y1="365.3" x2="224.6" y2="287"/>
<line id="XMLID_199_" class="st4" x1="11.2" y1="491.4" x2="48.6" y2="87.5"/>
<line id="XMLID_195_" class="st5" x1="322.4" y1="227.6" x2="405.7" y2="481.6"/>
<path id="XMLID_200_" class="st5" d="M138.9,254.1"/>
<line id="XMLID_196_" class="st5" x1="431.8" y1="565.6" x2="676.7" y2="325.7"/>
<line id="XMLID_201_" class="st5" x1="473.4" y1="353.7" x2="571.5" y2="220.8"/>
<line id="XMLID_202_" class="st5" x1="224.6" y1="291.1" x2="366.7" y2="101.9"/>
<line id="XMLID_204_" class="st5" x1="11.2" y1="491.4" x2="144.7" y2="176.7"/>
<line id="XMLID_205_" class="st5" x1="194.6" y1="365.3" x2="48.7" y2="85.5"/>
<line id="XMLID_206_" class="st5" x1="405.7" y1="475.7" x2="366.7" y2="101.9"/>
<line id="XMLID_207_" class="st5" x1="470.5" y1="355" x2="463.5" y2="67.8"/>
<line id="XMLID_208_" class="st5" x1="405.7" y1="481.6" x2="507.9" y2="128.7"/>
<line id="XMLID_209_" class="st5" x1="432.6" y1="565.9" x2="475" y2="353.7"/>
<line id="XMLID_210_" class="st5" x1="463.5" y1="67.8" x2="762.1" y2="85.2"/>
<line id="XMLID_211_" class="st5" x1="743.4" y1="491.4" x2="763.1" y2="132.1"/>
<line id="XMLID_212_" class="st5" x1="824.5" y1="330.7" x2="908.1" y2="163.4"/>
<line id="XMLID_213_" class="st5" x1="676.7" y1="320.8" x2="743.4" y2="491.4"/>
<line id="XMLID_192_" class="st5" x1="194.6" y1="365.3" x2="320.2" y2="237.5"/>
<line id="XMLID_197_" class="st5" x1="366.7" y1="101.9" x2="48.7" y2="85.5"/>
<line id="XMLID_198_" class="st5" x1="320.2" y1="237.5" x2="307.1" y2="37.9"/>
<line id="XMLID_214_" class="st5" x1="762.1" y1="85.2" x2="909.9" y2="156.1"/>
<line id="XMLID_219_" class="st5" x1="762.1" y1="127.9" x2="909.9" y2="156.1"/>
<line id="XMLID_220_" class="st5" x1="762.1" y1="92.1" x2="691.3" y2="208.9"/>
<line id="XMLID_221_" class="st5" x1="691.3" y1="208.9" x2="815.5" y2="334.1"/>
<line id="XMLID_223_" class="st5" x1="962.5" y1="450.3" x2="1050.3" y2="276.5"/>
<line id="XMLID_228_" class="st5" x1="1050.3" y1="276.5" x2="1189.9" y2="287.2"/>
<line id="XMLID_229_" class="st5" x1="11.2" y1="491.4" x2="194.6" y2="365.3"/>
<line id="XMLID_231_" class="st5" x1="224.6" y1="291.1" x2="405.7" y2="485.4"/>
<line id="XMLID_233_" class="st5" x1="1297.4" y1="388.5" x2="1646.1" y2="306.2"/>
<line id="XMLID_234_" class="st5" x1="1180" y1="390.1" x2="1438.9" y2="41.7"/>
<line id="XMLID_237_" class="st5" x1="1194" y1="287.2" x2="1438.9" y2="41.7"/>
<line id="XMLID_239_" class="st5" x1="1297.4" y1="388.5" x2="1397.3" y2="252.2"/>
<line id="XMLID_2_" class="st5" x1="820.4" y1="334.1" x2="1127.3" y2="118"/>
<line id="XMLID_59_" class="st5" x1="962.5" y1="452.4" x2="1180" y2="390.1"/>
<line id="XMLID_152_" class="st5" x1="1356.3" y1="481.4" x2="1645.1" y2="306.3"/>
<line id="XMLID_60_" class="st5" x1="676.7" y1="320.8" x2="962.5" y2="450.3"/>
<line id="XMLID_70_" class="st5" x1="1109.8" y1="519.7" x2="1358.5" y2="479.4"/>
<line id="XMLID_89_" class="st5" x1="1564.3" y1="565.6" x2="1726" y2="432"/>
<line id="XMLID_118_" class="st5" x1="1504" y1="505.3" x2="1646.1" y2="306.2"/>
<line id="XMLID_125_" class="st5" x1="1505.5" y1="505.3" x2="1726" y2="432"/>
<line id="XMLID_147_" class="st5" x1="1397.3" y1="255" x2="1726" y2="432"/>
<line id="XMLID_126_" class="st5" x1="1408.9" y1="539.4" x2="1465" y2="125.7"/>
<line id="XMLID_128_" class="st5" x1="1645.1" y1="306.3" x2="1397.3" y2="252.2"/>
<line id="XMLID_130_" class="st5" x1="1408.9" y1="539.4" x2="1564.3" y2="565.6"/>
<line id="XMLID_131_" class="st5" x1="743.4" y1="491.4" x2="1103.2" y2="485.4"/>
<line id="XMLID_132_" class="st5" x1="325.7" y1="237.5" x2="573.3" y2="215.9"/>
<line id="XMLID_133_" class="st5" x1="1106" y1="484.4" x2="1465" y2="125.7"/>
<line id="XMLID_134_" class="st5" x1="1047.5" y1="276.5" x2="1433" y2="41.7"/>
<line id="XMLID_135_" class="st5" x1="1196" y1="285.3" x2="1127.3" y2="118"/>
<line id="XMLID_137_" class="st5" x1="405.7" y1="481.6" x2="676.7" y2="320.8"/>
<line id="XMLID_138_" class="st5" x1="1360" y1="479.4" x2="1297.4" y2="388.5"/>
<line id="XMLID_139_" class="st5" x1="197.3" y1="370" x2="436" y2="569.6"/>
<line id="XMLID_140_" class="st5" x1="963.3" y1="448.1" x2="1103.2" y2="519.7"/>
<line id="XMLID_141_" class="st5" x1="817.6" y1="331.8" x2="962.5" y2="450.3"/>
<line id="XMLID_142_" class="st5" x1="820.4" y1="333.3" x2="1043.5" y2="275.4"/>
<line id="XMLID_143_" class="st5" x1="439.3" y1="566.9" x2="740.5" y2="491.4"/>
<line id="XMLID_144_" class="st5" x1="1106" y1="484.4" x2="1297.4" y2="388.5"/>
<line id="XMLID_145_" class="st5" x1="686.5" y1="208.9" x2="510.6" y2="132.1"/>
<line id="XMLID_146_" class="st5" x1="1441.9" y1="44.3" x2="1646.1" y2="306.2"/>
<line id="XMLID_148_" class="st5" x1="1465" y1="125.7" x2="1505.5" y2="505.3"/>
<line id="XMLID_151_" class="st5" x1="1110.4" y1="484.4" x2="1358.5" y2="479.4"/>
<line id="XMLID_563_" class="st5" x1="2309.7" y1="291.8" x2="2525.9" y2="436.6"/>
<line id="XMLID_562_" class="st5" x1="2029.2" y1="280.1" x2="2059.2" y2="358.4"/>
<line id="XMLID_561_" class="st5" x1="1845.8" y1="154" x2="1883.2" y2="557.9"/>
<line id="XMLID_560_" class="st5" x1="1695.8" y1="323.5" x2="1979.3" y2="465.1"/>
<line id="XMLID_326_" class="st5" x1="1564" y1="568.9" x2="1883.2" y2="557.9"/>
<line id="XMLID_559_" class="st5" x1="2157.1" y1="417.8" x2="2240.3" y2="163.9"/>
<path id="XMLID_558_" class="st5" d="M1973.6,391.4"/>
<line id="XMLID_557_" class="st5" x1="2266.4" y1="79.9" x2="2511.3" y2="319.7"/>
<line id="XMLID_556_" class="st5" x1="2308" y1="291.8" x2="2406.2" y2="424.7"/>
<line id="XMLID_555_" class="st5" x1="2059.2" y1="354.3" x2="2201.3" y2="543.5"/>
<line id="XMLID_554_" class="st5" x1="1845.8" y1="154" x2="1979.3" y2="468.7"/>
<line id="XMLID_553_" class="st5" x1="2029.2" y1="280.1" x2="1883.3" y2="559.9"/>
<line id="XMLID_552_" class="st5" x1="2240.3" y1="169.8" x2="2201.3" y2="543.5"/>
<line id="XMLID_551_" class="st5" x1="2305.2" y1="290.4" x2="2298.2" y2="577.6"/>
<line id="XMLID_550_" class="st5" x1="2240.3" y1="163.9" x2="2342.6" y2="516.7"/>
<line id="XMLID_549_" class="st5" x1="2267.2" y1="79.6" x2="2309.7" y2="291.8"/>
<line id="XMLID_548_" class="st5" x1="2298.2" y1="577.6" x2="2596.7" y2="560.2"/>
<line id="XMLID_547_" class="st5" x1="2578" y1="154" x2="2597.7" y2="513.3"/>
<line id="XMLID_546_" class="st5" x1="2659.2" y1="314.7" x2="2742.8" y2="482.1"/>
<line id="XMLID_545_" class="st5" x1="2511.3" y1="324.6" x2="2578" y2="154"/>
<line id="XMLID_544_" class="st5" x1="2029.2" y1="280.1" x2="2154.9" y2="408"/>
<line id="XMLID_543_" class="st5" x1="2201.3" y1="543.5" x2="1883.3" y2="559.9"/>
<line id="XMLID_542_" class="st5" x1="2154.9" y1="408" x2="2141.8" y2="607.6"/>
<line id="XMLID_541_" class="st5" x1="2596.7" y1="560.2" x2="2744.5" y2="489.3"/>
<line id="XMLID_540_" class="st5" x1="2596.7" y1="517.5" x2="2744.5" y2="489.3"/>
<line id="XMLID_539_" class="st5" x1="2596.7" y1="553.4" x2="2525.9" y2="436.6"/>
<line id="XMLID_538_" class="st5" x1="2525.9" y1="436.6" x2="2650.2" y2="311.4"/>
<line id="XMLID_537_" class="st5" x1="2797.2" y1="195.2" x2="2884.9" y2="368.9"/>
<line id="XMLID_536_" class="st5" x1="2884.9" y1="368.9" x2="3024.5" y2="358.2"/>
<line id="XMLID_535_" class="st5" x1="1845.8" y1="154" x2="2029.2" y2="280.1"/>
<line id="XMLID_534_" class="st5" x1="2059.2" y1="354.3" x2="2240.3" y2="160.1"/>
<line id="XMLID_533_" class="st5" x1="3132" y1="256.9" x2="3480.8" y2="339.2"/>
<line id="XMLID_532_" class="st5" x1="3014.7" y1="255.3" x2="3273.5" y2="598.7"/>
<line id="XMLID_531_" class="st5" x1="3028.7" y1="358.2" x2="3273.5" y2="603.8"/>
<line id="XMLID_530_" class="st5" x1="3132" y1="256.9" x2="3231.9" y2="393.3"/>
<line id="XMLID_529_" class="st5" x1="2655.1" y1="311.4" x2="2962" y2="527.4"/>
<line id="XMLID_528_" class="st5" x1="2797.2" y1="193" x2="3014.7" y2="255.3"/>
<line id="XMLID_527_" class="st5" x1="3190.9" y1="164" x2="3479.8" y2="339.1"/>
<line id="XMLID_526_" class="st5" x1="2511.3" y1="324.6" x2="2797.2" y2="195.2"/>
<line id="XMLID_525_" class="st5" x1="2944.5" y1="125.7" x2="3193.2" y2="166.1"/>
<line id="XMLID_524_" class="st5" x1="3398.9" y1="79.9" x2="3560.6" y2="213.4"/>
<line id="XMLID_523_" class="st5" x1="3338.6" y1="140.1" x2="3480.8" y2="339.2"/>
<line id="XMLID_522_" class="st5" x1="3340.1" y1="140.1" x2="3560.6" y2="213.4"/>
<line id="XMLID_521_" class="st5" x1="3231.9" y1="390.4" x2="3560.6" y2="213.4"/>
<line id="XMLID_520_" class="st5" x1="3243.5" y1="106" x2="3299.6" y2="519.8"/>
<line id="XMLID_519_" class="st5" x1="3479.8" y1="339.1" x2="3231.9" y2="393.3"/>
<line id="XMLID_518_" class="st5" x1="3243.5" y1="106" x2="3398.9" y2="79.9"/>
<line id="XMLID_517_" class="st5" x1="2578" y1="154" x2="2937.9" y2="160.1"/>
<line id="XMLID_516_" class="st5" x1="2160.3" y1="408" x2="2407.9" y2="429.6"/>
<line id="XMLID_515_" class="st5" x1="2940.7" y1="161" x2="3299.6" y2="519.8"/>
<line id="XMLID_514_" class="st5" x1="2882.2" y1="368.9" x2="3269.5" y2="603.8"/>
<line id="XMLID_513_" class="st5" x1="3030.6" y1="360.2" x2="2962" y2="527.4"/>
<line id="XMLID_512_" class="st5" x1="2240.3" y1="163.9" x2="2511.3" y2="324.6"/>
<line id="XMLID_511_" class="st5" x1="3194.7" y1="166.1" x2="3132" y2="256.9"/>
<line id="XMLID_510_" class="st5" x1="2031.9" y1="275.4" x2="2270.6" y2="75.9"/>
<line id="XMLID_509_" class="st5" x1="2797.9" y1="197.3" x2="2937.9" y2="125.7"/>
<line id="XMLID_508_" class="st5" x1="2652.2" y1="313.6" x2="2797.2" y2="195.2"/>
<line id="XMLID_507_" class="st5" x1="2655.1" y1="312.2" x2="2878.2" y2="370"/>
<line id="XMLID_506_" class="st5" x1="2274" y1="78.5" x2="2575.2" y2="154"/>
<line id="XMLID_505_" class="st5" x1="2940.7" y1="161" x2="3132" y2="256.9"/>
<line id="XMLID_504_" class="st5" x1="2521.2" y1="436.6" x2="2345.3" y2="513.3"/>
<line id="XMLID_503_" class="st5" x1="3276.5" y1="601.1" x2="3480.8" y2="339.2"/>
<line id="XMLID_502_" class="st5" x1="3299.6" y1="519.8" x2="3340.1" y2="140.1"/>
<line id="XMLID_501_" class="st5" x1="1845.8" y1="154" x2="1698.9" y2="319.3"/>
<line id="XMLID_500_" class="st5" x1="2024.5" y1="281.5" x2="1698.9" y2="319.3"/>
<line id="XMLID_499_" class="st5" x1="2945.1" y1="161.1" x2="3193.2" y2="166.1"/>
<line id="XMLID_324_" class="st5" x1="1727.1" y1="430.9" x2="1883.2" y2="557.9"/>
<line id="XMLID_327_" class="st5" x1="1649" y1="310.4" x2="1727.1" y2="430.9"/>
<line id="XMLID_328_" class="st5" x1="1566" y1="559.9" x2="1649" y2="302.1"/>
<line id="XMLID_330_" class="st5" x1="1695.8" y1="323.5" x2="1649" y2="306.3"/>
<line id="XMLID_331_" class="st5" x1="1697.5" y1="321.4" x2="1726" y2="432"/>
<line id="XMLID_332_" class="st5" x1="1979.3" y1="468.7" x2="2142.5" y2="601"/>
<line id="XMLID_334_" class="st5" x1="2060.5" y1="356" x2="1979.3" y2="468.7"/>
<line id="XMLID_335_" class="st5" x1="1979.3" y1="471" x2="1888.3" y2="557.9"/>
<line id="XMLID_336_" class="st5" x1="1728.7" y1="430.3" x2="1973.6" y2="468.7"/>
<line id="XMLID_338_" class="st5" x1="1047.5" y1="276.5" x2="1178.1" y2="388.5"/>
<line id="XMLID_339_" class="st5" x1="1194" y1="287.2" x2="1178.1" y2="388.5"/>
<line id="XMLID_340_" class="st5" x1="2742.8" y1="490.2" x2="2958.2" y2="529.6"/>
<line id="XMLID_342_" class="st5" x1="2962" y1="529.6" x2="3271.6" y2="606.3"/>
<line id="XMLID_343_" class="st5" x1="3299.6" y1="523" x2="3273.5" y2="603.8"/>
<line id="XMLID_344_" class="st5" x1="3477.5" y1="340.4" x2="3303" y2="514"/>
<line id="XMLID_346_" class="st5" x1="3231.9" y1="396.5" x2="3299.6" y2="519.8"/>
<line id="XMLID_347_" class="st5" x1="3132" y1="259.9" x2="3028.7" y2="358.2"/>
<line id="XMLID_348_" class="st5" x1="3228.2" y1="394.6" x2="3030.6" y2="360.2"/>
<line id="XMLID_350_" class="st5" x1="2201.3" y1="543.5" x2="2298.2" y2="580"/>
<line id="XMLID_351_" class="st5" x1="2141.8" y1="603.8" x2="2407.9" y2="429.6"/>
<line id="XMLID_352_" class="st5" x1="1407.1" y1="539.4" x2="1360" y2="479.4"/>
<line id="XMLID_354_" class="st5" x1="1504" y1="505.3" x2="1404.5" y2="539.4"/>
<line id="XMLID_355_" class="st5" x1="224.6" y1="287" x2="144.7" y2="180.3"/>
<line id="XMLID_356_" class="st5" x1="1407.1" y1="539.4" x2="1178.1" y2="388.5"/>
<line id="XMLID_358_" class="st5" x1="11.2" y1="491.4" x2="405.7" y2="481.6"/>
<line id="XMLID_359_" class="st5" x1="11.2" y1="491.4" x2="436" y2="569.6"/>
<line id="XMLID_360_" class="st5" x1="224.6" y1="291.1" x2="307.1" y2="37.9"/>
<line id="XMLID_362_" class="st5" x1="571.5" y1="220.8" x2="676.7" y2="320.8"/>
<line id="XMLID_363_" class="st5" x1="473.8" y1="357.6" x2="743.4" y2="491.4"/>
<g id="Layer_3_copy">
	<g id="XMLID_468_">
		<g id="XMLID_189_">
			<path id="XMLID_190_" class="st3" d="M820.4,322c-5.4,0-9.9,4.4-9.9,9.9c0,5.4,4.4,9.9,9.9,9.9s9.9-4.4,9.9-9.9
				C830.3,326.4,825.9,322,820.4,322z"/>
		</g>
	</g>
	<g id="XMLID_168_">
		<g id="XMLID_172_">
			<path id="XMLID_173_" class="st3" d="M908.1,147.1c-5.4,0-9.9,4.4-9.9,9.9c0,5.4,4.4,9.9,9.9,9.9s9.9-4.4,9.9-9.9
				S913.6,147.1,908.1,147.1z"/>
		</g>
	</g>
	<g id="XMLID_175_">
		<g id="XMLID_177_">
			<path id="XMLID_178_" class="st3" d="M763.1,118c-5.4,0-9.9,4.4-9.9,9.9c0,5.4,4.4,9.9,9.9,9.9s9.9-4.4,9.9-9.9
				C773,122.4,768.5,118,763.1,118z"/>
		</g>
	</g>
	<g id="XMLID_179_">
		<g id="XMLID_181_">
			<path id="XMLID_182_" class="st3" d="M366.7,92.1c-5.4,0-9.9,4.4-9.9,9.9c0,5.4,4.4,9.9,9.9,9.9s9.9-4.4,9.9-9.9
				C376.5,96.5,372.1,92.1,366.7,92.1z"/>
		</g>
	</g>
	<g id="XMLID_215_">
		<g id="XMLID_217_">
			<path id="XMLID_218_" class="st3" d="M306.4,31.8c-5.4,0-9.9,4.4-9.9,9.9c0,5.4,4.4,9.9,9.9,9.9s9.9-4.4,9.9-9.9
				S311.9,31.8,306.4,31.8z"/>
		</g>
	</g>
	<g id="XMLID_183_">
		<g id="XMLID_186_">
			<path id="XMLID_187_" class="st3" d="M463.5,57.9c-5.4,0-9.9,4.4-9.9,9.9c0,5.4,4.4,9.9,9.9,9.9s9.9-4.4,9.9-9.9
				C473.4,62.4,469,57.9,463.5,57.9z"/>
		</g>
	</g>
	<g id="XMLID_188_">
		<g id="XMLID_193_">
			<path id="XMLID_194_" class="st3" d="M144.7,166.8c-5.4,0-9.9,4.4-9.9,9.9c0,5.4,4.4,9.9,9.9,9.9s9.9-4.4,9.9-9.9
				C154.5,171.2,150.1,166.8,144.7,166.8z"/>
		</g>
	</g>
	<g id="XMLID_174_">
		<g id="XMLID_235_">
			<path id="XMLID_236_" class="st3" d="M763.1,77.7c-5.4,0-9.9,4.4-9.9,9.9c0,5.4,4.4,9.9,9.9,9.9s9.9-4.4,9.9-9.9
				C773,82.1,768.5,77.7,763.1,77.7z"/>
		</g>
	</g>
	<g id="XMLID_402_">
		<g id="XMLID_404_">
			<path id="XMLID_405_" class="st3" d="M473.4,345.1c-5.4,0-9.9,4.4-9.9,9.9s4.4,9.9,9.9,9.9c5.4,0,9.9-4.4,9.9-9.9
				S478.8,345.1,473.4,345.1z"/>
		</g>
	</g>
	<g id="XMLID_443_">
		<g id="XMLID_445_">
			<path id="XMLID_446_" class="st3" d="M676.7,311c-5.4,0-9.9,4.4-9.9,9.9c0,5.4,4.4,9.9,9.9,9.9s9.9-4.4,9.9-9.9
				C686.5,315.4,682.1,311,676.7,311z"/>
		</g>
	</g>
	<g id="XMLID_439_">
		<g id="XMLID_441_">
			<path id="XMLID_442_" class="st3" d="M322.4,227.6c-5.4,0-9.9,4.4-9.9,9.9s4.4,9.9,9.9,9.9s9.9-4.4,9.9-9.9
				S327.9,227.6,322.4,227.6z"/>
		</g>
	</g>
	<g id="XMLID_45_">
		<g id="XMLID_170_">
			<path id="XMLID_171_" class="st3" d="M194.6,355.5c-5.4,0-9.9,4.4-9.9,9.9s4.4,9.9,9.9,9.9s9.9-4.4,9.9-9.9
				S200,355.5,194.6,355.5z"/>
		</g>
	</g>
	<g id="XMLID_163_">
		<g id="XMLID_241_">
			<path id="XMLID_243_" class="st3" d="M743.4,481.6c-5.4,0-9.9,4.4-9.9,9.9s4.4,9.9,9.9,9.9s9.9-4.4,9.9-9.9
				S748.8,481.6,743.4,481.6z"/>
		</g>
	</g>
	<g id="XMLID_136_">
		<g id="XMLID_161_">
			<path id="XMLID_162_" class="st3" d="M405.7,471.7c-5.4,0-9.9,4.4-9.9,9.9s4.4,9.9,9.9,9.9s9.9-4.4,9.9-9.9
				S411.1,471.7,405.7,471.7z"/>
		</g>
	</g>
	<g id="XMLID_109_">
		<g id="XMLID_127_">
			<path id="XMLID_129_" class="st3" d="M431.8,555.7c-5.4,0-9.9,4.4-9.9,9.9s4.4,9.9,9.9,9.9s9.9-4.4,9.9-9.9
				S437.2,555.7,431.8,555.7z"/>
		</g>
	</g>
	<g id="XMLID_46_">
		<g id="XMLID_48_">
			<path id="XMLID_106_" class="st3" d="M48.7,277.4c-5.4,0-9.9,4.4-9.9,9.9s4.4,9.9,9.9,9.9s9.9-4.4,9.9-9.9S54.1,277.4,48.7,277.4
				z"/>
		</g>
	</g>
	<g id="XMLID_49_">
		<g id="XMLID_51_">
			<path id="XMLID_52_" class="st3" d="M224.6,281.3c-5.4,0-9.9,4.4-9.9,9.9s4.4,9.9,9.9,9.9s9.9-4.4,9.9-9.9S230,281.3,224.6,281.3
				z"/>
		</g>
	</g>
	<g id="XMLID_53_">
		<g id="XMLID_55_">
			<path id="XMLID_65_" class="st3" d="M48.6,77.7c-5.4,0-9.9,4.4-9.9,9.9s4.4,9.9,9.9,9.9s9.9-4.4,9.9-9.9S54,77.7,48.6,77.7z"/>
		</g>
	</g>
	<g id="XMLID_72_">
		<g id="XMLID_90_">
			<path id="XMLID_92_" class="st3" d="M11.2,481.6c-5.4,0-9.9,4.4-9.9,9.9s4.4,9.9,9.9,9.9s9.9-4.4,9.9-9.9S16.6,481.6,11.2,481.6z
				"/>
		</g>
	</g>
	<g id="XMLID_431_">
		<g id="XMLID_433_">
			<path id="XMLID_434_" class="st3" d="M510.6,118c-5.4,0-9.9,4.4-9.9,9.9c0,5.5,4.4,9.9,9.9,9.9c5.5,0,9.9-4.4,9.9-9.9
				S516.1,118,510.6,118z"/>
		</g>
	</g>
	<g id="XMLID_222_">
		<g id="XMLID_225_">
			<path id="XMLID_226_" class="st3" d="M690.7,199c-5.4,0-9.9,4.4-9.9,9.9s4.4,9.9,9.9,9.9s9.9-4.4,9.9-9.9S696.1,199,690.7,199z"
				/>
		</g>
	</g>
	<g id="XMLID_423_">
		<g id="XMLID_425_">
			<path id="XMLID_426_" class="st3" d="M573.3,208.9c-5.4,0-9.9,4.4-9.9,9.9s4.4,9.9,9.9,9.9s9.9-4.4,9.9-9.9
				S578.7,208.9,573.3,208.9z"/>
		</g>
	</g>
	<g id="XMLID_294_">
		<g id="XMLID_296_">
			<path id="XMLID_297_" class="st3" d="M1050.3,265.5c-5.4,0-9.9,4.4-9.9,9.9c0,5.4,4.4,9.9,9.9,9.9s9.9-4.4,9.9-9.9
				C1060.1,270,1055.7,265.5,1050.3,265.5z"/>
		</g>
	</g>
	<g id="XMLID_290_">
		<g id="XMLID_292_">
			<path id="XMLID_293_" class="st3" d="M962.5,440.4c-5.4,0-9.9,4.4-9.9,9.9s4.4,9.9,9.9,9.9s9.9-4.4,9.9-9.9
				S968,440.4,962.5,440.4z"/>
		</g>
	</g>
	<g id="XMLID_286_">
		<g id="XMLID_288_">
			<path id="XMLID_289_" class="st3" d="M1104.9,475.5c-5.4,0-9.9,4.4-9.9,9.9s4.4,9.9,9.9,9.9s9.9-4.4,9.9-9.9
				S1110.4,475.5,1104.9,475.5z"/>
		</g>
	</g>
	<g id="XMLID_282_">
		<g id="XMLID_284_">
			<path id="XMLID_285_" class="st3" d="M1504,495.4c-5.4,0-9.9,4.4-9.9,9.9s4.4,9.9,9.9,9.9s9.9-4.4,9.9-9.9
				S1509.4,495.4,1504,495.4z"/>
		</g>
	</g>
	<g id="XMLID_278_">
		<g id="XMLID_280_">
			<path id="XMLID_281_" class="st3" d="M1564.3,555.7c-5.4,0-9.9,4.4-9.9,9.9s4.4,9.9,9.9,9.9s9.9-4.4,9.9-9.9
				S1569.7,555.7,1564.3,555.7z"/>
		</g>
	</g>
	<g id="XMLID_274_">
		<g id="XMLID_276_">
			<path id="XMLID_277_" class="st3" d="M1407.1,529.6c-5.4,0-9.9,4.4-9.9,9.9s4.4,9.9,9.9,9.9s9.9-4.4,9.9-9.9
				S1412.6,529.6,1407.1,529.6z"/>
		</g>
	</g>
	<g id="XMLID_270_">
		<g id="XMLID_272_">
			<path id="XMLID_273_" class="st3" d="M1726,420.7c-5.4,0-9.9,4.4-9.9,9.9s4.4,9.9,9.9,9.9s9.9-4.4,9.9-9.9
				S1731.4,420.7,1726,420.7z"/>
		</g>
	</g>
	<g id="XMLID_266_">
		<g id="XMLID_268_">
			<path id="XMLID_269_" class="st3" d="M1107.6,509.8c-5.4,0-9.9,4.4-9.9,9.9c0,5.4,4.4,9.9,9.9,9.9s9.9-4.4,9.9-9.9
				C1117.4,514.3,1113,509.8,1107.6,509.8z"/>
		</g>
	</g>
	<g id="XMLID_262_">
		<g id="XMLID_264_">
			<path id="XMLID_265_" class="st3" d="M1397.3,242.4c-5.4,0-9.9,4.4-9.9,9.9s4.4,9.9,9.9,9.9s9.9-4.4,9.9-9.9
				S1402.7,242.4,1397.3,242.4z"/>
		</g>
	</g>
	<g id="XMLID_258_">
		<g id="XMLID_260_">
			<path id="XMLID_261_" class="st3" d="M1194,276.5c-5.4,0-9.9,4.4-9.9,9.9s4.4,9.9,9.9,9.9s9.9-4.4,9.9-9.9
				S1199.5,276.5,1194,276.5z"/>
		</g>
	</g>
	<g id="XMLID_254_">
		<g id="XMLID_298_">
			<path id="XMLID_299_" class="st3" d="M1127.3,105.9c-5.4,0-9.9,4.4-9.9,9.9s4.4,9.9,9.9,9.9s9.9-4.4,9.9-9.9
				S1132.7,105.9,1127.3,105.9z"/>
		</g>
	</g>
	<g id="XMLID_250_">
		<g id="XMLID_301_">
			<path id="XMLID_302_" class="st3" d="M1465,115.8c-5.4,0-9.9,4.4-9.9,9.9c0,5.5,4.4,9.9,9.9,9.9s9.9-4.4,9.9-9.9
				S1470.4,115.8,1465,115.8z"/>
		</g>
	</g>
	<g id="XMLID_246_">
		<g id="XMLID_304_">
			<path id="XMLID_305_" class="st3" d="M1438.9,31.8c-5.4,0-9.9,4.4-9.9,9.9s4.4,9.9,9.9,9.9s9.9-4.4,9.9-9.9
				S1444.3,31.8,1438.9,31.8z"/>
		</g>
	</g>
	<g id="XMLID_242_">
		<g id="XMLID_307_">
			<path id="XMLID_308_" class="st3" d="M1646.1,296.4c-5.4,0-9.9,4.4-9.9,9.9c0,5.4,4.4,9.9,9.9,9.9s9.9-4.4,9.9-9.9
				S1651.5,296.4,1646.1,296.4z"/>
		</g>
	</g>
	<g id="XMLID_238_">
		<g id="XMLID_310_">
			<path id="XMLID_311_" class="st3" d="M1360,469.5c-5.4,0-9.9,4.4-9.9,9.9s4.4,9.9,9.9,9.9c5.4,0,9.9-4.4,9.9-9.9
				S1365.5,469.5,1360,469.5z"/>
		</g>
	</g>
	<g id="XMLID_232_">
		<g id="XMLID_312_">
			<path id="XMLID_313_" class="st3" d="M1180,378.6c-5.4,0-9.9,4.4-9.9,9.9s4.4,9.9,9.9,9.9s9.9-4.4,9.9-9.9
				S1185.5,378.6,1180,378.6z"/>
		</g>
	</g>
	<g id="XMLID_227_">
		<g id="XMLID_314_">
			<path id="XMLID_315_" class="st3" d="M1297.4,378.6c-5.4,0-9.9,4.4-9.9,9.9s4.4,9.9,9.9,9.9c5.4,0,9.9-4.4,9.9-9.9
				S1302.8,378.6,1297.4,378.6z"/>
		</g>
	</g>
	<g id="XMLID_712_">
		<g id="XMLID_714_">
			<path id="XMLID_715_" class="st3" d="M2655.1,303.7c-5.4,0-9.9,4.4-9.9,9.9c0,5.4,4.4,9.9,9.9,9.9c5.4,0,9.9-4.4,9.9-9.9
				C2664.9,308.2,2660.5,303.7,2655.1,303.7z"/>
		</g>
	</g>
	<g id="XMLID_708_">
		<g id="XMLID_710_">
			<path id="XMLID_711_" class="st3" d="M2742.8,478.6c-5.4,0-9.9,4.4-9.9,9.9s4.4,9.9,9.9,9.9c5.4,0,9.9-4.4,9.9-9.9
				S2748.2,478.6,2742.8,478.6z"/>
		</g>
	</g>
	<g id="XMLID_704_">
		<g id="XMLID_706_">
			<path id="XMLID_707_" class="st3" d="M2597.7,507.7c-5.4,0-9.9,4.4-9.9,9.9s4.4,9.9,9.9,9.9c5.4,0,9.9-4.4,9.9-9.9
				S2603.2,507.7,2597.7,507.7z"/>
		</g>
	</g>
	<g id="XMLID_700_">
		<g id="XMLID_702_">
			<path id="XMLID_703_" class="st3" d="M2201.3,533.6c-5.4,0-9.9,4.4-9.9,9.9s4.4,9.9,9.9,9.9s9.9-4.4,9.9-9.9
				S2206.8,533.6,2201.3,533.6z"/>
		</g>
	</g>
	<g id="XMLID_696_">
		<g id="XMLID_698_">
			<path id="XMLID_699_" class="st3" d="M2141.1,593.9c-5.4,0-9.9,4.4-9.9,9.9s4.4,9.9,9.9,9.9c5.4,0,9.9-4.4,9.9-9.9
				S2146.5,593.9,2141.1,593.9z"/>
		</g>
	</g>
	<g id="XMLID_692_">
		<g id="XMLID_694_">
			<path id="XMLID_695_" class="st3" d="M2298.2,567.8c-5.4,0-9.9,4.4-9.9,9.9s4.4,9.9,9.9,9.9s9.9-4.4,9.9-9.9
				S2303.6,567.8,2298.2,567.8z"/>
		</g>
	</g>
	<g id="XMLID_688_">
		<g id="XMLID_690_">
			<path id="XMLID_691_" class="st3" d="M1979.3,458.9c-5.4,0-9.9,4.4-9.9,9.9s4.4,9.9,9.9,9.9s9.9-4.4,9.9-9.9
				S1984.8,458.9,1979.3,458.9z"/>
		</g>
	</g>
	<g id="XMLID_684_">
		<g id="XMLID_686_">
			<path id="XMLID_687_" class="st3" d="M2597.7,548c-5.4,0-9.9,4.4-9.9,9.9c0,5.4,4.4,9.9,9.9,9.9c5.4,0,9.9-4.4,9.9-9.9
				C2607.6,552.5,2603.2,548,2597.7,548z"/>
		</g>
	</g>
	<g id="XMLID_680_">
		<g id="XMLID_682_">
			<path id="XMLID_683_" class="st3" d="M2308,280.6c-5.4,0-9.9,4.4-9.9,9.9s4.4,9.9,9.9,9.9c5.4,0,9.9-4.4,9.9-9.9
				S2313.5,280.6,2308,280.6z"/>
		</g>
	</g>
	<g id="XMLID_676_">
		<g id="XMLID_678_">
			<path id="XMLID_679_" class="st3" d="M2511.3,314.7c-5.4,0-9.9,4.4-9.9,9.9s4.4,9.9,9.9,9.9s9.9-4.4,9.9-9.9
				S2516.7,314.7,2511.3,314.7z"/>
		</g>
	</g>
	<g id="XMLID_672_">
		<g id="XMLID_674_">
			<path id="XMLID_675_" class="st3" d="M2157.1,398.1c-5.4,0-9.9,4.4-9.9,9.9s4.4,9.9,9.9,9.9c5.4,0,9.9-4.4,9.9-9.9
				S2162.5,398.1,2157.1,398.1z"/>
		</g>
	</g>
	<g id="XMLID_668_">
		<g id="XMLID_670_">
			<path id="XMLID_671_" class="st3" d="M2029.2,270.2c-5.4,0-9.9,4.4-9.9,9.9s4.4,9.9,9.9,9.9c5.4,0,9.9-4.4,9.9-9.9
				S2034.6,270.2,2029.2,270.2z"/>
		</g>
	</g>
	<g id="XMLID_664_">
		<g id="XMLID_666_">
			<path id="XMLID_667_" class="st3" d="M2578,144.1c-5.4,0-9.9,4.4-9.9,9.9s4.4,9.9,9.9,9.9c5.4,0,9.9-4.4,9.9-9.9
				S2583.4,144.1,2578,144.1z"/>
		</g>
	</g>
	<g id="XMLID_660_">
		<g id="XMLID_662_">
			<path id="XMLID_663_" class="st3" d="M2240.3,154c-5.4,0-9.9,4.4-9.9,9.9s4.4,9.9,9.9,9.9c5.4,0,9.9-4.4,9.9-9.9
				S2245.8,154,2240.3,154z"/>
		</g>
	</g>
	<g id="XMLID_656_">
		<g id="XMLID_658_">
			<path id="XMLID_659_" class="st3" d="M2266.4,70c-5.4,0-9.9,4.4-9.9,9.9s4.4,9.9,9.9,9.9c5.4,0,9.9-4.4,9.9-9.9
				S2271.9,70,2266.4,70z"/>
		</g>
	</g>
	<g id="XMLID_652_">
		<g id="XMLID_654_">
			<path id="XMLID_655_" class="st3" d="M1695.8,313.6c-5.4,0-9.9,4.4-9.9,9.9s4.4,9.9,9.9,9.9s9.9-4.4,9.9-9.9
				S1701.3,313.6,1695.8,313.6z"/>
		</g>
	</g>
	<g id="XMLID_648_">
		<g id="XMLID_650_">
			<path id="XMLID_651_" class="st3" d="M2059.2,344.4c-5.4,0-9.9,4.4-9.9,9.9c0,5.4,4.4,9.9,9.9,9.9c5.4,0,9.9-4.4,9.9-9.9
				C2069.1,348.9,2064.6,344.4,2059.2,344.4z"/>
		</g>
	</g>
	<g id="XMLID_644_">
		<g id="XMLID_646_">
			<path id="XMLID_647_" class="st3" d="M1883.2,548c-5.4,0-9.9,4.4-9.9,9.9c0,5.4,4.4,9.9,9.9,9.9c5.4,0,9.9-4.4,9.9-9.9
				C1893.1,552.5,1888.6,548,1883.2,548z"/>
		</g>
	</g>
	<g id="XMLID_640_">
		<g id="XMLID_642_">
			<path id="XMLID_643_" class="st3" d="M1845.8,144.1c-5.4,0-9.9,4.4-9.9,9.9c0,5.4,4.4,9.9,9.9,9.9c5.4,0,9.9-4.4,9.9-9.9
				C1855.7,148.6,1851.3,144.1,1845.8,144.1z"/>
		</g>
	</g>
	<g id="XMLID_636_">
		<g id="XMLID_638_">
			<path id="XMLID_639_" class="st3" d="M2345.3,507.7c-5.4,0-9.9,4.4-9.9,9.9s4.4,9.9,9.9,9.9c5.4,0,9.9-4.4,9.9-9.9
				S2350.7,507.7,2345.3,507.7z"/>
		</g>
	</g>
	<g id="XMLID_632_">
		<g id="XMLID_634_">
			<path id="XMLID_635_" class="st3" d="M2525.3,426.7c-5.4,0-9.9,4.4-9.9,9.9s4.4,9.9,9.9,9.9c5.4,0,9.9-4.4,9.9-9.9
				S2530.7,426.7,2525.3,426.7z"/>
		</g>
	</g>
	<g id="XMLID_628_">
		<g id="XMLID_630_">
			<path id="XMLID_631_" class="st3" d="M2407.9,416.8c-5.4,0-9.9,4.4-9.9,9.9s4.4,9.9,9.9,9.9c5.4,0,9.9-4.4,9.9-9.9
				S2413.4,416.8,2407.9,416.8z"/>
		</g>
	</g>
	<g id="XMLID_624_">
		<g id="XMLID_626_">
			<path id="XMLID_627_" class="st3" d="M2884.9,360.2c-5.4,0-9.9,4.4-9.9,9.9c0,5.4,4.4,9.9,9.9,9.9s9.9-4.4,9.9-9.9
				C2894.8,364.6,2890.3,360.2,2884.9,360.2z"/>
		</g>
	</g>
	<g id="XMLID_620_">
		<g id="XMLID_622_">
			<path id="XMLID_623_" class="st3" d="M2797.2,185.3c-5.4,0-9.9,4.4-9.9,9.9s4.4,9.9,9.9,9.9c5.4,0,9.9-4.4,9.9-9.9
				S2802.6,185.3,2797.2,185.3z"/>
		</g>
	</g>
	<g id="XMLID_616_">
		<g id="XMLID_618_">
			<path id="XMLID_619_" class="st3" d="M2939.6,150.2c-5.4,0-9.9,4.4-9.9,9.9s4.4,9.9,9.9,9.9c5.4,0,9.9-4.4,9.9-9.9
				S2945,150.2,2939.6,150.2z"/>
		</g>
	</g>
	<g id="XMLID_612_">
		<g id="XMLID_614_">
			<path id="XMLID_615_" class="st3" d="M3338.6,130.3c-5.4,0-9.9,4.4-9.9,9.9s4.4,9.9,9.9,9.9s9.9-4.4,9.9-9.9
				S3344.1,130.3,3338.6,130.3z"/>
		</g>
	</g>
	<g id="XMLID_608_">
		<g id="XMLID_610_">
			<path id="XMLID_611_" class="st3" d="M3398.9,70c-5.4,0-9.9,4.4-9.9,9.9s4.4,9.9,9.9,9.9c5.4,0,9.9-4.4,9.9-9.9
				S3404.3,70,3398.9,70z"/>
		</g>
	</g>
	<g id="XMLID_604_">
		<g id="XMLID_606_">
			<path id="XMLID_607_" class="st3" d="M3241.8,96.1c-5.4,0-9.9,4.4-9.9,9.9s4.4,9.9,9.9,9.9s9.9-4.4,9.9-9.9
				S3247.2,96.1,3241.8,96.1z"/>
		</g>
	</g>
	<g id="XMLID_600_">
		<g id="XMLID_602_">
			<path id="XMLID_603_" class="st3" d="M2942.2,115.9c-5.4,0-9.9,4.4-9.9,9.9c0,5.4,4.4,9.9,9.9,9.9c5.4,0,9.9-4.4,9.9-9.9
				C2952.1,120.3,2947.7,115.9,2942.2,115.9z"/>
		</g>
	</g>
	<g id="XMLID_596_">
		<g id="XMLID_598_">
			<path id="XMLID_599_" class="st3" d="M3231.9,383.3c-5.4,0-9.9,4.4-9.9,9.9s4.4,9.9,9.9,9.9c5.4,0,9.9-4.4,9.9-9.9
				S3237.4,383.3,3231.9,383.3z"/>
		</g>
	</g>
	<g id="XMLID_592_">
		<g id="XMLID_594_">
			<path id="XMLID_595_" class="st3" d="M3028.7,349.2c-5.4,0-9.9,4.4-9.9,9.9s4.4,9.9,9.9,9.9s9.9-4.4,9.9-9.9
				S3034.1,349.2,3028.7,349.2z"/>
		</g>
	</g>
	<g id="XMLID_588_">
		<g id="XMLID_590_">
			<path id="XMLID_591_" class="st3" d="M2962,519.8c-5.4,0-9.9,4.4-9.9,9.9s4.4,9.9,9.9,9.9c5.4,0,9.9-4.4,9.9-9.9
				S2967.4,519.8,2962,519.8z"/>
		</g>
	</g>
	<g id="XMLID_584_">
		<g id="XMLID_586_">
			<path id="XMLID_587_" class="st3" d="M3299.6,509.9c-5.4,0-9.9,4.4-9.9,9.9s4.4,9.9,9.9,9.9c5.4,0,9.9-4.4,9.9-9.9
				S3305.1,509.9,3299.6,509.9z"/>
		</g>
	</g>
	<g id="XMLID_576_">
		<g id="XMLID_582_">
			<path id="XMLID_583_" class="st3" d="M3273.5,593.9c-5.4,0-9.9,4.4-9.9,9.9s4.4,9.9,9.9,9.9c5.4,0,9.9-4.4,9.9-9.9
				S3279,593.9,3273.5,593.9z"/>
		</g>
	</g>
	<g id="XMLID_373_">
		<g id="XMLID_570_">
			<path id="XMLID_573_" class="st3" d="M3480.8,329.3c-5.4,0-9.9,4.4-9.9,9.9s4.4,9.9,9.9,9.9c5.4,0,9.9-4.4,9.9-9.9
				S3486.2,329.3,3480.8,329.3z"/>
		</g>
	</g>
	<g id="XMLID_357_">
		<g id="XMLID_365_">
			<path id="XMLID_369_" class="st3" d="M3194.7,156.2c-5.4,0-9.9,4.4-9.9,9.9s4.4,9.9,9.9,9.9s9.9-4.4,9.9-9.9
				S3200.1,156.2,3194.7,156.2z"/>
		</g>
	</g>
	<g id="XMLID_341_">
		<g id="XMLID_349_">
			<path id="XMLID_353_" class="st3" d="M3014.7,247.1c-5.4,0-9.9,4.4-9.9,9.9c0,5.4,4.4,9.9,9.9,9.9c5.4,0,9.9-4.4,9.9-9.9
				C3024.5,251.5,3020.1,247.1,3014.7,247.1z"/>
		</g>
	</g>
	<g id="XMLID_325_">
		<g id="XMLID_333_">
			<path id="XMLID_337_" class="st3" d="M3132,247.1c-5.4,0-9.9,4.4-9.9,9.9c0,5.4,4.4,9.9,9.9,9.9c5.4,0,9.9-4.4,9.9-9.9
				S3137.5,247.1,3132,247.1z"/>
		</g>
	</g>
	<g id="XMLID_5_">
		<g id="XMLID_7_">
			<path id="XMLID_8_" class="st3" d="M3560.6,203.5c-5.4,0-9.9,4.4-9.9,9.9s4.4,9.9,9.9,9.9c5.4,0,9.9-4.4,9.9-9.9
				S3566,203.5,3560.6,203.5z"/>
		</g>
	</g>
</g>
<g id="Layer_4_copy" class="st0">
	<rect id="XMLID_68_" x="772.3" y="128.2" class="st6" width="9.8" height="153.4"/>
	<path id="XMLID_1_" class="st6" d="M955.2,245.6c-4,0-6.2-2.9-6.5-6c-12,19.9-33.3,35.3-58.8,35.3c-39.8,0-72.2-32.2-72.2-71.7
		s32.4-71.7,72.2-71.7c23,0,42.1,12.2,54.4,28.9c0.2-3.2,2.3-6.3,6.5-6.3c0.3,0,0.5,0,0.8,0c-1.6-2.2-3.4-4.3-5.2-6.4
		c-15.1-16.6-35.1-25.8-56.4-25.8c-45,0-81.7,36.4-81.7,81.1s36.6,81.1,81.7,81.1c29.3,0,53-16.9,66.5-38.9
		C956,245.5,955.6,245.6,955.2,245.6z"/>
</g>
<g id="Layer_5" class="st0">
</g>
<line class="st5" x1="48.7" y1="287.3" x2="11.2" y2="491.4"/>
<line class="st5" x1="147.5" y1="176.7" x2="48.7" y2="287.3"/>
<line class="st5" x1="194.6" y1="365.3" x2="48.7" y2="287.3"/>
</svg>
