<?xml version="1.0" encoding="UTF-8" standalone="no"?>
<svg
   xmlns:dc="http://purl.org/dc/elements/1.1/"
   xmlns:cc="http://creativecommons.org/ns#"
   xmlns:rdf="http://www.w3.org/1999/02/22-rdf-syntax-ns#"
   xmlns:svg="http://www.w3.org/2000/svg"
   xmlns="http://www.w3.org/2000/svg"
   viewBox="0 0 277.33334 88"
   height="88"
   width="277.33334"
   xml:space="preserve"
   id="svg2"
   version="1.1"><metadata
     id="metadata8"><rdf:RDF><cc:Work
         rdf:about=""><dc:format>image/svg+xml</dc:format><dc:type
           rdf:resource="http://purl.org/dc/dcmitype/StillImage" /></cc:Work></rdf:RDF></metadata><defs
     id="defs6" /><g
     transform="matrix(1.3333333,0,0,-1.3333333,0,88)"
     id="g10"><g
       transform="scale(0.1)"
       id="g12"><path
         id="path14"
         style="fill:#ed1c24;fill-opacity:1;fill-rule:evenodd;stroke:none"
         d="m 1269.05,659.949 h -265.28 v -3.258 c 14.65,-4.882 27.68,-9.769 35.82,-17.906 11.39,-8.144 21.16,-17.914 29.3,-29.308 9.77,-11.399 16.29,-24.43 21.18,-39.082 3.25,-16.286 4.88,-37.45 0,-65.133 -3.27,-26.055 -14.66,-48.848 -32.57,-66.762 -17.91,-16.285 -30.94,-26.051 -39.08,-30.937 l 87.93,-192.137 h 58.49 v 156.312 l 71.64,1.629 -4.88,94.442 -76.53,-1.629 v 94.441 h 48.85 c 26.05,0 43.96,-3.25 56.99,-11.394 11.4,-6.512 16.29,-17.914 16.29,-34.196 0,-24.426 -14.66,-40.707 -45.6,-47.222 l 4.88,-94.442 48.86,-157.941 h 195.39 l -91.18,200.277 c 12.75,3.637 25.68,13.145 35.61,21.598 6.13,5.187 11.8,10.918 16.91,17.101 5.15,6.231 9.75,12.953 13.6,20.071 5.62,10.355 9.7,21.539 12.19,33.058 2.31,10.672 3.24,21.129 2.11,32.055 -0.79,7.625 -1.46,15.344 -3.9,22.668 -4.88,21.168 -16.28,39.078 -32.56,55.363 -4.88,4.887 -9.77,9.766 -16.28,13.024 -34.33,27.453 -107.12,29.308 -148.18,29.308" /><path
         id="path16"
         style="fill:#1770c1;fill-opacity:1;fill-rule:evenodd;stroke:none"
         d="M 754.527,127.238 H 673.141 V 3.11328 h 52.285 V 46.7617 l 20.004,0.4571 -1.364,26.3671 -21.367,-0.4531 v 26.3711 h 13.641 c 7.273,0 12.273,-0.9101 15.914,-3.1836 3.184,-1.8164 4.547,-5 4.547,-9.5469 0,-6.8203 -4.094,-11.3671 -12.735,-13.1875 L 745.43,47.2188 759.074,3.11328 h 54.563 L 788.176,59.0391 c 3.558,1.0117 7.172,3.6679 9.941,6.0312 0.571,0.4766 1.145,0.9727 1.668,1.5 1.082,1.0274 2.106,2.125 3.055,3.2735 0.738,0.8906 1.426,1.8125 2.058,2.7421 0.633,0.9336 1.211,1.8907 1.739,2.8633 0.527,0.9688 1.004,1.9649 1.429,2.9727 0.426,1.0039 0.801,2.0351 1.129,3.0781 0.332,1.043 0.614,2.1016 0.848,3.1797 0.23,1.0742 0.422,2.168 0.566,3.2773 0.258,2.0196 0.227,3.6719 0.024,5.6758 -0.078,0.7461 -0.153,1.4688 -0.238,2.1797 -0.082,0.707 -0.184,1.4063 -0.317,2.0938 -0.137,0.6875 -0.305,1.371 -0.535,2.0546 -1.363,5.9101 -4.547,10.9101 -9.09,15.4611 -1.367,1.363 -2.73,2.726 -4.547,3.637 -9.59,7.664 -29.914,8.179 -41.379,8.179" /><path
         id="path18"
         style="fill:#1770c1;fill-opacity:1;fill-rule:evenodd;stroke:none"
         d="M 90.2734,127.238 H 8.88672 V 3.11328 H 61.1758 V 46.7617 l 20.0039,0.4571 -1.3633,26.3671 -21.3711,-0.4531 v 26.3711 h 13.6406 c 7.2774,0 12.2774,-0.9101 15.9141,-3.1836 3.1836,-1.8164 4.5508,-5 4.5508,-9.5469 0,-6.8203 -4.0938,-11.3671 -12.7344,-13.1875 L 81.1797,47.2188 94.8242,3.11328 H 149.383 L 123.922,59.0391 c 3.558,1.0117 7.172,3.6679 9.945,6.0312 2.578,2.1836 4.883,4.7149 6.781,7.5156 1.239,1.836 2.305,3.793 3.168,5.836 0.848,2.0156 1.512,4.1172 1.973,6.2578 0.649,2.9805 0.906,5.8984 0.59,8.9531 -0.219,2.1289 -0.406,4.2852 -1.086,6.3281 -1.363,5.9101 -4.547,10.9101 -9.094,15.4611 -1.363,1.363 -2.726,2.726 -4.547,3.637 -9.586,7.664 -29.914,8.179 -41.3786,8.179" /><path
         id="path20"
         style="fill:#1770c1;fill-opacity:1;fill-rule:evenodd;stroke:none"
         d="M 1023.96,127.758 H 945.777 L 928.184,59.3438 h -0.653 l -18.242,68.4142 h -78.84 V 2.00781 h 45.61 V 101.047 h 1.304 L 904.074,2.00781 h 44.305 l 27.367,99.03919 h 0.652 V 2.00781 h 47.562 V 127.758" /><path
         id="path22"
         style="fill:#1770c1;fill-opacity:1;fill-rule:evenodd;stroke:none"
         d="M 653.223,2.00781 V 127.758 H 600.449 V 2.00781 h 52.774" /><path
         id="path24"
         style="fill:#1770c1;fill-opacity:1;fill-rule:evenodd;stroke:none"
         d="M 582.852,97.7891 V 127.758 H 464.27 V 2.00781 h 53.429 V 46.9648 h 63.199 v 30.625 h -63.199 v 20.1993 h 65.153" /><path
         id="path26"
         style="fill:#1770c1;fill-opacity:1;fill-rule:evenodd;stroke:none"
         d="M 440.164,125.805 C 406.48,129.121 322.23,142.051 322.23,89.3164 c 0,-43.8164 69.399,-29.043 73.625,-50.168 0.497,-18.3007 -59.949,-3.7539 -71.671,-0.6523 V 5.91797 c 24.504,-2.50391 51.066,-7.72656 75.527,-4.88672 23.422,2.71875 49.574,14.01565 49.574,41.37105 -2.316,34.7813 -38.094,35.1563 -63.754,41.2383 -10.293,2.4414 -13.957,12.7422 -1.722,15.543 16.656,3.8204 39.988,-1.5625 56.355,-5.957 v 32.5784" /><path
         id="path28"
         style="fill:#1770c1;fill-opacity:1;fill-rule:evenodd;stroke:none"
         d="m 236.223,130.363 c -24.758,0 -43.657,-5.863 -57.34,-17.59 -13.68,-11.074 -20.195,-27.3628 -20.195,-47.566 0,-20.1953 6.515,-35.8359 20.195,-48.2148 C 192.566,5.91797 211.465,0.703125 236.223,0.0507813 V 30.0234 c -21.754,1.5547 -22.168,25.461 -21.637,42.0469 0.434,13.3281 5.543,27.8047 21.48,27.8633 16.075,0.0784 21.196,-17.4492 21.528,-30.3867 0.418,-15.0274 -1.883,-38.0274 -21.371,-39.5235 V 0.0507813 C 260.328,0.703125 279.227,5.91797 292.91,16.9922 c 13.028,12.3789 20.199,28.0195 20.199,48.2148 0,20.2032 -7.171,36.492 -20.199,47.566 -13.683,11.727 -32.582,17.59 -56.687,17.59" /><path
         id="path30"
         style="fill:#1770c1;fill-opacity:1;fill-rule:evenodd;stroke:none"
         d="M 876.754,659.949 H 585.285 V 215.426 h 187.254 v 156.312 l 71.645,1.629 -4.883,94.442 -76.528,-1.629 v 94.441 h 48.848 c 26.051,0 43.965,-3.254 56.988,-11.394 11.403,-6.512 16.286,-17.914 16.286,-34.196 0,-24.426 -14.653,-40.707 -45.594,-47.222 l 4.883,-94.442 48.851,-157.941 h 195.395 l -91.18,200.277 c 12.75,3.637 25.68,13.145 35.61,21.598 6.13,5.187 11.8,10.918 16.91,17.101 5.16,6.231 9.75,12.953 13.6,20.071 5.62,10.355 9.7,21.539 12.19,33.058 2.32,10.672 3.24,21.129 2.12,32.051 -0.79,7.629 -1.47,15.352 -3.9,22.672 -4.89,21.164 -16.28,39.078 -32.57,55.363 -4.88,4.883 -9.76,9.766 -16.28,13.028 -34.325,27.449 -107.121,29.304 -148.176,29.304" /><path
         id="path32"
         style="fill:#ed1c24;fill-opacity:1;fill-rule:evenodd;stroke:none"
         d="m 1340.57,106.859 h 61.68 l 14.15,20.911 h -75.83 z m 622.6,20.911 c 0,-41.9184 0,-83.8364 0,-125.75437 h 26.29 c 0,34.94917 0,69.89457 0,104.84337 27.22,0 54.43,0 81.65,0 v 20.911 c -35.98,0 -71.96,0 -107.94,0 z M 1664.39,0.429688 h -19.78 c 0,42.449212 0,84.894512 0,127.340312 h 26.29 c -0.22,-33.1255 -0.73,-66.2622 -0.53,-99.3794 0.01,-1.2929 0.83,-0.9804 1.18,-0.457 l 59.19,85.8944 c 2.78,3.871 4.93,7.293 7.28,9.527 2.36,2.247 4.86,3.844 7.43,4.711 2.58,0.872 5.44,1.321 8.6,1.293 v 0.004 h 21.31 c 0,-42.4489 0,-84.8982 0,-127.34737 h -26.29 l 0.71,82.43357 c 0.04,5.2774 0.08,10.4844 0.04,15.8128 -0.01,1.293 -0.82,0.972 -1.18,0.457 -1.93,-2.7932 -3.99,-5.4221 -5.94,-8.1995 l -55.47,-78.9531 c -6.68,-9.16406 -9.14,-13.144525 -22.1,-13.144525 z m -303.5,0 h -20.32 V 90.2148 h 26.29 c -0.24,-20.6367 -0.65,-41.2109 -0.52,-61.8242 0,-1.2929 0.82,-0.9726 1.18,-0.457 l 59.96,85.8824 c 6.47,8.954 10.56,14.993 22.52,14.993 h 0.19 21.11 c 0,-42.2621 0,-84.5238 0,-126.78556 h -26.28 c 0.28,32.71876 0.9,65.53906 0.7,98.23856 -0.01,1.293 -0.82,0.972 -1.18,0.457 C 1423.3,70 1401.59,39.5078 1380.13,8.92969 1374.51,2.29297 1370.6,0.429688 1361.08,0.429688 Z m -299.6,1.585942 h 26.29 V 51.8242 h 42.27 c 57.76,0 64.92,75.9458 -4.79,75.9458 -26.29,0 -37.47,0 -63.77,0 0,-41.9184 0,-83.8364 0,-125.75437 z m 248.73,0 V 22.9258 h -74.48 c -2.07,0 -3.92,0.0742 -5.44,0.3008 -1.52,0.2265 -2.72,0.75 -3.52,1.4922 -0.58,0.5351 -1.12,1.2578 -1.46,2.2265 -0.35,0.9805 -0.53,2.0235 -0.53,3.1524 v 21.7265 h 79.24 v 20.9102 h -79.24 c 0,12.2812 0,21.8437 0,34.1246 28.21,0 56.42,0 84.63,0 v 20.911 c -36.97,0 -73.95,0 -110.92,0 0,-35.0161 0,-70.0278 0,-105.0434 0,-1.8086 0.09,-3.6914 0.3,-5.6055 0.21,-1.9141 0.69,-3.8281 1.42,-5.6445 0.73,-1.80863 1.88,-3.55082 3.46,-5.07816 1.5,-1.45313 3.16,-2.46485 4.84,-3.08594 1.69,-0.62109 3.47,-1.00391 5.32,-1.12891 1.84,-0.1289 3.78,-0.16796 5.77,-0.16796 z m 262.69,0 V 106.859 h 47.16 v 20.911 h -120.41 v -20.911 h 46.96 V 2.01563 Z M 1932.74,127.77 h -26.29 V 72.8867 h -72.49 V 127.77 h -26.28 V 2.01563 h 26.28 V 51.9805 h 72.49 V 2.01563 h 26.29 z M 1087.58,72.7344 h 36.58 c 31.85,0 33.36,34.1246 0.4,34.1246 -17.37,0 -19.61,0 -36.98,0 0,-16.066 0,-18.0621 0,-34.1246" /></g></g></svg>