<?xml version="1.0" standalone="no"?>
<!DOCTYPE svg PUBLIC "-//W3C//DTD SVG 20010904//EN"
 "http://www.w3.org/TR/2001/REC-SVG-20010904/DTD/svg10.dtd">
<svg version="1.0" xmlns="http://www.w3.org/2000/svg"
 width="260.000000pt" height="260.000000pt" viewBox="0 0 260.000000 260.000000"
 preserveAspectRatio="xMidYMid meet">
<metadata>
Created by potrace 1.11, written by Peter Selinger 2001-2013
</metadata>
<g transform="translate(0.000000,260.000000) scale(0.100000,-0.100000)"
fill="#000000" stroke="none">
<path d="M963 2568 c-26 -13 -46 -66 -38 -100 5 -20 -5 -36 -57 -91 -45 -47
-69 -65 -83 -62 -11 2 -29 4 -40 4 -13 1 -25 12 -32 30 -6 16 -22 37 -37 46
-23 15 -33 16 -65 7 -57 -18 -77 -76 -46 -130 15 -26 13 -33 -48 -176 -64
-146 -67 -151 -162 -252 -82 -87 -100 -102 -115 -94 -48 25 -116 -8 -124 -60
-5 -36 21 -80 57 -95 26 -11 33 -22 48 -76 l18 -64 -36 -84 c-29 -67 -42 -85
-64 -93 -33 -11 -59 -48 -59 -81 0 -34 35 -74 70 -82 23 -5 35 -17 49 -48 10
-23 78 -173 150 -334 121 -266 132 -294 123 -325 -22 -79 47 -140 119 -104 30
15 40 13 411 -94 209 -61 381 -110 384 -110 2 0 4 -9 4 -20 0 -27 47 -70 76
-70 49 0 94 39 94 83 0 7 62 39 138 71 156 68 220 96 310 137 68 31 87 35 97
19 3 -5 22 -10 41 -10 49 0 87 39 83 84 -3 33 9 59 51 106 12 14 33 40 48 57
20 26 33 33 62 33 68 0 106 57 80 120 -13 32 -66 56 -100 45 -17 -5 -67 19
-90 45 -3 3 -25 19 -50 35 -25 16 -47 32 -50 35 -3 3 -67 49 -142 103 -125 89
-138 101 -138 128 0 46 -47 89 -91 84 -50 -6 -83 -48 -76 -96 5 -35 1 -42 -41
-85 -104 -104 -259 -144 -397 -103 -34 10 -47 20 -54 40 -12 36 -52 61 -89 58
-36 -4 -76 33 -120 112 -39 70 -55 129 -53 204 2 95 10 122 37 129 32 8 56 58
49 100 -6 29 -2 38 39 78 47 47 106 85 167 107 44 16 189 27 189 14 0 -39 80
-75 119 -54 25 14 47 4 98 -42 26 -24 33 -38 33 -68 0 -50 48 -94 94 -85 41 8
78 51 74 85 -3 29 11 44 112 131 93 79 171 148 252 222 31 28 45 35 58 28 34
-18 84 3 104 44 30 64 -12 121 -86 118 -24 -1 -45 5 -56 16 -10 9 -53 44 -96
77 -43 33 -86 67 -96 75 -10 8 -52 42 -93 75 -70 56 -74 62 -70 92 5 26 0 38
-25 63 -41 41 -82 41 -119 -1 l-28 -31 -155 6 c-85 3 -229 9 -320 12 -91 4
-167 11 -169 16 -1 5 -14 20 -27 34 -27 26 -63 30 -101 12z m532 -114 c110 -4
208 -7 217 -6 39 2 22 -16 -63 -67 l-90 -54 -212 70 -212 71 80 -3 c44 -2 170
-7 280 -11z m-187 -89 c111 -37 202 -68 202 -69 0 -2 -27 -20 -61 -41 -58 -35
-62 -37 -122 -30 -34 4 -71 11 -83 15 -12 5 -50 46 -84 92 -35 46 -67 85 -72
86 -13 6 -9 22 5 17 6 -2 103 -33 215 -70z m-205 -29 c31 -41 54 -76 50 -79
-5 -2 -42 3 -84 11 l-77 14 9 41 c5 23 11 52 14 65 9 37 28 26 88 -52z m636 0
c-24 -62 -25 -62 -95 -36 -27 11 -27 11 42 54 38 24 70 42 72 41 1 -1 -7 -28
-19 -59z m228 -16 c48 -38 95 -76 103 -83 8 -7 45 -37 83 -66 37 -29 67 -55
67 -57 0 -3 -3 -3 -7 -1 -5 2 -89 30 -188 62 -99 32 -182 59 -184 61 -6 5 -1
136 5 146 11 18 36 5 121 -62z m-1050 18 c-8 -21 -22 -34 -35 -36 -12 -2 -22
-1 -22 3 0 6 61 65 67 65 2 0 -3 -15 -10 -32z m880 -23 c-2 -30 -6 -55 -10
-56 -26 -2 -28 10 -11 59 10 29 20 52 21 52 1 0 1 -25 0 -55z m-846 -18 c-10
-9 -11 -8 -5 6 3 10 9 15 12 12 3 -3 0 -11 -7 -18z m-202 -43 c-13 -15 -34
-37 -46 -49 l-21 -22 -5 31 c-6 38 22 65 67 66 l29 0 -24 -26z m904 -1 c38
-12 47 -19 41 -32 -3 -9 -9 -24 -11 -33 -6 -22 -2 -22 -115 -2 -51 9 -99 17
-105 17 -17 0 -15 2 48 42 35 22 61 32 74 29 11 -4 42 -13 68 -21z m-805 -96
c-22 -56 -58 -151 -80 -210 -22 -59 -42 -106 -43 -105 -2 2 -6 33 -9 70 -4 37
-8 75 -10 85 -2 10 -7 44 -11 75 -6 51 -5 59 16 81 13 13 43 44 65 69 37 39
46 44 77 40 l35 -4 -40 -101z m89 51 c-4 -24 -8 -52 -11 -63 -2 -11 -14 -71
-27 -133 l-22 -114 -51 -34 c-27 -18 -51 -32 -53 -30 -3 2 82 227 148 394 14
36 22 25 16 -20z m138 16 c28 -5 53 -9 58 -10 4 -1 20 -2 36 -3 21 -1 38 -12
59 -39 l30 -37 -136 -85 c-75 -47 -150 -95 -168 -106 l-31 -22 8 37 c4 20 10
47 12 61 22 119 39 206 44 213 2 4 12 6 21 3 10 -3 40 -8 67 -12z m699 -10
c10 -4 16 -18 16 -36 0 -29 -2 -30 -32 -24 -41 8 -43 11 -30 41 12 26 20 29
46 19z m-450 -33 c10 -15 -33 -20 -45 -5 -9 11 -7 14 14 14 14 0 28 -4 31 -9z
m647 -32 c71 -23 129 -43 129 -45 0 -4 -51 2 -125 16 -80 16 -99 18 -122 19
-18 1 -22 6 -21 26 1 14 4 25 6 25 2 0 62 -18 133 -41z m-1369 -15 c-3 -24
-16 -49 -39 -73 l-34 -36 32 73 c18 39 35 72 38 72 4 0 5 -16 3 -36z m963 10
c49 -8 90 -16 91 -17 3 -3 -67 -182 -74 -189 -4 -4 -29 -10 -57 -13 l-50 -7
-78 103 -78 103 38 23 c41 25 42 25 208 -3z m212 -34 c10 0 13 -15 11 -70 -1
-38 -5 -70 -8 -70 -3 0 -37 -6 -77 -14 -71 -13 -71 -13 -63 8 4 11 17 44 27
71 11 28 23 58 27 69 5 15 13 17 37 12 18 -3 38 -6 46 -6z m-424 -102 c38 -50
65 -94 60 -98 -4 -4 -44 -13 -88 -20 -44 -7 -89 -14 -100 -16 -11 -2 -76 -12
-145 -24 -69 -11 -135 -23 -147 -25 -19 -4 -23 -1 -23 18 0 23 62 67 264 190
11 7 38 24 60 39 23 15 43 27 46 27 3 0 36 -41 73 -91z m552 82 c33 -6 76 -13
95 -16 19 -3 42 -7 50 -9 8 -2 38 -7 65 -11 75 -9 77 -18 5 -28 -25 -3 -97
-15 -160 -26 -63 -11 -118 -20 -122 -20 -5 0 -8 27 -8 60 0 33 3 60 8 60 4 0
34 -5 67 -10z m-1241 -96 c3 -27 8 -73 12 -102 5 -45 3 -55 -13 -70 -11 -9
-23 -24 -26 -32 -4 -8 -5 28 -2 80 2 52 4 122 5 155 1 69 14 52 24 -31z m-68
-32 c-3 -37 -6 -99 -7 -138 l-2 -71 -90 -21 c-50 -12 -93 -20 -95 -18 -2 3 15
48 39 102 32 72 57 113 97 156 30 32 57 58 59 58 2 0 2 -30 -1 -68z m1649 27
c-3 -8 -20 -24 -38 -37 -17 -12 -50 -38 -72 -58 -22 -20 -71 -64 -109 -98 -38
-33 -74 -65 -80 -71 -57 -52 -90 -75 -107 -75 -20 0 -21 4 -17 143 l3 142 210
35 c115 20 211 35 213 34 1 0 0 -7 -3 -15z m-465 -151 c-1 -46 -2 -102 -2
-125 0 -24 -2 -43 -4 -43 -2 0 -20 15 -40 34 -20 19 -50 42 -68 51 -44 24 -75
81 -62 117 8 24 17 28 80 38 39 6 76 13 81 14 17 5 18 0 15 -86z m-220 31
c-12 -21 -40 -23 -47 -2 -4 10 14 19 45 22 10 1 10 -4 2 -20z m-92 -11 c23
-23 12 -28 -56 -28 -136 0 -261 -52 -362 -151 -33 -32 -60 -64 -60 -70 0 -7
-3 -10 -6 -6 -3 3 -17 2 -29 -3 -19 -7 -30 -3 -54 18 l-31 27 11 60 c7 33 15
63 18 67 5 5 122 27 236 43 22 4 47 8 55 10 8 3 31 7 50 10 19 3 69 12 110 19
97 18 104 18 118 4z m-604 -32 c-3 -8 -15 -16 -27 -19 -21 -6 -21 -6 2 14 28
23 32 24 25 5z m-493 -68 c-21 -47 -35 -64 -54 -69 -25 -7 -37 -3 -37 12 0 7
109 119 115 119 2 0 -9 -28 -24 -62z m474 -30 c-4 -24 -8 -44 -10 -46 -2 -2
-12 6 -23 18 -30 32 -17 62 31 69 4 0 5 -18 2 -41z m-262 -59 c-3 -10 -51 -66
-107 -124 l-102 -107 -27 41 c-15 22 -27 45 -27 50 0 5 12 37 26 69 28 66 24
63 169 96 63 14 76 9 68 -25z m221 -18 c14 -13 23 -27 21 -31 -2 -4 -7 -22
-10 -41 -3 -19 -19 -101 -35 -184 -16 -82 -31 -161 -34 -175 -44 -232 -51
-260 -62 -260 -7 0 -29 27 -49 60 l-36 59 6 158 c4 87 8 185 10 218 2 33 4 85
4 117 1 82 25 106 102 104 46 -1 63 -7 83 -25z m-496 -37 c-17 -40 -17 -40
-32 -18 -16 22 -12 32 18 44 28 10 29 8 14 -26z m596 -95 c8 -55 8 -56 0 -163
-11 -147 34 -283 126 -378 25 -26 45 -50 43 -52 -2 -2 1 -15 6 -29 15 -39 -6
-51 -76 -43 -32 3 -91 9 -130 12 -62 6 -73 10 -73 25 0 11 -13 32 -30 47 -23
23 -28 35 -24 58 4 26 97 513 110 576 5 26 6 26 23 9 10 -10 21 -38 25 -62z
m-329 -11 c-2 -40 -7 -136 -10 -212 -3 -77 -7 -141 -9 -144 -2 -2 -28 36 -57
85 -29 48 -64 103 -76 122 -13 19 -22 39 -20 44 4 13 161 175 170 176 4 1 5
-32 2 -71z m-254 -64 l22 -36 -21 -20 -20 -21 -9 44 c-8 39 -7 69 2 69 2 0 13
-16 26 -36z m-58 -84 c5 -19 -1 -33 -23 -59 -17 -18 -30 -30 -30 -25 0 10 43
115 45 111 1 -1 5 -13 8 -27z m247 -220 c43 -69 56 -117 37 -136 -3 -4 -23 4
-44 17 -69 43 -78 49 -93 54 -25 10 -36 35 -66 144 l-27 102 23 24 24 25 49
-77 c28 -43 71 -112 97 -153z m-207 74 c10 -37 16 -68 14 -70 -2 -3 -18 3 -35
13 -36 21 -47 72 -23 103 9 11 18 20 21 20 3 0 14 -30 23 -66z m-21 -106 c29
-17 55 -33 56 -34 6 -4 142 -508 138 -511 -2 -2 -13 18 -24 44 -11 26 -39 89
-62 138 -23 50 -47 104 -55 120 -7 17 -28 62 -45 100 -65 140 -78 175 -65 175
3 0 28 -14 57 -32z m231 -141 l38 -22 -6 -125 c-12 -236 -14 -262 -19 -268 -3
-3 -6 1 -6 10 0 8 -28 119 -63 246 l-63 231 40 -25 c23 -14 58 -35 79 -47z
m1603 -102 c61 -44 121 -87 134 -95 45 -30 70 -52 70 -60 0 -5 -6 -8 -12 -5
-7 2 -42 6 -78 10 -127 11 -210 22 -216 27 -1 2 -28 59 -58 128 -31 69 -61
133 -67 143 -11 20 52 -21 227 -148z m-156 -115 c0 -8 -197 14 -205 22 -2 2
14 53 36 113 22 61 42 117 45 125 4 11 124 -240 124 -260z m-1342 220 c7 -11
9 -20 4 -20 -10 0 -32 22 -32 32 0 15 15 8 28 -12z m1135 -67 c-14 -38 -30
-83 -36 -101 -7 -22 -15 -31 -26 -28 -9 3 -47 8 -86 11 -38 3 -88 9 -110 12
l-40 6 59 14 c72 16 159 62 217 113 24 22 45 40 46 40 1 0 -10 -30 -24 -67z
m-1139 1 c9 -3 16 -15 16 -26 0 -22 18 -60 33 -70 6 -4 -8 -59 -38 -145 -26
-76 -49 -140 -51 -142 -2 -3 -2 36 1 85 9 136 13 215 14 262 1 45 1 45 25 36z
m641 -74 c25 -11 -1 -11 -35 0 -20 6 -21 8 -5 8 11 0 29 -3 40 -8z m-247 -25
c13 -13 -28 -13 -68 0 l-45 15 54 -5 c30 -3 56 -7 59 -10z m-203 -61 c30 -31
55 -59 55 -63 0 -3 -33 -35 -74 -70 -41 -35 -92 -79 -113 -98 -48 -43 -78 -61
-71 -42 3 8 29 82 58 166 35 101 58 153 69 156 9 3 17 5 18 6 1 0 27 -24 58
-55z m90 30 c30 -8 55 -18 55 -22 0 -4 -13 -14 -28 -23 -28 -16 -29 -16 -72
29 -24 25 -36 42 -26 39 9 -4 41 -14 71 -23z m284 9 c4 -4 13 -21 19 -37 10
-23 10 -27 0 -24 -7 3 -45 16 -85 29 -60 19 -70 25 -61 37 9 10 27 13 66 9 30
-3 57 -9 61 -14z m126 -7 c39 -4 80 -8 90 -10 11 -2 54 -7 95 -12 41 -4 80 -8
85 -9 6 -1 28 -3 50 -4 65 -2 68 -8 39 -85 -20 -51 -31 -67 -43 -63 -9 2 -93
28 -187 57 l-171 53 -22 44 c-12 24 -18 42 -14 40 5 -3 40 -8 78 -11z m-181
-74 l108 -37 29 -74 c16 -41 27 -76 26 -77 -3 -3 -61 -12 -122 -20 l-51 -6
-59 62 c-33 34 -74 77 -92 94 -17 18 -28 37 -25 42 10 13 63 54 71 53 3 0 55
-17 115 -37z m731 12 c39 -3 77 -8 85 -9 8 -2 22 -4 32 -4 14 -1 44 -58 34
-68 -5 -6 -317 -55 -321 -51 -2 2 8 36 22 76 24 67 27 72 52 68 14 -3 58 -8
96 -12z m250 -29 c68 -7 118 -15 122 -19 2 -2 -36 -8 -83 -15 -47 -7 -87 -11
-88 -9 -11 17 -24 58 -18 55 4 -3 34 -8 67 -12z m-1122 -120 c73 -74 82 -86
63 -90 -23 -5 -118 -21 -181 -31 -22 -3 -84 -14 -137 -23 -54 -10 -98 -14 -98
-10 0 3 22 26 49 50 85 77 214 189 217 189 1 0 40 -38 87 -85z m459 40 c71
-21 126 -40 125 -42 -2 -2 -28 -8 -58 -13 -30 -6 -63 -12 -74 -14 -102 -19
-102 -19 -113 11 -5 15 -18 45 -27 67 -16 37 -16 38 2 34 10 -3 75 -22 145
-43z m820 18 c-7 -3 -43 -25 -80 -49 -37 -24 -70 -44 -73 -44 -4 0 -9 8 -12
18 -2 9 -8 24 -11 33 -7 17 -1 19 99 35 22 3 42 8 44 10 2 2 14 4 25 3 12 0
15 -3 8 -6z m24 -45 c-9 -13 -26 -37 -39 -55 -29 -43 -55 -55 -92 -45 l-30 9
85 55 c47 31 87 57 89 57 2 1 -4 -9 -13 -21z m-238 -15 c5 -16 13 -36 17 -45
5 -12 -2 -21 -23 -32 -32 -16 -29 -17 -237 48 l-40 13 75 12 c41 8 93 17 115
21 72 14 82 12 93 -17z m-231 -75 c79 -24 142 -46 140 -50 -2 -9 -420 -276
-425 -272 -2 1 17 58 41 126 75 204 88 238 95 238 4 0 71 -19 149 -42z m-207
27 c0 -22 -125 -335 -132 -333 -18 6 -127 292 -115 299 7 4 50 12 96 18 46 6
86 13 88 14 5 5 63 7 63 2z m-240 -193 c43 -107 52 -138 37 -125 -54 48 -247
246 -243 250 7 7 98 21 124 20 21 -2 31 -21 82 -145z m-118 -32 c81 -82 145
-150 143 -150 -2 0 -145 41 -317 91 -304 89 -358 104 -405 116 -13 3 -23 9
-23 12 0 6 386 76 440 80 8 1 81 -66 162 -149z m804 122 c27 -17 -5 -49 -83
-81 -43 -18 -96 -41 -118 -51 -121 -55 -178 -80 -171 -73 19 20 333 212 346
212 8 0 20 -3 26 -7z"/>
</g>
</svg>
